%TF.GenerationSoftware,KiCad,Pcbnew,7.0.9*%
%TF.CreationDate,2024-02-19T09:25:44+08:00*%
%TF.ProjectId,ascend,61736365-6e64-42e6-9b69-6361645f7063,v1.2*%
%TF.SameCoordinates,Original*%
%TF.FileFunction,Legend,Top*%
%TF.FilePolarity,Positive*%
%FSLAX46Y46*%
G04 Gerber Fmt 4.6, Leading zero omitted, Abs format (unit mm)*
G04 Created by KiCad (PCBNEW 7.0.9) date 2024-02-19 09:25:44*
%MOMM*%
%LPD*%
G01*
G04 APERTURE LIST*
%ADD10C,0.150000*%
%ADD11C,0.125000*%
%ADD12C,0.120000*%
%ADD13C,0.100000*%
%ADD14C,1.397000*%
G04 APERTURE END LIST*
D10*
X216320885Y-109607770D02*
X216320885Y-119132770D01*
X222220885Y-161995270D02*
X222220885Y-152470270D01*
X222220885Y-109607770D02*
X222220885Y-119132770D01*
X216320885Y-153077257D02*
X216320885Y-162602257D01*
X284561290Y-161984093D02*
X284713578Y-161989411D01*
X284713578Y-161989411D02*
X284788393Y-162030142D01*
X284788393Y-162030142D02*
X284861878Y-162108945D01*
X284861878Y-162108945D02*
X284894632Y-162262563D01*
X284894632Y-162262563D02*
X284885326Y-162529067D01*
X284885326Y-162529067D02*
X284841935Y-162680026D01*
X284841935Y-162680026D02*
X284763132Y-162753511D01*
X284763132Y-162753511D02*
X284685659Y-162788924D01*
X284685659Y-162788924D02*
X284533371Y-162783606D01*
X284533371Y-162783606D02*
X284458556Y-162742875D01*
X284458556Y-162742875D02*
X284385071Y-162664072D01*
X284385071Y-162664072D02*
X284352317Y-162510454D01*
X284352317Y-162510454D02*
X284361624Y-162243950D01*
X284361624Y-162243950D02*
X284405014Y-162092991D01*
X284405014Y-162092991D02*
X284483817Y-162019506D01*
X284483817Y-162019506D02*
X284561290Y-161984093D01*
X285499796Y-162398051D02*
X285233292Y-162388744D01*
X285218667Y-162807537D02*
X285246587Y-162008024D01*
X285246587Y-162008024D02*
X285627307Y-162021319D01*
X286185092Y-162421982D02*
X285918588Y-162412675D01*
X285903963Y-162831468D02*
X285931883Y-162031955D01*
X285931883Y-162031955D02*
X286312603Y-162045250D01*
X270809092Y-173007076D02*
X270475759Y-172530885D01*
X270237664Y-173007076D02*
X270237664Y-172007076D01*
X270237664Y-172007076D02*
X270618616Y-172007076D01*
X270618616Y-172007076D02*
X270713854Y-172054695D01*
X270713854Y-172054695D02*
X270761473Y-172102314D01*
X270761473Y-172102314D02*
X270809092Y-172197552D01*
X270809092Y-172197552D02*
X270809092Y-172340409D01*
X270809092Y-172340409D02*
X270761473Y-172435647D01*
X270761473Y-172435647D02*
X270713854Y-172483266D01*
X270713854Y-172483266D02*
X270618616Y-172530885D01*
X270618616Y-172530885D02*
X270237664Y-172530885D01*
X271618616Y-172959457D02*
X271523378Y-173007076D01*
X271523378Y-173007076D02*
X271332902Y-173007076D01*
X271332902Y-173007076D02*
X271237664Y-172959457D01*
X271237664Y-172959457D02*
X271190045Y-172864218D01*
X271190045Y-172864218D02*
X271190045Y-172483266D01*
X271190045Y-172483266D02*
X271237664Y-172388028D01*
X271237664Y-172388028D02*
X271332902Y-172340409D01*
X271332902Y-172340409D02*
X271523378Y-172340409D01*
X271523378Y-172340409D02*
X271618616Y-172388028D01*
X271618616Y-172388028D02*
X271666235Y-172483266D01*
X271666235Y-172483266D02*
X271666235Y-172578504D01*
X271666235Y-172578504D02*
X271190045Y-172673742D01*
X272523378Y-173007076D02*
X272523378Y-172007076D01*
X272523378Y-172959457D02*
X272428140Y-173007076D01*
X272428140Y-173007076D02*
X272237664Y-173007076D01*
X272237664Y-173007076D02*
X272142426Y-172959457D01*
X272142426Y-172959457D02*
X272094807Y-172911837D01*
X272094807Y-172911837D02*
X272047188Y-172816599D01*
X272047188Y-172816599D02*
X272047188Y-172530885D01*
X272047188Y-172530885D02*
X272094807Y-172435647D01*
X272094807Y-172435647D02*
X272142426Y-172388028D01*
X272142426Y-172388028D02*
X272237664Y-172340409D01*
X272237664Y-172340409D02*
X272428140Y-172340409D01*
X272428140Y-172340409D02*
X272523378Y-172388028D01*
X273761474Y-172626123D02*
X274523379Y-172626123D01*
X274142426Y-173007076D02*
X274142426Y-172245171D01*
X270570997Y-162005766D02*
X270713854Y-162053385D01*
X270713854Y-162053385D02*
X270761473Y-162101004D01*
X270761473Y-162101004D02*
X270809092Y-162196242D01*
X270809092Y-162196242D02*
X270809092Y-162339099D01*
X270809092Y-162339099D02*
X270761473Y-162434337D01*
X270761473Y-162434337D02*
X270713854Y-162481957D01*
X270713854Y-162481957D02*
X270618616Y-162529576D01*
X270618616Y-162529576D02*
X270237664Y-162529576D01*
X270237664Y-162529576D02*
X270237664Y-161529576D01*
X270237664Y-161529576D02*
X270570997Y-161529576D01*
X270570997Y-161529576D02*
X270666235Y-161577195D01*
X270666235Y-161577195D02*
X270713854Y-161624814D01*
X270713854Y-161624814D02*
X270761473Y-161720052D01*
X270761473Y-161720052D02*
X270761473Y-161815290D01*
X270761473Y-161815290D02*
X270713854Y-161910528D01*
X270713854Y-161910528D02*
X270666235Y-161958147D01*
X270666235Y-161958147D02*
X270570997Y-162005766D01*
X270570997Y-162005766D02*
X270237664Y-162005766D01*
X271380521Y-162529576D02*
X271285283Y-162481957D01*
X271285283Y-162481957D02*
X271237664Y-162386718D01*
X271237664Y-162386718D02*
X271237664Y-161529576D01*
X272190045Y-162529576D02*
X272190045Y-162005766D01*
X272190045Y-162005766D02*
X272142426Y-161910528D01*
X272142426Y-161910528D02*
X272047188Y-161862909D01*
X272047188Y-161862909D02*
X271856712Y-161862909D01*
X271856712Y-161862909D02*
X271761474Y-161910528D01*
X272190045Y-162481957D02*
X272094807Y-162529576D01*
X272094807Y-162529576D02*
X271856712Y-162529576D01*
X271856712Y-162529576D02*
X271761474Y-162481957D01*
X271761474Y-162481957D02*
X271713855Y-162386718D01*
X271713855Y-162386718D02*
X271713855Y-162291480D01*
X271713855Y-162291480D02*
X271761474Y-162196242D01*
X271761474Y-162196242D02*
X271856712Y-162148623D01*
X271856712Y-162148623D02*
X272094807Y-162148623D01*
X272094807Y-162148623D02*
X272190045Y-162101004D01*
X273094807Y-162481957D02*
X272999569Y-162529576D01*
X272999569Y-162529576D02*
X272809093Y-162529576D01*
X272809093Y-162529576D02*
X272713855Y-162481957D01*
X272713855Y-162481957D02*
X272666236Y-162434337D01*
X272666236Y-162434337D02*
X272618617Y-162339099D01*
X272618617Y-162339099D02*
X272618617Y-162053385D01*
X272618617Y-162053385D02*
X272666236Y-161958147D01*
X272666236Y-161958147D02*
X272713855Y-161910528D01*
X272713855Y-161910528D02*
X272809093Y-161862909D01*
X272809093Y-161862909D02*
X272999569Y-161862909D01*
X272999569Y-161862909D02*
X273094807Y-161910528D01*
X273523379Y-162529576D02*
X273523379Y-161529576D01*
X273618617Y-162148623D02*
X273904331Y-162529576D01*
X273904331Y-161862909D02*
X273523379Y-162243861D01*
X275094808Y-162148623D02*
X275856713Y-162148623D01*
X163790997Y-172383266D02*
X163933854Y-172430885D01*
X163933854Y-172430885D02*
X163981473Y-172478504D01*
X163981473Y-172478504D02*
X164029092Y-172573742D01*
X164029092Y-172573742D02*
X164029092Y-172716599D01*
X164029092Y-172716599D02*
X163981473Y-172811837D01*
X163981473Y-172811837D02*
X163933854Y-172859457D01*
X163933854Y-172859457D02*
X163838616Y-172907076D01*
X163838616Y-172907076D02*
X163457664Y-172907076D01*
X163457664Y-172907076D02*
X163457664Y-171907076D01*
X163457664Y-171907076D02*
X163790997Y-171907076D01*
X163790997Y-171907076D02*
X163886235Y-171954695D01*
X163886235Y-171954695D02*
X163933854Y-172002314D01*
X163933854Y-172002314D02*
X163981473Y-172097552D01*
X163981473Y-172097552D02*
X163981473Y-172192790D01*
X163981473Y-172192790D02*
X163933854Y-172288028D01*
X163933854Y-172288028D02*
X163886235Y-172335647D01*
X163886235Y-172335647D02*
X163790997Y-172383266D01*
X163790997Y-172383266D02*
X163457664Y-172383266D01*
X164600521Y-172907076D02*
X164505283Y-172859457D01*
X164505283Y-172859457D02*
X164457664Y-172764218D01*
X164457664Y-172764218D02*
X164457664Y-171907076D01*
X165410045Y-172907076D02*
X165410045Y-172383266D01*
X165410045Y-172383266D02*
X165362426Y-172288028D01*
X165362426Y-172288028D02*
X165267188Y-172240409D01*
X165267188Y-172240409D02*
X165076712Y-172240409D01*
X165076712Y-172240409D02*
X164981474Y-172288028D01*
X165410045Y-172859457D02*
X165314807Y-172907076D01*
X165314807Y-172907076D02*
X165076712Y-172907076D01*
X165076712Y-172907076D02*
X164981474Y-172859457D01*
X164981474Y-172859457D02*
X164933855Y-172764218D01*
X164933855Y-172764218D02*
X164933855Y-172668980D01*
X164933855Y-172668980D02*
X164981474Y-172573742D01*
X164981474Y-172573742D02*
X165076712Y-172526123D01*
X165076712Y-172526123D02*
X165314807Y-172526123D01*
X165314807Y-172526123D02*
X165410045Y-172478504D01*
X166314807Y-172859457D02*
X166219569Y-172907076D01*
X166219569Y-172907076D02*
X166029093Y-172907076D01*
X166029093Y-172907076D02*
X165933855Y-172859457D01*
X165933855Y-172859457D02*
X165886236Y-172811837D01*
X165886236Y-172811837D02*
X165838617Y-172716599D01*
X165838617Y-172716599D02*
X165838617Y-172430885D01*
X165838617Y-172430885D02*
X165886236Y-172335647D01*
X165886236Y-172335647D02*
X165933855Y-172288028D01*
X165933855Y-172288028D02*
X166029093Y-172240409D01*
X166029093Y-172240409D02*
X166219569Y-172240409D01*
X166219569Y-172240409D02*
X166314807Y-172288028D01*
X166743379Y-172907076D02*
X166743379Y-171907076D01*
X166838617Y-172526123D02*
X167124331Y-172907076D01*
X167124331Y-172240409D02*
X166743379Y-172621361D01*
X168314808Y-172526123D02*
X169076713Y-172526123D01*
X298153006Y-162458725D02*
X298305294Y-162464043D01*
X298305294Y-162464043D02*
X298380109Y-162504774D01*
X298380109Y-162504774D02*
X298453594Y-162583577D01*
X298453594Y-162583577D02*
X298486348Y-162737195D01*
X298486348Y-162737195D02*
X298477042Y-163003699D01*
X298477042Y-163003699D02*
X298433651Y-163154658D01*
X298433651Y-163154658D02*
X298354848Y-163228143D01*
X298354848Y-163228143D02*
X298277375Y-163263556D01*
X298277375Y-163263556D02*
X298125087Y-163258238D01*
X298125087Y-163258238D02*
X298050272Y-163217507D01*
X298050272Y-163217507D02*
X297976787Y-163138704D01*
X297976787Y-163138704D02*
X297944033Y-162985086D01*
X297944033Y-162985086D02*
X297953340Y-162718582D01*
X297953340Y-162718582D02*
X297996730Y-162567623D01*
X297996730Y-162567623D02*
X298075533Y-162494138D01*
X298075533Y-162494138D02*
X298153006Y-162458725D01*
X298810383Y-163282169D02*
X298838303Y-162482656D01*
X298838303Y-162482656D02*
X299267247Y-163298123D01*
X299267247Y-163298123D02*
X299295167Y-162498610D01*
X164029092Y-162429576D02*
X163695759Y-161953385D01*
X163457664Y-162429576D02*
X163457664Y-161429576D01*
X163457664Y-161429576D02*
X163838616Y-161429576D01*
X163838616Y-161429576D02*
X163933854Y-161477195D01*
X163933854Y-161477195D02*
X163981473Y-161524814D01*
X163981473Y-161524814D02*
X164029092Y-161620052D01*
X164029092Y-161620052D02*
X164029092Y-161762909D01*
X164029092Y-161762909D02*
X163981473Y-161858147D01*
X163981473Y-161858147D02*
X163933854Y-161905766D01*
X163933854Y-161905766D02*
X163838616Y-161953385D01*
X163838616Y-161953385D02*
X163457664Y-161953385D01*
X164838616Y-162381957D02*
X164743378Y-162429576D01*
X164743378Y-162429576D02*
X164552902Y-162429576D01*
X164552902Y-162429576D02*
X164457664Y-162381957D01*
X164457664Y-162381957D02*
X164410045Y-162286718D01*
X164410045Y-162286718D02*
X164410045Y-161905766D01*
X164410045Y-161905766D02*
X164457664Y-161810528D01*
X164457664Y-161810528D02*
X164552902Y-161762909D01*
X164552902Y-161762909D02*
X164743378Y-161762909D01*
X164743378Y-161762909D02*
X164838616Y-161810528D01*
X164838616Y-161810528D02*
X164886235Y-161905766D01*
X164886235Y-161905766D02*
X164886235Y-162001004D01*
X164886235Y-162001004D02*
X164410045Y-162096242D01*
X165743378Y-162429576D02*
X165743378Y-161429576D01*
X165743378Y-162381957D02*
X165648140Y-162429576D01*
X165648140Y-162429576D02*
X165457664Y-162429576D01*
X165457664Y-162429576D02*
X165362426Y-162381957D01*
X165362426Y-162381957D02*
X165314807Y-162334337D01*
X165314807Y-162334337D02*
X165267188Y-162239099D01*
X165267188Y-162239099D02*
X165267188Y-161953385D01*
X165267188Y-161953385D02*
X165314807Y-161858147D01*
X165314807Y-161858147D02*
X165362426Y-161810528D01*
X165362426Y-161810528D02*
X165457664Y-161762909D01*
X165457664Y-161762909D02*
X165648140Y-161762909D01*
X165648140Y-161762909D02*
X165743378Y-161810528D01*
X166981474Y-162048623D02*
X167743379Y-162048623D01*
X167362426Y-162429576D02*
X167362426Y-161667671D01*
X139484676Y-162597983D02*
X139636964Y-162592665D01*
X139636964Y-162592665D02*
X139714438Y-162628078D01*
X139714438Y-162628078D02*
X139793241Y-162701563D01*
X139793241Y-162701563D02*
X139836631Y-162852522D01*
X139836631Y-162852522D02*
X139845937Y-163119026D01*
X139845937Y-163119026D02*
X139813183Y-163272643D01*
X139813183Y-163272643D02*
X139739698Y-163351447D01*
X139739698Y-163351447D02*
X139664884Y-163392178D01*
X139664884Y-163392178D02*
X139512596Y-163397496D01*
X139512596Y-163397496D02*
X139435122Y-163362083D01*
X139435122Y-163362083D02*
X139356319Y-163288597D01*
X139356319Y-163288597D02*
X139312929Y-163137639D01*
X139312929Y-163137639D02*
X139303622Y-162871135D01*
X139303622Y-162871135D02*
X139336376Y-162717517D01*
X139336376Y-162717517D02*
X139409861Y-162638714D01*
X139409861Y-162638714D02*
X139484676Y-162597983D01*
X140197892Y-163373564D02*
X140169972Y-162574052D01*
X140169972Y-162574052D02*
X140654756Y-163357610D01*
X140654756Y-163357610D02*
X140626837Y-162558098D01*
X152514676Y-161937983D02*
X152666964Y-161932665D01*
X152666964Y-161932665D02*
X152744438Y-161968078D01*
X152744438Y-161968078D02*
X152823241Y-162041563D01*
X152823241Y-162041563D02*
X152866631Y-162192522D01*
X152866631Y-162192522D02*
X152875937Y-162459026D01*
X152875937Y-162459026D02*
X152843183Y-162612643D01*
X152843183Y-162612643D02*
X152769698Y-162691447D01*
X152769698Y-162691447D02*
X152694884Y-162732178D01*
X152694884Y-162732178D02*
X152542596Y-162737496D01*
X152542596Y-162737496D02*
X152465122Y-162702083D01*
X152465122Y-162702083D02*
X152386319Y-162628597D01*
X152386319Y-162628597D02*
X152342929Y-162477639D01*
X152342929Y-162477639D02*
X152333622Y-162211135D01*
X152333622Y-162211135D02*
X152366376Y-162057517D01*
X152366376Y-162057517D02*
X152439861Y-161978714D01*
X152439861Y-161978714D02*
X152514676Y-161937983D01*
X153479772Y-162285466D02*
X153213267Y-162294772D01*
X153227892Y-162713564D02*
X153199972Y-161914052D01*
X153199972Y-161914052D02*
X153580693Y-161900757D01*
X154165068Y-162261535D02*
X153898564Y-162270841D01*
X153913188Y-162689633D02*
X153885269Y-161890121D01*
X153885269Y-161890121D02*
X154265989Y-161876826D01*
D11*
X228058266Y-132287721D02*
X227675409Y-132287721D01*
X227866837Y-132287721D02*
X227866837Y-131537721D01*
X227866837Y-131537721D02*
X227803028Y-131644864D01*
X227803028Y-131644864D02*
X227739218Y-131716292D01*
X227739218Y-131716292D02*
X227675409Y-131752007D01*
X228632551Y-131787721D02*
X228632551Y-132287721D01*
X228473027Y-131502007D02*
X228313504Y-132037721D01*
X228313504Y-132037721D02*
X228728265Y-132037721D01*
X229462075Y-131502007D02*
X228887789Y-132466292D01*
X229908742Y-131894864D02*
X230004456Y-131930578D01*
X230004456Y-131930578D02*
X230036361Y-131966292D01*
X230036361Y-131966292D02*
X230068265Y-132037721D01*
X230068265Y-132037721D02*
X230068265Y-132144864D01*
X230068265Y-132144864D02*
X230036361Y-132216292D01*
X230036361Y-132216292D02*
X230004456Y-132252007D01*
X230004456Y-132252007D02*
X229940646Y-132287721D01*
X229940646Y-132287721D02*
X229685408Y-132287721D01*
X229685408Y-132287721D02*
X229685408Y-131537721D01*
X229685408Y-131537721D02*
X229908742Y-131537721D01*
X229908742Y-131537721D02*
X229972551Y-131573435D01*
X229972551Y-131573435D02*
X230004456Y-131609149D01*
X230004456Y-131609149D02*
X230036361Y-131680578D01*
X230036361Y-131680578D02*
X230036361Y-131752007D01*
X230036361Y-131752007D02*
X230004456Y-131823435D01*
X230004456Y-131823435D02*
X229972551Y-131859149D01*
X229972551Y-131859149D02*
X229908742Y-131894864D01*
X229908742Y-131894864D02*
X229685408Y-131894864D01*
X230291599Y-131537721D02*
X230706361Y-131537721D01*
X230706361Y-131537721D02*
X230483027Y-131823435D01*
X230483027Y-131823435D02*
X230578742Y-131823435D01*
X230578742Y-131823435D02*
X230642551Y-131859149D01*
X230642551Y-131859149D02*
X230674456Y-131894864D01*
X230674456Y-131894864D02*
X230706361Y-131966292D01*
X230706361Y-131966292D02*
X230706361Y-132144864D01*
X230706361Y-132144864D02*
X230674456Y-132216292D01*
X230674456Y-132216292D02*
X230642551Y-132252007D01*
X230642551Y-132252007D02*
X230578742Y-132287721D01*
X230578742Y-132287721D02*
X230387313Y-132287721D01*
X230387313Y-132287721D02*
X230323504Y-132252007D01*
X230323504Y-132252007D02*
X230291599Y-132216292D01*
X238030409Y-113823435D02*
X237966599Y-113787721D01*
X237966599Y-113787721D02*
X237870885Y-113787721D01*
X237870885Y-113787721D02*
X237775171Y-113823435D01*
X237775171Y-113823435D02*
X237711361Y-113894864D01*
X237711361Y-113894864D02*
X237679456Y-113966292D01*
X237679456Y-113966292D02*
X237647552Y-114109149D01*
X237647552Y-114109149D02*
X237647552Y-114216292D01*
X237647552Y-114216292D02*
X237679456Y-114359149D01*
X237679456Y-114359149D02*
X237711361Y-114430578D01*
X237711361Y-114430578D02*
X237775171Y-114502007D01*
X237775171Y-114502007D02*
X237870885Y-114537721D01*
X237870885Y-114537721D02*
X237934694Y-114537721D01*
X237934694Y-114537721D02*
X238030409Y-114502007D01*
X238030409Y-114502007D02*
X238062313Y-114466292D01*
X238062313Y-114466292D02*
X238062313Y-114216292D01*
X238062313Y-114216292D02*
X237934694Y-114216292D01*
X238349456Y-114537721D02*
X238349456Y-113787721D01*
X238349456Y-113787721D02*
X238732313Y-114537721D01*
X238732313Y-114537721D02*
X238732313Y-113787721D01*
X239051361Y-114537721D02*
X239051361Y-113787721D01*
X239051361Y-113787721D02*
X239210885Y-113787721D01*
X239210885Y-113787721D02*
X239306599Y-113823435D01*
X239306599Y-113823435D02*
X239370409Y-113894864D01*
X239370409Y-113894864D02*
X239402314Y-113966292D01*
X239402314Y-113966292D02*
X239434218Y-114109149D01*
X239434218Y-114109149D02*
X239434218Y-114216292D01*
X239434218Y-114216292D02*
X239402314Y-114359149D01*
X239402314Y-114359149D02*
X239370409Y-114430578D01*
X239370409Y-114430578D02*
X239306599Y-114502007D01*
X239306599Y-114502007D02*
X239210885Y-114537721D01*
X239210885Y-114537721D02*
X239051361Y-114537721D01*
X228080409Y-111223435D02*
X228016599Y-111187721D01*
X228016599Y-111187721D02*
X227920885Y-111187721D01*
X227920885Y-111187721D02*
X227825171Y-111223435D01*
X227825171Y-111223435D02*
X227761361Y-111294864D01*
X227761361Y-111294864D02*
X227729456Y-111366292D01*
X227729456Y-111366292D02*
X227697552Y-111509149D01*
X227697552Y-111509149D02*
X227697552Y-111616292D01*
X227697552Y-111616292D02*
X227729456Y-111759149D01*
X227729456Y-111759149D02*
X227761361Y-111830578D01*
X227761361Y-111830578D02*
X227825171Y-111902007D01*
X227825171Y-111902007D02*
X227920885Y-111937721D01*
X227920885Y-111937721D02*
X227984694Y-111937721D01*
X227984694Y-111937721D02*
X228080409Y-111902007D01*
X228080409Y-111902007D02*
X228112313Y-111866292D01*
X228112313Y-111866292D02*
X228112313Y-111616292D01*
X228112313Y-111616292D02*
X227984694Y-111616292D01*
X228399456Y-111937721D02*
X228399456Y-111187721D01*
X228399456Y-111187721D02*
X228782313Y-111937721D01*
X228782313Y-111937721D02*
X228782313Y-111187721D01*
X229101361Y-111937721D02*
X229101361Y-111187721D01*
X229101361Y-111187721D02*
X229260885Y-111187721D01*
X229260885Y-111187721D02*
X229356599Y-111223435D01*
X229356599Y-111223435D02*
X229420409Y-111294864D01*
X229420409Y-111294864D02*
X229452314Y-111366292D01*
X229452314Y-111366292D02*
X229484218Y-111509149D01*
X229484218Y-111509149D02*
X229484218Y-111616292D01*
X229484218Y-111616292D02*
X229452314Y-111759149D01*
X229452314Y-111759149D02*
X229420409Y-111830578D01*
X229420409Y-111830578D02*
X229356599Y-111902007D01*
X229356599Y-111902007D02*
X229260885Y-111937721D01*
X229260885Y-111937721D02*
X229101361Y-111937721D01*
X237158266Y-131744864D02*
X237381600Y-131744864D01*
X237477314Y-132137721D02*
X237158266Y-132137721D01*
X237158266Y-132137721D02*
X237158266Y-131387721D01*
X237158266Y-131387721D02*
X237477314Y-131387721D01*
X238051599Y-131387721D02*
X237923980Y-131387721D01*
X237923980Y-131387721D02*
X237860171Y-131423435D01*
X237860171Y-131423435D02*
X237828266Y-131459149D01*
X237828266Y-131459149D02*
X237764456Y-131566292D01*
X237764456Y-131566292D02*
X237732552Y-131709149D01*
X237732552Y-131709149D02*
X237732552Y-131994864D01*
X237732552Y-131994864D02*
X237764456Y-132066292D01*
X237764456Y-132066292D02*
X237796361Y-132102007D01*
X237796361Y-132102007D02*
X237860171Y-132137721D01*
X237860171Y-132137721D02*
X237987790Y-132137721D01*
X237987790Y-132137721D02*
X238051599Y-132102007D01*
X238051599Y-132102007D02*
X238083504Y-132066292D01*
X238083504Y-132066292D02*
X238115409Y-131994864D01*
X238115409Y-131994864D02*
X238115409Y-131816292D01*
X238115409Y-131816292D02*
X238083504Y-131744864D01*
X238083504Y-131744864D02*
X238051599Y-131709149D01*
X238051599Y-131709149D02*
X237987790Y-131673435D01*
X237987790Y-131673435D02*
X237860171Y-131673435D01*
X237860171Y-131673435D02*
X237796361Y-131709149D01*
X237796361Y-131709149D02*
X237764456Y-131744864D01*
X237764456Y-131744864D02*
X237732552Y-131816292D01*
X238881123Y-131352007D02*
X238306837Y-132316292D01*
X239040647Y-131387721D02*
X239487313Y-131387721D01*
X239487313Y-131387721D02*
X239200171Y-132137721D01*
X237509218Y-126966292D02*
X237477314Y-127002007D01*
X237477314Y-127002007D02*
X237381599Y-127037721D01*
X237381599Y-127037721D02*
X237317790Y-127037721D01*
X237317790Y-127037721D02*
X237222076Y-127002007D01*
X237222076Y-127002007D02*
X237158266Y-126930578D01*
X237158266Y-126930578D02*
X237126361Y-126859149D01*
X237126361Y-126859149D02*
X237094457Y-126716292D01*
X237094457Y-126716292D02*
X237094457Y-126609149D01*
X237094457Y-126609149D02*
X237126361Y-126466292D01*
X237126361Y-126466292D02*
X237158266Y-126394864D01*
X237158266Y-126394864D02*
X237222076Y-126323435D01*
X237222076Y-126323435D02*
X237317790Y-126287721D01*
X237317790Y-126287721D02*
X237381599Y-126287721D01*
X237381599Y-126287721D02*
X237477314Y-126323435D01*
X237477314Y-126323435D02*
X237509218Y-126359149D01*
X238083504Y-126287721D02*
X237955885Y-126287721D01*
X237955885Y-126287721D02*
X237892076Y-126323435D01*
X237892076Y-126323435D02*
X237860171Y-126359149D01*
X237860171Y-126359149D02*
X237796361Y-126466292D01*
X237796361Y-126466292D02*
X237764457Y-126609149D01*
X237764457Y-126609149D02*
X237764457Y-126894864D01*
X237764457Y-126894864D02*
X237796361Y-126966292D01*
X237796361Y-126966292D02*
X237828266Y-127002007D01*
X237828266Y-127002007D02*
X237892076Y-127037721D01*
X237892076Y-127037721D02*
X238019695Y-127037721D01*
X238019695Y-127037721D02*
X238083504Y-127002007D01*
X238083504Y-127002007D02*
X238115409Y-126966292D01*
X238115409Y-126966292D02*
X238147314Y-126894864D01*
X238147314Y-126894864D02*
X238147314Y-126716292D01*
X238147314Y-126716292D02*
X238115409Y-126644864D01*
X238115409Y-126644864D02*
X238083504Y-126609149D01*
X238083504Y-126609149D02*
X238019695Y-126573435D01*
X238019695Y-126573435D02*
X237892076Y-126573435D01*
X237892076Y-126573435D02*
X237828266Y-126609149D01*
X237828266Y-126609149D02*
X237796361Y-126644864D01*
X237796361Y-126644864D02*
X237764457Y-126716292D01*
X238913028Y-126252007D02*
X238338742Y-127216292D01*
X239455409Y-126287721D02*
X239136361Y-126287721D01*
X239136361Y-126287721D02*
X239104457Y-126644864D01*
X239104457Y-126644864D02*
X239136361Y-126609149D01*
X239136361Y-126609149D02*
X239200171Y-126573435D01*
X239200171Y-126573435D02*
X239359695Y-126573435D01*
X239359695Y-126573435D02*
X239423504Y-126609149D01*
X239423504Y-126609149D02*
X239455409Y-126644864D01*
X239455409Y-126644864D02*
X239487314Y-126716292D01*
X239487314Y-126716292D02*
X239487314Y-126894864D01*
X239487314Y-126894864D02*
X239455409Y-126966292D01*
X239455409Y-126966292D02*
X239423504Y-127002007D01*
X239423504Y-127002007D02*
X239359695Y-127037721D01*
X239359695Y-127037721D02*
X239200171Y-127037721D01*
X239200171Y-127037721D02*
X239136361Y-127002007D01*
X239136361Y-127002007D02*
X239104457Y-126966292D01*
X227697551Y-116187721D02*
X227920884Y-116937721D01*
X227920884Y-116937721D02*
X228144218Y-116187721D01*
X228750408Y-116866292D02*
X228718504Y-116902007D01*
X228718504Y-116902007D02*
X228622789Y-116937721D01*
X228622789Y-116937721D02*
X228558980Y-116937721D01*
X228558980Y-116937721D02*
X228463266Y-116902007D01*
X228463266Y-116902007D02*
X228399456Y-116830578D01*
X228399456Y-116830578D02*
X228367551Y-116759149D01*
X228367551Y-116759149D02*
X228335647Y-116616292D01*
X228335647Y-116616292D02*
X228335647Y-116509149D01*
X228335647Y-116509149D02*
X228367551Y-116366292D01*
X228367551Y-116366292D02*
X228399456Y-116294864D01*
X228399456Y-116294864D02*
X228463266Y-116223435D01*
X228463266Y-116223435D02*
X228558980Y-116187721D01*
X228558980Y-116187721D02*
X228622789Y-116187721D01*
X228622789Y-116187721D02*
X228718504Y-116223435D01*
X228718504Y-116223435D02*
X228750408Y-116259149D01*
X229420408Y-116866292D02*
X229388504Y-116902007D01*
X229388504Y-116902007D02*
X229292789Y-116937721D01*
X229292789Y-116937721D02*
X229228980Y-116937721D01*
X229228980Y-116937721D02*
X229133266Y-116902007D01*
X229133266Y-116902007D02*
X229069456Y-116830578D01*
X229069456Y-116830578D02*
X229037551Y-116759149D01*
X229037551Y-116759149D02*
X229005647Y-116616292D01*
X229005647Y-116616292D02*
X229005647Y-116509149D01*
X229005647Y-116509149D02*
X229037551Y-116366292D01*
X229037551Y-116366292D02*
X229069456Y-116294864D01*
X229069456Y-116294864D02*
X229133266Y-116223435D01*
X229133266Y-116223435D02*
X229228980Y-116187721D01*
X229228980Y-116187721D02*
X229292789Y-116187721D01*
X229292789Y-116187721D02*
X229388504Y-116223435D01*
X229388504Y-116223435D02*
X229420408Y-116259149D01*
X228058266Y-129737721D02*
X227675409Y-129737721D01*
X227866837Y-129737721D02*
X227866837Y-128987721D01*
X227866837Y-128987721D02*
X227803028Y-129094864D01*
X227803028Y-129094864D02*
X227739218Y-129166292D01*
X227739218Y-129166292D02*
X227675409Y-129202007D01*
X228664456Y-128987721D02*
X228345408Y-128987721D01*
X228345408Y-128987721D02*
X228313504Y-129344864D01*
X228313504Y-129344864D02*
X228345408Y-129309149D01*
X228345408Y-129309149D02*
X228409218Y-129273435D01*
X228409218Y-129273435D02*
X228568742Y-129273435D01*
X228568742Y-129273435D02*
X228632551Y-129309149D01*
X228632551Y-129309149D02*
X228664456Y-129344864D01*
X228664456Y-129344864D02*
X228696361Y-129416292D01*
X228696361Y-129416292D02*
X228696361Y-129594864D01*
X228696361Y-129594864D02*
X228664456Y-129666292D01*
X228664456Y-129666292D02*
X228632551Y-129702007D01*
X228632551Y-129702007D02*
X228568742Y-129737721D01*
X228568742Y-129737721D02*
X228409218Y-129737721D01*
X228409218Y-129737721D02*
X228345408Y-129702007D01*
X228345408Y-129702007D02*
X228313504Y-129666292D01*
X229462075Y-128952007D02*
X228887789Y-129916292D01*
X229908742Y-129344864D02*
X230004456Y-129380578D01*
X230004456Y-129380578D02*
X230036361Y-129416292D01*
X230036361Y-129416292D02*
X230068265Y-129487721D01*
X230068265Y-129487721D02*
X230068265Y-129594864D01*
X230068265Y-129594864D02*
X230036361Y-129666292D01*
X230036361Y-129666292D02*
X230004456Y-129702007D01*
X230004456Y-129702007D02*
X229940646Y-129737721D01*
X229940646Y-129737721D02*
X229685408Y-129737721D01*
X229685408Y-129737721D02*
X229685408Y-128987721D01*
X229685408Y-128987721D02*
X229908742Y-128987721D01*
X229908742Y-128987721D02*
X229972551Y-129023435D01*
X229972551Y-129023435D02*
X230004456Y-129059149D01*
X230004456Y-129059149D02*
X230036361Y-129130578D01*
X230036361Y-129130578D02*
X230036361Y-129202007D01*
X230036361Y-129202007D02*
X230004456Y-129273435D01*
X230004456Y-129273435D02*
X229972551Y-129309149D01*
X229972551Y-129309149D02*
X229908742Y-129344864D01*
X229908742Y-129344864D02*
X229685408Y-129344864D01*
X230706361Y-129737721D02*
X230323504Y-129737721D01*
X230514932Y-129737721D02*
X230514932Y-128987721D01*
X230514932Y-128987721D02*
X230451123Y-129094864D01*
X230451123Y-129094864D02*
X230387313Y-129166292D01*
X230387313Y-129166292D02*
X230323504Y-129202007D01*
X237126361Y-124487721D02*
X237126361Y-123737721D01*
X237126361Y-123737721D02*
X237285885Y-123737721D01*
X237285885Y-123737721D02*
X237381599Y-123773435D01*
X237381599Y-123773435D02*
X237445409Y-123844864D01*
X237445409Y-123844864D02*
X237477314Y-123916292D01*
X237477314Y-123916292D02*
X237509218Y-124059149D01*
X237509218Y-124059149D02*
X237509218Y-124166292D01*
X237509218Y-124166292D02*
X237477314Y-124309149D01*
X237477314Y-124309149D02*
X237445409Y-124380578D01*
X237445409Y-124380578D02*
X237381599Y-124452007D01*
X237381599Y-124452007D02*
X237285885Y-124487721D01*
X237285885Y-124487721D02*
X237126361Y-124487721D01*
X238083504Y-123987721D02*
X238083504Y-124487721D01*
X237923980Y-123702007D02*
X237764457Y-124237721D01*
X237764457Y-124237721D02*
X238179218Y-124237721D01*
X238913028Y-123702007D02*
X238338742Y-124666292D01*
X239423504Y-123987721D02*
X239423504Y-124487721D01*
X239263980Y-123702007D02*
X239104457Y-124237721D01*
X239104457Y-124237721D02*
X239519218Y-124237721D01*
X228223980Y-114487721D02*
X228000647Y-114130578D01*
X227841123Y-114487721D02*
X227841123Y-113737721D01*
X227841123Y-113737721D02*
X228096361Y-113737721D01*
X228096361Y-113737721D02*
X228160171Y-113773435D01*
X228160171Y-113773435D02*
X228192076Y-113809149D01*
X228192076Y-113809149D02*
X228223980Y-113880578D01*
X228223980Y-113880578D02*
X228223980Y-113987721D01*
X228223980Y-113987721D02*
X228192076Y-114059149D01*
X228192076Y-114059149D02*
X228160171Y-114094864D01*
X228160171Y-114094864D02*
X228096361Y-114130578D01*
X228096361Y-114130578D02*
X227841123Y-114130578D01*
X228479219Y-114452007D02*
X228574933Y-114487721D01*
X228574933Y-114487721D02*
X228734457Y-114487721D01*
X228734457Y-114487721D02*
X228798266Y-114452007D01*
X228798266Y-114452007D02*
X228830171Y-114416292D01*
X228830171Y-114416292D02*
X228862076Y-114344864D01*
X228862076Y-114344864D02*
X228862076Y-114273435D01*
X228862076Y-114273435D02*
X228830171Y-114202007D01*
X228830171Y-114202007D02*
X228798266Y-114166292D01*
X228798266Y-114166292D02*
X228734457Y-114130578D01*
X228734457Y-114130578D02*
X228606838Y-114094864D01*
X228606838Y-114094864D02*
X228543028Y-114059149D01*
X228543028Y-114059149D02*
X228511123Y-114023435D01*
X228511123Y-114023435D02*
X228479219Y-113952007D01*
X228479219Y-113952007D02*
X228479219Y-113880578D01*
X228479219Y-113880578D02*
X228511123Y-113809149D01*
X228511123Y-113809149D02*
X228543028Y-113773435D01*
X228543028Y-113773435D02*
X228606838Y-113737721D01*
X228606838Y-113737721D02*
X228766361Y-113737721D01*
X228766361Y-113737721D02*
X228862076Y-113773435D01*
X229053504Y-113737721D02*
X229436361Y-113737721D01*
X229244933Y-114487721D02*
X229244933Y-113737721D01*
X227755171Y-119423435D02*
X228074218Y-119423435D01*
X227691361Y-119637721D02*
X227914694Y-118887721D01*
X227914694Y-118887721D02*
X228138028Y-119637721D01*
X228297552Y-118887721D02*
X228712314Y-118887721D01*
X228712314Y-118887721D02*
X228488980Y-119173435D01*
X228488980Y-119173435D02*
X228584695Y-119173435D01*
X228584695Y-119173435D02*
X228648504Y-119209149D01*
X228648504Y-119209149D02*
X228680409Y-119244864D01*
X228680409Y-119244864D02*
X228712314Y-119316292D01*
X228712314Y-119316292D02*
X228712314Y-119494864D01*
X228712314Y-119494864D02*
X228680409Y-119566292D01*
X228680409Y-119566292D02*
X228648504Y-119602007D01*
X228648504Y-119602007D02*
X228584695Y-119637721D01*
X228584695Y-119637721D02*
X228393266Y-119637721D01*
X228393266Y-119637721D02*
X228329457Y-119602007D01*
X228329457Y-119602007D02*
X228297552Y-119566292D01*
X229478028Y-118852007D02*
X228903742Y-119816292D01*
X229924695Y-119244864D02*
X229701361Y-119244864D01*
X229701361Y-119637721D02*
X229701361Y-118887721D01*
X229701361Y-118887721D02*
X230020409Y-118887721D01*
X230562790Y-119137721D02*
X230562790Y-119637721D01*
X230403266Y-118852007D02*
X230243743Y-119387721D01*
X230243743Y-119387721D02*
X230658504Y-119387721D01*
X228058266Y-137337721D02*
X227675409Y-137337721D01*
X227866837Y-137337721D02*
X227866837Y-136587721D01*
X227866837Y-136587721D02*
X227803028Y-136694864D01*
X227803028Y-136694864D02*
X227739218Y-136766292D01*
X227739218Y-136766292D02*
X227675409Y-136802007D01*
X228473027Y-136587721D02*
X228536837Y-136587721D01*
X228536837Y-136587721D02*
X228600646Y-136623435D01*
X228600646Y-136623435D02*
X228632551Y-136659149D01*
X228632551Y-136659149D02*
X228664456Y-136730578D01*
X228664456Y-136730578D02*
X228696361Y-136873435D01*
X228696361Y-136873435D02*
X228696361Y-137052007D01*
X228696361Y-137052007D02*
X228664456Y-137194864D01*
X228664456Y-137194864D02*
X228632551Y-137266292D01*
X228632551Y-137266292D02*
X228600646Y-137302007D01*
X228600646Y-137302007D02*
X228536837Y-137337721D01*
X228536837Y-137337721D02*
X228473027Y-137337721D01*
X228473027Y-137337721D02*
X228409218Y-137302007D01*
X228409218Y-137302007D02*
X228377313Y-137266292D01*
X228377313Y-137266292D02*
X228345408Y-137194864D01*
X228345408Y-137194864D02*
X228313504Y-137052007D01*
X228313504Y-137052007D02*
X228313504Y-136873435D01*
X228313504Y-136873435D02*
X228345408Y-136730578D01*
X228345408Y-136730578D02*
X228377313Y-136659149D01*
X228377313Y-136659149D02*
X228409218Y-136623435D01*
X228409218Y-136623435D02*
X228473027Y-136587721D01*
X229462075Y-136552007D02*
X228887789Y-137516292D01*
X229908742Y-136944864D02*
X230004456Y-136980578D01*
X230004456Y-136980578D02*
X230036361Y-137016292D01*
X230036361Y-137016292D02*
X230068265Y-137087721D01*
X230068265Y-137087721D02*
X230068265Y-137194864D01*
X230068265Y-137194864D02*
X230036361Y-137266292D01*
X230036361Y-137266292D02*
X230004456Y-137302007D01*
X230004456Y-137302007D02*
X229940646Y-137337721D01*
X229940646Y-137337721D02*
X229685408Y-137337721D01*
X229685408Y-137337721D02*
X229685408Y-136587721D01*
X229685408Y-136587721D02*
X229908742Y-136587721D01*
X229908742Y-136587721D02*
X229972551Y-136623435D01*
X229972551Y-136623435D02*
X230004456Y-136659149D01*
X230004456Y-136659149D02*
X230036361Y-136730578D01*
X230036361Y-136730578D02*
X230036361Y-136802007D01*
X230036361Y-136802007D02*
X230004456Y-136873435D01*
X230004456Y-136873435D02*
X229972551Y-136909149D01*
X229972551Y-136909149D02*
X229908742Y-136944864D01*
X229908742Y-136944864D02*
X229685408Y-136944864D01*
X230642551Y-136587721D02*
X230514932Y-136587721D01*
X230514932Y-136587721D02*
X230451123Y-136623435D01*
X230451123Y-136623435D02*
X230419218Y-136659149D01*
X230419218Y-136659149D02*
X230355408Y-136766292D01*
X230355408Y-136766292D02*
X230323504Y-136909149D01*
X230323504Y-136909149D02*
X230323504Y-137194864D01*
X230323504Y-137194864D02*
X230355408Y-137266292D01*
X230355408Y-137266292D02*
X230387313Y-137302007D01*
X230387313Y-137302007D02*
X230451123Y-137337721D01*
X230451123Y-137337721D02*
X230578742Y-137337721D01*
X230578742Y-137337721D02*
X230642551Y-137302007D01*
X230642551Y-137302007D02*
X230674456Y-137266292D01*
X230674456Y-137266292D02*
X230706361Y-137194864D01*
X230706361Y-137194864D02*
X230706361Y-137016292D01*
X230706361Y-137016292D02*
X230674456Y-136944864D01*
X230674456Y-136944864D02*
X230642551Y-136909149D01*
X230642551Y-136909149D02*
X230578742Y-136873435D01*
X230578742Y-136873435D02*
X230451123Y-136873435D01*
X230451123Y-136873435D02*
X230387313Y-136909149D01*
X230387313Y-136909149D02*
X230355408Y-136944864D01*
X230355408Y-136944864D02*
X230323504Y-137016292D01*
X227984666Y-106476864D02*
X228080380Y-106512578D01*
X228080380Y-106512578D02*
X228112285Y-106548292D01*
X228112285Y-106548292D02*
X228144189Y-106619721D01*
X228144189Y-106619721D02*
X228144189Y-106726864D01*
X228144189Y-106726864D02*
X228112285Y-106798292D01*
X228112285Y-106798292D02*
X228080380Y-106834007D01*
X228080380Y-106834007D02*
X228016570Y-106869721D01*
X228016570Y-106869721D02*
X227761332Y-106869721D01*
X227761332Y-106869721D02*
X227761332Y-106119721D01*
X227761332Y-106119721D02*
X227984666Y-106119721D01*
X227984666Y-106119721D02*
X228048475Y-106155435D01*
X228048475Y-106155435D02*
X228080380Y-106191149D01*
X228080380Y-106191149D02*
X228112285Y-106262578D01*
X228112285Y-106262578D02*
X228112285Y-106334007D01*
X228112285Y-106334007D02*
X228080380Y-106405435D01*
X228080380Y-106405435D02*
X228048475Y-106441149D01*
X228048475Y-106441149D02*
X227984666Y-106476864D01*
X227984666Y-106476864D02*
X227761332Y-106476864D01*
X228718475Y-106869721D02*
X228718475Y-106476864D01*
X228718475Y-106476864D02*
X228686570Y-106405435D01*
X228686570Y-106405435D02*
X228622761Y-106369721D01*
X228622761Y-106369721D02*
X228495142Y-106369721D01*
X228495142Y-106369721D02*
X228431332Y-106405435D01*
X228718475Y-106834007D02*
X228654666Y-106869721D01*
X228654666Y-106869721D02*
X228495142Y-106869721D01*
X228495142Y-106869721D02*
X228431332Y-106834007D01*
X228431332Y-106834007D02*
X228399428Y-106762578D01*
X228399428Y-106762578D02*
X228399428Y-106691149D01*
X228399428Y-106691149D02*
X228431332Y-106619721D01*
X228431332Y-106619721D02*
X228495142Y-106584007D01*
X228495142Y-106584007D02*
X228654666Y-106584007D01*
X228654666Y-106584007D02*
X228718475Y-106548292D01*
X228941808Y-106369721D02*
X229197046Y-106369721D01*
X229037522Y-106119721D02*
X229037522Y-106762578D01*
X229037522Y-106762578D02*
X229069427Y-106834007D01*
X229069427Y-106834007D02*
X229133237Y-106869721D01*
X229133237Y-106869721D02*
X229197046Y-106869721D01*
X229324665Y-106369721D02*
X229579903Y-106369721D01*
X229420379Y-106119721D02*
X229420379Y-106762578D01*
X229420379Y-106762578D02*
X229452284Y-106834007D01*
X229452284Y-106834007D02*
X229516094Y-106869721D01*
X229516094Y-106869721D02*
X229579903Y-106869721D01*
X230058474Y-106834007D02*
X229994665Y-106869721D01*
X229994665Y-106869721D02*
X229867046Y-106869721D01*
X229867046Y-106869721D02*
X229803236Y-106834007D01*
X229803236Y-106834007D02*
X229771332Y-106762578D01*
X229771332Y-106762578D02*
X229771332Y-106476864D01*
X229771332Y-106476864D02*
X229803236Y-106405435D01*
X229803236Y-106405435D02*
X229867046Y-106369721D01*
X229867046Y-106369721D02*
X229994665Y-106369721D01*
X229994665Y-106369721D02*
X230058474Y-106405435D01*
X230058474Y-106405435D02*
X230090379Y-106476864D01*
X230090379Y-106476864D02*
X230090379Y-106548292D01*
X230090379Y-106548292D02*
X229771332Y-106619721D01*
X230377522Y-106869721D02*
X230377522Y-106369721D01*
X230377522Y-106512578D02*
X230409427Y-106441149D01*
X230409427Y-106441149D02*
X230441332Y-106405435D01*
X230441332Y-106405435D02*
X230505141Y-106369721D01*
X230505141Y-106369721D02*
X230568951Y-106369721D01*
X230728475Y-106369721D02*
X230887999Y-106869721D01*
X231047522Y-106369721D02*
X230887999Y-106869721D01*
X230887999Y-106869721D02*
X230824189Y-107048292D01*
X230824189Y-107048292D02*
X230792284Y-107084007D01*
X230792284Y-107084007D02*
X230728475Y-107119721D01*
X231302760Y-106584007D02*
X231813237Y-106584007D01*
X231557998Y-106869721D02*
X231557998Y-106298292D01*
X227755171Y-121923435D02*
X228074218Y-121923435D01*
X227691361Y-122137721D02*
X227914694Y-121387721D01*
X227914694Y-121387721D02*
X228138028Y-122137721D01*
X228329457Y-121459149D02*
X228361361Y-121423435D01*
X228361361Y-121423435D02*
X228425171Y-121387721D01*
X228425171Y-121387721D02*
X228584695Y-121387721D01*
X228584695Y-121387721D02*
X228648504Y-121423435D01*
X228648504Y-121423435D02*
X228680409Y-121459149D01*
X228680409Y-121459149D02*
X228712314Y-121530578D01*
X228712314Y-121530578D02*
X228712314Y-121602007D01*
X228712314Y-121602007D02*
X228680409Y-121709149D01*
X228680409Y-121709149D02*
X228297552Y-122137721D01*
X228297552Y-122137721D02*
X228712314Y-122137721D01*
X229478028Y-121352007D02*
X228903742Y-122316292D01*
X229924695Y-121744864D02*
X229701361Y-121744864D01*
X229701361Y-122137721D02*
X229701361Y-121387721D01*
X229701361Y-121387721D02*
X230020409Y-121387721D01*
X230594695Y-121387721D02*
X230275647Y-121387721D01*
X230275647Y-121387721D02*
X230243743Y-121744864D01*
X230243743Y-121744864D02*
X230275647Y-121709149D01*
X230275647Y-121709149D02*
X230339457Y-121673435D01*
X230339457Y-121673435D02*
X230498981Y-121673435D01*
X230498981Y-121673435D02*
X230562790Y-121709149D01*
X230562790Y-121709149D02*
X230594695Y-121744864D01*
X230594695Y-121744864D02*
X230626600Y-121816292D01*
X230626600Y-121816292D02*
X230626600Y-121994864D01*
X230626600Y-121994864D02*
X230594695Y-122066292D01*
X230594695Y-122066292D02*
X230562790Y-122102007D01*
X230562790Y-122102007D02*
X230498981Y-122137721D01*
X230498981Y-122137721D02*
X230339457Y-122137721D01*
X230339457Y-122137721D02*
X230275647Y-122102007D01*
X230275647Y-122102007D02*
X230243743Y-122066292D01*
X238030409Y-116273435D02*
X237966599Y-116237721D01*
X237966599Y-116237721D02*
X237870885Y-116237721D01*
X237870885Y-116237721D02*
X237775171Y-116273435D01*
X237775171Y-116273435D02*
X237711361Y-116344864D01*
X237711361Y-116344864D02*
X237679456Y-116416292D01*
X237679456Y-116416292D02*
X237647552Y-116559149D01*
X237647552Y-116559149D02*
X237647552Y-116666292D01*
X237647552Y-116666292D02*
X237679456Y-116809149D01*
X237679456Y-116809149D02*
X237711361Y-116880578D01*
X237711361Y-116880578D02*
X237775171Y-116952007D01*
X237775171Y-116952007D02*
X237870885Y-116987721D01*
X237870885Y-116987721D02*
X237934694Y-116987721D01*
X237934694Y-116987721D02*
X238030409Y-116952007D01*
X238030409Y-116952007D02*
X238062313Y-116916292D01*
X238062313Y-116916292D02*
X238062313Y-116666292D01*
X238062313Y-116666292D02*
X237934694Y-116666292D01*
X238349456Y-116987721D02*
X238349456Y-116237721D01*
X238349456Y-116237721D02*
X238732313Y-116987721D01*
X238732313Y-116987721D02*
X238732313Y-116237721D01*
X239051361Y-116987721D02*
X239051361Y-116237721D01*
X239051361Y-116237721D02*
X239210885Y-116237721D01*
X239210885Y-116237721D02*
X239306599Y-116273435D01*
X239306599Y-116273435D02*
X239370409Y-116344864D01*
X239370409Y-116344864D02*
X239402314Y-116416292D01*
X239402314Y-116416292D02*
X239434218Y-116559149D01*
X239434218Y-116559149D02*
X239434218Y-116666292D01*
X239434218Y-116666292D02*
X239402314Y-116809149D01*
X239402314Y-116809149D02*
X239370409Y-116880578D01*
X239370409Y-116880578D02*
X239306599Y-116952007D01*
X239306599Y-116952007D02*
X239210885Y-116987721D01*
X239210885Y-116987721D02*
X239051361Y-116987721D01*
X228058266Y-134837721D02*
X227675409Y-134837721D01*
X227866837Y-134837721D02*
X227866837Y-134087721D01*
X227866837Y-134087721D02*
X227803028Y-134194864D01*
X227803028Y-134194864D02*
X227739218Y-134266292D01*
X227739218Y-134266292D02*
X227675409Y-134302007D01*
X228632551Y-134087721D02*
X228504932Y-134087721D01*
X228504932Y-134087721D02*
X228441123Y-134123435D01*
X228441123Y-134123435D02*
X228409218Y-134159149D01*
X228409218Y-134159149D02*
X228345408Y-134266292D01*
X228345408Y-134266292D02*
X228313504Y-134409149D01*
X228313504Y-134409149D02*
X228313504Y-134694864D01*
X228313504Y-134694864D02*
X228345408Y-134766292D01*
X228345408Y-134766292D02*
X228377313Y-134802007D01*
X228377313Y-134802007D02*
X228441123Y-134837721D01*
X228441123Y-134837721D02*
X228568742Y-134837721D01*
X228568742Y-134837721D02*
X228632551Y-134802007D01*
X228632551Y-134802007D02*
X228664456Y-134766292D01*
X228664456Y-134766292D02*
X228696361Y-134694864D01*
X228696361Y-134694864D02*
X228696361Y-134516292D01*
X228696361Y-134516292D02*
X228664456Y-134444864D01*
X228664456Y-134444864D02*
X228632551Y-134409149D01*
X228632551Y-134409149D02*
X228568742Y-134373435D01*
X228568742Y-134373435D02*
X228441123Y-134373435D01*
X228441123Y-134373435D02*
X228377313Y-134409149D01*
X228377313Y-134409149D02*
X228345408Y-134444864D01*
X228345408Y-134444864D02*
X228313504Y-134516292D01*
X229462075Y-134052007D02*
X228887789Y-135016292D01*
X229908742Y-134444864D02*
X230004456Y-134480578D01*
X230004456Y-134480578D02*
X230036361Y-134516292D01*
X230036361Y-134516292D02*
X230068265Y-134587721D01*
X230068265Y-134587721D02*
X230068265Y-134694864D01*
X230068265Y-134694864D02*
X230036361Y-134766292D01*
X230036361Y-134766292D02*
X230004456Y-134802007D01*
X230004456Y-134802007D02*
X229940646Y-134837721D01*
X229940646Y-134837721D02*
X229685408Y-134837721D01*
X229685408Y-134837721D02*
X229685408Y-134087721D01*
X229685408Y-134087721D02*
X229908742Y-134087721D01*
X229908742Y-134087721D02*
X229972551Y-134123435D01*
X229972551Y-134123435D02*
X230004456Y-134159149D01*
X230004456Y-134159149D02*
X230036361Y-134230578D01*
X230036361Y-134230578D02*
X230036361Y-134302007D01*
X230036361Y-134302007D02*
X230004456Y-134373435D01*
X230004456Y-134373435D02*
X229972551Y-134409149D01*
X229972551Y-134409149D02*
X229908742Y-134444864D01*
X229908742Y-134444864D02*
X229685408Y-134444864D01*
X230323504Y-134159149D02*
X230355408Y-134123435D01*
X230355408Y-134123435D02*
X230419218Y-134087721D01*
X230419218Y-134087721D02*
X230578742Y-134087721D01*
X230578742Y-134087721D02*
X230642551Y-134123435D01*
X230642551Y-134123435D02*
X230674456Y-134159149D01*
X230674456Y-134159149D02*
X230706361Y-134230578D01*
X230706361Y-134230578D02*
X230706361Y-134302007D01*
X230706361Y-134302007D02*
X230674456Y-134409149D01*
X230674456Y-134409149D02*
X230291599Y-134837721D01*
X230291599Y-134837721D02*
X230706361Y-134837721D01*
X234552314Y-119452007D02*
X234648028Y-119487721D01*
X234648028Y-119487721D02*
X234807552Y-119487721D01*
X234807552Y-119487721D02*
X234871361Y-119452007D01*
X234871361Y-119452007D02*
X234903266Y-119416292D01*
X234903266Y-119416292D02*
X234935171Y-119344864D01*
X234935171Y-119344864D02*
X234935171Y-119273435D01*
X234935171Y-119273435D02*
X234903266Y-119202007D01*
X234903266Y-119202007D02*
X234871361Y-119166292D01*
X234871361Y-119166292D02*
X234807552Y-119130578D01*
X234807552Y-119130578D02*
X234679933Y-119094864D01*
X234679933Y-119094864D02*
X234616123Y-119059149D01*
X234616123Y-119059149D02*
X234584218Y-119023435D01*
X234584218Y-119023435D02*
X234552314Y-118952007D01*
X234552314Y-118952007D02*
X234552314Y-118880578D01*
X234552314Y-118880578D02*
X234584218Y-118809149D01*
X234584218Y-118809149D02*
X234616123Y-118773435D01*
X234616123Y-118773435D02*
X234679933Y-118737721D01*
X234679933Y-118737721D02*
X234839456Y-118737721D01*
X234839456Y-118737721D02*
X234935171Y-118773435D01*
X235222313Y-119487721D02*
X235222313Y-118737721D01*
X235222313Y-118737721D02*
X235381837Y-118737721D01*
X235381837Y-118737721D02*
X235477551Y-118773435D01*
X235477551Y-118773435D02*
X235541361Y-118844864D01*
X235541361Y-118844864D02*
X235573266Y-118916292D01*
X235573266Y-118916292D02*
X235605170Y-119059149D01*
X235605170Y-119059149D02*
X235605170Y-119166292D01*
X235605170Y-119166292D02*
X235573266Y-119309149D01*
X235573266Y-119309149D02*
X235541361Y-119380578D01*
X235541361Y-119380578D02*
X235477551Y-119452007D01*
X235477551Y-119452007D02*
X235381837Y-119487721D01*
X235381837Y-119487721D02*
X235222313Y-119487721D01*
X235860409Y-119273435D02*
X236179456Y-119273435D01*
X235796599Y-119487721D02*
X236019932Y-118737721D01*
X236019932Y-118737721D02*
X236243266Y-119487721D01*
X236945171Y-118702007D02*
X236370885Y-119666292D01*
X237168504Y-119487721D02*
X237168504Y-118737721D01*
X237168504Y-118737721D02*
X237328028Y-118737721D01*
X237328028Y-118737721D02*
X237423742Y-118773435D01*
X237423742Y-118773435D02*
X237487552Y-118844864D01*
X237487552Y-118844864D02*
X237519457Y-118916292D01*
X237519457Y-118916292D02*
X237551361Y-119059149D01*
X237551361Y-119059149D02*
X237551361Y-119166292D01*
X237551361Y-119166292D02*
X237519457Y-119309149D01*
X237519457Y-119309149D02*
X237487552Y-119380578D01*
X237487552Y-119380578D02*
X237423742Y-119452007D01*
X237423742Y-119452007D02*
X237328028Y-119487721D01*
X237328028Y-119487721D02*
X237168504Y-119487721D01*
X238189457Y-119487721D02*
X237806600Y-119487721D01*
X237998028Y-119487721D02*
X237998028Y-118737721D01*
X237998028Y-118737721D02*
X237934219Y-118844864D01*
X237934219Y-118844864D02*
X237870409Y-118916292D01*
X237870409Y-118916292D02*
X237806600Y-118952007D01*
X238955171Y-118702007D02*
X238380885Y-119666292D01*
X239146600Y-118809149D02*
X239178504Y-118773435D01*
X239178504Y-118773435D02*
X239242314Y-118737721D01*
X239242314Y-118737721D02*
X239401838Y-118737721D01*
X239401838Y-118737721D02*
X239465647Y-118773435D01*
X239465647Y-118773435D02*
X239497552Y-118809149D01*
X239497552Y-118809149D02*
X239529457Y-118880578D01*
X239529457Y-118880578D02*
X239529457Y-118952007D01*
X239529457Y-118952007D02*
X239497552Y-119059149D01*
X239497552Y-119059149D02*
X239114695Y-119487721D01*
X239114695Y-119487721D02*
X239529457Y-119487721D01*
X227755171Y-126973435D02*
X228074218Y-126973435D01*
X227691361Y-127187721D02*
X227914694Y-126437721D01*
X227914694Y-126437721D02*
X228138028Y-127187721D01*
X228488980Y-126437721D02*
X228552790Y-126437721D01*
X228552790Y-126437721D02*
X228616599Y-126473435D01*
X228616599Y-126473435D02*
X228648504Y-126509149D01*
X228648504Y-126509149D02*
X228680409Y-126580578D01*
X228680409Y-126580578D02*
X228712314Y-126723435D01*
X228712314Y-126723435D02*
X228712314Y-126902007D01*
X228712314Y-126902007D02*
X228680409Y-127044864D01*
X228680409Y-127044864D02*
X228648504Y-127116292D01*
X228648504Y-127116292D02*
X228616599Y-127152007D01*
X228616599Y-127152007D02*
X228552790Y-127187721D01*
X228552790Y-127187721D02*
X228488980Y-127187721D01*
X228488980Y-127187721D02*
X228425171Y-127152007D01*
X228425171Y-127152007D02*
X228393266Y-127116292D01*
X228393266Y-127116292D02*
X228361361Y-127044864D01*
X228361361Y-127044864D02*
X228329457Y-126902007D01*
X228329457Y-126902007D02*
X228329457Y-126723435D01*
X228329457Y-126723435D02*
X228361361Y-126580578D01*
X228361361Y-126580578D02*
X228393266Y-126509149D01*
X228393266Y-126509149D02*
X228425171Y-126473435D01*
X228425171Y-126473435D02*
X228488980Y-126437721D01*
X229478028Y-126402007D02*
X228903742Y-127366292D01*
X229924695Y-126794864D02*
X229701361Y-126794864D01*
X229701361Y-127187721D02*
X229701361Y-126437721D01*
X229701361Y-126437721D02*
X230020409Y-126437721D01*
X230211838Y-126437721D02*
X230658504Y-126437721D01*
X230658504Y-126437721D02*
X230371362Y-127187721D01*
D12*
X231089456Y-104937981D02*
X231089456Y-104187981D01*
X231089456Y-104187981D02*
X231339456Y-104723695D01*
X231339456Y-104723695D02*
X231589456Y-104187981D01*
X231589456Y-104187981D02*
X231589456Y-104937981D01*
X231946599Y-104937981D02*
X231946599Y-104437981D01*
X231946599Y-104187981D02*
X231910885Y-104223695D01*
X231910885Y-104223695D02*
X231946599Y-104259409D01*
X231946599Y-104259409D02*
X231982313Y-104223695D01*
X231982313Y-104223695D02*
X231946599Y-104187981D01*
X231946599Y-104187981D02*
X231946599Y-104259409D01*
X232625171Y-104902267D02*
X232553742Y-104937981D01*
X232553742Y-104937981D02*
X232410885Y-104937981D01*
X232410885Y-104937981D02*
X232339456Y-104902267D01*
X232339456Y-104902267D02*
X232303742Y-104866552D01*
X232303742Y-104866552D02*
X232268028Y-104795124D01*
X232268028Y-104795124D02*
X232268028Y-104580838D01*
X232268028Y-104580838D02*
X232303742Y-104509409D01*
X232303742Y-104509409D02*
X232339456Y-104473695D01*
X232339456Y-104473695D02*
X232410885Y-104437981D01*
X232410885Y-104437981D02*
X232553742Y-104437981D01*
X232553742Y-104437981D02*
X232625171Y-104473695D01*
X232946599Y-104937981D02*
X232946599Y-104437981D01*
X232946599Y-104580838D02*
X232982313Y-104509409D01*
X232982313Y-104509409D02*
X233018028Y-104473695D01*
X233018028Y-104473695D02*
X233089456Y-104437981D01*
X233089456Y-104437981D02*
X233160885Y-104437981D01*
X233518028Y-104937981D02*
X233446599Y-104902267D01*
X233446599Y-104902267D02*
X233410885Y-104866552D01*
X233410885Y-104866552D02*
X233375171Y-104795124D01*
X233375171Y-104795124D02*
X233375171Y-104580838D01*
X233375171Y-104580838D02*
X233410885Y-104509409D01*
X233410885Y-104509409D02*
X233446599Y-104473695D01*
X233446599Y-104473695D02*
X233518028Y-104437981D01*
X233518028Y-104437981D02*
X233625171Y-104437981D01*
X233625171Y-104437981D02*
X233696599Y-104473695D01*
X233696599Y-104473695D02*
X233732314Y-104509409D01*
X233732314Y-104509409D02*
X233768028Y-104580838D01*
X233768028Y-104580838D02*
X233768028Y-104795124D01*
X233768028Y-104795124D02*
X233732314Y-104866552D01*
X233732314Y-104866552D02*
X233696599Y-104902267D01*
X233696599Y-104902267D02*
X233625171Y-104937981D01*
X233625171Y-104937981D02*
X233518028Y-104937981D01*
X234089456Y-104187981D02*
X234089456Y-104795124D01*
X234089456Y-104795124D02*
X234125170Y-104866552D01*
X234125170Y-104866552D02*
X234160885Y-104902267D01*
X234160885Y-104902267D02*
X234232313Y-104937981D01*
X234232313Y-104937981D02*
X234375170Y-104937981D01*
X234375170Y-104937981D02*
X234446599Y-104902267D01*
X234446599Y-104902267D02*
X234482313Y-104866552D01*
X234482313Y-104866552D02*
X234518027Y-104795124D01*
X234518027Y-104795124D02*
X234518027Y-104187981D01*
X234839456Y-104902267D02*
X234946599Y-104937981D01*
X234946599Y-104937981D02*
X235125170Y-104937981D01*
X235125170Y-104937981D02*
X235196599Y-104902267D01*
X235196599Y-104902267D02*
X235232313Y-104866552D01*
X235232313Y-104866552D02*
X235268027Y-104795124D01*
X235268027Y-104795124D02*
X235268027Y-104723695D01*
X235268027Y-104723695D02*
X235232313Y-104652267D01*
X235232313Y-104652267D02*
X235196599Y-104616552D01*
X235196599Y-104616552D02*
X235125170Y-104580838D01*
X235125170Y-104580838D02*
X234982313Y-104545124D01*
X234982313Y-104545124D02*
X234910884Y-104509409D01*
X234910884Y-104509409D02*
X234875170Y-104473695D01*
X234875170Y-104473695D02*
X234839456Y-104402267D01*
X234839456Y-104402267D02*
X234839456Y-104330838D01*
X234839456Y-104330838D02*
X234875170Y-104259409D01*
X234875170Y-104259409D02*
X234910884Y-104223695D01*
X234910884Y-104223695D02*
X234982313Y-104187981D01*
X234982313Y-104187981D02*
X235160884Y-104187981D01*
X235160884Y-104187981D02*
X235268027Y-104223695D01*
X235839456Y-104545124D02*
X235946599Y-104580838D01*
X235946599Y-104580838D02*
X235982313Y-104616552D01*
X235982313Y-104616552D02*
X236018027Y-104687981D01*
X236018027Y-104687981D02*
X236018027Y-104795124D01*
X236018027Y-104795124D02*
X235982313Y-104866552D01*
X235982313Y-104866552D02*
X235946599Y-104902267D01*
X235946599Y-104902267D02*
X235875170Y-104937981D01*
X235875170Y-104937981D02*
X235589456Y-104937981D01*
X235589456Y-104937981D02*
X235589456Y-104187981D01*
X235589456Y-104187981D02*
X235839456Y-104187981D01*
X235839456Y-104187981D02*
X235910885Y-104223695D01*
X235910885Y-104223695D02*
X235946599Y-104259409D01*
X235946599Y-104259409D02*
X235982313Y-104330838D01*
X235982313Y-104330838D02*
X235982313Y-104402267D01*
X235982313Y-104402267D02*
X235946599Y-104473695D01*
X235946599Y-104473695D02*
X235910885Y-104509409D01*
X235910885Y-104509409D02*
X235839456Y-104545124D01*
X235839456Y-104545124D02*
X235589456Y-104545124D01*
D11*
X234568266Y-121952007D02*
X234663980Y-121987721D01*
X234663980Y-121987721D02*
X234823504Y-121987721D01*
X234823504Y-121987721D02*
X234887313Y-121952007D01*
X234887313Y-121952007D02*
X234919218Y-121916292D01*
X234919218Y-121916292D02*
X234951123Y-121844864D01*
X234951123Y-121844864D02*
X234951123Y-121773435D01*
X234951123Y-121773435D02*
X234919218Y-121702007D01*
X234919218Y-121702007D02*
X234887313Y-121666292D01*
X234887313Y-121666292D02*
X234823504Y-121630578D01*
X234823504Y-121630578D02*
X234695885Y-121594864D01*
X234695885Y-121594864D02*
X234632075Y-121559149D01*
X234632075Y-121559149D02*
X234600170Y-121523435D01*
X234600170Y-121523435D02*
X234568266Y-121452007D01*
X234568266Y-121452007D02*
X234568266Y-121380578D01*
X234568266Y-121380578D02*
X234600170Y-121309149D01*
X234600170Y-121309149D02*
X234632075Y-121273435D01*
X234632075Y-121273435D02*
X234695885Y-121237721D01*
X234695885Y-121237721D02*
X234855408Y-121237721D01*
X234855408Y-121237721D02*
X234951123Y-121273435D01*
X235621122Y-121916292D02*
X235589218Y-121952007D01*
X235589218Y-121952007D02*
X235493503Y-121987721D01*
X235493503Y-121987721D02*
X235429694Y-121987721D01*
X235429694Y-121987721D02*
X235333980Y-121952007D01*
X235333980Y-121952007D02*
X235270170Y-121880578D01*
X235270170Y-121880578D02*
X235238265Y-121809149D01*
X235238265Y-121809149D02*
X235206361Y-121666292D01*
X235206361Y-121666292D02*
X235206361Y-121559149D01*
X235206361Y-121559149D02*
X235238265Y-121416292D01*
X235238265Y-121416292D02*
X235270170Y-121344864D01*
X235270170Y-121344864D02*
X235333980Y-121273435D01*
X235333980Y-121273435D02*
X235429694Y-121237721D01*
X235429694Y-121237721D02*
X235493503Y-121237721D01*
X235493503Y-121237721D02*
X235589218Y-121273435D01*
X235589218Y-121273435D02*
X235621122Y-121309149D01*
X236227313Y-121987721D02*
X235908265Y-121987721D01*
X235908265Y-121987721D02*
X235908265Y-121237721D01*
X236929218Y-121202007D02*
X236354932Y-122166292D01*
X237152551Y-121987721D02*
X237152551Y-121237721D01*
X237152551Y-121237721D02*
X237312075Y-121237721D01*
X237312075Y-121237721D02*
X237407789Y-121273435D01*
X237407789Y-121273435D02*
X237471599Y-121344864D01*
X237471599Y-121344864D02*
X237503504Y-121416292D01*
X237503504Y-121416292D02*
X237535408Y-121559149D01*
X237535408Y-121559149D02*
X237535408Y-121666292D01*
X237535408Y-121666292D02*
X237503504Y-121809149D01*
X237503504Y-121809149D02*
X237471599Y-121880578D01*
X237471599Y-121880578D02*
X237407789Y-121952007D01*
X237407789Y-121952007D02*
X237312075Y-121987721D01*
X237312075Y-121987721D02*
X237152551Y-121987721D01*
X237950170Y-121237721D02*
X238013980Y-121237721D01*
X238013980Y-121237721D02*
X238077789Y-121273435D01*
X238077789Y-121273435D02*
X238109694Y-121309149D01*
X238109694Y-121309149D02*
X238141599Y-121380578D01*
X238141599Y-121380578D02*
X238173504Y-121523435D01*
X238173504Y-121523435D02*
X238173504Y-121702007D01*
X238173504Y-121702007D02*
X238141599Y-121844864D01*
X238141599Y-121844864D02*
X238109694Y-121916292D01*
X238109694Y-121916292D02*
X238077789Y-121952007D01*
X238077789Y-121952007D02*
X238013980Y-121987721D01*
X238013980Y-121987721D02*
X237950170Y-121987721D01*
X237950170Y-121987721D02*
X237886361Y-121952007D01*
X237886361Y-121952007D02*
X237854456Y-121916292D01*
X237854456Y-121916292D02*
X237822551Y-121844864D01*
X237822551Y-121844864D02*
X237790647Y-121702007D01*
X237790647Y-121702007D02*
X237790647Y-121523435D01*
X237790647Y-121523435D02*
X237822551Y-121380578D01*
X237822551Y-121380578D02*
X237854456Y-121309149D01*
X237854456Y-121309149D02*
X237886361Y-121273435D01*
X237886361Y-121273435D02*
X237950170Y-121237721D01*
X238939218Y-121202007D02*
X238364932Y-122166292D01*
X239098742Y-121237721D02*
X239513504Y-121237721D01*
X239513504Y-121237721D02*
X239290170Y-121523435D01*
X239290170Y-121523435D02*
X239385885Y-121523435D01*
X239385885Y-121523435D02*
X239449694Y-121559149D01*
X239449694Y-121559149D02*
X239481599Y-121594864D01*
X239481599Y-121594864D02*
X239513504Y-121666292D01*
X239513504Y-121666292D02*
X239513504Y-121844864D01*
X239513504Y-121844864D02*
X239481599Y-121916292D01*
X239481599Y-121916292D02*
X239449694Y-121952007D01*
X239449694Y-121952007D02*
X239385885Y-121987721D01*
X239385885Y-121987721D02*
X239194456Y-121987721D01*
X239194456Y-121987721D02*
X239130647Y-121952007D01*
X239130647Y-121952007D02*
X239098742Y-121916292D01*
X236002075Y-109437721D02*
X236002075Y-108687721D01*
X236002075Y-108687721D02*
X236161599Y-108687721D01*
X236161599Y-108687721D02*
X236257313Y-108723435D01*
X236257313Y-108723435D02*
X236321123Y-108794864D01*
X236321123Y-108794864D02*
X236353028Y-108866292D01*
X236353028Y-108866292D02*
X236384932Y-109009149D01*
X236384932Y-109009149D02*
X236384932Y-109116292D01*
X236384932Y-109116292D02*
X236353028Y-109259149D01*
X236353028Y-109259149D02*
X236321123Y-109330578D01*
X236321123Y-109330578D02*
X236257313Y-109402007D01*
X236257313Y-109402007D02*
X236161599Y-109437721D01*
X236161599Y-109437721D02*
X236002075Y-109437721D01*
X236608266Y-108687721D02*
X237023028Y-108687721D01*
X237023028Y-108687721D02*
X236799694Y-108973435D01*
X236799694Y-108973435D02*
X236895409Y-108973435D01*
X236895409Y-108973435D02*
X236959218Y-109009149D01*
X236959218Y-109009149D02*
X236991123Y-109044864D01*
X236991123Y-109044864D02*
X237023028Y-109116292D01*
X237023028Y-109116292D02*
X237023028Y-109294864D01*
X237023028Y-109294864D02*
X236991123Y-109366292D01*
X236991123Y-109366292D02*
X236959218Y-109402007D01*
X236959218Y-109402007D02*
X236895409Y-109437721D01*
X236895409Y-109437721D02*
X236703980Y-109437721D01*
X236703980Y-109437721D02*
X236640171Y-109402007D01*
X236640171Y-109402007D02*
X236608266Y-109366292D01*
X237788742Y-108652007D02*
X237214456Y-109616292D01*
X237916361Y-108687721D02*
X238299218Y-108687721D01*
X238107790Y-109437721D02*
X238107790Y-108687721D01*
X238458742Y-108687721D02*
X238905408Y-109437721D01*
X238905408Y-108687721D02*
X238458742Y-109437721D01*
X239288265Y-108687721D02*
X239352075Y-108687721D01*
X239352075Y-108687721D02*
X239415884Y-108723435D01*
X239415884Y-108723435D02*
X239447789Y-108759149D01*
X239447789Y-108759149D02*
X239479694Y-108830578D01*
X239479694Y-108830578D02*
X239511599Y-108973435D01*
X239511599Y-108973435D02*
X239511599Y-109152007D01*
X239511599Y-109152007D02*
X239479694Y-109294864D01*
X239479694Y-109294864D02*
X239447789Y-109366292D01*
X239447789Y-109366292D02*
X239415884Y-109402007D01*
X239415884Y-109402007D02*
X239352075Y-109437721D01*
X239352075Y-109437721D02*
X239288265Y-109437721D01*
X239288265Y-109437721D02*
X239224456Y-109402007D01*
X239224456Y-109402007D02*
X239192551Y-109366292D01*
X239192551Y-109366292D02*
X239160646Y-109294864D01*
X239160646Y-109294864D02*
X239128742Y-109152007D01*
X239128742Y-109152007D02*
X239128742Y-108973435D01*
X239128742Y-108973435D02*
X239160646Y-108830578D01*
X239160646Y-108830578D02*
X239192551Y-108759149D01*
X239192551Y-108759149D02*
X239224456Y-108723435D01*
X239224456Y-108723435D02*
X239288265Y-108687721D01*
X237349695Y-134294864D02*
X237445409Y-134330578D01*
X237445409Y-134330578D02*
X237477314Y-134366292D01*
X237477314Y-134366292D02*
X237509218Y-134437721D01*
X237509218Y-134437721D02*
X237509218Y-134544864D01*
X237509218Y-134544864D02*
X237477314Y-134616292D01*
X237477314Y-134616292D02*
X237445409Y-134652007D01*
X237445409Y-134652007D02*
X237381599Y-134687721D01*
X237381599Y-134687721D02*
X237126361Y-134687721D01*
X237126361Y-134687721D02*
X237126361Y-133937721D01*
X237126361Y-133937721D02*
X237349695Y-133937721D01*
X237349695Y-133937721D02*
X237413504Y-133973435D01*
X237413504Y-133973435D02*
X237445409Y-134009149D01*
X237445409Y-134009149D02*
X237477314Y-134080578D01*
X237477314Y-134080578D02*
X237477314Y-134152007D01*
X237477314Y-134152007D02*
X237445409Y-134223435D01*
X237445409Y-134223435D02*
X237413504Y-134259149D01*
X237413504Y-134259149D02*
X237349695Y-134294864D01*
X237349695Y-134294864D02*
X237126361Y-134294864D01*
X238083504Y-134187721D02*
X238083504Y-134687721D01*
X237923980Y-133902007D02*
X237764457Y-134437721D01*
X237764457Y-134437721D02*
X238179218Y-134437721D01*
X238913028Y-133902007D02*
X238338742Y-134866292D01*
X239232076Y-134259149D02*
X239168266Y-134223435D01*
X239168266Y-134223435D02*
X239136361Y-134187721D01*
X239136361Y-134187721D02*
X239104457Y-134116292D01*
X239104457Y-134116292D02*
X239104457Y-134080578D01*
X239104457Y-134080578D02*
X239136361Y-134009149D01*
X239136361Y-134009149D02*
X239168266Y-133973435D01*
X239168266Y-133973435D02*
X239232076Y-133937721D01*
X239232076Y-133937721D02*
X239359695Y-133937721D01*
X239359695Y-133937721D02*
X239423504Y-133973435D01*
X239423504Y-133973435D02*
X239455409Y-134009149D01*
X239455409Y-134009149D02*
X239487314Y-134080578D01*
X239487314Y-134080578D02*
X239487314Y-134116292D01*
X239487314Y-134116292D02*
X239455409Y-134187721D01*
X239455409Y-134187721D02*
X239423504Y-134223435D01*
X239423504Y-134223435D02*
X239359695Y-134259149D01*
X239359695Y-134259149D02*
X239232076Y-134259149D01*
X239232076Y-134259149D02*
X239168266Y-134294864D01*
X239168266Y-134294864D02*
X239136361Y-134330578D01*
X239136361Y-134330578D02*
X239104457Y-134402007D01*
X239104457Y-134402007D02*
X239104457Y-134544864D01*
X239104457Y-134544864D02*
X239136361Y-134616292D01*
X239136361Y-134616292D02*
X239168266Y-134652007D01*
X239168266Y-134652007D02*
X239232076Y-134687721D01*
X239232076Y-134687721D02*
X239359695Y-134687721D01*
X239359695Y-134687721D02*
X239423504Y-134652007D01*
X239423504Y-134652007D02*
X239455409Y-134616292D01*
X239455409Y-134616292D02*
X239487314Y-134544864D01*
X239487314Y-134544864D02*
X239487314Y-134402007D01*
X239487314Y-134402007D02*
X239455409Y-134330578D01*
X239455409Y-134330578D02*
X239423504Y-134294864D01*
X239423504Y-134294864D02*
X239359695Y-134259149D01*
X237349695Y-136794864D02*
X237445409Y-136830578D01*
X237445409Y-136830578D02*
X237477314Y-136866292D01*
X237477314Y-136866292D02*
X237509218Y-136937721D01*
X237509218Y-136937721D02*
X237509218Y-137044864D01*
X237509218Y-137044864D02*
X237477314Y-137116292D01*
X237477314Y-137116292D02*
X237445409Y-137152007D01*
X237445409Y-137152007D02*
X237381599Y-137187721D01*
X237381599Y-137187721D02*
X237126361Y-137187721D01*
X237126361Y-137187721D02*
X237126361Y-136437721D01*
X237126361Y-136437721D02*
X237349695Y-136437721D01*
X237349695Y-136437721D02*
X237413504Y-136473435D01*
X237413504Y-136473435D02*
X237445409Y-136509149D01*
X237445409Y-136509149D02*
X237477314Y-136580578D01*
X237477314Y-136580578D02*
X237477314Y-136652007D01*
X237477314Y-136652007D02*
X237445409Y-136723435D01*
X237445409Y-136723435D02*
X237413504Y-136759149D01*
X237413504Y-136759149D02*
X237349695Y-136794864D01*
X237349695Y-136794864D02*
X237126361Y-136794864D01*
X238115409Y-136437721D02*
X237796361Y-136437721D01*
X237796361Y-136437721D02*
X237764457Y-136794864D01*
X237764457Y-136794864D02*
X237796361Y-136759149D01*
X237796361Y-136759149D02*
X237860171Y-136723435D01*
X237860171Y-136723435D02*
X238019695Y-136723435D01*
X238019695Y-136723435D02*
X238083504Y-136759149D01*
X238083504Y-136759149D02*
X238115409Y-136794864D01*
X238115409Y-136794864D02*
X238147314Y-136866292D01*
X238147314Y-136866292D02*
X238147314Y-137044864D01*
X238147314Y-137044864D02*
X238115409Y-137116292D01*
X238115409Y-137116292D02*
X238083504Y-137152007D01*
X238083504Y-137152007D02*
X238019695Y-137187721D01*
X238019695Y-137187721D02*
X237860171Y-137187721D01*
X237860171Y-137187721D02*
X237796361Y-137152007D01*
X237796361Y-137152007D02*
X237764457Y-137116292D01*
X238913028Y-136402007D02*
X238338742Y-137366292D01*
X239168266Y-137187721D02*
X239295885Y-137187721D01*
X239295885Y-137187721D02*
X239359695Y-137152007D01*
X239359695Y-137152007D02*
X239391599Y-137116292D01*
X239391599Y-137116292D02*
X239455409Y-137009149D01*
X239455409Y-137009149D02*
X239487314Y-136866292D01*
X239487314Y-136866292D02*
X239487314Y-136580578D01*
X239487314Y-136580578D02*
X239455409Y-136509149D01*
X239455409Y-136509149D02*
X239423504Y-136473435D01*
X239423504Y-136473435D02*
X239359695Y-136437721D01*
X239359695Y-136437721D02*
X239232076Y-136437721D01*
X239232076Y-136437721D02*
X239168266Y-136473435D01*
X239168266Y-136473435D02*
X239136361Y-136509149D01*
X239136361Y-136509149D02*
X239104457Y-136580578D01*
X239104457Y-136580578D02*
X239104457Y-136759149D01*
X239104457Y-136759149D02*
X239136361Y-136830578D01*
X239136361Y-136830578D02*
X239168266Y-136866292D01*
X239168266Y-136866292D02*
X239232076Y-136902007D01*
X239232076Y-136902007D02*
X239359695Y-136902007D01*
X239359695Y-136902007D02*
X239423504Y-136866292D01*
X239423504Y-136866292D02*
X239455409Y-136830578D01*
X239455409Y-136830578D02*
X239487314Y-136759149D01*
X237126361Y-129587721D02*
X237126361Y-128837721D01*
X237126361Y-128837721D02*
X237285885Y-128837721D01*
X237285885Y-128837721D02*
X237381599Y-128873435D01*
X237381599Y-128873435D02*
X237445409Y-128944864D01*
X237445409Y-128944864D02*
X237477314Y-129016292D01*
X237477314Y-129016292D02*
X237509218Y-129159149D01*
X237509218Y-129159149D02*
X237509218Y-129266292D01*
X237509218Y-129266292D02*
X237477314Y-129409149D01*
X237477314Y-129409149D02*
X237445409Y-129480578D01*
X237445409Y-129480578D02*
X237381599Y-129552007D01*
X237381599Y-129552007D02*
X237285885Y-129587721D01*
X237285885Y-129587721D02*
X237126361Y-129587721D01*
X237732552Y-128837721D02*
X238179218Y-128837721D01*
X238179218Y-128837721D02*
X237892076Y-129587721D01*
X238913028Y-128802007D02*
X238338742Y-129766292D01*
X239423504Y-128837721D02*
X239295885Y-128837721D01*
X239295885Y-128837721D02*
X239232076Y-128873435D01*
X239232076Y-128873435D02*
X239200171Y-128909149D01*
X239200171Y-128909149D02*
X239136361Y-129016292D01*
X239136361Y-129016292D02*
X239104457Y-129159149D01*
X239104457Y-129159149D02*
X239104457Y-129444864D01*
X239104457Y-129444864D02*
X239136361Y-129516292D01*
X239136361Y-129516292D02*
X239168266Y-129552007D01*
X239168266Y-129552007D02*
X239232076Y-129587721D01*
X239232076Y-129587721D02*
X239359695Y-129587721D01*
X239359695Y-129587721D02*
X239423504Y-129552007D01*
X239423504Y-129552007D02*
X239455409Y-129516292D01*
X239455409Y-129516292D02*
X239487314Y-129444864D01*
X239487314Y-129444864D02*
X239487314Y-129266292D01*
X239487314Y-129266292D02*
X239455409Y-129194864D01*
X239455409Y-129194864D02*
X239423504Y-129159149D01*
X239423504Y-129159149D02*
X239359695Y-129123435D01*
X239359695Y-129123435D02*
X239232076Y-129123435D01*
X239232076Y-129123435D02*
X239168266Y-129159149D01*
X239168266Y-129159149D02*
X239136361Y-129194864D01*
X239136361Y-129194864D02*
X239104457Y-129266292D01*
D12*
X231089456Y-104937981D02*
X231089456Y-104187981D01*
X231089456Y-104187981D02*
X231339456Y-104723695D01*
X231339456Y-104723695D02*
X231589456Y-104187981D01*
X231589456Y-104187981D02*
X231589456Y-104937981D01*
X231946599Y-104937981D02*
X231946599Y-104437981D01*
X231946599Y-104187981D02*
X231910885Y-104223695D01*
X231910885Y-104223695D02*
X231946599Y-104259409D01*
X231946599Y-104259409D02*
X231982313Y-104223695D01*
X231982313Y-104223695D02*
X231946599Y-104187981D01*
X231946599Y-104187981D02*
X231946599Y-104259409D01*
X232625171Y-104902267D02*
X232553742Y-104937981D01*
X232553742Y-104937981D02*
X232410885Y-104937981D01*
X232410885Y-104937981D02*
X232339456Y-104902267D01*
X232339456Y-104902267D02*
X232303742Y-104866552D01*
X232303742Y-104866552D02*
X232268028Y-104795124D01*
X232268028Y-104795124D02*
X232268028Y-104580838D01*
X232268028Y-104580838D02*
X232303742Y-104509409D01*
X232303742Y-104509409D02*
X232339456Y-104473695D01*
X232339456Y-104473695D02*
X232410885Y-104437981D01*
X232410885Y-104437981D02*
X232553742Y-104437981D01*
X232553742Y-104437981D02*
X232625171Y-104473695D01*
X232946599Y-104937981D02*
X232946599Y-104437981D01*
X232946599Y-104580838D02*
X232982313Y-104509409D01*
X232982313Y-104509409D02*
X233018028Y-104473695D01*
X233018028Y-104473695D02*
X233089456Y-104437981D01*
X233089456Y-104437981D02*
X233160885Y-104437981D01*
X233518028Y-104937981D02*
X233446599Y-104902267D01*
X233446599Y-104902267D02*
X233410885Y-104866552D01*
X233410885Y-104866552D02*
X233375171Y-104795124D01*
X233375171Y-104795124D02*
X233375171Y-104580838D01*
X233375171Y-104580838D02*
X233410885Y-104509409D01*
X233410885Y-104509409D02*
X233446599Y-104473695D01*
X233446599Y-104473695D02*
X233518028Y-104437981D01*
X233518028Y-104437981D02*
X233625171Y-104437981D01*
X233625171Y-104437981D02*
X233696599Y-104473695D01*
X233696599Y-104473695D02*
X233732314Y-104509409D01*
X233732314Y-104509409D02*
X233768028Y-104580838D01*
X233768028Y-104580838D02*
X233768028Y-104795124D01*
X233768028Y-104795124D02*
X233732314Y-104866552D01*
X233732314Y-104866552D02*
X233696599Y-104902267D01*
X233696599Y-104902267D02*
X233625171Y-104937981D01*
X233625171Y-104937981D02*
X233518028Y-104937981D01*
X234089456Y-104187981D02*
X234089456Y-104795124D01*
X234089456Y-104795124D02*
X234125170Y-104866552D01*
X234125170Y-104866552D02*
X234160885Y-104902267D01*
X234160885Y-104902267D02*
X234232313Y-104937981D01*
X234232313Y-104937981D02*
X234375170Y-104937981D01*
X234375170Y-104937981D02*
X234446599Y-104902267D01*
X234446599Y-104902267D02*
X234482313Y-104866552D01*
X234482313Y-104866552D02*
X234518027Y-104795124D01*
X234518027Y-104795124D02*
X234518027Y-104187981D01*
X234839456Y-104902267D02*
X234946599Y-104937981D01*
X234946599Y-104937981D02*
X235125170Y-104937981D01*
X235125170Y-104937981D02*
X235196599Y-104902267D01*
X235196599Y-104902267D02*
X235232313Y-104866552D01*
X235232313Y-104866552D02*
X235268027Y-104795124D01*
X235268027Y-104795124D02*
X235268027Y-104723695D01*
X235268027Y-104723695D02*
X235232313Y-104652267D01*
X235232313Y-104652267D02*
X235196599Y-104616552D01*
X235196599Y-104616552D02*
X235125170Y-104580838D01*
X235125170Y-104580838D02*
X234982313Y-104545124D01*
X234982313Y-104545124D02*
X234910884Y-104509409D01*
X234910884Y-104509409D02*
X234875170Y-104473695D01*
X234875170Y-104473695D02*
X234839456Y-104402267D01*
X234839456Y-104402267D02*
X234839456Y-104330838D01*
X234839456Y-104330838D02*
X234875170Y-104259409D01*
X234875170Y-104259409D02*
X234910884Y-104223695D01*
X234910884Y-104223695D02*
X234982313Y-104187981D01*
X234982313Y-104187981D02*
X235160884Y-104187981D01*
X235160884Y-104187981D02*
X235268027Y-104223695D01*
X235839456Y-104545124D02*
X235946599Y-104580838D01*
X235946599Y-104580838D02*
X235982313Y-104616552D01*
X235982313Y-104616552D02*
X236018027Y-104687981D01*
X236018027Y-104687981D02*
X236018027Y-104795124D01*
X236018027Y-104795124D02*
X235982313Y-104866552D01*
X235982313Y-104866552D02*
X235946599Y-104902267D01*
X235946599Y-104902267D02*
X235875170Y-104937981D01*
X235875170Y-104937981D02*
X235589456Y-104937981D01*
X235589456Y-104937981D02*
X235589456Y-104187981D01*
X235589456Y-104187981D02*
X235839456Y-104187981D01*
X235839456Y-104187981D02*
X235910885Y-104223695D01*
X235910885Y-104223695D02*
X235946599Y-104259409D01*
X235946599Y-104259409D02*
X235982313Y-104330838D01*
X235982313Y-104330838D02*
X235982313Y-104402267D01*
X235982313Y-104402267D02*
X235946599Y-104473695D01*
X235946599Y-104473695D02*
X235910885Y-104509409D01*
X235910885Y-104509409D02*
X235839456Y-104545124D01*
X235839456Y-104545124D02*
X235589456Y-104545124D01*
D11*
X238166809Y-106155435D02*
X238102999Y-106119721D01*
X238102999Y-106119721D02*
X238007285Y-106119721D01*
X238007285Y-106119721D02*
X237911571Y-106155435D01*
X237911571Y-106155435D02*
X237847761Y-106226864D01*
X237847761Y-106226864D02*
X237815856Y-106298292D01*
X237815856Y-106298292D02*
X237783952Y-106441149D01*
X237783952Y-106441149D02*
X237783952Y-106548292D01*
X237783952Y-106548292D02*
X237815856Y-106691149D01*
X237815856Y-106691149D02*
X237847761Y-106762578D01*
X237847761Y-106762578D02*
X237911571Y-106834007D01*
X237911571Y-106834007D02*
X238007285Y-106869721D01*
X238007285Y-106869721D02*
X238071094Y-106869721D01*
X238071094Y-106869721D02*
X238166809Y-106834007D01*
X238166809Y-106834007D02*
X238198713Y-106798292D01*
X238198713Y-106798292D02*
X238198713Y-106548292D01*
X238198713Y-106548292D02*
X238071094Y-106548292D01*
X238485856Y-106869721D02*
X238485856Y-106119721D01*
X238485856Y-106119721D02*
X238868713Y-106869721D01*
X238868713Y-106869721D02*
X238868713Y-106119721D01*
X239187761Y-106869721D02*
X239187761Y-106119721D01*
X239187761Y-106119721D02*
X239347285Y-106119721D01*
X239347285Y-106119721D02*
X239442999Y-106155435D01*
X239442999Y-106155435D02*
X239506809Y-106226864D01*
X239506809Y-106226864D02*
X239538714Y-106298292D01*
X239538714Y-106298292D02*
X239570618Y-106441149D01*
X239570618Y-106441149D02*
X239570618Y-106548292D01*
X239570618Y-106548292D02*
X239538714Y-106691149D01*
X239538714Y-106691149D02*
X239506809Y-106762578D01*
X239506809Y-106762578D02*
X239442999Y-106834007D01*
X239442999Y-106834007D02*
X239347285Y-106869721D01*
X239347285Y-106869721D02*
X239187761Y-106869721D01*
X235922313Y-111987721D02*
X235922313Y-111237721D01*
X235922313Y-111237721D02*
X236081837Y-111237721D01*
X236081837Y-111237721D02*
X236177551Y-111273435D01*
X236177551Y-111273435D02*
X236241361Y-111344864D01*
X236241361Y-111344864D02*
X236273266Y-111416292D01*
X236273266Y-111416292D02*
X236305170Y-111559149D01*
X236305170Y-111559149D02*
X236305170Y-111666292D01*
X236305170Y-111666292D02*
X236273266Y-111809149D01*
X236273266Y-111809149D02*
X236241361Y-111880578D01*
X236241361Y-111880578D02*
X236177551Y-111952007D01*
X236177551Y-111952007D02*
X236081837Y-111987721D01*
X236081837Y-111987721D02*
X235922313Y-111987721D01*
X236560409Y-111309149D02*
X236592313Y-111273435D01*
X236592313Y-111273435D02*
X236656123Y-111237721D01*
X236656123Y-111237721D02*
X236815647Y-111237721D01*
X236815647Y-111237721D02*
X236879456Y-111273435D01*
X236879456Y-111273435D02*
X236911361Y-111309149D01*
X236911361Y-111309149D02*
X236943266Y-111380578D01*
X236943266Y-111380578D02*
X236943266Y-111452007D01*
X236943266Y-111452007D02*
X236911361Y-111559149D01*
X236911361Y-111559149D02*
X236528504Y-111987721D01*
X236528504Y-111987721D02*
X236943266Y-111987721D01*
X237708980Y-111202007D02*
X237134694Y-112166292D01*
X238315170Y-111987721D02*
X238091837Y-111630578D01*
X237932313Y-111987721D02*
X237932313Y-111237721D01*
X237932313Y-111237721D02*
X238187551Y-111237721D01*
X238187551Y-111237721D02*
X238251361Y-111273435D01*
X238251361Y-111273435D02*
X238283266Y-111309149D01*
X238283266Y-111309149D02*
X238315170Y-111380578D01*
X238315170Y-111380578D02*
X238315170Y-111487721D01*
X238315170Y-111487721D02*
X238283266Y-111559149D01*
X238283266Y-111559149D02*
X238251361Y-111594864D01*
X238251361Y-111594864D02*
X238187551Y-111630578D01*
X238187551Y-111630578D02*
X237932313Y-111630578D01*
X238538504Y-111237721D02*
X238985170Y-111987721D01*
X238985170Y-111237721D02*
X238538504Y-111987721D01*
X239591361Y-111987721D02*
X239208504Y-111987721D01*
X239399932Y-111987721D02*
X239399932Y-111237721D01*
X239399932Y-111237721D02*
X239336123Y-111344864D01*
X239336123Y-111344864D02*
X239272313Y-111416292D01*
X239272313Y-111416292D02*
X239208504Y-111452007D01*
X228128265Y-109387721D02*
X227904932Y-109030578D01*
X227745408Y-109387721D02*
X227745408Y-108637721D01*
X227745408Y-108637721D02*
X228000646Y-108637721D01*
X228000646Y-108637721D02*
X228064456Y-108673435D01*
X228064456Y-108673435D02*
X228096361Y-108709149D01*
X228096361Y-108709149D02*
X228128265Y-108780578D01*
X228128265Y-108780578D02*
X228128265Y-108887721D01*
X228128265Y-108887721D02*
X228096361Y-108959149D01*
X228096361Y-108959149D02*
X228064456Y-108994864D01*
X228064456Y-108994864D02*
X228000646Y-109030578D01*
X228000646Y-109030578D02*
X227745408Y-109030578D01*
X228383504Y-109173435D02*
X228702551Y-109173435D01*
X228319694Y-109387721D02*
X228543027Y-108637721D01*
X228543027Y-108637721D02*
X228766361Y-109387721D01*
X228925885Y-108637721D02*
X229085409Y-109387721D01*
X229085409Y-109387721D02*
X229213028Y-108852007D01*
X229213028Y-108852007D02*
X229340647Y-109387721D01*
X229340647Y-109387721D02*
X229500171Y-108637721D01*
X227755171Y-124423435D02*
X228074218Y-124423435D01*
X227691361Y-124637721D02*
X227914694Y-123887721D01*
X227914694Y-123887721D02*
X228138028Y-124637721D01*
X228712314Y-124637721D02*
X228329457Y-124637721D01*
X228520885Y-124637721D02*
X228520885Y-123887721D01*
X228520885Y-123887721D02*
X228457076Y-123994864D01*
X228457076Y-123994864D02*
X228393266Y-124066292D01*
X228393266Y-124066292D02*
X228329457Y-124102007D01*
X229478028Y-123852007D02*
X228903742Y-124816292D01*
X229924695Y-124244864D02*
X229701361Y-124244864D01*
X229701361Y-124637721D02*
X229701361Y-123887721D01*
X229701361Y-123887721D02*
X230020409Y-123887721D01*
X230562790Y-123887721D02*
X230435171Y-123887721D01*
X230435171Y-123887721D02*
X230371362Y-123923435D01*
X230371362Y-123923435D02*
X230339457Y-123959149D01*
X230339457Y-123959149D02*
X230275647Y-124066292D01*
X230275647Y-124066292D02*
X230243743Y-124209149D01*
X230243743Y-124209149D02*
X230243743Y-124494864D01*
X230243743Y-124494864D02*
X230275647Y-124566292D01*
X230275647Y-124566292D02*
X230307552Y-124602007D01*
X230307552Y-124602007D02*
X230371362Y-124637721D01*
X230371362Y-124637721D02*
X230498981Y-124637721D01*
X230498981Y-124637721D02*
X230562790Y-124602007D01*
X230562790Y-124602007D02*
X230594695Y-124566292D01*
X230594695Y-124566292D02*
X230626600Y-124494864D01*
X230626600Y-124494864D02*
X230626600Y-124316292D01*
X230626600Y-124316292D02*
X230594695Y-124244864D01*
X230594695Y-124244864D02*
X230562790Y-124209149D01*
X230562790Y-124209149D02*
X230498981Y-124173435D01*
X230498981Y-124173435D02*
X230371362Y-124173435D01*
X230371362Y-124173435D02*
X230307552Y-124209149D01*
X230307552Y-124209149D02*
X230275647Y-124244864D01*
X230275647Y-124244864D02*
X230243743Y-124316292D01*
X199458266Y-132262721D02*
X199075409Y-132262721D01*
X199266837Y-132262721D02*
X199266837Y-131512721D01*
X199266837Y-131512721D02*
X199203028Y-131619864D01*
X199203028Y-131619864D02*
X199139218Y-131691292D01*
X199139218Y-131691292D02*
X199075409Y-131727007D01*
X200032551Y-131762721D02*
X200032551Y-132262721D01*
X199873027Y-131477007D02*
X199713504Y-132012721D01*
X199713504Y-132012721D02*
X200128265Y-132012721D01*
X200862075Y-131477007D02*
X200287789Y-132441292D01*
X201308742Y-131869864D02*
X201404456Y-131905578D01*
X201404456Y-131905578D02*
X201436361Y-131941292D01*
X201436361Y-131941292D02*
X201468265Y-132012721D01*
X201468265Y-132012721D02*
X201468265Y-132119864D01*
X201468265Y-132119864D02*
X201436361Y-132191292D01*
X201436361Y-132191292D02*
X201404456Y-132227007D01*
X201404456Y-132227007D02*
X201340646Y-132262721D01*
X201340646Y-132262721D02*
X201085408Y-132262721D01*
X201085408Y-132262721D02*
X201085408Y-131512721D01*
X201085408Y-131512721D02*
X201308742Y-131512721D01*
X201308742Y-131512721D02*
X201372551Y-131548435D01*
X201372551Y-131548435D02*
X201404456Y-131584149D01*
X201404456Y-131584149D02*
X201436361Y-131655578D01*
X201436361Y-131655578D02*
X201436361Y-131727007D01*
X201436361Y-131727007D02*
X201404456Y-131798435D01*
X201404456Y-131798435D02*
X201372551Y-131834149D01*
X201372551Y-131834149D02*
X201308742Y-131869864D01*
X201308742Y-131869864D02*
X201085408Y-131869864D01*
X201691599Y-131512721D02*
X202106361Y-131512721D01*
X202106361Y-131512721D02*
X201883027Y-131798435D01*
X201883027Y-131798435D02*
X201978742Y-131798435D01*
X201978742Y-131798435D02*
X202042551Y-131834149D01*
X202042551Y-131834149D02*
X202074456Y-131869864D01*
X202074456Y-131869864D02*
X202106361Y-131941292D01*
X202106361Y-131941292D02*
X202106361Y-132119864D01*
X202106361Y-132119864D02*
X202074456Y-132191292D01*
X202074456Y-132191292D02*
X202042551Y-132227007D01*
X202042551Y-132227007D02*
X201978742Y-132262721D01*
X201978742Y-132262721D02*
X201787313Y-132262721D01*
X201787313Y-132262721D02*
X201723504Y-132227007D01*
X201723504Y-132227007D02*
X201691599Y-132191292D01*
X209430409Y-113798435D02*
X209366599Y-113762721D01*
X209366599Y-113762721D02*
X209270885Y-113762721D01*
X209270885Y-113762721D02*
X209175171Y-113798435D01*
X209175171Y-113798435D02*
X209111361Y-113869864D01*
X209111361Y-113869864D02*
X209079456Y-113941292D01*
X209079456Y-113941292D02*
X209047552Y-114084149D01*
X209047552Y-114084149D02*
X209047552Y-114191292D01*
X209047552Y-114191292D02*
X209079456Y-114334149D01*
X209079456Y-114334149D02*
X209111361Y-114405578D01*
X209111361Y-114405578D02*
X209175171Y-114477007D01*
X209175171Y-114477007D02*
X209270885Y-114512721D01*
X209270885Y-114512721D02*
X209334694Y-114512721D01*
X209334694Y-114512721D02*
X209430409Y-114477007D01*
X209430409Y-114477007D02*
X209462313Y-114441292D01*
X209462313Y-114441292D02*
X209462313Y-114191292D01*
X209462313Y-114191292D02*
X209334694Y-114191292D01*
X209749456Y-114512721D02*
X209749456Y-113762721D01*
X209749456Y-113762721D02*
X210132313Y-114512721D01*
X210132313Y-114512721D02*
X210132313Y-113762721D01*
X210451361Y-114512721D02*
X210451361Y-113762721D01*
X210451361Y-113762721D02*
X210610885Y-113762721D01*
X210610885Y-113762721D02*
X210706599Y-113798435D01*
X210706599Y-113798435D02*
X210770409Y-113869864D01*
X210770409Y-113869864D02*
X210802314Y-113941292D01*
X210802314Y-113941292D02*
X210834218Y-114084149D01*
X210834218Y-114084149D02*
X210834218Y-114191292D01*
X210834218Y-114191292D02*
X210802314Y-114334149D01*
X210802314Y-114334149D02*
X210770409Y-114405578D01*
X210770409Y-114405578D02*
X210706599Y-114477007D01*
X210706599Y-114477007D02*
X210610885Y-114512721D01*
X210610885Y-114512721D02*
X210451361Y-114512721D01*
X199480409Y-111198435D02*
X199416599Y-111162721D01*
X199416599Y-111162721D02*
X199320885Y-111162721D01*
X199320885Y-111162721D02*
X199225171Y-111198435D01*
X199225171Y-111198435D02*
X199161361Y-111269864D01*
X199161361Y-111269864D02*
X199129456Y-111341292D01*
X199129456Y-111341292D02*
X199097552Y-111484149D01*
X199097552Y-111484149D02*
X199097552Y-111591292D01*
X199097552Y-111591292D02*
X199129456Y-111734149D01*
X199129456Y-111734149D02*
X199161361Y-111805578D01*
X199161361Y-111805578D02*
X199225171Y-111877007D01*
X199225171Y-111877007D02*
X199320885Y-111912721D01*
X199320885Y-111912721D02*
X199384694Y-111912721D01*
X199384694Y-111912721D02*
X199480409Y-111877007D01*
X199480409Y-111877007D02*
X199512313Y-111841292D01*
X199512313Y-111841292D02*
X199512313Y-111591292D01*
X199512313Y-111591292D02*
X199384694Y-111591292D01*
X199799456Y-111912721D02*
X199799456Y-111162721D01*
X199799456Y-111162721D02*
X200182313Y-111912721D01*
X200182313Y-111912721D02*
X200182313Y-111162721D01*
X200501361Y-111912721D02*
X200501361Y-111162721D01*
X200501361Y-111162721D02*
X200660885Y-111162721D01*
X200660885Y-111162721D02*
X200756599Y-111198435D01*
X200756599Y-111198435D02*
X200820409Y-111269864D01*
X200820409Y-111269864D02*
X200852314Y-111341292D01*
X200852314Y-111341292D02*
X200884218Y-111484149D01*
X200884218Y-111484149D02*
X200884218Y-111591292D01*
X200884218Y-111591292D02*
X200852314Y-111734149D01*
X200852314Y-111734149D02*
X200820409Y-111805578D01*
X200820409Y-111805578D02*
X200756599Y-111877007D01*
X200756599Y-111877007D02*
X200660885Y-111912721D01*
X200660885Y-111912721D02*
X200501361Y-111912721D01*
X208558266Y-131719864D02*
X208781600Y-131719864D01*
X208877314Y-132112721D02*
X208558266Y-132112721D01*
X208558266Y-132112721D02*
X208558266Y-131362721D01*
X208558266Y-131362721D02*
X208877314Y-131362721D01*
X209451599Y-131362721D02*
X209323980Y-131362721D01*
X209323980Y-131362721D02*
X209260171Y-131398435D01*
X209260171Y-131398435D02*
X209228266Y-131434149D01*
X209228266Y-131434149D02*
X209164456Y-131541292D01*
X209164456Y-131541292D02*
X209132552Y-131684149D01*
X209132552Y-131684149D02*
X209132552Y-131969864D01*
X209132552Y-131969864D02*
X209164456Y-132041292D01*
X209164456Y-132041292D02*
X209196361Y-132077007D01*
X209196361Y-132077007D02*
X209260171Y-132112721D01*
X209260171Y-132112721D02*
X209387790Y-132112721D01*
X209387790Y-132112721D02*
X209451599Y-132077007D01*
X209451599Y-132077007D02*
X209483504Y-132041292D01*
X209483504Y-132041292D02*
X209515409Y-131969864D01*
X209515409Y-131969864D02*
X209515409Y-131791292D01*
X209515409Y-131791292D02*
X209483504Y-131719864D01*
X209483504Y-131719864D02*
X209451599Y-131684149D01*
X209451599Y-131684149D02*
X209387790Y-131648435D01*
X209387790Y-131648435D02*
X209260171Y-131648435D01*
X209260171Y-131648435D02*
X209196361Y-131684149D01*
X209196361Y-131684149D02*
X209164456Y-131719864D01*
X209164456Y-131719864D02*
X209132552Y-131791292D01*
X210281123Y-131327007D02*
X209706837Y-132291292D01*
X210440647Y-131362721D02*
X210887313Y-131362721D01*
X210887313Y-131362721D02*
X210600171Y-132112721D01*
X208909218Y-126941292D02*
X208877314Y-126977007D01*
X208877314Y-126977007D02*
X208781599Y-127012721D01*
X208781599Y-127012721D02*
X208717790Y-127012721D01*
X208717790Y-127012721D02*
X208622076Y-126977007D01*
X208622076Y-126977007D02*
X208558266Y-126905578D01*
X208558266Y-126905578D02*
X208526361Y-126834149D01*
X208526361Y-126834149D02*
X208494457Y-126691292D01*
X208494457Y-126691292D02*
X208494457Y-126584149D01*
X208494457Y-126584149D02*
X208526361Y-126441292D01*
X208526361Y-126441292D02*
X208558266Y-126369864D01*
X208558266Y-126369864D02*
X208622076Y-126298435D01*
X208622076Y-126298435D02*
X208717790Y-126262721D01*
X208717790Y-126262721D02*
X208781599Y-126262721D01*
X208781599Y-126262721D02*
X208877314Y-126298435D01*
X208877314Y-126298435D02*
X208909218Y-126334149D01*
X209483504Y-126262721D02*
X209355885Y-126262721D01*
X209355885Y-126262721D02*
X209292076Y-126298435D01*
X209292076Y-126298435D02*
X209260171Y-126334149D01*
X209260171Y-126334149D02*
X209196361Y-126441292D01*
X209196361Y-126441292D02*
X209164457Y-126584149D01*
X209164457Y-126584149D02*
X209164457Y-126869864D01*
X209164457Y-126869864D02*
X209196361Y-126941292D01*
X209196361Y-126941292D02*
X209228266Y-126977007D01*
X209228266Y-126977007D02*
X209292076Y-127012721D01*
X209292076Y-127012721D02*
X209419695Y-127012721D01*
X209419695Y-127012721D02*
X209483504Y-126977007D01*
X209483504Y-126977007D02*
X209515409Y-126941292D01*
X209515409Y-126941292D02*
X209547314Y-126869864D01*
X209547314Y-126869864D02*
X209547314Y-126691292D01*
X209547314Y-126691292D02*
X209515409Y-126619864D01*
X209515409Y-126619864D02*
X209483504Y-126584149D01*
X209483504Y-126584149D02*
X209419695Y-126548435D01*
X209419695Y-126548435D02*
X209292076Y-126548435D01*
X209292076Y-126548435D02*
X209228266Y-126584149D01*
X209228266Y-126584149D02*
X209196361Y-126619864D01*
X209196361Y-126619864D02*
X209164457Y-126691292D01*
X210313028Y-126227007D02*
X209738742Y-127191292D01*
X210855409Y-126262721D02*
X210536361Y-126262721D01*
X210536361Y-126262721D02*
X210504457Y-126619864D01*
X210504457Y-126619864D02*
X210536361Y-126584149D01*
X210536361Y-126584149D02*
X210600171Y-126548435D01*
X210600171Y-126548435D02*
X210759695Y-126548435D01*
X210759695Y-126548435D02*
X210823504Y-126584149D01*
X210823504Y-126584149D02*
X210855409Y-126619864D01*
X210855409Y-126619864D02*
X210887314Y-126691292D01*
X210887314Y-126691292D02*
X210887314Y-126869864D01*
X210887314Y-126869864D02*
X210855409Y-126941292D01*
X210855409Y-126941292D02*
X210823504Y-126977007D01*
X210823504Y-126977007D02*
X210759695Y-127012721D01*
X210759695Y-127012721D02*
X210600171Y-127012721D01*
X210600171Y-127012721D02*
X210536361Y-126977007D01*
X210536361Y-126977007D02*
X210504457Y-126941292D01*
X199097551Y-116162721D02*
X199320884Y-116912721D01*
X199320884Y-116912721D02*
X199544218Y-116162721D01*
X200150408Y-116841292D02*
X200118504Y-116877007D01*
X200118504Y-116877007D02*
X200022789Y-116912721D01*
X200022789Y-116912721D02*
X199958980Y-116912721D01*
X199958980Y-116912721D02*
X199863266Y-116877007D01*
X199863266Y-116877007D02*
X199799456Y-116805578D01*
X199799456Y-116805578D02*
X199767551Y-116734149D01*
X199767551Y-116734149D02*
X199735647Y-116591292D01*
X199735647Y-116591292D02*
X199735647Y-116484149D01*
X199735647Y-116484149D02*
X199767551Y-116341292D01*
X199767551Y-116341292D02*
X199799456Y-116269864D01*
X199799456Y-116269864D02*
X199863266Y-116198435D01*
X199863266Y-116198435D02*
X199958980Y-116162721D01*
X199958980Y-116162721D02*
X200022789Y-116162721D01*
X200022789Y-116162721D02*
X200118504Y-116198435D01*
X200118504Y-116198435D02*
X200150408Y-116234149D01*
X200820408Y-116841292D02*
X200788504Y-116877007D01*
X200788504Y-116877007D02*
X200692789Y-116912721D01*
X200692789Y-116912721D02*
X200628980Y-116912721D01*
X200628980Y-116912721D02*
X200533266Y-116877007D01*
X200533266Y-116877007D02*
X200469456Y-116805578D01*
X200469456Y-116805578D02*
X200437551Y-116734149D01*
X200437551Y-116734149D02*
X200405647Y-116591292D01*
X200405647Y-116591292D02*
X200405647Y-116484149D01*
X200405647Y-116484149D02*
X200437551Y-116341292D01*
X200437551Y-116341292D02*
X200469456Y-116269864D01*
X200469456Y-116269864D02*
X200533266Y-116198435D01*
X200533266Y-116198435D02*
X200628980Y-116162721D01*
X200628980Y-116162721D02*
X200692789Y-116162721D01*
X200692789Y-116162721D02*
X200788504Y-116198435D01*
X200788504Y-116198435D02*
X200820408Y-116234149D01*
X199458266Y-129712721D02*
X199075409Y-129712721D01*
X199266837Y-129712721D02*
X199266837Y-128962721D01*
X199266837Y-128962721D02*
X199203028Y-129069864D01*
X199203028Y-129069864D02*
X199139218Y-129141292D01*
X199139218Y-129141292D02*
X199075409Y-129177007D01*
X200064456Y-128962721D02*
X199745408Y-128962721D01*
X199745408Y-128962721D02*
X199713504Y-129319864D01*
X199713504Y-129319864D02*
X199745408Y-129284149D01*
X199745408Y-129284149D02*
X199809218Y-129248435D01*
X199809218Y-129248435D02*
X199968742Y-129248435D01*
X199968742Y-129248435D02*
X200032551Y-129284149D01*
X200032551Y-129284149D02*
X200064456Y-129319864D01*
X200064456Y-129319864D02*
X200096361Y-129391292D01*
X200096361Y-129391292D02*
X200096361Y-129569864D01*
X200096361Y-129569864D02*
X200064456Y-129641292D01*
X200064456Y-129641292D02*
X200032551Y-129677007D01*
X200032551Y-129677007D02*
X199968742Y-129712721D01*
X199968742Y-129712721D02*
X199809218Y-129712721D01*
X199809218Y-129712721D02*
X199745408Y-129677007D01*
X199745408Y-129677007D02*
X199713504Y-129641292D01*
X200862075Y-128927007D02*
X200287789Y-129891292D01*
X201308742Y-129319864D02*
X201404456Y-129355578D01*
X201404456Y-129355578D02*
X201436361Y-129391292D01*
X201436361Y-129391292D02*
X201468265Y-129462721D01*
X201468265Y-129462721D02*
X201468265Y-129569864D01*
X201468265Y-129569864D02*
X201436361Y-129641292D01*
X201436361Y-129641292D02*
X201404456Y-129677007D01*
X201404456Y-129677007D02*
X201340646Y-129712721D01*
X201340646Y-129712721D02*
X201085408Y-129712721D01*
X201085408Y-129712721D02*
X201085408Y-128962721D01*
X201085408Y-128962721D02*
X201308742Y-128962721D01*
X201308742Y-128962721D02*
X201372551Y-128998435D01*
X201372551Y-128998435D02*
X201404456Y-129034149D01*
X201404456Y-129034149D02*
X201436361Y-129105578D01*
X201436361Y-129105578D02*
X201436361Y-129177007D01*
X201436361Y-129177007D02*
X201404456Y-129248435D01*
X201404456Y-129248435D02*
X201372551Y-129284149D01*
X201372551Y-129284149D02*
X201308742Y-129319864D01*
X201308742Y-129319864D02*
X201085408Y-129319864D01*
X202106361Y-129712721D02*
X201723504Y-129712721D01*
X201914932Y-129712721D02*
X201914932Y-128962721D01*
X201914932Y-128962721D02*
X201851123Y-129069864D01*
X201851123Y-129069864D02*
X201787313Y-129141292D01*
X201787313Y-129141292D02*
X201723504Y-129177007D01*
X208526361Y-124462721D02*
X208526361Y-123712721D01*
X208526361Y-123712721D02*
X208685885Y-123712721D01*
X208685885Y-123712721D02*
X208781599Y-123748435D01*
X208781599Y-123748435D02*
X208845409Y-123819864D01*
X208845409Y-123819864D02*
X208877314Y-123891292D01*
X208877314Y-123891292D02*
X208909218Y-124034149D01*
X208909218Y-124034149D02*
X208909218Y-124141292D01*
X208909218Y-124141292D02*
X208877314Y-124284149D01*
X208877314Y-124284149D02*
X208845409Y-124355578D01*
X208845409Y-124355578D02*
X208781599Y-124427007D01*
X208781599Y-124427007D02*
X208685885Y-124462721D01*
X208685885Y-124462721D02*
X208526361Y-124462721D01*
X209483504Y-123962721D02*
X209483504Y-124462721D01*
X209323980Y-123677007D02*
X209164457Y-124212721D01*
X209164457Y-124212721D02*
X209579218Y-124212721D01*
X210313028Y-123677007D02*
X209738742Y-124641292D01*
X210823504Y-123962721D02*
X210823504Y-124462721D01*
X210663980Y-123677007D02*
X210504457Y-124212721D01*
X210504457Y-124212721D02*
X210919218Y-124212721D01*
X199623980Y-114462721D02*
X199400647Y-114105578D01*
X199241123Y-114462721D02*
X199241123Y-113712721D01*
X199241123Y-113712721D02*
X199496361Y-113712721D01*
X199496361Y-113712721D02*
X199560171Y-113748435D01*
X199560171Y-113748435D02*
X199592076Y-113784149D01*
X199592076Y-113784149D02*
X199623980Y-113855578D01*
X199623980Y-113855578D02*
X199623980Y-113962721D01*
X199623980Y-113962721D02*
X199592076Y-114034149D01*
X199592076Y-114034149D02*
X199560171Y-114069864D01*
X199560171Y-114069864D02*
X199496361Y-114105578D01*
X199496361Y-114105578D02*
X199241123Y-114105578D01*
X199879219Y-114427007D02*
X199974933Y-114462721D01*
X199974933Y-114462721D02*
X200134457Y-114462721D01*
X200134457Y-114462721D02*
X200198266Y-114427007D01*
X200198266Y-114427007D02*
X200230171Y-114391292D01*
X200230171Y-114391292D02*
X200262076Y-114319864D01*
X200262076Y-114319864D02*
X200262076Y-114248435D01*
X200262076Y-114248435D02*
X200230171Y-114177007D01*
X200230171Y-114177007D02*
X200198266Y-114141292D01*
X200198266Y-114141292D02*
X200134457Y-114105578D01*
X200134457Y-114105578D02*
X200006838Y-114069864D01*
X200006838Y-114069864D02*
X199943028Y-114034149D01*
X199943028Y-114034149D02*
X199911123Y-113998435D01*
X199911123Y-113998435D02*
X199879219Y-113927007D01*
X199879219Y-113927007D02*
X199879219Y-113855578D01*
X199879219Y-113855578D02*
X199911123Y-113784149D01*
X199911123Y-113784149D02*
X199943028Y-113748435D01*
X199943028Y-113748435D02*
X200006838Y-113712721D01*
X200006838Y-113712721D02*
X200166361Y-113712721D01*
X200166361Y-113712721D02*
X200262076Y-113748435D01*
X200453504Y-113712721D02*
X200836361Y-113712721D01*
X200644933Y-114462721D02*
X200644933Y-113712721D01*
X199155171Y-119398435D02*
X199474218Y-119398435D01*
X199091361Y-119612721D02*
X199314694Y-118862721D01*
X199314694Y-118862721D02*
X199538028Y-119612721D01*
X199697552Y-118862721D02*
X200112314Y-118862721D01*
X200112314Y-118862721D02*
X199888980Y-119148435D01*
X199888980Y-119148435D02*
X199984695Y-119148435D01*
X199984695Y-119148435D02*
X200048504Y-119184149D01*
X200048504Y-119184149D02*
X200080409Y-119219864D01*
X200080409Y-119219864D02*
X200112314Y-119291292D01*
X200112314Y-119291292D02*
X200112314Y-119469864D01*
X200112314Y-119469864D02*
X200080409Y-119541292D01*
X200080409Y-119541292D02*
X200048504Y-119577007D01*
X200048504Y-119577007D02*
X199984695Y-119612721D01*
X199984695Y-119612721D02*
X199793266Y-119612721D01*
X199793266Y-119612721D02*
X199729457Y-119577007D01*
X199729457Y-119577007D02*
X199697552Y-119541292D01*
X200878028Y-118827007D02*
X200303742Y-119791292D01*
X201324695Y-119219864D02*
X201101361Y-119219864D01*
X201101361Y-119612721D02*
X201101361Y-118862721D01*
X201101361Y-118862721D02*
X201420409Y-118862721D01*
X201962790Y-119112721D02*
X201962790Y-119612721D01*
X201803266Y-118827007D02*
X201643743Y-119362721D01*
X201643743Y-119362721D02*
X202058504Y-119362721D01*
X199458266Y-137312721D02*
X199075409Y-137312721D01*
X199266837Y-137312721D02*
X199266837Y-136562721D01*
X199266837Y-136562721D02*
X199203028Y-136669864D01*
X199203028Y-136669864D02*
X199139218Y-136741292D01*
X199139218Y-136741292D02*
X199075409Y-136777007D01*
X199873027Y-136562721D02*
X199936837Y-136562721D01*
X199936837Y-136562721D02*
X200000646Y-136598435D01*
X200000646Y-136598435D02*
X200032551Y-136634149D01*
X200032551Y-136634149D02*
X200064456Y-136705578D01*
X200064456Y-136705578D02*
X200096361Y-136848435D01*
X200096361Y-136848435D02*
X200096361Y-137027007D01*
X200096361Y-137027007D02*
X200064456Y-137169864D01*
X200064456Y-137169864D02*
X200032551Y-137241292D01*
X200032551Y-137241292D02*
X200000646Y-137277007D01*
X200000646Y-137277007D02*
X199936837Y-137312721D01*
X199936837Y-137312721D02*
X199873027Y-137312721D01*
X199873027Y-137312721D02*
X199809218Y-137277007D01*
X199809218Y-137277007D02*
X199777313Y-137241292D01*
X199777313Y-137241292D02*
X199745408Y-137169864D01*
X199745408Y-137169864D02*
X199713504Y-137027007D01*
X199713504Y-137027007D02*
X199713504Y-136848435D01*
X199713504Y-136848435D02*
X199745408Y-136705578D01*
X199745408Y-136705578D02*
X199777313Y-136634149D01*
X199777313Y-136634149D02*
X199809218Y-136598435D01*
X199809218Y-136598435D02*
X199873027Y-136562721D01*
X200862075Y-136527007D02*
X200287789Y-137491292D01*
X201308742Y-136919864D02*
X201404456Y-136955578D01*
X201404456Y-136955578D02*
X201436361Y-136991292D01*
X201436361Y-136991292D02*
X201468265Y-137062721D01*
X201468265Y-137062721D02*
X201468265Y-137169864D01*
X201468265Y-137169864D02*
X201436361Y-137241292D01*
X201436361Y-137241292D02*
X201404456Y-137277007D01*
X201404456Y-137277007D02*
X201340646Y-137312721D01*
X201340646Y-137312721D02*
X201085408Y-137312721D01*
X201085408Y-137312721D02*
X201085408Y-136562721D01*
X201085408Y-136562721D02*
X201308742Y-136562721D01*
X201308742Y-136562721D02*
X201372551Y-136598435D01*
X201372551Y-136598435D02*
X201404456Y-136634149D01*
X201404456Y-136634149D02*
X201436361Y-136705578D01*
X201436361Y-136705578D02*
X201436361Y-136777007D01*
X201436361Y-136777007D02*
X201404456Y-136848435D01*
X201404456Y-136848435D02*
X201372551Y-136884149D01*
X201372551Y-136884149D02*
X201308742Y-136919864D01*
X201308742Y-136919864D02*
X201085408Y-136919864D01*
X202042551Y-136562721D02*
X201914932Y-136562721D01*
X201914932Y-136562721D02*
X201851123Y-136598435D01*
X201851123Y-136598435D02*
X201819218Y-136634149D01*
X201819218Y-136634149D02*
X201755408Y-136741292D01*
X201755408Y-136741292D02*
X201723504Y-136884149D01*
X201723504Y-136884149D02*
X201723504Y-137169864D01*
X201723504Y-137169864D02*
X201755408Y-137241292D01*
X201755408Y-137241292D02*
X201787313Y-137277007D01*
X201787313Y-137277007D02*
X201851123Y-137312721D01*
X201851123Y-137312721D02*
X201978742Y-137312721D01*
X201978742Y-137312721D02*
X202042551Y-137277007D01*
X202042551Y-137277007D02*
X202074456Y-137241292D01*
X202074456Y-137241292D02*
X202106361Y-137169864D01*
X202106361Y-137169864D02*
X202106361Y-136991292D01*
X202106361Y-136991292D02*
X202074456Y-136919864D01*
X202074456Y-136919864D02*
X202042551Y-136884149D01*
X202042551Y-136884149D02*
X201978742Y-136848435D01*
X201978742Y-136848435D02*
X201851123Y-136848435D01*
X201851123Y-136848435D02*
X201787313Y-136884149D01*
X201787313Y-136884149D02*
X201755408Y-136919864D01*
X201755408Y-136919864D02*
X201723504Y-136991292D01*
X199384666Y-106451864D02*
X199480380Y-106487578D01*
X199480380Y-106487578D02*
X199512285Y-106523292D01*
X199512285Y-106523292D02*
X199544189Y-106594721D01*
X199544189Y-106594721D02*
X199544189Y-106701864D01*
X199544189Y-106701864D02*
X199512285Y-106773292D01*
X199512285Y-106773292D02*
X199480380Y-106809007D01*
X199480380Y-106809007D02*
X199416570Y-106844721D01*
X199416570Y-106844721D02*
X199161332Y-106844721D01*
X199161332Y-106844721D02*
X199161332Y-106094721D01*
X199161332Y-106094721D02*
X199384666Y-106094721D01*
X199384666Y-106094721D02*
X199448475Y-106130435D01*
X199448475Y-106130435D02*
X199480380Y-106166149D01*
X199480380Y-106166149D02*
X199512285Y-106237578D01*
X199512285Y-106237578D02*
X199512285Y-106309007D01*
X199512285Y-106309007D02*
X199480380Y-106380435D01*
X199480380Y-106380435D02*
X199448475Y-106416149D01*
X199448475Y-106416149D02*
X199384666Y-106451864D01*
X199384666Y-106451864D02*
X199161332Y-106451864D01*
X200118475Y-106844721D02*
X200118475Y-106451864D01*
X200118475Y-106451864D02*
X200086570Y-106380435D01*
X200086570Y-106380435D02*
X200022761Y-106344721D01*
X200022761Y-106344721D02*
X199895142Y-106344721D01*
X199895142Y-106344721D02*
X199831332Y-106380435D01*
X200118475Y-106809007D02*
X200054666Y-106844721D01*
X200054666Y-106844721D02*
X199895142Y-106844721D01*
X199895142Y-106844721D02*
X199831332Y-106809007D01*
X199831332Y-106809007D02*
X199799428Y-106737578D01*
X199799428Y-106737578D02*
X199799428Y-106666149D01*
X199799428Y-106666149D02*
X199831332Y-106594721D01*
X199831332Y-106594721D02*
X199895142Y-106559007D01*
X199895142Y-106559007D02*
X200054666Y-106559007D01*
X200054666Y-106559007D02*
X200118475Y-106523292D01*
X200341808Y-106344721D02*
X200597046Y-106344721D01*
X200437522Y-106094721D02*
X200437522Y-106737578D01*
X200437522Y-106737578D02*
X200469427Y-106809007D01*
X200469427Y-106809007D02*
X200533237Y-106844721D01*
X200533237Y-106844721D02*
X200597046Y-106844721D01*
X200724665Y-106344721D02*
X200979903Y-106344721D01*
X200820379Y-106094721D02*
X200820379Y-106737578D01*
X200820379Y-106737578D02*
X200852284Y-106809007D01*
X200852284Y-106809007D02*
X200916094Y-106844721D01*
X200916094Y-106844721D02*
X200979903Y-106844721D01*
X201458474Y-106809007D02*
X201394665Y-106844721D01*
X201394665Y-106844721D02*
X201267046Y-106844721D01*
X201267046Y-106844721D02*
X201203236Y-106809007D01*
X201203236Y-106809007D02*
X201171332Y-106737578D01*
X201171332Y-106737578D02*
X201171332Y-106451864D01*
X201171332Y-106451864D02*
X201203236Y-106380435D01*
X201203236Y-106380435D02*
X201267046Y-106344721D01*
X201267046Y-106344721D02*
X201394665Y-106344721D01*
X201394665Y-106344721D02*
X201458474Y-106380435D01*
X201458474Y-106380435D02*
X201490379Y-106451864D01*
X201490379Y-106451864D02*
X201490379Y-106523292D01*
X201490379Y-106523292D02*
X201171332Y-106594721D01*
X201777522Y-106844721D02*
X201777522Y-106344721D01*
X201777522Y-106487578D02*
X201809427Y-106416149D01*
X201809427Y-106416149D02*
X201841332Y-106380435D01*
X201841332Y-106380435D02*
X201905141Y-106344721D01*
X201905141Y-106344721D02*
X201968951Y-106344721D01*
X202128475Y-106344721D02*
X202287999Y-106844721D01*
X202447522Y-106344721D02*
X202287999Y-106844721D01*
X202287999Y-106844721D02*
X202224189Y-107023292D01*
X202224189Y-107023292D02*
X202192284Y-107059007D01*
X202192284Y-107059007D02*
X202128475Y-107094721D01*
X202702760Y-106559007D02*
X203213237Y-106559007D01*
X202957998Y-106844721D02*
X202957998Y-106273292D01*
X199155171Y-121898435D02*
X199474218Y-121898435D01*
X199091361Y-122112721D02*
X199314694Y-121362721D01*
X199314694Y-121362721D02*
X199538028Y-122112721D01*
X199729457Y-121434149D02*
X199761361Y-121398435D01*
X199761361Y-121398435D02*
X199825171Y-121362721D01*
X199825171Y-121362721D02*
X199984695Y-121362721D01*
X199984695Y-121362721D02*
X200048504Y-121398435D01*
X200048504Y-121398435D02*
X200080409Y-121434149D01*
X200080409Y-121434149D02*
X200112314Y-121505578D01*
X200112314Y-121505578D02*
X200112314Y-121577007D01*
X200112314Y-121577007D02*
X200080409Y-121684149D01*
X200080409Y-121684149D02*
X199697552Y-122112721D01*
X199697552Y-122112721D02*
X200112314Y-122112721D01*
X200878028Y-121327007D02*
X200303742Y-122291292D01*
X201324695Y-121719864D02*
X201101361Y-121719864D01*
X201101361Y-122112721D02*
X201101361Y-121362721D01*
X201101361Y-121362721D02*
X201420409Y-121362721D01*
X201994695Y-121362721D02*
X201675647Y-121362721D01*
X201675647Y-121362721D02*
X201643743Y-121719864D01*
X201643743Y-121719864D02*
X201675647Y-121684149D01*
X201675647Y-121684149D02*
X201739457Y-121648435D01*
X201739457Y-121648435D02*
X201898981Y-121648435D01*
X201898981Y-121648435D02*
X201962790Y-121684149D01*
X201962790Y-121684149D02*
X201994695Y-121719864D01*
X201994695Y-121719864D02*
X202026600Y-121791292D01*
X202026600Y-121791292D02*
X202026600Y-121969864D01*
X202026600Y-121969864D02*
X201994695Y-122041292D01*
X201994695Y-122041292D02*
X201962790Y-122077007D01*
X201962790Y-122077007D02*
X201898981Y-122112721D01*
X201898981Y-122112721D02*
X201739457Y-122112721D01*
X201739457Y-122112721D02*
X201675647Y-122077007D01*
X201675647Y-122077007D02*
X201643743Y-122041292D01*
X209430409Y-116248435D02*
X209366599Y-116212721D01*
X209366599Y-116212721D02*
X209270885Y-116212721D01*
X209270885Y-116212721D02*
X209175171Y-116248435D01*
X209175171Y-116248435D02*
X209111361Y-116319864D01*
X209111361Y-116319864D02*
X209079456Y-116391292D01*
X209079456Y-116391292D02*
X209047552Y-116534149D01*
X209047552Y-116534149D02*
X209047552Y-116641292D01*
X209047552Y-116641292D02*
X209079456Y-116784149D01*
X209079456Y-116784149D02*
X209111361Y-116855578D01*
X209111361Y-116855578D02*
X209175171Y-116927007D01*
X209175171Y-116927007D02*
X209270885Y-116962721D01*
X209270885Y-116962721D02*
X209334694Y-116962721D01*
X209334694Y-116962721D02*
X209430409Y-116927007D01*
X209430409Y-116927007D02*
X209462313Y-116891292D01*
X209462313Y-116891292D02*
X209462313Y-116641292D01*
X209462313Y-116641292D02*
X209334694Y-116641292D01*
X209749456Y-116962721D02*
X209749456Y-116212721D01*
X209749456Y-116212721D02*
X210132313Y-116962721D01*
X210132313Y-116962721D02*
X210132313Y-116212721D01*
X210451361Y-116962721D02*
X210451361Y-116212721D01*
X210451361Y-116212721D02*
X210610885Y-116212721D01*
X210610885Y-116212721D02*
X210706599Y-116248435D01*
X210706599Y-116248435D02*
X210770409Y-116319864D01*
X210770409Y-116319864D02*
X210802314Y-116391292D01*
X210802314Y-116391292D02*
X210834218Y-116534149D01*
X210834218Y-116534149D02*
X210834218Y-116641292D01*
X210834218Y-116641292D02*
X210802314Y-116784149D01*
X210802314Y-116784149D02*
X210770409Y-116855578D01*
X210770409Y-116855578D02*
X210706599Y-116927007D01*
X210706599Y-116927007D02*
X210610885Y-116962721D01*
X210610885Y-116962721D02*
X210451361Y-116962721D01*
X199458266Y-134812721D02*
X199075409Y-134812721D01*
X199266837Y-134812721D02*
X199266837Y-134062721D01*
X199266837Y-134062721D02*
X199203028Y-134169864D01*
X199203028Y-134169864D02*
X199139218Y-134241292D01*
X199139218Y-134241292D02*
X199075409Y-134277007D01*
X200032551Y-134062721D02*
X199904932Y-134062721D01*
X199904932Y-134062721D02*
X199841123Y-134098435D01*
X199841123Y-134098435D02*
X199809218Y-134134149D01*
X199809218Y-134134149D02*
X199745408Y-134241292D01*
X199745408Y-134241292D02*
X199713504Y-134384149D01*
X199713504Y-134384149D02*
X199713504Y-134669864D01*
X199713504Y-134669864D02*
X199745408Y-134741292D01*
X199745408Y-134741292D02*
X199777313Y-134777007D01*
X199777313Y-134777007D02*
X199841123Y-134812721D01*
X199841123Y-134812721D02*
X199968742Y-134812721D01*
X199968742Y-134812721D02*
X200032551Y-134777007D01*
X200032551Y-134777007D02*
X200064456Y-134741292D01*
X200064456Y-134741292D02*
X200096361Y-134669864D01*
X200096361Y-134669864D02*
X200096361Y-134491292D01*
X200096361Y-134491292D02*
X200064456Y-134419864D01*
X200064456Y-134419864D02*
X200032551Y-134384149D01*
X200032551Y-134384149D02*
X199968742Y-134348435D01*
X199968742Y-134348435D02*
X199841123Y-134348435D01*
X199841123Y-134348435D02*
X199777313Y-134384149D01*
X199777313Y-134384149D02*
X199745408Y-134419864D01*
X199745408Y-134419864D02*
X199713504Y-134491292D01*
X200862075Y-134027007D02*
X200287789Y-134991292D01*
X201308742Y-134419864D02*
X201404456Y-134455578D01*
X201404456Y-134455578D02*
X201436361Y-134491292D01*
X201436361Y-134491292D02*
X201468265Y-134562721D01*
X201468265Y-134562721D02*
X201468265Y-134669864D01*
X201468265Y-134669864D02*
X201436361Y-134741292D01*
X201436361Y-134741292D02*
X201404456Y-134777007D01*
X201404456Y-134777007D02*
X201340646Y-134812721D01*
X201340646Y-134812721D02*
X201085408Y-134812721D01*
X201085408Y-134812721D02*
X201085408Y-134062721D01*
X201085408Y-134062721D02*
X201308742Y-134062721D01*
X201308742Y-134062721D02*
X201372551Y-134098435D01*
X201372551Y-134098435D02*
X201404456Y-134134149D01*
X201404456Y-134134149D02*
X201436361Y-134205578D01*
X201436361Y-134205578D02*
X201436361Y-134277007D01*
X201436361Y-134277007D02*
X201404456Y-134348435D01*
X201404456Y-134348435D02*
X201372551Y-134384149D01*
X201372551Y-134384149D02*
X201308742Y-134419864D01*
X201308742Y-134419864D02*
X201085408Y-134419864D01*
X201723504Y-134134149D02*
X201755408Y-134098435D01*
X201755408Y-134098435D02*
X201819218Y-134062721D01*
X201819218Y-134062721D02*
X201978742Y-134062721D01*
X201978742Y-134062721D02*
X202042551Y-134098435D01*
X202042551Y-134098435D02*
X202074456Y-134134149D01*
X202074456Y-134134149D02*
X202106361Y-134205578D01*
X202106361Y-134205578D02*
X202106361Y-134277007D01*
X202106361Y-134277007D02*
X202074456Y-134384149D01*
X202074456Y-134384149D02*
X201691599Y-134812721D01*
X201691599Y-134812721D02*
X202106361Y-134812721D01*
X205952314Y-119427007D02*
X206048028Y-119462721D01*
X206048028Y-119462721D02*
X206207552Y-119462721D01*
X206207552Y-119462721D02*
X206271361Y-119427007D01*
X206271361Y-119427007D02*
X206303266Y-119391292D01*
X206303266Y-119391292D02*
X206335171Y-119319864D01*
X206335171Y-119319864D02*
X206335171Y-119248435D01*
X206335171Y-119248435D02*
X206303266Y-119177007D01*
X206303266Y-119177007D02*
X206271361Y-119141292D01*
X206271361Y-119141292D02*
X206207552Y-119105578D01*
X206207552Y-119105578D02*
X206079933Y-119069864D01*
X206079933Y-119069864D02*
X206016123Y-119034149D01*
X206016123Y-119034149D02*
X205984218Y-118998435D01*
X205984218Y-118998435D02*
X205952314Y-118927007D01*
X205952314Y-118927007D02*
X205952314Y-118855578D01*
X205952314Y-118855578D02*
X205984218Y-118784149D01*
X205984218Y-118784149D02*
X206016123Y-118748435D01*
X206016123Y-118748435D02*
X206079933Y-118712721D01*
X206079933Y-118712721D02*
X206239456Y-118712721D01*
X206239456Y-118712721D02*
X206335171Y-118748435D01*
X206622313Y-119462721D02*
X206622313Y-118712721D01*
X206622313Y-118712721D02*
X206781837Y-118712721D01*
X206781837Y-118712721D02*
X206877551Y-118748435D01*
X206877551Y-118748435D02*
X206941361Y-118819864D01*
X206941361Y-118819864D02*
X206973266Y-118891292D01*
X206973266Y-118891292D02*
X207005170Y-119034149D01*
X207005170Y-119034149D02*
X207005170Y-119141292D01*
X207005170Y-119141292D02*
X206973266Y-119284149D01*
X206973266Y-119284149D02*
X206941361Y-119355578D01*
X206941361Y-119355578D02*
X206877551Y-119427007D01*
X206877551Y-119427007D02*
X206781837Y-119462721D01*
X206781837Y-119462721D02*
X206622313Y-119462721D01*
X207260409Y-119248435D02*
X207579456Y-119248435D01*
X207196599Y-119462721D02*
X207419932Y-118712721D01*
X207419932Y-118712721D02*
X207643266Y-119462721D01*
X208345171Y-118677007D02*
X207770885Y-119641292D01*
X208568504Y-119462721D02*
X208568504Y-118712721D01*
X208568504Y-118712721D02*
X208728028Y-118712721D01*
X208728028Y-118712721D02*
X208823742Y-118748435D01*
X208823742Y-118748435D02*
X208887552Y-118819864D01*
X208887552Y-118819864D02*
X208919457Y-118891292D01*
X208919457Y-118891292D02*
X208951361Y-119034149D01*
X208951361Y-119034149D02*
X208951361Y-119141292D01*
X208951361Y-119141292D02*
X208919457Y-119284149D01*
X208919457Y-119284149D02*
X208887552Y-119355578D01*
X208887552Y-119355578D02*
X208823742Y-119427007D01*
X208823742Y-119427007D02*
X208728028Y-119462721D01*
X208728028Y-119462721D02*
X208568504Y-119462721D01*
X209589457Y-119462721D02*
X209206600Y-119462721D01*
X209398028Y-119462721D02*
X209398028Y-118712721D01*
X209398028Y-118712721D02*
X209334219Y-118819864D01*
X209334219Y-118819864D02*
X209270409Y-118891292D01*
X209270409Y-118891292D02*
X209206600Y-118927007D01*
X210355171Y-118677007D02*
X209780885Y-119641292D01*
X210546600Y-118784149D02*
X210578504Y-118748435D01*
X210578504Y-118748435D02*
X210642314Y-118712721D01*
X210642314Y-118712721D02*
X210801838Y-118712721D01*
X210801838Y-118712721D02*
X210865647Y-118748435D01*
X210865647Y-118748435D02*
X210897552Y-118784149D01*
X210897552Y-118784149D02*
X210929457Y-118855578D01*
X210929457Y-118855578D02*
X210929457Y-118927007D01*
X210929457Y-118927007D02*
X210897552Y-119034149D01*
X210897552Y-119034149D02*
X210514695Y-119462721D01*
X210514695Y-119462721D02*
X210929457Y-119462721D01*
X199155171Y-126948435D02*
X199474218Y-126948435D01*
X199091361Y-127162721D02*
X199314694Y-126412721D01*
X199314694Y-126412721D02*
X199538028Y-127162721D01*
X199888980Y-126412721D02*
X199952790Y-126412721D01*
X199952790Y-126412721D02*
X200016599Y-126448435D01*
X200016599Y-126448435D02*
X200048504Y-126484149D01*
X200048504Y-126484149D02*
X200080409Y-126555578D01*
X200080409Y-126555578D02*
X200112314Y-126698435D01*
X200112314Y-126698435D02*
X200112314Y-126877007D01*
X200112314Y-126877007D02*
X200080409Y-127019864D01*
X200080409Y-127019864D02*
X200048504Y-127091292D01*
X200048504Y-127091292D02*
X200016599Y-127127007D01*
X200016599Y-127127007D02*
X199952790Y-127162721D01*
X199952790Y-127162721D02*
X199888980Y-127162721D01*
X199888980Y-127162721D02*
X199825171Y-127127007D01*
X199825171Y-127127007D02*
X199793266Y-127091292D01*
X199793266Y-127091292D02*
X199761361Y-127019864D01*
X199761361Y-127019864D02*
X199729457Y-126877007D01*
X199729457Y-126877007D02*
X199729457Y-126698435D01*
X199729457Y-126698435D02*
X199761361Y-126555578D01*
X199761361Y-126555578D02*
X199793266Y-126484149D01*
X199793266Y-126484149D02*
X199825171Y-126448435D01*
X199825171Y-126448435D02*
X199888980Y-126412721D01*
X200878028Y-126377007D02*
X200303742Y-127341292D01*
X201324695Y-126769864D02*
X201101361Y-126769864D01*
X201101361Y-127162721D02*
X201101361Y-126412721D01*
X201101361Y-126412721D02*
X201420409Y-126412721D01*
X201611838Y-126412721D02*
X202058504Y-126412721D01*
X202058504Y-126412721D02*
X201771362Y-127162721D01*
D12*
X202489456Y-104912981D02*
X202489456Y-104162981D01*
X202489456Y-104162981D02*
X202739456Y-104698695D01*
X202739456Y-104698695D02*
X202989456Y-104162981D01*
X202989456Y-104162981D02*
X202989456Y-104912981D01*
X203346599Y-104912981D02*
X203346599Y-104412981D01*
X203346599Y-104162981D02*
X203310885Y-104198695D01*
X203310885Y-104198695D02*
X203346599Y-104234409D01*
X203346599Y-104234409D02*
X203382313Y-104198695D01*
X203382313Y-104198695D02*
X203346599Y-104162981D01*
X203346599Y-104162981D02*
X203346599Y-104234409D01*
X204025171Y-104877267D02*
X203953742Y-104912981D01*
X203953742Y-104912981D02*
X203810885Y-104912981D01*
X203810885Y-104912981D02*
X203739456Y-104877267D01*
X203739456Y-104877267D02*
X203703742Y-104841552D01*
X203703742Y-104841552D02*
X203668028Y-104770124D01*
X203668028Y-104770124D02*
X203668028Y-104555838D01*
X203668028Y-104555838D02*
X203703742Y-104484409D01*
X203703742Y-104484409D02*
X203739456Y-104448695D01*
X203739456Y-104448695D02*
X203810885Y-104412981D01*
X203810885Y-104412981D02*
X203953742Y-104412981D01*
X203953742Y-104412981D02*
X204025171Y-104448695D01*
X204346599Y-104912981D02*
X204346599Y-104412981D01*
X204346599Y-104555838D02*
X204382313Y-104484409D01*
X204382313Y-104484409D02*
X204418028Y-104448695D01*
X204418028Y-104448695D02*
X204489456Y-104412981D01*
X204489456Y-104412981D02*
X204560885Y-104412981D01*
X204918028Y-104912981D02*
X204846599Y-104877267D01*
X204846599Y-104877267D02*
X204810885Y-104841552D01*
X204810885Y-104841552D02*
X204775171Y-104770124D01*
X204775171Y-104770124D02*
X204775171Y-104555838D01*
X204775171Y-104555838D02*
X204810885Y-104484409D01*
X204810885Y-104484409D02*
X204846599Y-104448695D01*
X204846599Y-104448695D02*
X204918028Y-104412981D01*
X204918028Y-104412981D02*
X205025171Y-104412981D01*
X205025171Y-104412981D02*
X205096599Y-104448695D01*
X205096599Y-104448695D02*
X205132314Y-104484409D01*
X205132314Y-104484409D02*
X205168028Y-104555838D01*
X205168028Y-104555838D02*
X205168028Y-104770124D01*
X205168028Y-104770124D02*
X205132314Y-104841552D01*
X205132314Y-104841552D02*
X205096599Y-104877267D01*
X205096599Y-104877267D02*
X205025171Y-104912981D01*
X205025171Y-104912981D02*
X204918028Y-104912981D01*
X205489456Y-104162981D02*
X205489456Y-104770124D01*
X205489456Y-104770124D02*
X205525170Y-104841552D01*
X205525170Y-104841552D02*
X205560885Y-104877267D01*
X205560885Y-104877267D02*
X205632313Y-104912981D01*
X205632313Y-104912981D02*
X205775170Y-104912981D01*
X205775170Y-104912981D02*
X205846599Y-104877267D01*
X205846599Y-104877267D02*
X205882313Y-104841552D01*
X205882313Y-104841552D02*
X205918027Y-104770124D01*
X205918027Y-104770124D02*
X205918027Y-104162981D01*
X206239456Y-104877267D02*
X206346599Y-104912981D01*
X206346599Y-104912981D02*
X206525170Y-104912981D01*
X206525170Y-104912981D02*
X206596599Y-104877267D01*
X206596599Y-104877267D02*
X206632313Y-104841552D01*
X206632313Y-104841552D02*
X206668027Y-104770124D01*
X206668027Y-104770124D02*
X206668027Y-104698695D01*
X206668027Y-104698695D02*
X206632313Y-104627267D01*
X206632313Y-104627267D02*
X206596599Y-104591552D01*
X206596599Y-104591552D02*
X206525170Y-104555838D01*
X206525170Y-104555838D02*
X206382313Y-104520124D01*
X206382313Y-104520124D02*
X206310884Y-104484409D01*
X206310884Y-104484409D02*
X206275170Y-104448695D01*
X206275170Y-104448695D02*
X206239456Y-104377267D01*
X206239456Y-104377267D02*
X206239456Y-104305838D01*
X206239456Y-104305838D02*
X206275170Y-104234409D01*
X206275170Y-104234409D02*
X206310884Y-104198695D01*
X206310884Y-104198695D02*
X206382313Y-104162981D01*
X206382313Y-104162981D02*
X206560884Y-104162981D01*
X206560884Y-104162981D02*
X206668027Y-104198695D01*
X207239456Y-104520124D02*
X207346599Y-104555838D01*
X207346599Y-104555838D02*
X207382313Y-104591552D01*
X207382313Y-104591552D02*
X207418027Y-104662981D01*
X207418027Y-104662981D02*
X207418027Y-104770124D01*
X207418027Y-104770124D02*
X207382313Y-104841552D01*
X207382313Y-104841552D02*
X207346599Y-104877267D01*
X207346599Y-104877267D02*
X207275170Y-104912981D01*
X207275170Y-104912981D02*
X206989456Y-104912981D01*
X206989456Y-104912981D02*
X206989456Y-104162981D01*
X206989456Y-104162981D02*
X207239456Y-104162981D01*
X207239456Y-104162981D02*
X207310885Y-104198695D01*
X207310885Y-104198695D02*
X207346599Y-104234409D01*
X207346599Y-104234409D02*
X207382313Y-104305838D01*
X207382313Y-104305838D02*
X207382313Y-104377267D01*
X207382313Y-104377267D02*
X207346599Y-104448695D01*
X207346599Y-104448695D02*
X207310885Y-104484409D01*
X207310885Y-104484409D02*
X207239456Y-104520124D01*
X207239456Y-104520124D02*
X206989456Y-104520124D01*
D11*
X205968266Y-121927007D02*
X206063980Y-121962721D01*
X206063980Y-121962721D02*
X206223504Y-121962721D01*
X206223504Y-121962721D02*
X206287313Y-121927007D01*
X206287313Y-121927007D02*
X206319218Y-121891292D01*
X206319218Y-121891292D02*
X206351123Y-121819864D01*
X206351123Y-121819864D02*
X206351123Y-121748435D01*
X206351123Y-121748435D02*
X206319218Y-121677007D01*
X206319218Y-121677007D02*
X206287313Y-121641292D01*
X206287313Y-121641292D02*
X206223504Y-121605578D01*
X206223504Y-121605578D02*
X206095885Y-121569864D01*
X206095885Y-121569864D02*
X206032075Y-121534149D01*
X206032075Y-121534149D02*
X206000170Y-121498435D01*
X206000170Y-121498435D02*
X205968266Y-121427007D01*
X205968266Y-121427007D02*
X205968266Y-121355578D01*
X205968266Y-121355578D02*
X206000170Y-121284149D01*
X206000170Y-121284149D02*
X206032075Y-121248435D01*
X206032075Y-121248435D02*
X206095885Y-121212721D01*
X206095885Y-121212721D02*
X206255408Y-121212721D01*
X206255408Y-121212721D02*
X206351123Y-121248435D01*
X207021122Y-121891292D02*
X206989218Y-121927007D01*
X206989218Y-121927007D02*
X206893503Y-121962721D01*
X206893503Y-121962721D02*
X206829694Y-121962721D01*
X206829694Y-121962721D02*
X206733980Y-121927007D01*
X206733980Y-121927007D02*
X206670170Y-121855578D01*
X206670170Y-121855578D02*
X206638265Y-121784149D01*
X206638265Y-121784149D02*
X206606361Y-121641292D01*
X206606361Y-121641292D02*
X206606361Y-121534149D01*
X206606361Y-121534149D02*
X206638265Y-121391292D01*
X206638265Y-121391292D02*
X206670170Y-121319864D01*
X206670170Y-121319864D02*
X206733980Y-121248435D01*
X206733980Y-121248435D02*
X206829694Y-121212721D01*
X206829694Y-121212721D02*
X206893503Y-121212721D01*
X206893503Y-121212721D02*
X206989218Y-121248435D01*
X206989218Y-121248435D02*
X207021122Y-121284149D01*
X207627313Y-121962721D02*
X207308265Y-121962721D01*
X207308265Y-121962721D02*
X207308265Y-121212721D01*
X208329218Y-121177007D02*
X207754932Y-122141292D01*
X208552551Y-121962721D02*
X208552551Y-121212721D01*
X208552551Y-121212721D02*
X208712075Y-121212721D01*
X208712075Y-121212721D02*
X208807789Y-121248435D01*
X208807789Y-121248435D02*
X208871599Y-121319864D01*
X208871599Y-121319864D02*
X208903504Y-121391292D01*
X208903504Y-121391292D02*
X208935408Y-121534149D01*
X208935408Y-121534149D02*
X208935408Y-121641292D01*
X208935408Y-121641292D02*
X208903504Y-121784149D01*
X208903504Y-121784149D02*
X208871599Y-121855578D01*
X208871599Y-121855578D02*
X208807789Y-121927007D01*
X208807789Y-121927007D02*
X208712075Y-121962721D01*
X208712075Y-121962721D02*
X208552551Y-121962721D01*
X209350170Y-121212721D02*
X209413980Y-121212721D01*
X209413980Y-121212721D02*
X209477789Y-121248435D01*
X209477789Y-121248435D02*
X209509694Y-121284149D01*
X209509694Y-121284149D02*
X209541599Y-121355578D01*
X209541599Y-121355578D02*
X209573504Y-121498435D01*
X209573504Y-121498435D02*
X209573504Y-121677007D01*
X209573504Y-121677007D02*
X209541599Y-121819864D01*
X209541599Y-121819864D02*
X209509694Y-121891292D01*
X209509694Y-121891292D02*
X209477789Y-121927007D01*
X209477789Y-121927007D02*
X209413980Y-121962721D01*
X209413980Y-121962721D02*
X209350170Y-121962721D01*
X209350170Y-121962721D02*
X209286361Y-121927007D01*
X209286361Y-121927007D02*
X209254456Y-121891292D01*
X209254456Y-121891292D02*
X209222551Y-121819864D01*
X209222551Y-121819864D02*
X209190647Y-121677007D01*
X209190647Y-121677007D02*
X209190647Y-121498435D01*
X209190647Y-121498435D02*
X209222551Y-121355578D01*
X209222551Y-121355578D02*
X209254456Y-121284149D01*
X209254456Y-121284149D02*
X209286361Y-121248435D01*
X209286361Y-121248435D02*
X209350170Y-121212721D01*
X210339218Y-121177007D02*
X209764932Y-122141292D01*
X210498742Y-121212721D02*
X210913504Y-121212721D01*
X210913504Y-121212721D02*
X210690170Y-121498435D01*
X210690170Y-121498435D02*
X210785885Y-121498435D01*
X210785885Y-121498435D02*
X210849694Y-121534149D01*
X210849694Y-121534149D02*
X210881599Y-121569864D01*
X210881599Y-121569864D02*
X210913504Y-121641292D01*
X210913504Y-121641292D02*
X210913504Y-121819864D01*
X210913504Y-121819864D02*
X210881599Y-121891292D01*
X210881599Y-121891292D02*
X210849694Y-121927007D01*
X210849694Y-121927007D02*
X210785885Y-121962721D01*
X210785885Y-121962721D02*
X210594456Y-121962721D01*
X210594456Y-121962721D02*
X210530647Y-121927007D01*
X210530647Y-121927007D02*
X210498742Y-121891292D01*
X207402075Y-109412721D02*
X207402075Y-108662721D01*
X207402075Y-108662721D02*
X207561599Y-108662721D01*
X207561599Y-108662721D02*
X207657313Y-108698435D01*
X207657313Y-108698435D02*
X207721123Y-108769864D01*
X207721123Y-108769864D02*
X207753028Y-108841292D01*
X207753028Y-108841292D02*
X207784932Y-108984149D01*
X207784932Y-108984149D02*
X207784932Y-109091292D01*
X207784932Y-109091292D02*
X207753028Y-109234149D01*
X207753028Y-109234149D02*
X207721123Y-109305578D01*
X207721123Y-109305578D02*
X207657313Y-109377007D01*
X207657313Y-109377007D02*
X207561599Y-109412721D01*
X207561599Y-109412721D02*
X207402075Y-109412721D01*
X208008266Y-108662721D02*
X208423028Y-108662721D01*
X208423028Y-108662721D02*
X208199694Y-108948435D01*
X208199694Y-108948435D02*
X208295409Y-108948435D01*
X208295409Y-108948435D02*
X208359218Y-108984149D01*
X208359218Y-108984149D02*
X208391123Y-109019864D01*
X208391123Y-109019864D02*
X208423028Y-109091292D01*
X208423028Y-109091292D02*
X208423028Y-109269864D01*
X208423028Y-109269864D02*
X208391123Y-109341292D01*
X208391123Y-109341292D02*
X208359218Y-109377007D01*
X208359218Y-109377007D02*
X208295409Y-109412721D01*
X208295409Y-109412721D02*
X208103980Y-109412721D01*
X208103980Y-109412721D02*
X208040171Y-109377007D01*
X208040171Y-109377007D02*
X208008266Y-109341292D01*
X209188742Y-108627007D02*
X208614456Y-109591292D01*
X209316361Y-108662721D02*
X209699218Y-108662721D01*
X209507790Y-109412721D02*
X209507790Y-108662721D01*
X209858742Y-108662721D02*
X210305408Y-109412721D01*
X210305408Y-108662721D02*
X209858742Y-109412721D01*
X210688265Y-108662721D02*
X210752075Y-108662721D01*
X210752075Y-108662721D02*
X210815884Y-108698435D01*
X210815884Y-108698435D02*
X210847789Y-108734149D01*
X210847789Y-108734149D02*
X210879694Y-108805578D01*
X210879694Y-108805578D02*
X210911599Y-108948435D01*
X210911599Y-108948435D02*
X210911599Y-109127007D01*
X210911599Y-109127007D02*
X210879694Y-109269864D01*
X210879694Y-109269864D02*
X210847789Y-109341292D01*
X210847789Y-109341292D02*
X210815884Y-109377007D01*
X210815884Y-109377007D02*
X210752075Y-109412721D01*
X210752075Y-109412721D02*
X210688265Y-109412721D01*
X210688265Y-109412721D02*
X210624456Y-109377007D01*
X210624456Y-109377007D02*
X210592551Y-109341292D01*
X210592551Y-109341292D02*
X210560646Y-109269864D01*
X210560646Y-109269864D02*
X210528742Y-109127007D01*
X210528742Y-109127007D02*
X210528742Y-108948435D01*
X210528742Y-108948435D02*
X210560646Y-108805578D01*
X210560646Y-108805578D02*
X210592551Y-108734149D01*
X210592551Y-108734149D02*
X210624456Y-108698435D01*
X210624456Y-108698435D02*
X210688265Y-108662721D01*
X208749695Y-134269864D02*
X208845409Y-134305578D01*
X208845409Y-134305578D02*
X208877314Y-134341292D01*
X208877314Y-134341292D02*
X208909218Y-134412721D01*
X208909218Y-134412721D02*
X208909218Y-134519864D01*
X208909218Y-134519864D02*
X208877314Y-134591292D01*
X208877314Y-134591292D02*
X208845409Y-134627007D01*
X208845409Y-134627007D02*
X208781599Y-134662721D01*
X208781599Y-134662721D02*
X208526361Y-134662721D01*
X208526361Y-134662721D02*
X208526361Y-133912721D01*
X208526361Y-133912721D02*
X208749695Y-133912721D01*
X208749695Y-133912721D02*
X208813504Y-133948435D01*
X208813504Y-133948435D02*
X208845409Y-133984149D01*
X208845409Y-133984149D02*
X208877314Y-134055578D01*
X208877314Y-134055578D02*
X208877314Y-134127007D01*
X208877314Y-134127007D02*
X208845409Y-134198435D01*
X208845409Y-134198435D02*
X208813504Y-134234149D01*
X208813504Y-134234149D02*
X208749695Y-134269864D01*
X208749695Y-134269864D02*
X208526361Y-134269864D01*
X209483504Y-134162721D02*
X209483504Y-134662721D01*
X209323980Y-133877007D02*
X209164457Y-134412721D01*
X209164457Y-134412721D02*
X209579218Y-134412721D01*
X210313028Y-133877007D02*
X209738742Y-134841292D01*
X210632076Y-134234149D02*
X210568266Y-134198435D01*
X210568266Y-134198435D02*
X210536361Y-134162721D01*
X210536361Y-134162721D02*
X210504457Y-134091292D01*
X210504457Y-134091292D02*
X210504457Y-134055578D01*
X210504457Y-134055578D02*
X210536361Y-133984149D01*
X210536361Y-133984149D02*
X210568266Y-133948435D01*
X210568266Y-133948435D02*
X210632076Y-133912721D01*
X210632076Y-133912721D02*
X210759695Y-133912721D01*
X210759695Y-133912721D02*
X210823504Y-133948435D01*
X210823504Y-133948435D02*
X210855409Y-133984149D01*
X210855409Y-133984149D02*
X210887314Y-134055578D01*
X210887314Y-134055578D02*
X210887314Y-134091292D01*
X210887314Y-134091292D02*
X210855409Y-134162721D01*
X210855409Y-134162721D02*
X210823504Y-134198435D01*
X210823504Y-134198435D02*
X210759695Y-134234149D01*
X210759695Y-134234149D02*
X210632076Y-134234149D01*
X210632076Y-134234149D02*
X210568266Y-134269864D01*
X210568266Y-134269864D02*
X210536361Y-134305578D01*
X210536361Y-134305578D02*
X210504457Y-134377007D01*
X210504457Y-134377007D02*
X210504457Y-134519864D01*
X210504457Y-134519864D02*
X210536361Y-134591292D01*
X210536361Y-134591292D02*
X210568266Y-134627007D01*
X210568266Y-134627007D02*
X210632076Y-134662721D01*
X210632076Y-134662721D02*
X210759695Y-134662721D01*
X210759695Y-134662721D02*
X210823504Y-134627007D01*
X210823504Y-134627007D02*
X210855409Y-134591292D01*
X210855409Y-134591292D02*
X210887314Y-134519864D01*
X210887314Y-134519864D02*
X210887314Y-134377007D01*
X210887314Y-134377007D02*
X210855409Y-134305578D01*
X210855409Y-134305578D02*
X210823504Y-134269864D01*
X210823504Y-134269864D02*
X210759695Y-134234149D01*
X208749695Y-136769864D02*
X208845409Y-136805578D01*
X208845409Y-136805578D02*
X208877314Y-136841292D01*
X208877314Y-136841292D02*
X208909218Y-136912721D01*
X208909218Y-136912721D02*
X208909218Y-137019864D01*
X208909218Y-137019864D02*
X208877314Y-137091292D01*
X208877314Y-137091292D02*
X208845409Y-137127007D01*
X208845409Y-137127007D02*
X208781599Y-137162721D01*
X208781599Y-137162721D02*
X208526361Y-137162721D01*
X208526361Y-137162721D02*
X208526361Y-136412721D01*
X208526361Y-136412721D02*
X208749695Y-136412721D01*
X208749695Y-136412721D02*
X208813504Y-136448435D01*
X208813504Y-136448435D02*
X208845409Y-136484149D01*
X208845409Y-136484149D02*
X208877314Y-136555578D01*
X208877314Y-136555578D02*
X208877314Y-136627007D01*
X208877314Y-136627007D02*
X208845409Y-136698435D01*
X208845409Y-136698435D02*
X208813504Y-136734149D01*
X208813504Y-136734149D02*
X208749695Y-136769864D01*
X208749695Y-136769864D02*
X208526361Y-136769864D01*
X209515409Y-136412721D02*
X209196361Y-136412721D01*
X209196361Y-136412721D02*
X209164457Y-136769864D01*
X209164457Y-136769864D02*
X209196361Y-136734149D01*
X209196361Y-136734149D02*
X209260171Y-136698435D01*
X209260171Y-136698435D02*
X209419695Y-136698435D01*
X209419695Y-136698435D02*
X209483504Y-136734149D01*
X209483504Y-136734149D02*
X209515409Y-136769864D01*
X209515409Y-136769864D02*
X209547314Y-136841292D01*
X209547314Y-136841292D02*
X209547314Y-137019864D01*
X209547314Y-137019864D02*
X209515409Y-137091292D01*
X209515409Y-137091292D02*
X209483504Y-137127007D01*
X209483504Y-137127007D02*
X209419695Y-137162721D01*
X209419695Y-137162721D02*
X209260171Y-137162721D01*
X209260171Y-137162721D02*
X209196361Y-137127007D01*
X209196361Y-137127007D02*
X209164457Y-137091292D01*
X210313028Y-136377007D02*
X209738742Y-137341292D01*
X210568266Y-137162721D02*
X210695885Y-137162721D01*
X210695885Y-137162721D02*
X210759695Y-137127007D01*
X210759695Y-137127007D02*
X210791599Y-137091292D01*
X210791599Y-137091292D02*
X210855409Y-136984149D01*
X210855409Y-136984149D02*
X210887314Y-136841292D01*
X210887314Y-136841292D02*
X210887314Y-136555578D01*
X210887314Y-136555578D02*
X210855409Y-136484149D01*
X210855409Y-136484149D02*
X210823504Y-136448435D01*
X210823504Y-136448435D02*
X210759695Y-136412721D01*
X210759695Y-136412721D02*
X210632076Y-136412721D01*
X210632076Y-136412721D02*
X210568266Y-136448435D01*
X210568266Y-136448435D02*
X210536361Y-136484149D01*
X210536361Y-136484149D02*
X210504457Y-136555578D01*
X210504457Y-136555578D02*
X210504457Y-136734149D01*
X210504457Y-136734149D02*
X210536361Y-136805578D01*
X210536361Y-136805578D02*
X210568266Y-136841292D01*
X210568266Y-136841292D02*
X210632076Y-136877007D01*
X210632076Y-136877007D02*
X210759695Y-136877007D01*
X210759695Y-136877007D02*
X210823504Y-136841292D01*
X210823504Y-136841292D02*
X210855409Y-136805578D01*
X210855409Y-136805578D02*
X210887314Y-136734149D01*
X208526361Y-129562721D02*
X208526361Y-128812721D01*
X208526361Y-128812721D02*
X208685885Y-128812721D01*
X208685885Y-128812721D02*
X208781599Y-128848435D01*
X208781599Y-128848435D02*
X208845409Y-128919864D01*
X208845409Y-128919864D02*
X208877314Y-128991292D01*
X208877314Y-128991292D02*
X208909218Y-129134149D01*
X208909218Y-129134149D02*
X208909218Y-129241292D01*
X208909218Y-129241292D02*
X208877314Y-129384149D01*
X208877314Y-129384149D02*
X208845409Y-129455578D01*
X208845409Y-129455578D02*
X208781599Y-129527007D01*
X208781599Y-129527007D02*
X208685885Y-129562721D01*
X208685885Y-129562721D02*
X208526361Y-129562721D01*
X209132552Y-128812721D02*
X209579218Y-128812721D01*
X209579218Y-128812721D02*
X209292076Y-129562721D01*
X210313028Y-128777007D02*
X209738742Y-129741292D01*
X210823504Y-128812721D02*
X210695885Y-128812721D01*
X210695885Y-128812721D02*
X210632076Y-128848435D01*
X210632076Y-128848435D02*
X210600171Y-128884149D01*
X210600171Y-128884149D02*
X210536361Y-128991292D01*
X210536361Y-128991292D02*
X210504457Y-129134149D01*
X210504457Y-129134149D02*
X210504457Y-129419864D01*
X210504457Y-129419864D02*
X210536361Y-129491292D01*
X210536361Y-129491292D02*
X210568266Y-129527007D01*
X210568266Y-129527007D02*
X210632076Y-129562721D01*
X210632076Y-129562721D02*
X210759695Y-129562721D01*
X210759695Y-129562721D02*
X210823504Y-129527007D01*
X210823504Y-129527007D02*
X210855409Y-129491292D01*
X210855409Y-129491292D02*
X210887314Y-129419864D01*
X210887314Y-129419864D02*
X210887314Y-129241292D01*
X210887314Y-129241292D02*
X210855409Y-129169864D01*
X210855409Y-129169864D02*
X210823504Y-129134149D01*
X210823504Y-129134149D02*
X210759695Y-129098435D01*
X210759695Y-129098435D02*
X210632076Y-129098435D01*
X210632076Y-129098435D02*
X210568266Y-129134149D01*
X210568266Y-129134149D02*
X210536361Y-129169864D01*
X210536361Y-129169864D02*
X210504457Y-129241292D01*
D12*
X202489456Y-104912981D02*
X202489456Y-104162981D01*
X202489456Y-104162981D02*
X202739456Y-104698695D01*
X202739456Y-104698695D02*
X202989456Y-104162981D01*
X202989456Y-104162981D02*
X202989456Y-104912981D01*
X203346599Y-104912981D02*
X203346599Y-104412981D01*
X203346599Y-104162981D02*
X203310885Y-104198695D01*
X203310885Y-104198695D02*
X203346599Y-104234409D01*
X203346599Y-104234409D02*
X203382313Y-104198695D01*
X203382313Y-104198695D02*
X203346599Y-104162981D01*
X203346599Y-104162981D02*
X203346599Y-104234409D01*
X204025171Y-104877267D02*
X203953742Y-104912981D01*
X203953742Y-104912981D02*
X203810885Y-104912981D01*
X203810885Y-104912981D02*
X203739456Y-104877267D01*
X203739456Y-104877267D02*
X203703742Y-104841552D01*
X203703742Y-104841552D02*
X203668028Y-104770124D01*
X203668028Y-104770124D02*
X203668028Y-104555838D01*
X203668028Y-104555838D02*
X203703742Y-104484409D01*
X203703742Y-104484409D02*
X203739456Y-104448695D01*
X203739456Y-104448695D02*
X203810885Y-104412981D01*
X203810885Y-104412981D02*
X203953742Y-104412981D01*
X203953742Y-104412981D02*
X204025171Y-104448695D01*
X204346599Y-104912981D02*
X204346599Y-104412981D01*
X204346599Y-104555838D02*
X204382313Y-104484409D01*
X204382313Y-104484409D02*
X204418028Y-104448695D01*
X204418028Y-104448695D02*
X204489456Y-104412981D01*
X204489456Y-104412981D02*
X204560885Y-104412981D01*
X204918028Y-104912981D02*
X204846599Y-104877267D01*
X204846599Y-104877267D02*
X204810885Y-104841552D01*
X204810885Y-104841552D02*
X204775171Y-104770124D01*
X204775171Y-104770124D02*
X204775171Y-104555838D01*
X204775171Y-104555838D02*
X204810885Y-104484409D01*
X204810885Y-104484409D02*
X204846599Y-104448695D01*
X204846599Y-104448695D02*
X204918028Y-104412981D01*
X204918028Y-104412981D02*
X205025171Y-104412981D01*
X205025171Y-104412981D02*
X205096599Y-104448695D01*
X205096599Y-104448695D02*
X205132314Y-104484409D01*
X205132314Y-104484409D02*
X205168028Y-104555838D01*
X205168028Y-104555838D02*
X205168028Y-104770124D01*
X205168028Y-104770124D02*
X205132314Y-104841552D01*
X205132314Y-104841552D02*
X205096599Y-104877267D01*
X205096599Y-104877267D02*
X205025171Y-104912981D01*
X205025171Y-104912981D02*
X204918028Y-104912981D01*
X205489456Y-104162981D02*
X205489456Y-104770124D01*
X205489456Y-104770124D02*
X205525170Y-104841552D01*
X205525170Y-104841552D02*
X205560885Y-104877267D01*
X205560885Y-104877267D02*
X205632313Y-104912981D01*
X205632313Y-104912981D02*
X205775170Y-104912981D01*
X205775170Y-104912981D02*
X205846599Y-104877267D01*
X205846599Y-104877267D02*
X205882313Y-104841552D01*
X205882313Y-104841552D02*
X205918027Y-104770124D01*
X205918027Y-104770124D02*
X205918027Y-104162981D01*
X206239456Y-104877267D02*
X206346599Y-104912981D01*
X206346599Y-104912981D02*
X206525170Y-104912981D01*
X206525170Y-104912981D02*
X206596599Y-104877267D01*
X206596599Y-104877267D02*
X206632313Y-104841552D01*
X206632313Y-104841552D02*
X206668027Y-104770124D01*
X206668027Y-104770124D02*
X206668027Y-104698695D01*
X206668027Y-104698695D02*
X206632313Y-104627267D01*
X206632313Y-104627267D02*
X206596599Y-104591552D01*
X206596599Y-104591552D02*
X206525170Y-104555838D01*
X206525170Y-104555838D02*
X206382313Y-104520124D01*
X206382313Y-104520124D02*
X206310884Y-104484409D01*
X206310884Y-104484409D02*
X206275170Y-104448695D01*
X206275170Y-104448695D02*
X206239456Y-104377267D01*
X206239456Y-104377267D02*
X206239456Y-104305838D01*
X206239456Y-104305838D02*
X206275170Y-104234409D01*
X206275170Y-104234409D02*
X206310884Y-104198695D01*
X206310884Y-104198695D02*
X206382313Y-104162981D01*
X206382313Y-104162981D02*
X206560884Y-104162981D01*
X206560884Y-104162981D02*
X206668027Y-104198695D01*
X207239456Y-104520124D02*
X207346599Y-104555838D01*
X207346599Y-104555838D02*
X207382313Y-104591552D01*
X207382313Y-104591552D02*
X207418027Y-104662981D01*
X207418027Y-104662981D02*
X207418027Y-104770124D01*
X207418027Y-104770124D02*
X207382313Y-104841552D01*
X207382313Y-104841552D02*
X207346599Y-104877267D01*
X207346599Y-104877267D02*
X207275170Y-104912981D01*
X207275170Y-104912981D02*
X206989456Y-104912981D01*
X206989456Y-104912981D02*
X206989456Y-104162981D01*
X206989456Y-104162981D02*
X207239456Y-104162981D01*
X207239456Y-104162981D02*
X207310885Y-104198695D01*
X207310885Y-104198695D02*
X207346599Y-104234409D01*
X207346599Y-104234409D02*
X207382313Y-104305838D01*
X207382313Y-104305838D02*
X207382313Y-104377267D01*
X207382313Y-104377267D02*
X207346599Y-104448695D01*
X207346599Y-104448695D02*
X207310885Y-104484409D01*
X207310885Y-104484409D02*
X207239456Y-104520124D01*
X207239456Y-104520124D02*
X206989456Y-104520124D01*
D11*
X209566809Y-106130435D02*
X209502999Y-106094721D01*
X209502999Y-106094721D02*
X209407285Y-106094721D01*
X209407285Y-106094721D02*
X209311571Y-106130435D01*
X209311571Y-106130435D02*
X209247761Y-106201864D01*
X209247761Y-106201864D02*
X209215856Y-106273292D01*
X209215856Y-106273292D02*
X209183952Y-106416149D01*
X209183952Y-106416149D02*
X209183952Y-106523292D01*
X209183952Y-106523292D02*
X209215856Y-106666149D01*
X209215856Y-106666149D02*
X209247761Y-106737578D01*
X209247761Y-106737578D02*
X209311571Y-106809007D01*
X209311571Y-106809007D02*
X209407285Y-106844721D01*
X209407285Y-106844721D02*
X209471094Y-106844721D01*
X209471094Y-106844721D02*
X209566809Y-106809007D01*
X209566809Y-106809007D02*
X209598713Y-106773292D01*
X209598713Y-106773292D02*
X209598713Y-106523292D01*
X209598713Y-106523292D02*
X209471094Y-106523292D01*
X209885856Y-106844721D02*
X209885856Y-106094721D01*
X209885856Y-106094721D02*
X210268713Y-106844721D01*
X210268713Y-106844721D02*
X210268713Y-106094721D01*
X210587761Y-106844721D02*
X210587761Y-106094721D01*
X210587761Y-106094721D02*
X210747285Y-106094721D01*
X210747285Y-106094721D02*
X210842999Y-106130435D01*
X210842999Y-106130435D02*
X210906809Y-106201864D01*
X210906809Y-106201864D02*
X210938714Y-106273292D01*
X210938714Y-106273292D02*
X210970618Y-106416149D01*
X210970618Y-106416149D02*
X210970618Y-106523292D01*
X210970618Y-106523292D02*
X210938714Y-106666149D01*
X210938714Y-106666149D02*
X210906809Y-106737578D01*
X210906809Y-106737578D02*
X210842999Y-106809007D01*
X210842999Y-106809007D02*
X210747285Y-106844721D01*
X210747285Y-106844721D02*
X210587761Y-106844721D01*
X207322313Y-111962721D02*
X207322313Y-111212721D01*
X207322313Y-111212721D02*
X207481837Y-111212721D01*
X207481837Y-111212721D02*
X207577551Y-111248435D01*
X207577551Y-111248435D02*
X207641361Y-111319864D01*
X207641361Y-111319864D02*
X207673266Y-111391292D01*
X207673266Y-111391292D02*
X207705170Y-111534149D01*
X207705170Y-111534149D02*
X207705170Y-111641292D01*
X207705170Y-111641292D02*
X207673266Y-111784149D01*
X207673266Y-111784149D02*
X207641361Y-111855578D01*
X207641361Y-111855578D02*
X207577551Y-111927007D01*
X207577551Y-111927007D02*
X207481837Y-111962721D01*
X207481837Y-111962721D02*
X207322313Y-111962721D01*
X207960409Y-111284149D02*
X207992313Y-111248435D01*
X207992313Y-111248435D02*
X208056123Y-111212721D01*
X208056123Y-111212721D02*
X208215647Y-111212721D01*
X208215647Y-111212721D02*
X208279456Y-111248435D01*
X208279456Y-111248435D02*
X208311361Y-111284149D01*
X208311361Y-111284149D02*
X208343266Y-111355578D01*
X208343266Y-111355578D02*
X208343266Y-111427007D01*
X208343266Y-111427007D02*
X208311361Y-111534149D01*
X208311361Y-111534149D02*
X207928504Y-111962721D01*
X207928504Y-111962721D02*
X208343266Y-111962721D01*
X209108980Y-111177007D02*
X208534694Y-112141292D01*
X209715170Y-111962721D02*
X209491837Y-111605578D01*
X209332313Y-111962721D02*
X209332313Y-111212721D01*
X209332313Y-111212721D02*
X209587551Y-111212721D01*
X209587551Y-111212721D02*
X209651361Y-111248435D01*
X209651361Y-111248435D02*
X209683266Y-111284149D01*
X209683266Y-111284149D02*
X209715170Y-111355578D01*
X209715170Y-111355578D02*
X209715170Y-111462721D01*
X209715170Y-111462721D02*
X209683266Y-111534149D01*
X209683266Y-111534149D02*
X209651361Y-111569864D01*
X209651361Y-111569864D02*
X209587551Y-111605578D01*
X209587551Y-111605578D02*
X209332313Y-111605578D01*
X209938504Y-111212721D02*
X210385170Y-111962721D01*
X210385170Y-111212721D02*
X209938504Y-111962721D01*
X210991361Y-111962721D02*
X210608504Y-111962721D01*
X210799932Y-111962721D02*
X210799932Y-111212721D01*
X210799932Y-111212721D02*
X210736123Y-111319864D01*
X210736123Y-111319864D02*
X210672313Y-111391292D01*
X210672313Y-111391292D02*
X210608504Y-111427007D01*
X199528265Y-109362721D02*
X199304932Y-109005578D01*
X199145408Y-109362721D02*
X199145408Y-108612721D01*
X199145408Y-108612721D02*
X199400646Y-108612721D01*
X199400646Y-108612721D02*
X199464456Y-108648435D01*
X199464456Y-108648435D02*
X199496361Y-108684149D01*
X199496361Y-108684149D02*
X199528265Y-108755578D01*
X199528265Y-108755578D02*
X199528265Y-108862721D01*
X199528265Y-108862721D02*
X199496361Y-108934149D01*
X199496361Y-108934149D02*
X199464456Y-108969864D01*
X199464456Y-108969864D02*
X199400646Y-109005578D01*
X199400646Y-109005578D02*
X199145408Y-109005578D01*
X199783504Y-109148435D02*
X200102551Y-109148435D01*
X199719694Y-109362721D02*
X199943027Y-108612721D01*
X199943027Y-108612721D02*
X200166361Y-109362721D01*
X200325885Y-108612721D02*
X200485409Y-109362721D01*
X200485409Y-109362721D02*
X200613028Y-108827007D01*
X200613028Y-108827007D02*
X200740647Y-109362721D01*
X200740647Y-109362721D02*
X200900171Y-108612721D01*
X199155171Y-124398435D02*
X199474218Y-124398435D01*
X199091361Y-124612721D02*
X199314694Y-123862721D01*
X199314694Y-123862721D02*
X199538028Y-124612721D01*
X200112314Y-124612721D02*
X199729457Y-124612721D01*
X199920885Y-124612721D02*
X199920885Y-123862721D01*
X199920885Y-123862721D02*
X199857076Y-123969864D01*
X199857076Y-123969864D02*
X199793266Y-124041292D01*
X199793266Y-124041292D02*
X199729457Y-124077007D01*
X200878028Y-123827007D02*
X200303742Y-124791292D01*
X201324695Y-124219864D02*
X201101361Y-124219864D01*
X201101361Y-124612721D02*
X201101361Y-123862721D01*
X201101361Y-123862721D02*
X201420409Y-123862721D01*
X201962790Y-123862721D02*
X201835171Y-123862721D01*
X201835171Y-123862721D02*
X201771362Y-123898435D01*
X201771362Y-123898435D02*
X201739457Y-123934149D01*
X201739457Y-123934149D02*
X201675647Y-124041292D01*
X201675647Y-124041292D02*
X201643743Y-124184149D01*
X201643743Y-124184149D02*
X201643743Y-124469864D01*
X201643743Y-124469864D02*
X201675647Y-124541292D01*
X201675647Y-124541292D02*
X201707552Y-124577007D01*
X201707552Y-124577007D02*
X201771362Y-124612721D01*
X201771362Y-124612721D02*
X201898981Y-124612721D01*
X201898981Y-124612721D02*
X201962790Y-124577007D01*
X201962790Y-124577007D02*
X201994695Y-124541292D01*
X201994695Y-124541292D02*
X202026600Y-124469864D01*
X202026600Y-124469864D02*
X202026600Y-124291292D01*
X202026600Y-124291292D02*
X201994695Y-124219864D01*
X201994695Y-124219864D02*
X201962790Y-124184149D01*
X201962790Y-124184149D02*
X201898981Y-124148435D01*
X201898981Y-124148435D02*
X201771362Y-124148435D01*
X201771362Y-124148435D02*
X201707552Y-124184149D01*
X201707552Y-124184149D02*
X201675647Y-124219864D01*
X201675647Y-124219864D02*
X201643743Y-124291292D01*
D13*
X266719494Y-168207971D02*
X266767113Y-168065114D01*
X266767113Y-168065114D02*
X266814732Y-168017495D01*
X266814732Y-168017495D02*
X266909970Y-167969876D01*
X266909970Y-167969876D02*
X267052827Y-167969876D01*
X267052827Y-167969876D02*
X267148065Y-168017495D01*
X267148065Y-168017495D02*
X267195685Y-168065114D01*
X267195685Y-168065114D02*
X267243304Y-168160352D01*
X267243304Y-168160352D02*
X267243304Y-168541304D01*
X267243304Y-168541304D02*
X266243304Y-168541304D01*
X266243304Y-168541304D02*
X266243304Y-168207971D01*
X266243304Y-168207971D02*
X266290923Y-168112733D01*
X266290923Y-168112733D02*
X266338542Y-168065114D01*
X266338542Y-168065114D02*
X266433780Y-168017495D01*
X266433780Y-168017495D02*
X266529018Y-168017495D01*
X266529018Y-168017495D02*
X266624256Y-168065114D01*
X266624256Y-168065114D02*
X266671875Y-168112733D01*
X266671875Y-168112733D02*
X266719494Y-168207971D01*
X266719494Y-168207971D02*
X266719494Y-168541304D01*
X266243304Y-167684161D02*
X266243304Y-167112733D01*
X267243304Y-167398447D02*
X266243304Y-167398447D01*
X266338542Y-166827018D02*
X266290923Y-166779399D01*
X266290923Y-166779399D02*
X266243304Y-166684161D01*
X266243304Y-166684161D02*
X266243304Y-166446066D01*
X266243304Y-166446066D02*
X266290923Y-166350828D01*
X266290923Y-166350828D02*
X266338542Y-166303209D01*
X266338542Y-166303209D02*
X266433780Y-166255590D01*
X266433780Y-166255590D02*
X266529018Y-166255590D01*
X266529018Y-166255590D02*
X266671875Y-166303209D01*
X266671875Y-166303209D02*
X267243304Y-166874637D01*
X267243304Y-166874637D02*
X267243304Y-166255590D01*
X171872275Y-166636542D02*
X171824656Y-166779399D01*
X171824656Y-166779399D02*
X171777037Y-166827018D01*
X171777037Y-166827018D02*
X171681799Y-166874637D01*
X171681799Y-166874637D02*
X171538942Y-166874637D01*
X171538942Y-166874637D02*
X171443704Y-166827018D01*
X171443704Y-166827018D02*
X171396085Y-166779399D01*
X171396085Y-166779399D02*
X171348465Y-166684161D01*
X171348465Y-166684161D02*
X171348465Y-166303209D01*
X171348465Y-166303209D02*
X172348465Y-166303209D01*
X172348465Y-166303209D02*
X172348465Y-166636542D01*
X172348465Y-166636542D02*
X172300846Y-166731780D01*
X172300846Y-166731780D02*
X172253227Y-166779399D01*
X172253227Y-166779399D02*
X172157989Y-166827018D01*
X172157989Y-166827018D02*
X172062751Y-166827018D01*
X172062751Y-166827018D02*
X171967513Y-166779399D01*
X171967513Y-166779399D02*
X171919894Y-166731780D01*
X171919894Y-166731780D02*
X171872275Y-166636542D01*
X171872275Y-166636542D02*
X171872275Y-166303209D01*
X172348465Y-167160352D02*
X172348465Y-167731780D01*
X171348465Y-167446066D02*
X172348465Y-167446066D01*
X171348465Y-168588923D02*
X171348465Y-168017495D01*
X171348465Y-168303209D02*
X172348465Y-168303209D01*
X172348465Y-168303209D02*
X172205608Y-168207971D01*
X172205608Y-168207971D02*
X172110370Y-168112733D01*
X172110370Y-168112733D02*
X172062751Y-168017495D01*
D10*
X232072123Y-139848505D02*
X232262599Y-139848505D01*
X232262599Y-139848505D02*
X232357837Y-139896124D01*
X232357837Y-139896124D02*
X232453075Y-139991362D01*
X232453075Y-139991362D02*
X232500694Y-140181838D01*
X232500694Y-140181838D02*
X232500694Y-140515171D01*
X232500694Y-140515171D02*
X232453075Y-140705647D01*
X232453075Y-140705647D02*
X232357837Y-140800886D01*
X232357837Y-140800886D02*
X232262599Y-140848505D01*
X232262599Y-140848505D02*
X232072123Y-140848505D01*
X232072123Y-140848505D02*
X231976885Y-140800886D01*
X231976885Y-140800886D02*
X231881647Y-140705647D01*
X231881647Y-140705647D02*
X231834028Y-140515171D01*
X231834028Y-140515171D02*
X231834028Y-140181838D01*
X231834028Y-140181838D02*
X231881647Y-139991362D01*
X231881647Y-139991362D02*
X231976885Y-139896124D01*
X231976885Y-139896124D02*
X232072123Y-139848505D01*
X233405456Y-140848505D02*
X232929266Y-140848505D01*
X232929266Y-140848505D02*
X232929266Y-139848505D01*
X233738790Y-140324695D02*
X234072123Y-140324695D01*
X234214980Y-140848505D02*
X233738790Y-140848505D01*
X233738790Y-140848505D02*
X233738790Y-139848505D01*
X233738790Y-139848505D02*
X234214980Y-139848505D01*
X234643552Y-140848505D02*
X234643552Y-139848505D01*
X234643552Y-139848505D02*
X234881647Y-139848505D01*
X234881647Y-139848505D02*
X235024504Y-139896124D01*
X235024504Y-139896124D02*
X235119742Y-139991362D01*
X235119742Y-139991362D02*
X235167361Y-140086600D01*
X235167361Y-140086600D02*
X235214980Y-140277076D01*
X235214980Y-140277076D02*
X235214980Y-140419933D01*
X235214980Y-140419933D02*
X235167361Y-140610409D01*
X235167361Y-140610409D02*
X235119742Y-140705647D01*
X235119742Y-140705647D02*
X235024504Y-140800886D01*
X235024504Y-140800886D02*
X234881647Y-140848505D01*
X234881647Y-140848505D02*
X234643552Y-140848505D01*
X203562123Y-139848505D02*
X203752599Y-139848505D01*
X203752599Y-139848505D02*
X203847837Y-139896124D01*
X203847837Y-139896124D02*
X203943075Y-139991362D01*
X203943075Y-139991362D02*
X203990694Y-140181838D01*
X203990694Y-140181838D02*
X203990694Y-140515171D01*
X203990694Y-140515171D02*
X203943075Y-140705647D01*
X203943075Y-140705647D02*
X203847837Y-140800886D01*
X203847837Y-140800886D02*
X203752599Y-140848505D01*
X203752599Y-140848505D02*
X203562123Y-140848505D01*
X203562123Y-140848505D02*
X203466885Y-140800886D01*
X203466885Y-140800886D02*
X203371647Y-140705647D01*
X203371647Y-140705647D02*
X203324028Y-140515171D01*
X203324028Y-140515171D02*
X203324028Y-140181838D01*
X203324028Y-140181838D02*
X203371647Y-139991362D01*
X203371647Y-139991362D02*
X203466885Y-139896124D01*
X203466885Y-139896124D02*
X203562123Y-139848505D01*
X204895456Y-140848505D02*
X204419266Y-140848505D01*
X204419266Y-140848505D02*
X204419266Y-139848505D01*
X205228790Y-140324695D02*
X205562123Y-140324695D01*
X205704980Y-140848505D02*
X205228790Y-140848505D01*
X205228790Y-140848505D02*
X205228790Y-139848505D01*
X205228790Y-139848505D02*
X205704980Y-139848505D01*
X206133552Y-140848505D02*
X206133552Y-139848505D01*
X206133552Y-139848505D02*
X206371647Y-139848505D01*
X206371647Y-139848505D02*
X206514504Y-139896124D01*
X206514504Y-139896124D02*
X206609742Y-139991362D01*
X206609742Y-139991362D02*
X206657361Y-140086600D01*
X206657361Y-140086600D02*
X206704980Y-140277076D01*
X206704980Y-140277076D02*
X206704980Y-140419933D01*
X206704980Y-140419933D02*
X206657361Y-140610409D01*
X206657361Y-140610409D02*
X206609742Y-140705647D01*
X206609742Y-140705647D02*
X206514504Y-140800886D01*
X206514504Y-140800886D02*
X206371647Y-140848505D01*
X206371647Y-140848505D02*
X206133552Y-140848505D01*
%TO.C,Pro_Micro_nRF58240_flip2*%
X224835885Y-137247257D02*
X224835885Y-138147257D01*
X224835885Y-138147257D02*
X225685885Y-138147257D01*
X224940885Y-105497257D02*
X224940885Y-106347257D01*
X224940885Y-105497257D02*
X225790885Y-105497257D01*
X242335885Y-105497257D02*
X241535885Y-105497257D01*
X242335885Y-105497257D02*
X242335885Y-106347257D01*
X242335885Y-137297257D02*
X242335885Y-138147257D01*
X242335885Y-138147257D02*
X241475885Y-138147257D01*
%TO.C,Pro_Micro_nRF58240_flip1*%
X196235885Y-137222257D02*
X196235885Y-138122257D01*
X196235885Y-138122257D02*
X197085885Y-138122257D01*
X196340885Y-105472257D02*
X196340885Y-106322257D01*
X196340885Y-105472257D02*
X197190885Y-105472257D01*
X213735885Y-105472257D02*
X212935885Y-105472257D01*
X213735885Y-105472257D02*
X213735885Y-106322257D01*
X213735885Y-137272257D02*
X213735885Y-138122257D01*
X213735885Y-138122257D02*
X212875885Y-138122257D01*
D13*
%TO.C,D5_r1*%
X273195885Y-121102257D02*
X273195885Y-120322257D01*
X273195885Y-120712257D02*
X273695885Y-120712257D01*
X273195885Y-120322257D02*
X272605885Y-120712257D01*
X272605885Y-120712257D02*
X273195885Y-121102257D01*
X272605885Y-120712257D02*
X272185885Y-120712257D01*
X272595885Y-121252257D02*
X272595885Y-120172257D01*
%TO.C,BT2*%
X265845885Y-171232257D02*
X265845885Y-169842257D01*
X274495885Y-171232257D02*
X265845885Y-171232257D01*
D12*
X264685885Y-168972257D02*
X264685885Y-168372257D01*
X268385885Y-168922257D02*
X273885885Y-168922257D01*
X273885885Y-168922257D02*
X273885885Y-168422257D01*
X265285885Y-168672257D02*
X264685885Y-168972257D01*
X268385885Y-168422257D02*
X268385885Y-168922257D01*
X273885885Y-168422257D02*
X268385885Y-168422257D01*
X264685885Y-168372257D02*
X265285885Y-168672257D01*
X274495885Y-167422257D02*
X274495885Y-171232257D01*
X274495885Y-167422257D02*
X274495885Y-163612257D01*
X268385885Y-166422257D02*
X273885885Y-166422257D01*
X273885885Y-166422257D02*
X273885885Y-165922257D01*
X268385885Y-165922257D02*
X268385885Y-166422257D01*
X273885885Y-165922257D02*
X268385885Y-165922257D01*
D13*
X265845885Y-163612257D02*
X265845885Y-164962257D01*
X274495885Y-163612257D02*
X265845885Y-163612257D01*
%TO.C,mouse-bite-5mm-slot*%
X221790885Y-119317770D02*
G75*
G03*
X216790885Y-119317770I-2500000J0D01*
G01*
X216790885Y-109317770D02*
G75*
G03*
X221790885Y-109317770I2500000J0D01*
G01*
%TO.C,D12*%
X165895885Y-139602257D02*
X165895885Y-138822257D01*
X165895885Y-139212257D02*
X166395885Y-139212257D01*
X165895885Y-138822257D02*
X165305885Y-139212257D01*
X165305885Y-139212257D02*
X165895885Y-139602257D01*
X165305885Y-139212257D02*
X164885885Y-139212257D01*
X165295885Y-139752257D02*
X165295885Y-138672257D01*
D12*
%TO.C,SW2*%
X226646385Y-150502257D02*
X227246385Y-150502257D01*
X226946385Y-150802257D02*
X226646385Y-150502257D01*
X227246385Y-150502257D02*
X226946385Y-150802257D01*
X227746385Y-148302257D02*
X227746385Y-150802257D01*
X227746385Y-160902257D02*
X227746385Y-158102257D01*
X232546385Y-148302257D02*
X227746385Y-148302257D01*
X232646385Y-160902257D02*
X227746385Y-160902257D01*
X233946385Y-154602257D02*
X234946385Y-154602257D01*
X234446385Y-154102257D02*
X234446385Y-155102257D01*
X236246385Y-148302257D02*
X241146385Y-148302257D01*
X241146385Y-148302257D02*
X241146385Y-150902257D01*
X241146385Y-153302257D02*
X241146385Y-155902257D01*
X241146385Y-158302257D02*
X241146385Y-160902257D01*
X241146385Y-160902257D02*
X236246385Y-160902257D01*
X237446385Y-154602257D02*
G75*
G03*
X237446385Y-154602257I-3000000J0D01*
G01*
%TO.C,S16_r1*%
X323671247Y-138971506D02*
X322186942Y-153093717D01*
X322186942Y-153093717D02*
X336309153Y-154578022D01*
X337793458Y-140455811D02*
X323671247Y-138971506D01*
X336309153Y-154578022D02*
X337793458Y-140455811D01*
%TO.C,S10*%
X139053158Y-139379862D02*
X139796329Y-153560401D01*
X139796329Y-153560401D02*
X153976868Y-152817230D01*
X153233697Y-138636691D02*
X139053158Y-139379862D01*
X153976868Y-152817230D02*
X153233697Y-138636691D01*
D13*
%TO.C,D13*%
X165895885Y-158102257D02*
X165895885Y-157322257D01*
X165895885Y-157712257D02*
X166395885Y-157712257D01*
X165895885Y-157322257D02*
X165305885Y-157712257D01*
X165305885Y-157712257D02*
X165895885Y-158102257D01*
X165305885Y-157712257D02*
X164885885Y-157712257D01*
X165295885Y-158252257D02*
X165295885Y-157172257D01*
D12*
%TO.C,S10_r1*%
X286323129Y-120164566D02*
X285579958Y-134345105D01*
X285579958Y-134345105D02*
X299760497Y-135088276D01*
X300503668Y-120907737D02*
X286323129Y-120164566D01*
X299760497Y-135088276D02*
X300503668Y-120907737D01*
D13*
%TO.C,D18_r1*%
X347874426Y-155994684D02*
X347955958Y-155218957D01*
X347915192Y-155606820D02*
X348412453Y-155659085D01*
X347955958Y-155218957D02*
X347328424Y-155545149D01*
X347328424Y-155545149D02*
X347874426Y-155994684D01*
X347328424Y-155545149D02*
X346910725Y-155501247D01*
X347262034Y-156081145D02*
X347374924Y-155007061D01*
%TO.C,D10_r1*%
X293008857Y-133032104D02*
X293049679Y-132253173D01*
X293029268Y-132642638D02*
X293528583Y-132668806D01*
X293049679Y-132253173D02*
X292440077Y-132611760D01*
X292440077Y-132611760D02*
X293008857Y-133032104D01*
X292440077Y-132611760D02*
X292020652Y-132589779D01*
X292401829Y-133150497D02*
X292458352Y-132071977D01*
%TO.C,5feet_power2*%
X287927357Y-160174359D02*
X296419267Y-160545124D01*
X296419267Y-160545124D02*
X296227342Y-164940936D01*
X296227342Y-164940936D02*
X287735432Y-164570172D01*
X287735432Y-164570172D02*
X287927357Y-160174359D01*
%TO.C,D12_r1*%
X314202516Y-122390925D02*
X314284048Y-121615198D01*
X314243282Y-122003061D02*
X314740543Y-122055326D01*
X314284048Y-121615198D02*
X313656514Y-121941390D01*
X313656514Y-121941390D02*
X314202516Y-122390925D01*
X313656514Y-121941390D02*
X313238815Y-121897488D01*
X313590124Y-122477386D02*
X313703014Y-121403302D01*
D12*
%TO.C,S8_r1*%
X270497597Y-190014801D02*
X272875401Y-175001939D01*
X272875401Y-175001939D02*
X257862539Y-172624135D01*
X255484735Y-187636997D02*
X270497597Y-190014801D01*
X257862539Y-172624135D02*
X255484735Y-187636997D01*
D13*
%TO.C,D9_r1*%
X293977071Y-114557458D02*
X294017893Y-113778527D01*
X293997482Y-114167992D02*
X294496797Y-114194160D01*
X294017893Y-113778527D02*
X293408291Y-114137114D01*
X293408291Y-114137114D02*
X293977071Y-114557458D01*
X293408291Y-114137114D02*
X292988866Y-114115133D01*
X293370043Y-114675851D02*
X293426566Y-113597331D01*
%TO.C,D3*%
X109442832Y-152077528D02*
X109361300Y-151301801D01*
X109402066Y-151689664D02*
X109899327Y-151637400D01*
X109361300Y-151301801D02*
X108815298Y-151751336D01*
X108815298Y-151751336D02*
X109442832Y-152077528D01*
X108815298Y-151751336D02*
X108397599Y-151795238D01*
X108861798Y-152289423D02*
X108748907Y-151215339D01*
%TO.C,D1_r1*%
X254695885Y-123002257D02*
X254695885Y-122222257D01*
X254695885Y-122612257D02*
X255195885Y-122612257D01*
X254695885Y-122222257D02*
X254105885Y-122612257D01*
X254105885Y-122612257D02*
X254695885Y-123002257D01*
X254105885Y-122612257D02*
X253685885Y-122612257D01*
X254095885Y-123152257D02*
X254095885Y-122072257D01*
D12*
%TO.C,S5*%
X116298348Y-110633900D02*
X117782653Y-124756111D01*
X117782653Y-124756111D02*
X131904864Y-123271806D01*
X130420559Y-109149595D02*
X116298348Y-110633900D01*
X131904864Y-123271806D02*
X130420559Y-109149595D01*
D13*
%TO.C,BT1*%
X172745885Y-163612257D02*
X172745885Y-165002257D01*
X164095885Y-163612257D02*
X172745885Y-163612257D01*
D12*
X173905885Y-165872257D02*
X173905885Y-166472257D01*
X170205885Y-165922257D02*
X164705885Y-165922257D01*
X164705885Y-165922257D02*
X164705885Y-166422257D01*
X173305885Y-166172257D02*
X173905885Y-165872257D01*
X170205885Y-166422257D02*
X170205885Y-165922257D01*
X164705885Y-166422257D02*
X170205885Y-166422257D01*
X173905885Y-166472257D02*
X173305885Y-166172257D01*
X164095885Y-167422257D02*
X164095885Y-163612257D01*
X164095885Y-167422257D02*
X164095885Y-171232257D01*
X170205885Y-168422257D02*
X164705885Y-168422257D01*
X164705885Y-168422257D02*
X164705885Y-168922257D01*
X170205885Y-168922257D02*
X170205885Y-168422257D01*
X164705885Y-168922257D02*
X170205885Y-168922257D01*
D13*
X172745885Y-171232257D02*
X172745885Y-169882257D01*
X164095885Y-171232257D02*
X172745885Y-171232257D01*
D12*
%TO.C,S7_r1*%
X265845885Y-145602257D02*
X265845885Y-159802257D01*
X265845885Y-159802257D02*
X280045885Y-159802257D01*
X280045885Y-145602257D02*
X265845885Y-145602257D01*
X280045885Y-159802257D02*
X280045885Y-145602257D01*
%TO.C,S13_r1*%
X306265610Y-127589772D02*
X304781305Y-141711983D01*
X304781305Y-141711983D02*
X318903516Y-143196288D01*
X320387821Y-129074077D02*
X306265610Y-127589772D01*
X318903516Y-143196288D02*
X320387821Y-129074077D01*
D13*
%TO.C,D8*%
X145110855Y-114528766D02*
X145070033Y-113749835D01*
X145090444Y-114139300D02*
X145589759Y-114113132D01*
X145070033Y-113749835D02*
X144501252Y-114170179D01*
X144501252Y-114170179D02*
X145110855Y-114528766D01*
X144501252Y-114170179D02*
X144081828Y-114192160D01*
X144519527Y-114709962D02*
X144463005Y-113631442D01*
D12*
%TO.C,S9_r1*%
X287291346Y-101689919D02*
X286548175Y-115870458D01*
X286548175Y-115870458D02*
X300728714Y-116613629D01*
X301471885Y-102433090D02*
X287291346Y-101689919D01*
X300728714Y-116613629D02*
X301471885Y-102433090D01*
%TO.C,S7*%
X120110949Y-147386711D02*
X121595254Y-161508922D01*
X121595254Y-161508922D02*
X135717465Y-160024617D01*
X134233160Y-145902406D02*
X120110949Y-147386711D01*
X135717465Y-160024617D02*
X134233160Y-145902406D01*
%TO.C,S13*%
X158545885Y-145602257D02*
X158545885Y-159802257D01*
X158545885Y-159802257D02*
X172745885Y-159802257D01*
X172745885Y-145602257D02*
X158545885Y-145602257D01*
X172745885Y-159802257D02*
X172745885Y-145602257D01*
D13*
%TO.C,D8_r1*%
X265043831Y-174267772D02*
X264921812Y-175038169D01*
X264982821Y-174652971D02*
X264488977Y-174574753D01*
X264921812Y-175038169D02*
X265565557Y-174745267D01*
X265565557Y-174745267D02*
X265043831Y-174267772D01*
X265565557Y-174745267D02*
X265980386Y-174810969D01*
X265659909Y-174213479D02*
X265490960Y-175280183D01*
%TO.C,D10*%
X146455958Y-151659257D02*
X146399436Y-150580737D01*
X146437683Y-151119474D02*
X146018259Y-151141455D01*
X146437683Y-151119474D02*
X147047286Y-151478061D01*
X147006464Y-150699130D02*
X146437683Y-151119474D01*
X147026875Y-151088595D02*
X147526190Y-151062427D01*
X147047286Y-151478061D02*
X147006464Y-150699130D01*
%TO.C,D9*%
X146079073Y-133003413D02*
X146038251Y-132224482D01*
X146058662Y-132613947D02*
X146557977Y-132587779D01*
X146038251Y-132224482D02*
X145469470Y-132644826D01*
X145469470Y-132644826D02*
X146079073Y-133003413D01*
X145469470Y-132644826D02*
X145050046Y-132666807D01*
X145487745Y-133184609D02*
X145431223Y-132106089D01*
%TO.C,D7*%
X128782244Y-159094451D02*
X128700712Y-158318724D01*
X128741478Y-158706587D02*
X129238739Y-158654323D01*
X128700712Y-158318724D02*
X128154710Y-158768259D01*
X128154710Y-158768259D02*
X128782244Y-159094451D01*
X128154710Y-158768259D02*
X127737011Y-158812161D01*
X128201210Y-159306346D02*
X128088319Y-158232262D01*
%TO.C,D3_r1*%
X254695885Y-160002257D02*
X254695885Y-159222257D01*
X254695885Y-159612257D02*
X255195885Y-159612257D01*
X254695885Y-159222257D02*
X254105885Y-159612257D01*
X254105885Y-159612257D02*
X254695885Y-160002257D01*
X254105885Y-159612257D02*
X253685885Y-159612257D01*
X254095885Y-160152257D02*
X254095885Y-159072257D01*
%TO.C,D20*%
X234696385Y-163574757D02*
X234696385Y-162794757D01*
X234696385Y-163184757D02*
X235196385Y-163184757D01*
X234696385Y-162794757D02*
X234106385Y-163184757D01*
X234106385Y-163184757D02*
X234696385Y-163574757D01*
X234106385Y-163184757D02*
X233686385Y-163184757D01*
X234096385Y-163724757D02*
X234096385Y-162644757D01*
D12*
%TO.C,S16*%
X177045885Y-129002257D02*
X177045885Y-143202257D01*
X177045885Y-143202257D02*
X191245885Y-143202257D01*
X191245885Y-129002257D02*
X177045885Y-129002257D01*
X191245885Y-143202257D02*
X191245885Y-129002257D01*
%TO.C,S12*%
X158545885Y-127102257D02*
X158545885Y-141302257D01*
X158545885Y-141302257D02*
X172745885Y-141302257D01*
X172745885Y-127102257D02*
X158545885Y-127102257D01*
X172745885Y-141302257D02*
X172745885Y-127102257D01*
%TO.C,S6*%
X118232126Y-129032555D02*
X119716431Y-143154766D01*
X119716431Y-143154766D02*
X133838642Y-141670461D01*
X132354337Y-127548250D02*
X118232126Y-129032555D01*
X133838642Y-141670461D02*
X132354337Y-127548250D01*
D13*
%TO.C,D16*%
X184395885Y-141502257D02*
X184395885Y-140722257D01*
X184395885Y-141112257D02*
X184895885Y-141112257D01*
X184395885Y-140722257D02*
X183805885Y-141112257D01*
X183805885Y-141112257D02*
X184395885Y-141502257D01*
X183805885Y-141112257D02*
X183385885Y-141112257D01*
X183795885Y-141652257D02*
X183795885Y-140572257D01*
%TO.C,D4_r1*%
X244863185Y-173330342D02*
X244944717Y-174106069D01*
X244903951Y-173718206D02*
X244406690Y-173770470D01*
X244944717Y-174106069D02*
X245490719Y-173656534D01*
X245490719Y-173656534D02*
X244863185Y-173330342D01*
X245490719Y-173656534D02*
X245908418Y-173612632D01*
X245444219Y-173118447D02*
X245557110Y-174192531D01*
%TO.C,D4*%
X111376610Y-170476184D02*
X111295078Y-169700457D01*
X111335844Y-170088320D02*
X111833105Y-170036056D01*
X111295078Y-169700457D02*
X110749076Y-170149992D01*
X110749076Y-170149992D02*
X111376610Y-170476184D01*
X110749076Y-170149992D02*
X110331377Y-170193894D01*
X110795576Y-170688079D02*
X110682685Y-169613995D01*
D12*
%TO.C,S14*%
X182852571Y-187625569D02*
X180474767Y-172612707D01*
X180474767Y-172612707D02*
X165461905Y-174990511D01*
X167839709Y-190003373D02*
X182852571Y-187625569D01*
X165461905Y-174990511D02*
X167839709Y-190003373D01*
D13*
%TO.C,D2*%
X107509057Y-133678873D02*
X107427525Y-132903146D01*
X107468291Y-133291009D02*
X107965552Y-133238745D01*
X107427525Y-132903146D02*
X106881523Y-133352681D01*
X106881523Y-133352681D02*
X107509057Y-133678873D01*
X106881523Y-133352681D02*
X106463824Y-133396583D01*
X106928023Y-133890768D02*
X106815132Y-132816684D01*
%TO.C,D14_r1*%
X310334963Y-159188235D02*
X310416495Y-158412508D01*
X310375729Y-158800371D02*
X310872990Y-158852636D01*
X310416495Y-158412508D02*
X309788961Y-158738700D01*
X309788961Y-158738700D02*
X310334963Y-159188235D01*
X309788961Y-158738700D02*
X309371262Y-158694798D01*
X309722571Y-159274696D02*
X309835461Y-158200612D01*
%TO.C,D1*%
X91242781Y-155900895D02*
X91161249Y-155125168D01*
X91202015Y-155513031D02*
X91699276Y-155460767D01*
X91161249Y-155125168D02*
X90615247Y-155574703D01*
X90615247Y-155574703D02*
X91242781Y-155900895D01*
X90615247Y-155574703D02*
X90197548Y-155618605D01*
X90661747Y-156112790D02*
X90548856Y-155038706D01*
D12*
%TO.C,S1_r1*%
X247345885Y-110502257D02*
X247345885Y-124702257D01*
X247345885Y-124702257D02*
X261545885Y-124702257D01*
X261545885Y-110502257D02*
X247345885Y-110502257D01*
X261545885Y-124702257D02*
X261545885Y-110502257D01*
%TO.C,S1*%
X82626439Y-144237660D02*
X84110744Y-158359871D01*
X84110744Y-158359871D02*
X98232955Y-156875566D01*
X96748650Y-142753355D02*
X82626439Y-144237660D01*
X98232955Y-156875566D02*
X96748650Y-142753355D01*
D13*
%TO.C,D7_r1*%
X273195885Y-158102257D02*
X273195885Y-157322257D01*
X273195885Y-157712257D02*
X273695885Y-157712257D01*
X273195885Y-157322257D02*
X272605885Y-157712257D01*
X272605885Y-157712257D02*
X273195885Y-158102257D01*
X272605885Y-157712257D02*
X272185885Y-157712257D01*
X272595885Y-158252257D02*
X272595885Y-157172257D01*
D12*
%TO.C,S8*%
X137116728Y-102430568D02*
X137859899Y-116611107D01*
X137859899Y-116611107D02*
X152040438Y-115867936D01*
X151297267Y-101687397D02*
X137116728Y-102430568D01*
X152040438Y-115867936D02*
X151297267Y-101687397D01*
%TO.C,S18*%
X199247908Y-188725908D02*
X200836741Y-173609175D01*
X200836741Y-173609175D02*
X185720008Y-172020342D01*
X184131175Y-187137075D02*
X199247908Y-188725908D01*
X185720008Y-172020342D02*
X184131175Y-187137075D01*
D13*
%TO.C,D13_r1*%
X312268742Y-140789580D02*
X312350274Y-140013853D01*
X312309508Y-140401716D02*
X312806769Y-140453981D01*
X312350274Y-140013853D02*
X311722740Y-140340045D01*
X311722740Y-140340045D02*
X312268742Y-140789580D01*
X311722740Y-140340045D02*
X311305041Y-140296143D01*
X311656350Y-140876041D02*
X311769240Y-139801957D01*
D12*
%TO.C,S3*%
X100826491Y-140414288D02*
X102310796Y-154536499D01*
X102310796Y-154536499D02*
X116433007Y-153052194D01*
X114948702Y-138929983D02*
X100826491Y-140414288D01*
X116433007Y-153052194D02*
X114948702Y-138929983D01*
D13*
%TO.C,D6_r1*%
X273195885Y-139602257D02*
X273195885Y-138822257D01*
X273195885Y-139212257D02*
X273695885Y-139212257D01*
X273195885Y-138822257D02*
X272605885Y-139212257D01*
X272605885Y-139212257D02*
X273195885Y-139602257D01*
X272605885Y-139212257D02*
X272185885Y-139212257D01*
X272595885Y-139752257D02*
X272595885Y-138672257D01*
D12*
%TO.C,SW1*%
X211945885Y-158702257D02*
X211345885Y-158702257D01*
X211645885Y-158402257D02*
X211945885Y-158702257D01*
X211345885Y-158702257D02*
X211645885Y-158402257D01*
X210845885Y-160902257D02*
X210845885Y-158402257D01*
X210845885Y-148302257D02*
X210845885Y-151102257D01*
X206045885Y-160902257D02*
X210845885Y-160902257D01*
X205945885Y-148302257D02*
X210845885Y-148302257D01*
X204645885Y-154602257D02*
X203645885Y-154602257D01*
X204145885Y-155102257D02*
X204145885Y-154102257D01*
X202345885Y-160902257D02*
X197445885Y-160902257D01*
X197445885Y-160902257D02*
X197445885Y-158302257D01*
X197445885Y-155902257D02*
X197445885Y-153302257D01*
X197445885Y-150902257D02*
X197445885Y-148302257D01*
X197445885Y-148302257D02*
X202345885Y-148302257D01*
X207145885Y-154602257D02*
G75*
G03*
X207145885Y-154602257I-3000000J0D01*
G01*
D13*
%TO.C,D19*%
X204395885Y-163574757D02*
X204395885Y-162794757D01*
X204395885Y-163184757D02*
X204895885Y-163184757D01*
X204395885Y-162794757D02*
X203805885Y-163184757D01*
X203805885Y-163184757D02*
X204395885Y-163574757D01*
X203805885Y-163184757D02*
X203385885Y-163184757D01*
X203795885Y-163724757D02*
X203795885Y-162644757D01*
D12*
%TO.C,S17_r1*%
X321715219Y-157342684D02*
X320230914Y-171464895D01*
X320230914Y-171464895D02*
X334353125Y-172949200D01*
X335837430Y-158826989D02*
X321715219Y-157342684D01*
X334353125Y-172949200D02*
X335837430Y-158826989D01*
D13*
%TO.C,D6*%
X126848468Y-140695794D02*
X126766936Y-139920067D01*
X126807702Y-140307930D02*
X127304963Y-140255666D01*
X126766936Y-139920067D02*
X126220934Y-140369602D01*
X126220934Y-140369602D02*
X126848468Y-140695794D01*
X126220934Y-140369602D02*
X125803235Y-140413504D01*
X126267434Y-140907689D02*
X126154543Y-139833605D01*
D12*
%TO.C,S17*%
X177045885Y-147502257D02*
X177045885Y-161702257D01*
X177045885Y-161702257D02*
X191245885Y-161702257D01*
X191245885Y-147502257D02*
X177045885Y-147502257D01*
X191245885Y-161702257D02*
X191245885Y-147502257D01*
%TO.C,S18_r1*%
X341849047Y-142767398D02*
X340364742Y-156889609D01*
X340364742Y-156889609D02*
X354486953Y-158373914D01*
X355971258Y-144251703D02*
X341849047Y-142767398D01*
X354486953Y-158373914D02*
X355971258Y-144251703D01*
D13*
%TO.C,D16_r1*%
X329674376Y-152171315D02*
X329755908Y-151395588D01*
X329715142Y-151783451D02*
X330212403Y-151835716D01*
X329755908Y-151395588D02*
X329128374Y-151721780D01*
X329128374Y-151721780D02*
X329674376Y-152171315D01*
X329128374Y-151721780D02*
X328710675Y-151677878D01*
X329061984Y-152257776D02*
X329174874Y-151183692D01*
D12*
%TO.C,S6_r1*%
X265845885Y-127102257D02*
X265845885Y-141302257D01*
X265845885Y-141302257D02*
X280045885Y-141302257D01*
X280045885Y-127102257D02*
X265845885Y-127102257D01*
X280045885Y-141302257D02*
X280045885Y-127102257D01*
%TO.C,S11_r1*%
X285354914Y-138639211D02*
X284611743Y-152819750D01*
X284611743Y-152819750D02*
X298792282Y-153562921D01*
X299535453Y-139382382D02*
X285354914Y-138639211D01*
X298792282Y-153562921D02*
X299535453Y-139382382D01*
%TO.C,S5_r1*%
X265845885Y-108602257D02*
X265845885Y-122802257D01*
X265845885Y-122802257D02*
X280045885Y-122802257D01*
X280045885Y-108602257D02*
X265845885Y-108602257D01*
X280045885Y-122802257D02*
X280045885Y-108602257D01*
%TO.C,S3_r1*%
X247345885Y-147502257D02*
X247345885Y-161702257D01*
X247345885Y-161702257D02*
X261545885Y-161702257D01*
X261545885Y-147502257D02*
X247345885Y-147502257D01*
X261545885Y-161702257D02*
X261545885Y-147502257D01*
%TO.C,S9*%
X138084944Y-120905214D02*
X138828115Y-135085753D01*
X138828115Y-135085753D02*
X153008654Y-134342582D01*
X152265483Y-120162043D02*
X138084944Y-120905214D01*
X153008654Y-134342582D02*
X152265483Y-120162043D01*
%TO.C,S15*%
X176995885Y-110502257D02*
X176995885Y-124702257D01*
X176995885Y-124702257D02*
X191195885Y-124702257D01*
X191195885Y-110502257D02*
X176995885Y-110502257D01*
X191195885Y-124702257D02*
X191195885Y-110502257D01*
D13*
%TO.C,mouse-bite-5mm-slot*%
X221760885Y-162557257D02*
G75*
G03*
X216760885Y-162557257I-2500000J0D01*
G01*
X216760885Y-152557257D02*
G75*
G03*
X221760885Y-152557257I2500000J0D01*
G01*
D12*
%TO.C,S15_r1*%
X325605021Y-120572851D02*
X324120716Y-134695062D01*
X324120716Y-134695062D02*
X338242927Y-136179367D01*
X339727232Y-122057156D02*
X325605021Y-120572851D01*
X338242927Y-136179367D02*
X339727232Y-122057156D01*
D13*
%TO.C,5feet_power1*%
X150860682Y-164589488D02*
X142368772Y-164960253D01*
X142368772Y-164960253D02*
X142176847Y-160564440D01*
X142176847Y-160564440D02*
X150668757Y-160193676D01*
X150668757Y-160193676D02*
X150860682Y-164589488D01*
%TO.C,D15_r1*%
X331608151Y-133772660D02*
X331689683Y-132996933D01*
X331648917Y-133384796D02*
X332146178Y-133437061D01*
X331689683Y-132996933D02*
X331062149Y-133323125D01*
X331062149Y-133323125D02*
X331608151Y-133772660D01*
X331062149Y-133323125D02*
X330644450Y-133279223D01*
X330995759Y-133859121D02*
X331108649Y-132785037D01*
D12*
%TO.C,S12_r1*%
X308199389Y-109191116D02*
X306715084Y-123313327D01*
X306715084Y-123313327D02*
X320837295Y-124797632D01*
X322321600Y-110675421D02*
X308199389Y-109191116D01*
X320837295Y-124797632D02*
X322321600Y-110675421D01*
%TO.C,S4_r1*%
X254206753Y-187129267D02*
X252617920Y-172012534D01*
X252617920Y-172012534D02*
X237501187Y-173601367D01*
X239090020Y-188718100D02*
X254206753Y-187129267D01*
X237501187Y-173601367D02*
X239090020Y-188718100D01*
D13*
%TO.C,D17*%
X184395885Y-160002257D02*
X184395885Y-159222257D01*
X184395885Y-159612257D02*
X184895885Y-159612257D01*
X184395885Y-159222257D02*
X183805885Y-159612257D01*
X183805885Y-159612257D02*
X184395885Y-160002257D01*
X183805885Y-159612257D02*
X183385885Y-159612257D01*
X183795885Y-160152257D02*
X183795885Y-159072257D01*
%TO.C,D18*%
X192977482Y-173285891D02*
X192895950Y-174061618D01*
X192936716Y-173673755D02*
X192439455Y-173621490D01*
X192895950Y-174061618D02*
X193523484Y-173735426D01*
X193523484Y-173735426D02*
X192977482Y-173285891D01*
X193523484Y-173735426D02*
X193941183Y-173779328D01*
X193589874Y-173199430D02*
X193476984Y-174273514D01*
%TO.C,D15*%
X184395885Y-123002257D02*
X184395885Y-122222257D01*
X184395885Y-122612257D02*
X184895885Y-122612257D01*
X184395885Y-122222257D02*
X183805885Y-122612257D01*
X183805885Y-122612257D02*
X184395885Y-123002257D01*
X183805885Y-122612257D02*
X183385885Y-122612257D01*
X183795885Y-123152257D02*
X183795885Y-122072257D01*
%TO.C,D2_r1*%
X254695885Y-141502257D02*
X254695885Y-140722257D01*
X254695885Y-141112257D02*
X255195885Y-141112257D01*
X254695885Y-140722257D02*
X254105885Y-141112257D01*
X254105885Y-141112257D02*
X254695885Y-141502257D01*
X254105885Y-141112257D02*
X253685885Y-141112257D01*
X254095885Y-141652257D02*
X254095885Y-140572257D01*
D12*
%TO.C,S2_r1*%
X247345885Y-129002257D02*
X247345885Y-143202257D01*
X247345885Y-143202257D02*
X261545885Y-143202257D01*
X261545885Y-129002257D02*
X247345885Y-129002257D01*
X261545885Y-143202257D02*
X261545885Y-129002257D01*
%TO.C,S2*%
X98892713Y-122015633D02*
X100377018Y-136137844D01*
X100377018Y-136137844D02*
X114499229Y-134653539D01*
X113014924Y-120531328D02*
X98892713Y-122015633D01*
X114499229Y-134653539D02*
X113014924Y-120531328D01*
D13*
%TO.C,D17_r1*%
X327740598Y-170569968D02*
X327822130Y-169794241D01*
X327781364Y-170182104D02*
X328278625Y-170234369D01*
X327822130Y-169794241D02*
X327194596Y-170120433D01*
X327194596Y-170120433D02*
X327740598Y-170569968D01*
X327194596Y-170120433D02*
X326776897Y-170076531D01*
X327128206Y-170656429D02*
X327241096Y-169582345D01*
%TO.C,D11*%
X165895885Y-121102257D02*
X165895885Y-120322257D01*
X165895885Y-120712257D02*
X166395885Y-120712257D01*
X165895885Y-120322257D02*
X165305885Y-120712257D01*
X165305885Y-120712257D02*
X165895885Y-121102257D01*
X165305885Y-120712257D02*
X164885885Y-120712257D01*
X165295885Y-121252257D02*
X165295885Y-120172257D01*
%TO.C,D5*%
X124914691Y-122297140D02*
X124833159Y-121521413D01*
X124873925Y-121909276D02*
X125371186Y-121857012D01*
X124833159Y-121521413D02*
X124287157Y-121970948D01*
X124287157Y-121970948D02*
X124914691Y-122297140D01*
X124287157Y-121970948D02*
X123869458Y-122014850D01*
X124333657Y-122509035D02*
X124220766Y-121434951D01*
D12*
%TO.C,S11*%
X158545885Y-108602257D02*
X158545885Y-122802257D01*
X158545885Y-122802257D02*
X172745885Y-122802257D01*
X172745885Y-108602257D02*
X158545885Y-108602257D01*
X172745885Y-122802257D02*
X172745885Y-108602257D01*
%TO.C,S14_r1*%
X304331834Y-145988427D02*
X302847529Y-160110638D01*
X302847529Y-160110638D02*
X316969740Y-161594943D01*
X318454045Y-147472732D02*
X304331834Y-145988427D01*
X316969740Y-161594943D02*
X318454045Y-147472732D01*
D13*
%TO.C,D14*%
X172799631Y-174334562D02*
X172921650Y-175104959D01*
X172860641Y-174719761D02*
X172366796Y-174797978D01*
X172921650Y-175104959D02*
X173443377Y-174627464D01*
X173443377Y-174627464D02*
X172799631Y-174334562D01*
X173443377Y-174627464D02*
X173858206Y-174561762D01*
X173368779Y-174092548D02*
X173537728Y-175159252D01*
%TO.C,D11_r1*%
X292040640Y-151506750D02*
X292081462Y-150727819D01*
X292061051Y-151117284D02*
X292560366Y-151143452D01*
X292081462Y-150727819D02*
X291471860Y-151086406D01*
X291471860Y-151086406D02*
X292040640Y-151506750D01*
X291471860Y-151086406D02*
X291052435Y-151064425D01*
X291433612Y-151625143D02*
X291490135Y-150546623D01*
D12*
%TO.C,S4*%
X102755038Y-158763218D02*
X104239343Y-172885429D01*
X104239343Y-172885429D02*
X118361554Y-171401124D01*
X116877249Y-157278913D02*
X102755038Y-158763218D01*
X118361554Y-171401124D02*
X116877249Y-157278913D01*
%TD*%
D14*
%TO.C,OL2*%
X229714504Y-141943686D03*
X232254504Y-141943686D03*
X234794504Y-141943686D03*
X237334504Y-141943686D03*
%TD*%
%TO.C,OL1*%
X201204504Y-141943686D03*
X203744504Y-141943686D03*
X206284504Y-141943686D03*
X208824504Y-141943686D03*
%TD*%
M02*
