%TF.GenerationSoftware,KiCad,Pcbnew,7.0.9*%
%TF.CreationDate,2024-02-19T09:25:44+08:00*%
%TF.ProjectId,ascend,61736365-6e64-42e6-9b69-6361645f7063,v1.2*%
%TF.SameCoordinates,Original*%
%TF.FileFunction,Legend,Bot*%
%TF.FilePolarity,Positive*%
%FSLAX46Y46*%
G04 Gerber Fmt 4.6, Leading zero omitted, Abs format (unit mm)*
G04 Created by KiCad (PCBNEW 7.0.9) date 2024-02-19 09:25:44*
%MOMM*%
%LPD*%
G01*
G04 APERTURE LIST*
%ADD10C,0.150000*%
%ADD11C,0.120000*%
%ADD12C,0.100000*%
%ADD13C,0.250000*%
G04 APERTURE END LIST*
D10*
X213411442Y-168918836D02*
X213411442Y-166918836D01*
X212268585Y-168918836D02*
X213125728Y-167775978D01*
X212268585Y-166918836D02*
X213411442Y-168061693D01*
X210554299Y-168918836D02*
X210554299Y-167871217D01*
X210554299Y-167871217D02*
X210649537Y-167680740D01*
X210649537Y-167680740D02*
X210840013Y-167585502D01*
X210840013Y-167585502D02*
X211220966Y-167585502D01*
X211220966Y-167585502D02*
X211411442Y-167680740D01*
X210554299Y-168823598D02*
X210744775Y-168918836D01*
X210744775Y-168918836D02*
X211220966Y-168918836D01*
X211220966Y-168918836D02*
X211411442Y-168823598D01*
X211411442Y-168823598D02*
X211506680Y-168633121D01*
X211506680Y-168633121D02*
X211506680Y-168442645D01*
X211506680Y-168442645D02*
X211411442Y-168252169D01*
X211411442Y-168252169D02*
X211220966Y-168156931D01*
X211220966Y-168156931D02*
X210744775Y-168156931D01*
X210744775Y-168156931D02*
X210554299Y-168061693D01*
X209601918Y-168918836D02*
X209601918Y-167585502D01*
X209601918Y-166918836D02*
X209697156Y-167014074D01*
X209697156Y-167014074D02*
X209601918Y-167109312D01*
X209601918Y-167109312D02*
X209506680Y-167014074D01*
X209506680Y-167014074D02*
X209601918Y-166918836D01*
X209601918Y-166918836D02*
X209601918Y-167109312D01*
X207220965Y-168347407D02*
X206268584Y-168347407D01*
X207411441Y-168918836D02*
X206744775Y-166918836D01*
X206744775Y-166918836D02*
X206078108Y-168918836D01*
X205506679Y-168823598D02*
X205316203Y-168918836D01*
X205316203Y-168918836D02*
X204935251Y-168918836D01*
X204935251Y-168918836D02*
X204744774Y-168823598D01*
X204744774Y-168823598D02*
X204649536Y-168633121D01*
X204649536Y-168633121D02*
X204649536Y-168537883D01*
X204649536Y-168537883D02*
X204744774Y-168347407D01*
X204744774Y-168347407D02*
X204935251Y-168252169D01*
X204935251Y-168252169D02*
X205220965Y-168252169D01*
X205220965Y-168252169D02*
X205411441Y-168156931D01*
X205411441Y-168156931D02*
X205506679Y-167966455D01*
X205506679Y-167966455D02*
X205506679Y-167871217D01*
X205506679Y-167871217D02*
X205411441Y-167680740D01*
X205411441Y-167680740D02*
X205220965Y-167585502D01*
X205220965Y-167585502D02*
X204935251Y-167585502D01*
X204935251Y-167585502D02*
X204744774Y-167680740D01*
X202935250Y-168823598D02*
X203125726Y-168918836D01*
X203125726Y-168918836D02*
X203506679Y-168918836D01*
X203506679Y-168918836D02*
X203697155Y-168823598D01*
X203697155Y-168823598D02*
X203792393Y-168728359D01*
X203792393Y-168728359D02*
X203887631Y-168537883D01*
X203887631Y-168537883D02*
X203887631Y-167966455D01*
X203887631Y-167966455D02*
X203792393Y-167775978D01*
X203792393Y-167775978D02*
X203697155Y-167680740D01*
X203697155Y-167680740D02*
X203506679Y-167585502D01*
X203506679Y-167585502D02*
X203125726Y-167585502D01*
X203125726Y-167585502D02*
X202935250Y-167680740D01*
X201316202Y-168823598D02*
X201506678Y-168918836D01*
X201506678Y-168918836D02*
X201887631Y-168918836D01*
X201887631Y-168918836D02*
X202078107Y-168823598D01*
X202078107Y-168823598D02*
X202173345Y-168633121D01*
X202173345Y-168633121D02*
X202173345Y-167871217D01*
X202173345Y-167871217D02*
X202078107Y-167680740D01*
X202078107Y-167680740D02*
X201887631Y-167585502D01*
X201887631Y-167585502D02*
X201506678Y-167585502D01*
X201506678Y-167585502D02*
X201316202Y-167680740D01*
X201316202Y-167680740D02*
X201220964Y-167871217D01*
X201220964Y-167871217D02*
X201220964Y-168061693D01*
X201220964Y-168061693D02*
X202173345Y-168252169D01*
X200363821Y-167585502D02*
X200363821Y-168918836D01*
X200363821Y-167775978D02*
X200268583Y-167680740D01*
X200268583Y-167680740D02*
X200078107Y-167585502D01*
X200078107Y-167585502D02*
X199792392Y-167585502D01*
X199792392Y-167585502D02*
X199601916Y-167680740D01*
X199601916Y-167680740D02*
X199506678Y-167871217D01*
X199506678Y-167871217D02*
X199506678Y-168918836D01*
X197697154Y-168918836D02*
X197697154Y-166918836D01*
X197697154Y-168823598D02*
X197887630Y-168918836D01*
X197887630Y-168918836D02*
X198268583Y-168918836D01*
X198268583Y-168918836D02*
X198459059Y-168823598D01*
X198459059Y-168823598D02*
X198554297Y-168728359D01*
X198554297Y-168728359D02*
X198649535Y-168537883D01*
X198649535Y-168537883D02*
X198649535Y-167966455D01*
X198649535Y-167966455D02*
X198554297Y-167775978D01*
X198554297Y-167775978D02*
X198459059Y-167680740D01*
X198459059Y-167680740D02*
X198268583Y-167585502D01*
X198268583Y-167585502D02*
X197887630Y-167585502D01*
X197887630Y-167585502D02*
X197697154Y-167680740D01*
X210649537Y-170805502D02*
X210173347Y-172138836D01*
X210173347Y-172138836D02*
X209697156Y-170805502D01*
X207887632Y-172138836D02*
X209030489Y-172138836D01*
X208459061Y-172138836D02*
X208459061Y-170138836D01*
X208459061Y-170138836D02*
X208649537Y-170424550D01*
X208649537Y-170424550D02*
X208840013Y-170615026D01*
X208840013Y-170615026D02*
X209030489Y-170710264D01*
X207030489Y-171948359D02*
X206935251Y-172043598D01*
X206935251Y-172043598D02*
X207030489Y-172138836D01*
X207030489Y-172138836D02*
X207125727Y-172043598D01*
X207125727Y-172043598D02*
X207030489Y-171948359D01*
X207030489Y-171948359D02*
X207030489Y-172138836D01*
X206173346Y-170329312D02*
X206078108Y-170234074D01*
X206078108Y-170234074D02*
X205887632Y-170138836D01*
X205887632Y-170138836D02*
X205411441Y-170138836D01*
X205411441Y-170138836D02*
X205220965Y-170234074D01*
X205220965Y-170234074D02*
X205125727Y-170329312D01*
X205125727Y-170329312D02*
X205030489Y-170519788D01*
X205030489Y-170519788D02*
X205030489Y-170710264D01*
X205030489Y-170710264D02*
X205125727Y-170995978D01*
X205125727Y-170995978D02*
X206268584Y-172138836D01*
X206268584Y-172138836D02*
X205030489Y-172138836D01*
X204649537Y-172329312D02*
X203125727Y-172329312D01*
X202840012Y-170424550D02*
X200459060Y-170424550D01*
X202173346Y-171091217D02*
X200649536Y-171091217D01*
X202459060Y-172138836D02*
X200459060Y-172138836D01*
X201411441Y-171091217D02*
X201411441Y-172138836D01*
X201982869Y-169948359D02*
X202173346Y-170995978D01*
X202173346Y-170995978D02*
X202554298Y-171662645D01*
X202554298Y-171662645D02*
X202935250Y-172043598D01*
X241750528Y-168829695D02*
X241750528Y-166829695D01*
X240607671Y-168829695D02*
X241464814Y-167686837D01*
X240607671Y-166829695D02*
X241750528Y-167972552D01*
X238893385Y-168829695D02*
X238893385Y-167782076D01*
X238893385Y-167782076D02*
X238988623Y-167591599D01*
X238988623Y-167591599D02*
X239179099Y-167496361D01*
X239179099Y-167496361D02*
X239560052Y-167496361D01*
X239560052Y-167496361D02*
X239750528Y-167591599D01*
X238893385Y-168734457D02*
X239083861Y-168829695D01*
X239083861Y-168829695D02*
X239560052Y-168829695D01*
X239560052Y-168829695D02*
X239750528Y-168734457D01*
X239750528Y-168734457D02*
X239845766Y-168543980D01*
X239845766Y-168543980D02*
X239845766Y-168353504D01*
X239845766Y-168353504D02*
X239750528Y-168163028D01*
X239750528Y-168163028D02*
X239560052Y-168067790D01*
X239560052Y-168067790D02*
X239083861Y-168067790D01*
X239083861Y-168067790D02*
X238893385Y-167972552D01*
X237941004Y-168829695D02*
X237941004Y-167496361D01*
X237941004Y-166829695D02*
X238036242Y-166924933D01*
X238036242Y-166924933D02*
X237941004Y-167020171D01*
X237941004Y-167020171D02*
X237845766Y-166924933D01*
X237845766Y-166924933D02*
X237941004Y-166829695D01*
X237941004Y-166829695D02*
X237941004Y-167020171D01*
X235560051Y-168258266D02*
X234607670Y-168258266D01*
X235750527Y-168829695D02*
X235083861Y-166829695D01*
X235083861Y-166829695D02*
X234417194Y-168829695D01*
X233845765Y-168734457D02*
X233655289Y-168829695D01*
X233655289Y-168829695D02*
X233274337Y-168829695D01*
X233274337Y-168829695D02*
X233083860Y-168734457D01*
X233083860Y-168734457D02*
X232988622Y-168543980D01*
X232988622Y-168543980D02*
X232988622Y-168448742D01*
X232988622Y-168448742D02*
X233083860Y-168258266D01*
X233083860Y-168258266D02*
X233274337Y-168163028D01*
X233274337Y-168163028D02*
X233560051Y-168163028D01*
X233560051Y-168163028D02*
X233750527Y-168067790D01*
X233750527Y-168067790D02*
X233845765Y-167877314D01*
X233845765Y-167877314D02*
X233845765Y-167782076D01*
X233845765Y-167782076D02*
X233750527Y-167591599D01*
X233750527Y-167591599D02*
X233560051Y-167496361D01*
X233560051Y-167496361D02*
X233274337Y-167496361D01*
X233274337Y-167496361D02*
X233083860Y-167591599D01*
X231274336Y-168734457D02*
X231464812Y-168829695D01*
X231464812Y-168829695D02*
X231845765Y-168829695D01*
X231845765Y-168829695D02*
X232036241Y-168734457D01*
X232036241Y-168734457D02*
X232131479Y-168639218D01*
X232131479Y-168639218D02*
X232226717Y-168448742D01*
X232226717Y-168448742D02*
X232226717Y-167877314D01*
X232226717Y-167877314D02*
X232131479Y-167686837D01*
X232131479Y-167686837D02*
X232036241Y-167591599D01*
X232036241Y-167591599D02*
X231845765Y-167496361D01*
X231845765Y-167496361D02*
X231464812Y-167496361D01*
X231464812Y-167496361D02*
X231274336Y-167591599D01*
X229655288Y-168734457D02*
X229845764Y-168829695D01*
X229845764Y-168829695D02*
X230226717Y-168829695D01*
X230226717Y-168829695D02*
X230417193Y-168734457D01*
X230417193Y-168734457D02*
X230512431Y-168543980D01*
X230512431Y-168543980D02*
X230512431Y-167782076D01*
X230512431Y-167782076D02*
X230417193Y-167591599D01*
X230417193Y-167591599D02*
X230226717Y-167496361D01*
X230226717Y-167496361D02*
X229845764Y-167496361D01*
X229845764Y-167496361D02*
X229655288Y-167591599D01*
X229655288Y-167591599D02*
X229560050Y-167782076D01*
X229560050Y-167782076D02*
X229560050Y-167972552D01*
X229560050Y-167972552D02*
X230512431Y-168163028D01*
X228702907Y-167496361D02*
X228702907Y-168829695D01*
X228702907Y-167686837D02*
X228607669Y-167591599D01*
X228607669Y-167591599D02*
X228417193Y-167496361D01*
X228417193Y-167496361D02*
X228131478Y-167496361D01*
X228131478Y-167496361D02*
X227941002Y-167591599D01*
X227941002Y-167591599D02*
X227845764Y-167782076D01*
X227845764Y-167782076D02*
X227845764Y-168829695D01*
X226036240Y-168829695D02*
X226036240Y-166829695D01*
X226036240Y-168734457D02*
X226226716Y-168829695D01*
X226226716Y-168829695D02*
X226607669Y-168829695D01*
X226607669Y-168829695D02*
X226798145Y-168734457D01*
X226798145Y-168734457D02*
X226893383Y-168639218D01*
X226893383Y-168639218D02*
X226988621Y-168448742D01*
X226988621Y-168448742D02*
X226988621Y-167877314D01*
X226988621Y-167877314D02*
X226893383Y-167686837D01*
X226893383Y-167686837D02*
X226798145Y-167591599D01*
X226798145Y-167591599D02*
X226607669Y-167496361D01*
X226607669Y-167496361D02*
X226226716Y-167496361D01*
X226226716Y-167496361D02*
X226036240Y-167591599D01*
X238988623Y-170716361D02*
X238512433Y-172049695D01*
X238512433Y-172049695D02*
X238036242Y-170716361D01*
X236226718Y-172049695D02*
X237369575Y-172049695D01*
X236798147Y-172049695D02*
X236798147Y-170049695D01*
X236798147Y-170049695D02*
X236988623Y-170335409D01*
X236988623Y-170335409D02*
X237179099Y-170525885D01*
X237179099Y-170525885D02*
X237369575Y-170621123D01*
X235369575Y-171859218D02*
X235274337Y-171954457D01*
X235274337Y-171954457D02*
X235369575Y-172049695D01*
X235369575Y-172049695D02*
X235464813Y-171954457D01*
X235464813Y-171954457D02*
X235369575Y-171859218D01*
X235369575Y-171859218D02*
X235369575Y-172049695D01*
X234512432Y-170240171D02*
X234417194Y-170144933D01*
X234417194Y-170144933D02*
X234226718Y-170049695D01*
X234226718Y-170049695D02*
X233750527Y-170049695D01*
X233750527Y-170049695D02*
X233560051Y-170144933D01*
X233560051Y-170144933D02*
X233464813Y-170240171D01*
X233464813Y-170240171D02*
X233369575Y-170430647D01*
X233369575Y-170430647D02*
X233369575Y-170621123D01*
X233369575Y-170621123D02*
X233464813Y-170906837D01*
X233464813Y-170906837D02*
X234607670Y-172049695D01*
X234607670Y-172049695D02*
X233369575Y-172049695D01*
X232988623Y-172240171D02*
X231464813Y-172240171D01*
X231179098Y-170335409D02*
X228798146Y-170335409D01*
X230607670Y-171954457D02*
X228988622Y-171954457D01*
X230607670Y-170906837D02*
X230607670Y-172049695D01*
X230702908Y-171002076D02*
X228988622Y-171002076D01*
X228988622Y-171002076D02*
X228988622Y-172049695D01*
X230607670Y-170811599D02*
X231274336Y-171478266D01*
X230131479Y-169954457D02*
X230702908Y-171002076D01*
D11*
%TO.C,D5_r1*%
X275270885Y-121822257D02*
X270685885Y-121822257D01*
D12*
X275270885Y-120702257D02*
X275795885Y-120702257D01*
D11*
X275270885Y-119582257D02*
X275270885Y-121822257D01*
D10*
X273195885Y-121102257D02*
X273195885Y-120302257D01*
X273195885Y-121102257D02*
X273195885Y-120302257D01*
X273195885Y-120702257D02*
X273695885Y-120702257D01*
X273195885Y-120702257D02*
X273695885Y-120702257D01*
X273195885Y-120302257D02*
X272595885Y-120702257D01*
X273195885Y-120302257D02*
X272595885Y-120702257D01*
X272595885Y-120702257D02*
X273195885Y-121102257D01*
X272595885Y-120702257D02*
X273195885Y-121102257D01*
X272595885Y-120702257D02*
X272595885Y-121252257D01*
X272595885Y-120702257D02*
X272595885Y-121252257D01*
X272595885Y-120702257D02*
X272595885Y-120152257D01*
X272595885Y-120702257D02*
X272595885Y-120152257D01*
X272195885Y-120702257D02*
X272595885Y-120702257D01*
X272195885Y-120702257D02*
X272595885Y-120702257D01*
D11*
X271405885Y-121822257D02*
X271405885Y-119582257D01*
D13*
X271405885Y-121752257D02*
X271405885Y-119652257D01*
D11*
X270685885Y-121822257D02*
X270685885Y-119582257D01*
X270685885Y-119582257D02*
X275270885Y-119582257D01*
D12*
X269795885Y-120702257D02*
X270685885Y-120702257D01*
D11*
%TO.C,D12*%
X167970885Y-140322257D02*
X163385885Y-140322257D01*
D12*
X167970885Y-139202257D02*
X168495885Y-139202257D01*
D11*
X167970885Y-138082257D02*
X167970885Y-140322257D01*
D10*
X165895885Y-139602257D02*
X165895885Y-138802257D01*
X165895885Y-139602257D02*
X165895885Y-138802257D01*
X165895885Y-139202257D02*
X166395885Y-139202257D01*
X165895885Y-139202257D02*
X166395885Y-139202257D01*
X165895885Y-138802257D02*
X165295885Y-139202257D01*
X165895885Y-138802257D02*
X165295885Y-139202257D01*
X165295885Y-139202257D02*
X165895885Y-139602257D01*
X165295885Y-139202257D02*
X165895885Y-139602257D01*
X165295885Y-139202257D02*
X165295885Y-139752257D01*
X165295885Y-139202257D02*
X165295885Y-139752257D01*
X165295885Y-139202257D02*
X165295885Y-138652257D01*
X165295885Y-139202257D02*
X165295885Y-138652257D01*
X164895885Y-139202257D02*
X165295885Y-139202257D01*
X164895885Y-139202257D02*
X165295885Y-139202257D01*
D11*
X164105885Y-140322257D02*
X164105885Y-138082257D01*
D13*
X164105885Y-140252257D02*
X164105885Y-138152257D01*
D11*
X163385885Y-140322257D02*
X163385885Y-138082257D01*
X163385885Y-138082257D02*
X167970885Y-138082257D01*
D12*
X162495885Y-139202257D02*
X163385885Y-139202257D01*
D11*
%TO.C,S16_r1*%
X326633907Y-139483996D02*
X331705968Y-140017091D01*
X330073522Y-144068649D02*
X335145584Y-144601744D01*
X326633907Y-139483996D02*
G75*
G03*
X324435806Y-141263983I-209058J-1989043D01*
G01*
X330073522Y-144068649D02*
G75*
G03*
X327875422Y-145848636I-209057J-1989043D01*
G01*
%TO.C,S10*%
X142059514Y-139422580D02*
X147152524Y-139155666D01*
X146173980Y-143412713D02*
X151266991Y-143145800D01*
X142059514Y-139422581D02*
G75*
G03*
X140166928Y-141524511I104671J-1997257D01*
G01*
X146173980Y-143412715D02*
G75*
G03*
X144281394Y-145514644I104671J-1997257D01*
G01*
%TO.C,D13*%
X167970885Y-158822257D02*
X163385885Y-158822257D01*
D12*
X167970885Y-157702257D02*
X168495885Y-157702257D01*
D11*
X167970885Y-156582257D02*
X167970885Y-158822257D01*
D10*
X165895885Y-158102257D02*
X165895885Y-157302257D01*
X165895885Y-158102257D02*
X165895885Y-157302257D01*
X165895885Y-157702257D02*
X166395885Y-157702257D01*
X165895885Y-157702257D02*
X166395885Y-157702257D01*
X165895885Y-157302257D02*
X165295885Y-157702257D01*
X165895885Y-157302257D02*
X165295885Y-157702257D01*
X165295885Y-157702257D02*
X165895885Y-158102257D01*
X165295885Y-157702257D02*
X165895885Y-158102257D01*
X165295885Y-157702257D02*
X165295885Y-158252257D01*
X165295885Y-157702257D02*
X165295885Y-158252257D01*
X165295885Y-157702257D02*
X165295885Y-157152257D01*
X165295885Y-157702257D02*
X165295885Y-157152257D01*
X164895885Y-157702257D02*
X165295885Y-157702257D01*
X164895885Y-157702257D02*
X165295885Y-157702257D01*
D11*
X164105885Y-158822257D02*
X164105885Y-156582257D01*
D13*
X164105885Y-158752257D02*
X164105885Y-156652257D01*
D11*
X163385885Y-158822257D02*
X163385885Y-156582257D01*
X163385885Y-156582257D02*
X167970885Y-156582257D01*
D12*
X162495885Y-157702257D02*
X163385885Y-157702257D01*
D11*
%TO.C,S10_r1*%
X289308550Y-120521300D02*
X294401561Y-120788213D01*
X292983394Y-124919654D02*
X298076405Y-125186567D01*
X289308550Y-120521301D02*
G75*
G03*
X287206620Y-122413887I-104673J-1997257D01*
G01*
X292983394Y-124919655D02*
G75*
G03*
X290881464Y-126812241I-104673J-1997257D01*
G01*
%TO.C,D18_r1*%
X349862799Y-156927636D02*
X345302916Y-156448373D01*
D12*
X349979870Y-155813772D02*
X350501994Y-155868649D01*
D11*
X350096942Y-154699907D02*
X349862799Y-156927636D01*
D10*
X347874426Y-155994684D02*
X347958049Y-155199066D01*
X347874426Y-155994684D02*
X347958049Y-155199066D01*
X347916237Y-155596875D02*
X348413498Y-155649139D01*
X347916237Y-155596875D02*
X348413498Y-155649139D01*
X347958049Y-155199066D02*
X347319524Y-155534158D01*
X347958049Y-155199066D02*
X347319524Y-155534158D01*
X347319524Y-155534158D02*
X347874426Y-155994684D01*
X347319524Y-155534158D02*
X347874426Y-155994684D01*
X347319524Y-155534158D02*
X347262034Y-156081145D01*
X347319524Y-155534158D02*
X347262034Y-156081145D01*
X347319524Y-155534158D02*
X347377015Y-154987171D01*
X347319524Y-155534158D02*
X347377015Y-154987171D01*
X346921716Y-155492347D02*
X347319524Y-155534158D01*
X346921716Y-155492347D02*
X347319524Y-155534158D01*
D11*
X346018971Y-156523634D02*
X346253115Y-154295905D01*
D13*
X346026288Y-156454017D02*
X346245798Y-154365521D01*
D11*
X345302916Y-156448373D02*
X345537059Y-154220644D01*
X345537059Y-154220644D02*
X350096942Y-154699907D01*
D12*
X344534863Y-155241478D02*
X345419988Y-155334509D01*
D11*
%TO.C,D10_r1*%
X295043331Y-133859714D02*
X290464615Y-133619754D01*
D12*
X295101948Y-132741249D02*
X295626228Y-132768725D01*
D11*
X295160564Y-131622784D02*
X295043331Y-133859714D01*
D10*
X293008857Y-133032104D02*
X293050726Y-132233200D01*
X293008857Y-133032104D02*
X293050726Y-132233200D01*
X293029791Y-132632652D02*
X293529106Y-132658820D01*
X293029791Y-132632652D02*
X293529106Y-132658820D01*
X293050726Y-132233200D02*
X292430614Y-132601250D01*
X293050726Y-132233200D02*
X292430614Y-132601250D01*
X292430614Y-132601250D02*
X293008857Y-133032104D01*
X292430614Y-132601250D02*
X293008857Y-133032104D01*
X292430614Y-132601250D02*
X292401829Y-133150497D01*
X292430614Y-132601250D02*
X292401829Y-133150497D01*
X292430614Y-132601250D02*
X292459398Y-132052004D01*
X292430614Y-132601250D02*
X292459398Y-132052004D01*
X292031162Y-132580316D02*
X292430614Y-132601250D01*
X292031162Y-132580316D02*
X292430614Y-132601250D01*
D11*
X291183628Y-133657436D02*
X291300861Y-131420506D01*
D13*
X291187292Y-133587532D02*
X291297197Y-131490410D01*
D11*
X290464615Y-133619754D02*
X290581848Y-131382824D01*
X290581848Y-131382824D02*
X295160564Y-131622784D01*
D12*
X289634451Y-132454710D02*
X290523231Y-132501289D01*
D11*
%TO.C,D12_r1*%
X316190889Y-123323877D02*
X311631006Y-122844614D01*
D12*
X316307960Y-122210013D02*
X316830084Y-122264890D01*
D11*
X316425032Y-121096148D02*
X316190889Y-123323877D01*
D10*
X314202516Y-122390925D02*
X314286139Y-121595307D01*
X314202516Y-122390925D02*
X314286139Y-121595307D01*
X314244327Y-121993116D02*
X314741588Y-122045380D01*
X314244327Y-121993116D02*
X314741588Y-122045380D01*
X314286139Y-121595307D02*
X313647614Y-121930399D01*
X314286139Y-121595307D02*
X313647614Y-121930399D01*
X313647614Y-121930399D02*
X314202516Y-122390925D01*
X313647614Y-121930399D02*
X314202516Y-122390925D01*
X313647614Y-121930399D02*
X313590124Y-122477386D01*
X313647614Y-121930399D02*
X313590124Y-122477386D01*
X313647614Y-121930399D02*
X313705105Y-121383412D01*
X313647614Y-121930399D02*
X313705105Y-121383412D01*
X313249806Y-121888588D02*
X313647614Y-121930399D01*
X313249806Y-121888588D02*
X313647614Y-121930399D01*
D11*
X312347061Y-122919875D02*
X312581205Y-120692146D01*
D13*
X312354378Y-122850258D02*
X312573888Y-120761762D01*
D11*
X311631006Y-122844614D02*
X311865149Y-120616885D01*
X311865149Y-120616885D02*
X316425032Y-121096148D01*
D12*
X310862953Y-121637719D02*
X311748078Y-121730750D01*
D11*
%TO.C,S8_r1*%
X265407300Y-189015197D02*
X264335257Y-189794081D01*
X264335257Y-189794081D02*
X261622077Y-189364356D01*
X265084891Y-185061079D02*
X265933601Y-186229228D01*
X262470480Y-184646997D02*
X265084891Y-185061079D01*
X261622077Y-189364356D02*
X261236553Y-189222298D01*
X261236553Y-189222298D02*
X260934588Y-188942617D01*
X261931825Y-184455373D02*
X262470480Y-184646997D01*
X260934588Y-188942617D02*
X260491529Y-188332799D01*
X261505496Y-184085123D02*
X261931825Y-184455373D01*
X260491529Y-188332799D02*
X260526258Y-188113532D01*
X260526258Y-188113532D02*
X260508847Y-187667315D01*
X261242522Y-183584825D02*
X261505496Y-184085123D01*
X260508847Y-187667315D02*
X260325263Y-187266663D01*
X261177708Y-183009604D02*
X261242522Y-183584825D01*
X261143335Y-182702445D02*
X261177708Y-183009604D01*
X260325263Y-187266663D02*
X260000951Y-186968256D01*
X260993072Y-182417430D02*
X261143335Y-182702445D01*
X260000951Y-186968256D02*
X259581953Y-186813809D01*
X260749039Y-182206660D02*
X260993072Y-182417430D01*
X260452085Y-182099891D02*
X260749039Y-182206660D01*
X259581953Y-186813809D02*
X256816426Y-186375792D01*
X256816426Y-186375792D02*
X256503620Y-186260439D01*
X256503620Y-186260439D02*
X256253670Y-186029494D01*
X256253670Y-186029494D02*
X256111268Y-185720413D01*
X256111268Y-185720413D02*
X256094112Y-185285373D01*
X256627560Y-182447888D02*
X256269029Y-182391103D01*
X256269029Y-182391103D02*
X256416391Y-181460700D01*
X256416391Y-181460700D02*
X260452085Y-182099891D01*
%TO.C,D9_r1*%
X296011545Y-115385068D02*
X291432829Y-115145108D01*
D12*
X296070162Y-114266603D02*
X296594442Y-114294079D01*
D11*
X296128778Y-113148138D02*
X296011545Y-115385068D01*
D10*
X293977071Y-114557458D02*
X294018940Y-113758554D01*
X293977071Y-114557458D02*
X294018940Y-113758554D01*
X293998005Y-114158006D02*
X294497320Y-114184174D01*
X293998005Y-114158006D02*
X294497320Y-114184174D01*
X294018940Y-113758554D02*
X293398828Y-114126604D01*
X294018940Y-113758554D02*
X293398828Y-114126604D01*
X293398828Y-114126604D02*
X293977071Y-114557458D01*
X293398828Y-114126604D02*
X293977071Y-114557458D01*
X293398828Y-114126604D02*
X293370043Y-114675851D01*
X293398828Y-114126604D02*
X293370043Y-114675851D01*
X293398828Y-114126604D02*
X293427612Y-113577358D01*
X293398828Y-114126604D02*
X293427612Y-113577358D01*
X292999376Y-114105670D02*
X293398828Y-114126604D01*
X292999376Y-114105670D02*
X293398828Y-114126604D01*
D11*
X292151842Y-115182790D02*
X292269075Y-112945860D01*
D13*
X292155506Y-115112886D02*
X292265411Y-113015764D01*
D11*
X291432829Y-115145108D02*
X291550062Y-112908178D01*
X291550062Y-112908178D02*
X296128778Y-113148138D01*
D12*
X290602665Y-113980064D02*
X291491445Y-114026643D01*
D11*
%TO.C,D3*%
X111581725Y-152576687D02*
X107021842Y-153055950D01*
D12*
X111464653Y-151462822D02*
X111986777Y-151407945D01*
D11*
X111347582Y-150348958D02*
X111581725Y-152576687D01*
D10*
X109442832Y-152077528D02*
X109359209Y-151281910D01*
X109442832Y-152077528D02*
X109359209Y-151281910D01*
X109401020Y-151679719D02*
X109898281Y-151627455D01*
X109401020Y-151679719D02*
X109898281Y-151627455D01*
X109359209Y-151281910D02*
X108804307Y-151742436D01*
X109359209Y-151281910D02*
X108804307Y-151742436D01*
X108804307Y-151742436D02*
X109442832Y-152077528D01*
X108804307Y-151742436D02*
X109442832Y-152077528D01*
X108804307Y-151742436D02*
X108861798Y-152289423D01*
X108804307Y-151742436D02*
X108861798Y-152289423D01*
X108804307Y-151742436D02*
X108746817Y-151195449D01*
X108804307Y-151742436D02*
X108746817Y-151195449D01*
X108406499Y-151784247D02*
X108804307Y-151742436D01*
X108406499Y-151784247D02*
X108804307Y-151742436D01*
D11*
X107737898Y-152980689D02*
X107503754Y-150752960D01*
D13*
X107730581Y-152911073D02*
X107511071Y-150822577D01*
D11*
X107021842Y-153055950D02*
X106787699Y-150828221D01*
X106787699Y-150828221D02*
X111347582Y-150348958D01*
D12*
X106019646Y-152035116D02*
X106904771Y-151942085D01*
D11*
%TO.C,D1_r1*%
X256770885Y-123722257D02*
X252185885Y-123722257D01*
D12*
X256770885Y-122602257D02*
X257295885Y-122602257D01*
D11*
X256770885Y-121482257D02*
X256770885Y-123722257D01*
D10*
X254695885Y-123002257D02*
X254695885Y-122202257D01*
X254695885Y-123002257D02*
X254695885Y-122202257D01*
X254695885Y-122602257D02*
X255195885Y-122602257D01*
X254695885Y-122602257D02*
X255195885Y-122602257D01*
X254695885Y-122202257D02*
X254095885Y-122602257D01*
X254695885Y-122202257D02*
X254095885Y-122602257D01*
X254095885Y-122602257D02*
X254695885Y-123002257D01*
X254095885Y-122602257D02*
X254695885Y-123002257D01*
X254095885Y-122602257D02*
X254095885Y-123152257D01*
X254095885Y-122602257D02*
X254095885Y-123152257D01*
X254095885Y-122602257D02*
X254095885Y-122052257D01*
X254095885Y-122602257D02*
X254095885Y-122052257D01*
X253695885Y-122602257D02*
X254095885Y-122602257D01*
X253695885Y-122602257D02*
X254095885Y-122602257D01*
D11*
X252905885Y-123722257D02*
X252905885Y-121482257D01*
D13*
X252905885Y-123652257D02*
X252905885Y-121552257D01*
D11*
X252185885Y-123722257D02*
X252185885Y-121482257D01*
X252185885Y-121482257D02*
X256770885Y-121482257D01*
D12*
X251295885Y-122602257D02*
X252185885Y-122602257D01*
D11*
%TO.C,S5*%
X119302820Y-110519219D02*
X124374881Y-109986123D01*
X123620475Y-114288550D02*
X128692536Y-113755454D01*
X119302820Y-110519219D02*
G75*
G03*
X117522833Y-112717319I209056J-1989043D01*
G01*
X123620475Y-114288549D02*
G75*
G03*
X121840488Y-116486650I209056J-1989043D01*
G01*
%TO.C,S7_r1*%
X268845885Y-145802257D02*
X273945885Y-145802257D01*
X272745885Y-150002257D02*
X277845885Y-150002257D01*
X268845885Y-145802257D02*
G75*
G03*
X266845885Y-147802257I-1J-1999999D01*
G01*
X272745885Y-150002257D02*
G75*
G03*
X270745885Y-152002257I-1J-1999999D01*
G01*
%TO.C,S13_r1*%
X309228270Y-128102262D02*
X314300331Y-128635357D01*
X312667885Y-132686915D02*
X317739947Y-133220010D01*
X309228270Y-128102262D02*
G75*
G03*
X307030169Y-129882249I-209058J-1989043D01*
G01*
X312667885Y-132686915D02*
G75*
G03*
X310469785Y-134466902I-209057J-1989043D01*
G01*
%TO.C,D8*%
X147220693Y-115139182D02*
X142641977Y-115379142D01*
D12*
X147162077Y-114020717D02*
X147686357Y-113993241D01*
D11*
X147103460Y-112902252D02*
X147220693Y-115139182D01*
D10*
X145110855Y-114528766D02*
X145068986Y-113729862D01*
X145110855Y-114528766D02*
X145068986Y-113729862D01*
X145089920Y-114129314D02*
X145589235Y-114103146D01*
X145089920Y-114129314D02*
X145589235Y-114103146D01*
X145068986Y-113729862D02*
X144490743Y-114160716D01*
X145068986Y-113729862D02*
X144490743Y-114160716D01*
X144490743Y-114160716D02*
X145110855Y-114528766D01*
X144490743Y-114160716D02*
X145110855Y-114528766D01*
X144490743Y-114160716D02*
X144519527Y-114709962D01*
X144490743Y-114160716D02*
X144519527Y-114709962D01*
X144490743Y-114160716D02*
X144461958Y-113611469D01*
X144490743Y-114160716D02*
X144461958Y-113611469D01*
X144091291Y-114181650D02*
X144490743Y-114160716D01*
X144091291Y-114181650D02*
X144490743Y-114160716D01*
D11*
X143360990Y-115341460D02*
X143243757Y-113104530D01*
D13*
X143357326Y-115271556D02*
X143247421Y-113174434D01*
D11*
X142641977Y-115379142D02*
X142524744Y-113142212D01*
X142524744Y-113142212D02*
X147103460Y-112902252D01*
D12*
X141694580Y-114307256D02*
X142583360Y-114260677D01*
D11*
%TO.C,S9_r1*%
X290276767Y-102046653D02*
X295369778Y-102313566D01*
X293951611Y-106445007D02*
X299044622Y-106711920D01*
X290276767Y-102046654D02*
G75*
G03*
X288174837Y-103939240I-104673J-1997257D01*
G01*
X293951611Y-106445008D02*
G75*
G03*
X291849681Y-108337594I-104673J-1997257D01*
G01*
%TO.C,S7*%
X123115421Y-147272030D02*
X128187482Y-146738934D01*
X127433076Y-151041361D02*
X132505137Y-150508265D01*
X123115421Y-147272030D02*
G75*
G03*
X121335434Y-149470130I209056J-1989043D01*
G01*
X127433076Y-151041360D02*
G75*
G03*
X125653089Y-153239461I209056J-1989043D01*
G01*
%TO.C,S13*%
X161545885Y-145802257D02*
X166645885Y-145802257D01*
X165445885Y-150002257D02*
X170545885Y-150002257D01*
X161545885Y-145802257D02*
G75*
G03*
X159545885Y-147802257I-1J-1999999D01*
G01*
X165445885Y-150002257D02*
G75*
G03*
X163445885Y-152002257I-1J-1999999D01*
G01*
%TO.C,D8_r1*%
X263107010Y-173232035D02*
X267635561Y-173949287D01*
D12*
X262931804Y-174338246D02*
X262413267Y-174256118D01*
D11*
X262756597Y-175444457D02*
X263107010Y-173232035D01*
D10*
X265043831Y-174267772D02*
X264918683Y-175057923D01*
X265043831Y-174267772D02*
X264918683Y-175057923D01*
X264981257Y-174662847D02*
X264487413Y-174584630D01*
X264981257Y-174662847D02*
X264487413Y-174584630D01*
X264918683Y-175057923D02*
X265573870Y-174756708D01*
X264918683Y-175057923D02*
X265573870Y-174756708D01*
X265573870Y-174756708D02*
X265043831Y-174267772D01*
X265573870Y-174756708D02*
X265043831Y-174267772D01*
X265573870Y-174756708D02*
X265659909Y-174213479D01*
X265573870Y-174756708D02*
X265659909Y-174213479D01*
X265573870Y-174756708D02*
X265487831Y-175299937D01*
X265573870Y-174756708D02*
X265487831Y-175299937D01*
X265968945Y-174819282D02*
X265573870Y-174756708D01*
X265968945Y-174819282D02*
X265573870Y-174756708D01*
D11*
X266924426Y-173836654D02*
X266574012Y-176049076D01*
D13*
X266913475Y-173905792D02*
X266584963Y-175979938D01*
D11*
X267635561Y-173949287D02*
X267285148Y-176161709D01*
X267285148Y-176161709D02*
X262756597Y-175444457D01*
D12*
X268339397Y-175194725D02*
X267460355Y-175055498D01*
%TO.C,D10*%
X143631011Y-151256551D02*
X144519791Y-151209972D01*
D11*
X144461175Y-150091507D02*
X149039891Y-149851547D01*
X144578408Y-152328437D02*
X144461175Y-150091507D01*
D13*
X145293757Y-152220851D02*
X145183852Y-150123729D01*
D11*
X145297421Y-152290755D02*
X145180188Y-150053825D01*
D10*
X146027722Y-151130945D02*
X146427174Y-151110011D01*
X146027722Y-151130945D02*
X146427174Y-151110011D01*
X146427174Y-151110011D02*
X146398389Y-150560764D01*
X146427174Y-151110011D02*
X146398389Y-150560764D01*
X146427174Y-151110011D02*
X146455958Y-151659257D01*
X146427174Y-151110011D02*
X146455958Y-151659257D01*
X146427174Y-151110011D02*
X147047286Y-151478061D01*
X146427174Y-151110011D02*
X147047286Y-151478061D01*
X147005417Y-150679157D02*
X146427174Y-151110011D01*
X147005417Y-150679157D02*
X146427174Y-151110011D01*
X147026351Y-151078609D02*
X147525666Y-151052441D01*
X147026351Y-151078609D02*
X147525666Y-151052441D01*
X147047286Y-151478061D02*
X147005417Y-150679157D01*
X147047286Y-151478061D02*
X147005417Y-150679157D01*
D11*
X149039891Y-149851547D02*
X149157124Y-152088477D01*
D12*
X149098508Y-150970012D02*
X149622788Y-150942536D01*
D11*
X149157124Y-152088477D02*
X144578408Y-152328437D01*
%TO.C,D9*%
X148188911Y-133613829D02*
X143610195Y-133853789D01*
D12*
X148130295Y-132495364D02*
X148654575Y-132467888D01*
D11*
X148071678Y-131376899D02*
X148188911Y-133613829D01*
D10*
X146079073Y-133003413D02*
X146037204Y-132204509D01*
X146079073Y-133003413D02*
X146037204Y-132204509D01*
X146058138Y-132603961D02*
X146557453Y-132577793D01*
X146058138Y-132603961D02*
X146557453Y-132577793D01*
X146037204Y-132204509D02*
X145458961Y-132635363D01*
X146037204Y-132204509D02*
X145458961Y-132635363D01*
X145458961Y-132635363D02*
X146079073Y-133003413D01*
X145458961Y-132635363D02*
X146079073Y-133003413D01*
X145458961Y-132635363D02*
X145487745Y-133184609D01*
X145458961Y-132635363D02*
X145487745Y-133184609D01*
X145458961Y-132635363D02*
X145430176Y-132086116D01*
X145458961Y-132635363D02*
X145430176Y-132086116D01*
X145059509Y-132656297D02*
X145458961Y-132635363D01*
X145059509Y-132656297D02*
X145458961Y-132635363D01*
D11*
X144329208Y-133816107D02*
X144211975Y-131579177D01*
D13*
X144325544Y-133746203D02*
X144215639Y-131649081D01*
D11*
X143610195Y-133853789D02*
X143492962Y-131616859D01*
X143492962Y-131616859D02*
X148071678Y-131376899D01*
D12*
X142662798Y-132781903D02*
X143551578Y-132735324D01*
D11*
%TO.C,D7*%
X130921137Y-159593610D02*
X126361254Y-160072873D01*
D12*
X130804065Y-158479745D02*
X131326189Y-158424868D01*
D11*
X130686994Y-157365881D02*
X130921137Y-159593610D01*
D10*
X128782244Y-159094451D02*
X128698621Y-158298833D01*
X128782244Y-159094451D02*
X128698621Y-158298833D01*
X128740432Y-158696642D02*
X129237693Y-158644378D01*
X128740432Y-158696642D02*
X129237693Y-158644378D01*
X128698621Y-158298833D02*
X128143719Y-158759359D01*
X128698621Y-158298833D02*
X128143719Y-158759359D01*
X128143719Y-158759359D02*
X128782244Y-159094451D01*
X128143719Y-158759359D02*
X128782244Y-159094451D01*
X128143719Y-158759359D02*
X128201210Y-159306346D01*
X128143719Y-158759359D02*
X128201210Y-159306346D01*
X128143719Y-158759359D02*
X128086229Y-158212372D01*
X128143719Y-158759359D02*
X128086229Y-158212372D01*
X127745911Y-158801170D02*
X128143719Y-158759359D01*
X127745911Y-158801170D02*
X128143719Y-158759359D01*
D11*
X127077310Y-159997612D02*
X126843166Y-157769883D01*
D13*
X127069993Y-159927996D02*
X126850483Y-157839500D01*
D11*
X126361254Y-160072873D02*
X126127111Y-157845144D01*
X126127111Y-157845144D02*
X130686994Y-157365881D01*
D12*
X125359058Y-159052039D02*
X126244183Y-158959008D01*
D11*
%TO.C,D3_r1*%
X256770885Y-160722257D02*
X252185885Y-160722257D01*
D12*
X256770885Y-159602257D02*
X257295885Y-159602257D01*
D11*
X256770885Y-158482257D02*
X256770885Y-160722257D01*
D10*
X254695885Y-160002257D02*
X254695885Y-159202257D01*
X254695885Y-160002257D02*
X254695885Y-159202257D01*
X254695885Y-159602257D02*
X255195885Y-159602257D01*
X254695885Y-159602257D02*
X255195885Y-159602257D01*
X254695885Y-159202257D02*
X254095885Y-159602257D01*
X254695885Y-159202257D02*
X254095885Y-159602257D01*
X254095885Y-159602257D02*
X254695885Y-160002257D01*
X254095885Y-159602257D02*
X254695885Y-160002257D01*
X254095885Y-159602257D02*
X254095885Y-160152257D01*
X254095885Y-159602257D02*
X254095885Y-160152257D01*
X254095885Y-159602257D02*
X254095885Y-159052257D01*
X254095885Y-159602257D02*
X254095885Y-159052257D01*
X253695885Y-159602257D02*
X254095885Y-159602257D01*
X253695885Y-159602257D02*
X254095885Y-159602257D01*
D11*
X252905885Y-160722257D02*
X252905885Y-158482257D01*
D13*
X252905885Y-160652257D02*
X252905885Y-158552257D01*
D11*
X252185885Y-160722257D02*
X252185885Y-158482257D01*
X252185885Y-158482257D02*
X256770885Y-158482257D01*
D12*
X251295885Y-159602257D02*
X252185885Y-159602257D01*
D11*
%TO.C,D20*%
X236771385Y-164294757D02*
X232186385Y-164294757D01*
D12*
X236771385Y-163174757D02*
X237296385Y-163174757D01*
D11*
X236771385Y-162054757D02*
X236771385Y-164294757D01*
D10*
X234696385Y-163574757D02*
X234696385Y-162774757D01*
X234696385Y-163574757D02*
X234696385Y-162774757D01*
X234696385Y-163174757D02*
X235196385Y-163174757D01*
X234696385Y-163174757D02*
X235196385Y-163174757D01*
X234696385Y-162774757D02*
X234096385Y-163174757D01*
X234696385Y-162774757D02*
X234096385Y-163174757D01*
X234096385Y-163174757D02*
X234696385Y-163574757D01*
X234096385Y-163174757D02*
X234696385Y-163574757D01*
X234096385Y-163174757D02*
X234096385Y-163724757D01*
X234096385Y-163174757D02*
X234096385Y-163724757D01*
X234096385Y-163174757D02*
X234096385Y-162624757D01*
X234096385Y-163174757D02*
X234096385Y-162624757D01*
X233696385Y-163174757D02*
X234096385Y-163174757D01*
X233696385Y-163174757D02*
X234096385Y-163174757D01*
D11*
X232906385Y-164294757D02*
X232906385Y-162054757D01*
D13*
X232906385Y-164224757D02*
X232906385Y-162124757D01*
D11*
X232186385Y-164294757D02*
X232186385Y-162054757D01*
X232186385Y-162054757D02*
X236771385Y-162054757D01*
D12*
X231296385Y-163174757D02*
X232186385Y-163174757D01*
D11*
%TO.C,S16*%
X180045885Y-129202257D02*
X185145885Y-129202257D01*
X183945885Y-133402257D02*
X189045885Y-133402257D01*
X180045885Y-129202257D02*
G75*
G03*
X178045885Y-131202257I-1J-1999999D01*
G01*
X183945885Y-133402257D02*
G75*
G03*
X181945885Y-135402257I-1J-1999999D01*
G01*
%TO.C,S12*%
X161545885Y-127302257D02*
X166645885Y-127302257D01*
X165445885Y-131502257D02*
X170545885Y-131502257D01*
X161545885Y-127302257D02*
G75*
G03*
X159545885Y-129302257I-1J-1999999D01*
G01*
X165445885Y-131502257D02*
G75*
G03*
X163445885Y-133502257I-1J-1999999D01*
G01*
%TO.C,S6*%
X121236598Y-128917874D02*
X126308659Y-128384778D01*
X125554253Y-132687205D02*
X130626314Y-132154109D01*
X121236598Y-128917874D02*
G75*
G03*
X119456611Y-131115974I209056J-1989043D01*
G01*
X125554253Y-132687204D02*
G75*
G03*
X123774266Y-134885305I209056J-1989043D01*
G01*
%TO.C,D16*%
X186470885Y-142222257D02*
X181885885Y-142222257D01*
D12*
X186470885Y-141102257D02*
X186995885Y-141102257D01*
D11*
X186470885Y-139982257D02*
X186470885Y-142222257D01*
D10*
X184395885Y-141502257D02*
X184395885Y-140702257D01*
X184395885Y-141502257D02*
X184395885Y-140702257D01*
X184395885Y-141102257D02*
X184895885Y-141102257D01*
X184395885Y-141102257D02*
X184895885Y-141102257D01*
X184395885Y-140702257D02*
X183795885Y-141102257D01*
X184395885Y-140702257D02*
X183795885Y-141102257D01*
X183795885Y-141102257D02*
X184395885Y-141502257D01*
X183795885Y-141102257D02*
X184395885Y-141502257D01*
X183795885Y-141102257D02*
X183795885Y-141652257D01*
X183795885Y-141102257D02*
X183795885Y-141652257D01*
X183795885Y-141102257D02*
X183795885Y-140552257D01*
X183795885Y-141102257D02*
X183795885Y-140552257D01*
X183395885Y-141102257D02*
X183795885Y-141102257D01*
X183395885Y-141102257D02*
X183795885Y-141102257D01*
D11*
X182605885Y-142222257D02*
X182605885Y-139982257D01*
D13*
X182605885Y-142152257D02*
X182605885Y-140052257D01*
D11*
X181885885Y-142222257D02*
X181885885Y-139982257D01*
X181885885Y-139982257D02*
X186470885Y-139982257D01*
D12*
X180995885Y-141102257D02*
X181885885Y-141102257D01*
D11*
%TO.C,D4_r1*%
X242724292Y-172831183D02*
X247284175Y-172351920D01*
D12*
X242841364Y-173945048D02*
X242319240Y-173999925D01*
D11*
X242958435Y-175058912D02*
X242724292Y-172831183D01*
D10*
X244863185Y-173330342D02*
X244946808Y-174125960D01*
X244863185Y-173330342D02*
X244946808Y-174125960D01*
X244904997Y-173728151D02*
X244407736Y-173780415D01*
X244904997Y-173728151D02*
X244407736Y-173780415D01*
X244946808Y-174125960D02*
X245501710Y-173665434D01*
X244946808Y-174125960D02*
X245501710Y-173665434D01*
X245501710Y-173665434D02*
X244863185Y-173330342D01*
X245501710Y-173665434D02*
X244863185Y-173330342D01*
X245501710Y-173665434D02*
X245444219Y-173118447D01*
X245501710Y-173665434D02*
X245444219Y-173118447D01*
X245501710Y-173665434D02*
X245559200Y-174212421D01*
X245501710Y-173665434D02*
X245559200Y-174212421D01*
X245899518Y-173623623D02*
X245501710Y-173665434D01*
X245899518Y-173623623D02*
X245501710Y-173665434D01*
D11*
X246568119Y-172427181D02*
X246802263Y-174654910D01*
D13*
X246575436Y-172496797D02*
X246794946Y-174585293D01*
D11*
X247284175Y-172351920D02*
X247518318Y-174579649D01*
X247518318Y-174579649D02*
X242958435Y-175058912D01*
D12*
X248286371Y-173372754D02*
X247401246Y-173465785D01*
D11*
%TO.C,D4*%
X113515503Y-170975343D02*
X108955620Y-171454606D01*
D12*
X113398431Y-169861478D02*
X113920555Y-169806601D01*
D11*
X113281360Y-168747614D02*
X113515503Y-170975343D01*
D10*
X111376610Y-170476184D02*
X111292987Y-169680566D01*
X111376610Y-170476184D02*
X111292987Y-169680566D01*
X111334798Y-170078375D02*
X111832059Y-170026111D01*
X111334798Y-170078375D02*
X111832059Y-170026111D01*
X111292987Y-169680566D02*
X110738085Y-170141092D01*
X111292987Y-169680566D02*
X110738085Y-170141092D01*
X110738085Y-170141092D02*
X111376610Y-170476184D01*
X110738085Y-170141092D02*
X111376610Y-170476184D01*
X110738085Y-170141092D02*
X110795576Y-170688079D01*
X110738085Y-170141092D02*
X110795576Y-170688079D01*
X110738085Y-170141092D02*
X110680595Y-169594105D01*
X110738085Y-170141092D02*
X110680595Y-169594105D01*
X110340277Y-170182903D02*
X110738085Y-170141092D01*
X110340277Y-170182903D02*
X110738085Y-170141092D01*
D11*
X109671676Y-171379345D02*
X109437532Y-169151616D01*
D13*
X109664359Y-171309729D02*
X109444849Y-169221233D01*
D11*
X108955620Y-171454606D02*
X108721477Y-169226877D01*
X108721477Y-169226877D02*
X113281360Y-168747614D01*
D12*
X107953424Y-170433772D02*
X108838549Y-170340741D01*
D11*
%TO.C,S14*%
X177702516Y-188247877D02*
X176923631Y-189319920D01*
X176923631Y-189319920D02*
X174210451Y-189749646D01*
X176173997Y-184586918D02*
X177342147Y-185435628D01*
X173559586Y-185001000D02*
X176173997Y-184586918D01*
X174210451Y-189749646D02*
X173799898Y-189733674D01*
X173799898Y-189733674D02*
X173426285Y-189560994D01*
X172988080Y-184985209D02*
X173559586Y-185001000D01*
X173426285Y-189560994D02*
X172816468Y-189117935D01*
X172468203Y-184764822D02*
X172988080Y-184985209D01*
X172816468Y-189117935D02*
X172781739Y-188898669D01*
X172781739Y-188898669D02*
X172627292Y-188479671D01*
X172063500Y-184370274D02*
X172468203Y-184764822D01*
X172627292Y-188479671D02*
X172328885Y-188155359D01*
X171824105Y-183843235D02*
X172063500Y-184370274D01*
X171696497Y-183561731D02*
X171824105Y-183843235D01*
X172328885Y-188155359D02*
X171928233Y-187971775D01*
X171465513Y-183337100D02*
X171696497Y-183561731D01*
X171928233Y-187971775D02*
X171482016Y-187954364D01*
X171168293Y-183212056D02*
X171465513Y-183337100D01*
X170852880Y-183202277D02*
X171168293Y-183212056D01*
X171482016Y-187954364D02*
X168716488Y-188392381D01*
X168716488Y-188392381D02*
X168383346Y-188379335D01*
X168383346Y-188379335D02*
X168074264Y-188236933D01*
X168074264Y-188236933D02*
X167843320Y-187986983D01*
X167843320Y-187986983D02*
X167692569Y-187578537D01*
X167323077Y-184715085D02*
X166964546Y-184771870D01*
X166964546Y-184771870D02*
X166817185Y-183841468D01*
X166817185Y-183841468D02*
X170852880Y-183202277D01*
%TO.C,D2*%
X109647950Y-134178032D02*
X105088067Y-134657295D01*
D12*
X109530878Y-133064167D02*
X110053002Y-133009290D01*
D11*
X109413807Y-131950303D02*
X109647950Y-134178032D01*
D10*
X107509057Y-133678873D02*
X107425434Y-132883255D01*
X107509057Y-133678873D02*
X107425434Y-132883255D01*
X107467245Y-133281064D02*
X107964506Y-133228800D01*
X107467245Y-133281064D02*
X107964506Y-133228800D01*
X107425434Y-132883255D02*
X106870532Y-133343781D01*
X107425434Y-132883255D02*
X106870532Y-133343781D01*
X106870532Y-133343781D02*
X107509057Y-133678873D01*
X106870532Y-133343781D02*
X107509057Y-133678873D01*
X106870532Y-133343781D02*
X106928023Y-133890768D01*
X106870532Y-133343781D02*
X106928023Y-133890768D01*
X106870532Y-133343781D02*
X106813042Y-132796794D01*
X106870532Y-133343781D02*
X106813042Y-132796794D01*
X106472724Y-133385592D02*
X106870532Y-133343781D01*
X106472724Y-133385592D02*
X106870532Y-133343781D01*
D11*
X105804123Y-134582034D02*
X105569979Y-132354305D01*
D13*
X105796806Y-134512418D02*
X105577296Y-132423922D01*
D11*
X105088067Y-134657295D02*
X104853924Y-132429566D01*
X104853924Y-132429566D02*
X109413807Y-131950303D01*
D12*
X104085871Y-133636461D02*
X104970996Y-133543430D01*
D11*
%TO.C,D14_r1*%
X312323336Y-160121187D02*
X307763453Y-159641924D01*
D12*
X312440407Y-159007323D02*
X312962531Y-159062200D01*
D11*
X312557479Y-157893458D02*
X312323336Y-160121187D01*
D10*
X310334963Y-159188235D02*
X310418586Y-158392617D01*
X310334963Y-159188235D02*
X310418586Y-158392617D01*
X310376774Y-158790426D02*
X310874035Y-158842690D01*
X310376774Y-158790426D02*
X310874035Y-158842690D01*
X310418586Y-158392617D02*
X309780061Y-158727709D01*
X310418586Y-158392617D02*
X309780061Y-158727709D01*
X309780061Y-158727709D02*
X310334963Y-159188235D01*
X309780061Y-158727709D02*
X310334963Y-159188235D01*
X309780061Y-158727709D02*
X309722571Y-159274696D01*
X309780061Y-158727709D02*
X309722571Y-159274696D01*
X309780061Y-158727709D02*
X309837552Y-158180722D01*
X309780061Y-158727709D02*
X309837552Y-158180722D01*
X309382253Y-158685898D02*
X309780061Y-158727709D01*
X309382253Y-158685898D02*
X309780061Y-158727709D01*
D11*
X308479508Y-159717185D02*
X308713652Y-157489456D01*
D13*
X308486825Y-159647568D02*
X308706335Y-157559072D01*
D11*
X307763453Y-159641924D02*
X307997596Y-157414195D01*
X307997596Y-157414195D02*
X312557479Y-157893458D01*
D12*
X306995400Y-158435029D02*
X307880525Y-158528060D01*
D11*
%TO.C,D1*%
X93381674Y-156400054D02*
X88821791Y-156879317D01*
D12*
X93264602Y-155286189D02*
X93786726Y-155231312D01*
D11*
X93147531Y-154172325D02*
X93381674Y-156400054D01*
D10*
X91242781Y-155900895D02*
X91159158Y-155105277D01*
X91242781Y-155900895D02*
X91159158Y-155105277D01*
X91200969Y-155503086D02*
X91698230Y-155450822D01*
X91200969Y-155503086D02*
X91698230Y-155450822D01*
X91159158Y-155105277D02*
X90604256Y-155565803D01*
X91159158Y-155105277D02*
X90604256Y-155565803D01*
X90604256Y-155565803D02*
X91242781Y-155900895D01*
X90604256Y-155565803D02*
X91242781Y-155900895D01*
X90604256Y-155565803D02*
X90661747Y-156112790D01*
X90604256Y-155565803D02*
X90661747Y-156112790D01*
X90604256Y-155565803D02*
X90546766Y-155018816D01*
X90604256Y-155565803D02*
X90546766Y-155018816D01*
X90206448Y-155607614D02*
X90604256Y-155565803D01*
X90206448Y-155607614D02*
X90604256Y-155565803D01*
D11*
X89537847Y-156804056D02*
X89303703Y-154576327D01*
D13*
X89530530Y-156734440D02*
X89311020Y-154645944D01*
D11*
X88821791Y-156879317D02*
X88587648Y-154651588D01*
X88587648Y-154651588D02*
X93147531Y-154172325D01*
D12*
X87819595Y-155858483D02*
X88704720Y-155765452D01*
D11*
%TO.C,S1_r1*%
X250345885Y-110702257D02*
X255445885Y-110702257D01*
X254245885Y-114902257D02*
X259345885Y-114902257D01*
X250345885Y-110702257D02*
G75*
G03*
X248345885Y-112702257I-1J-1999999D01*
G01*
X254245885Y-114902257D02*
G75*
G03*
X252245885Y-116902257I-1J-1999999D01*
G01*
%TO.C,S1*%
X85630911Y-144122979D02*
X90702972Y-143589883D01*
X89948566Y-147892310D02*
X95020627Y-147359214D01*
X85630911Y-144122979D02*
G75*
G03*
X83850924Y-146321079I209056J-1989043D01*
G01*
X89948566Y-147892309D02*
G75*
G03*
X88168579Y-150090410I209056J-1989043D01*
G01*
%TO.C,D7_r1*%
X275270885Y-158822257D02*
X270685885Y-158822257D01*
D12*
X275270885Y-157702257D02*
X275795885Y-157702257D01*
D11*
X275270885Y-156582257D02*
X275270885Y-158822257D01*
D10*
X273195885Y-158102257D02*
X273195885Y-157302257D01*
X273195885Y-158102257D02*
X273195885Y-157302257D01*
X273195885Y-157702257D02*
X273695885Y-157702257D01*
X273195885Y-157702257D02*
X273695885Y-157702257D01*
X273195885Y-157302257D02*
X272595885Y-157702257D01*
X273195885Y-157302257D02*
X272595885Y-157702257D01*
X272595885Y-157702257D02*
X273195885Y-158102257D01*
X272595885Y-157702257D02*
X273195885Y-158102257D01*
X272595885Y-157702257D02*
X272595885Y-158252257D01*
X272595885Y-157702257D02*
X272595885Y-158252257D01*
X272595885Y-157702257D02*
X272595885Y-157152257D01*
X272595885Y-157702257D02*
X272595885Y-157152257D01*
X272195885Y-157702257D02*
X272595885Y-157702257D01*
X272195885Y-157702257D02*
X272595885Y-157702257D01*
D11*
X271405885Y-158822257D02*
X271405885Y-156582257D01*
D13*
X271405885Y-158752257D02*
X271405885Y-156652257D01*
D11*
X270685885Y-158822257D02*
X270685885Y-156582257D01*
X270685885Y-156582257D02*
X275270885Y-156582257D01*
D12*
X269795885Y-157702257D02*
X270685885Y-157702257D01*
D11*
%TO.C,S8*%
X140123084Y-102473286D02*
X145216094Y-102206372D01*
X144237550Y-106463419D02*
X149330561Y-106196506D01*
X140123084Y-102473287D02*
G75*
G03*
X138230498Y-104575217I104671J-1997257D01*
G01*
X144237550Y-106463421D02*
G75*
G03*
X142344964Y-108565350I104671J-1997257D01*
G01*
%TO.C,S18*%
X194112272Y-187994078D02*
X193082461Y-188828002D01*
X193082461Y-188828002D02*
X190350510Y-188540863D01*
X193583362Y-184062253D02*
X194492045Y-185184384D01*
X190950862Y-183785567D02*
X193583362Y-184062253D01*
X190350510Y-188540863D02*
X189958080Y-188419176D01*
X189958080Y-188419176D02*
X189641890Y-188155682D01*
X190402916Y-183622397D02*
X190950862Y-183785567D01*
X189641890Y-188155682D02*
X189167524Y-187569888D01*
X189957794Y-183274966D02*
X190402916Y-183622397D01*
X189167524Y-187569888D02*
X189190729Y-187349104D01*
X189190729Y-187349104D02*
X189149989Y-186904409D01*
X189668997Y-182789117D02*
X189957794Y-183274966D01*
X189149989Y-186904409D02*
X188945688Y-186513915D01*
X189574168Y-182218076D02*
X189668997Y-182789117D01*
X189523767Y-181913137D02*
X189574168Y-182218076D01*
X188945688Y-186513915D02*
X188606203Y-186232890D01*
X189358792Y-181636376D02*
X189523767Y-181913137D01*
X188606203Y-186232890D02*
X188179696Y-186100583D01*
X189104063Y-181438667D02*
X189358792Y-181636376D01*
X188801929Y-181347586D02*
X189104063Y-181438667D01*
X188179696Y-186100583D02*
X185395035Y-185807903D01*
X185395035Y-185807903D02*
X185076621Y-185709078D01*
X185076621Y-185709078D02*
X184814927Y-185491532D01*
X184814927Y-185491532D02*
X184656544Y-185190327D01*
X184656544Y-185190327D02*
X184616643Y-184756781D01*
X185000858Y-181895266D02*
X184639846Y-181857323D01*
X184639846Y-181857323D02*
X184738312Y-180920483D01*
X184738312Y-180920483D02*
X188801929Y-181347586D01*
%TO.C,D13_r1*%
X314257115Y-141722532D02*
X309697232Y-141243269D01*
D12*
X314374186Y-140608668D02*
X314896310Y-140663545D01*
D11*
X314491258Y-139494803D02*
X314257115Y-141722532D01*
D10*
X312268742Y-140789580D02*
X312352365Y-139993962D01*
X312268742Y-140789580D02*
X312352365Y-139993962D01*
X312310553Y-140391771D02*
X312807814Y-140444035D01*
X312310553Y-140391771D02*
X312807814Y-140444035D01*
X312352365Y-139993962D02*
X311713840Y-140329054D01*
X312352365Y-139993962D02*
X311713840Y-140329054D01*
X311713840Y-140329054D02*
X312268742Y-140789580D01*
X311713840Y-140329054D02*
X312268742Y-140789580D01*
X311713840Y-140329054D02*
X311656350Y-140876041D01*
X311713840Y-140329054D02*
X311656350Y-140876041D01*
X311713840Y-140329054D02*
X311771331Y-139782067D01*
X311713840Y-140329054D02*
X311771331Y-139782067D01*
X311316032Y-140287243D02*
X311713840Y-140329054D01*
X311316032Y-140287243D02*
X311713840Y-140329054D01*
D11*
X310413287Y-141318530D02*
X310647431Y-139090801D01*
D13*
X310420604Y-141248913D02*
X310640114Y-139160417D01*
D11*
X309697232Y-141243269D02*
X309931375Y-139015540D01*
X309931375Y-139015540D02*
X314491258Y-139494803D01*
D12*
X308929179Y-140036374D02*
X309814304Y-140129405D01*
D11*
%TO.C,S3*%
X103830963Y-140299607D02*
X108903024Y-139766511D01*
X108148618Y-144068938D02*
X113220679Y-143535842D01*
X103830963Y-140299607D02*
G75*
G03*
X102050976Y-142497707I209056J-1989043D01*
G01*
X108148618Y-144068937D02*
G75*
G03*
X106368631Y-146267038I209056J-1989043D01*
G01*
%TO.C,D6_r1*%
X275270885Y-140322257D02*
X270685885Y-140322257D01*
D12*
X275270885Y-139202257D02*
X275795885Y-139202257D01*
D11*
X275270885Y-138082257D02*
X275270885Y-140322257D01*
D10*
X273195885Y-139602257D02*
X273195885Y-138802257D01*
X273195885Y-139602257D02*
X273195885Y-138802257D01*
X273195885Y-139202257D02*
X273695885Y-139202257D01*
X273195885Y-139202257D02*
X273695885Y-139202257D01*
X273195885Y-138802257D02*
X272595885Y-139202257D01*
X273195885Y-138802257D02*
X272595885Y-139202257D01*
X272595885Y-139202257D02*
X273195885Y-139602257D01*
X272595885Y-139202257D02*
X273195885Y-139602257D01*
X272595885Y-139202257D02*
X272595885Y-139752257D01*
X272595885Y-139202257D02*
X272595885Y-139752257D01*
X272595885Y-139202257D02*
X272595885Y-138652257D01*
X272595885Y-139202257D02*
X272595885Y-138652257D01*
X272195885Y-139202257D02*
X272595885Y-139202257D01*
X272195885Y-139202257D02*
X272595885Y-139202257D01*
D11*
X271405885Y-140322257D02*
X271405885Y-138082257D01*
D13*
X271405885Y-140252257D02*
X271405885Y-138152257D01*
D11*
X270685885Y-140322257D02*
X270685885Y-138082257D01*
X270685885Y-138082257D02*
X275270885Y-138082257D01*
D12*
X269795885Y-139202257D02*
X270685885Y-139202257D01*
D11*
%TO.C,D19*%
X206470885Y-164294757D02*
X201885885Y-164294757D01*
D12*
X206470885Y-163174757D02*
X206995885Y-163174757D01*
D11*
X206470885Y-162054757D02*
X206470885Y-164294757D01*
D10*
X204395885Y-163574757D02*
X204395885Y-162774757D01*
X204395885Y-163574757D02*
X204395885Y-162774757D01*
X204395885Y-163174757D02*
X204895885Y-163174757D01*
X204395885Y-163174757D02*
X204895885Y-163174757D01*
X204395885Y-162774757D02*
X203795885Y-163174757D01*
X204395885Y-162774757D02*
X203795885Y-163174757D01*
X203795885Y-163174757D02*
X204395885Y-163574757D01*
X203795885Y-163174757D02*
X204395885Y-163574757D01*
X203795885Y-163174757D02*
X203795885Y-163724757D01*
X203795885Y-163174757D02*
X203795885Y-163724757D01*
X203795885Y-163174757D02*
X203795885Y-162624757D01*
X203795885Y-163174757D02*
X203795885Y-162624757D01*
X203395885Y-163174757D02*
X203795885Y-163174757D01*
X203395885Y-163174757D02*
X203795885Y-163174757D01*
D11*
X202605885Y-164294757D02*
X202605885Y-162054757D01*
D13*
X202605885Y-164224757D02*
X202605885Y-162124757D01*
D11*
X201885885Y-164294757D02*
X201885885Y-162054757D01*
X201885885Y-162054757D02*
X206470885Y-162054757D01*
D12*
X200995885Y-163174757D02*
X201885885Y-163174757D01*
D11*
%TO.C,S17_r1*%
X324677879Y-157855174D02*
X329749940Y-158388269D01*
X328117494Y-162439827D02*
X333189556Y-162972922D01*
X324677879Y-157855174D02*
G75*
G03*
X322479778Y-159635161I-209058J-1989043D01*
G01*
X328117494Y-162439827D02*
G75*
G03*
X325919394Y-164219814I-209057J-1989043D01*
G01*
%TO.C,D6*%
X128987361Y-141194953D02*
X124427478Y-141674216D01*
D12*
X128870289Y-140081088D02*
X129392413Y-140026211D01*
D11*
X128753218Y-138967224D02*
X128987361Y-141194953D01*
D10*
X126848468Y-140695794D02*
X126764845Y-139900176D01*
X126848468Y-140695794D02*
X126764845Y-139900176D01*
X126806656Y-140297985D02*
X127303917Y-140245721D01*
X126806656Y-140297985D02*
X127303917Y-140245721D01*
X126764845Y-139900176D02*
X126209943Y-140360702D01*
X126764845Y-139900176D02*
X126209943Y-140360702D01*
X126209943Y-140360702D02*
X126848468Y-140695794D01*
X126209943Y-140360702D02*
X126848468Y-140695794D01*
X126209943Y-140360702D02*
X126267434Y-140907689D01*
X126209943Y-140360702D02*
X126267434Y-140907689D01*
X126209943Y-140360702D02*
X126152453Y-139813715D01*
X126209943Y-140360702D02*
X126152453Y-139813715D01*
X125812135Y-140402513D02*
X126209943Y-140360702D01*
X125812135Y-140402513D02*
X126209943Y-140360702D01*
D11*
X125143534Y-141598955D02*
X124909390Y-139371226D01*
D13*
X125136217Y-141529339D02*
X124916707Y-139440843D01*
D11*
X124427478Y-141674216D02*
X124193335Y-139446487D01*
X124193335Y-139446487D02*
X128753218Y-138967224D01*
D12*
X123425282Y-140653382D02*
X124310407Y-140560351D01*
D11*
%TO.C,S17*%
X180045885Y-147702257D02*
X185145885Y-147702257D01*
X183945885Y-151902257D02*
X189045885Y-151902257D01*
X180045885Y-147702257D02*
G75*
G03*
X178045885Y-149702257I-1J-1999999D01*
G01*
X183945885Y-151902257D02*
G75*
G03*
X181945885Y-153902257I-1J-1999999D01*
G01*
%TO.C,S18_r1*%
X344811707Y-143279888D02*
X349883768Y-143812983D01*
X348251322Y-147864541D02*
X353323384Y-148397636D01*
X344811707Y-143279888D02*
G75*
G03*
X342613606Y-145059875I-209058J-1989043D01*
G01*
X348251322Y-147864541D02*
G75*
G03*
X346053222Y-149644528I-209057J-1989043D01*
G01*
%TO.C,D16_r1*%
X331662749Y-153104267D02*
X327102866Y-152625004D01*
D12*
X331779820Y-151990403D02*
X332301944Y-152045280D01*
D11*
X331896892Y-150876538D02*
X331662749Y-153104267D01*
D10*
X329674376Y-152171315D02*
X329757999Y-151375697D01*
X329674376Y-152171315D02*
X329757999Y-151375697D01*
X329716187Y-151773506D02*
X330213448Y-151825770D01*
X329716187Y-151773506D02*
X330213448Y-151825770D01*
X329757999Y-151375697D02*
X329119474Y-151710789D01*
X329757999Y-151375697D02*
X329119474Y-151710789D01*
X329119474Y-151710789D02*
X329674376Y-152171315D01*
X329119474Y-151710789D02*
X329674376Y-152171315D01*
X329119474Y-151710789D02*
X329061984Y-152257776D01*
X329119474Y-151710789D02*
X329061984Y-152257776D01*
X329119474Y-151710789D02*
X329176965Y-151163802D01*
X329119474Y-151710789D02*
X329176965Y-151163802D01*
X328721666Y-151668978D02*
X329119474Y-151710789D01*
X328721666Y-151668978D02*
X329119474Y-151710789D01*
D11*
X327818921Y-152700265D02*
X328053065Y-150472536D01*
D13*
X327826238Y-152630648D02*
X328045748Y-150542152D01*
D11*
X327102866Y-152625004D02*
X327337009Y-150397275D01*
X327337009Y-150397275D02*
X331896892Y-150876538D01*
D12*
X326334813Y-151418109D02*
X327219938Y-151511140D01*
D11*
%TO.C,S6_r1*%
X268845885Y-127302257D02*
X273945885Y-127302257D01*
X272745885Y-131502257D02*
X277845885Y-131502257D01*
X268845885Y-127302257D02*
G75*
G03*
X266845885Y-129302257I-1J-1999999D01*
G01*
X272745885Y-131502257D02*
G75*
G03*
X270745885Y-133502257I-1J-1999999D01*
G01*
%TO.C,S11_r1*%
X288340335Y-138995945D02*
X293433346Y-139262858D01*
X292015179Y-143394299D02*
X297108190Y-143661212D01*
X288340335Y-138995946D02*
G75*
G03*
X286238405Y-140888532I-104673J-1997257D01*
G01*
X292015179Y-143394300D02*
G75*
G03*
X289913249Y-145286886I-104673J-1997257D01*
G01*
%TO.C,S5_r1*%
X268845885Y-108802257D02*
X273945885Y-108802257D01*
X272745885Y-113002257D02*
X277845885Y-113002257D01*
X268845885Y-108802257D02*
G75*
G03*
X266845885Y-110802257I-1J-1999999D01*
G01*
X272745885Y-113002257D02*
G75*
G03*
X270745885Y-115002257I-1J-1999999D01*
G01*
%TO.C,S3_r1*%
X250345885Y-147702257D02*
X255445885Y-147702257D01*
X254245885Y-151902257D02*
X259345885Y-151902257D01*
X250345885Y-147702257D02*
G75*
G03*
X248345885Y-149702257I-1J-1999999D01*
G01*
X254245885Y-151902257D02*
G75*
G03*
X252245885Y-153902257I-1J-1999999D01*
G01*
%TO.C,S9*%
X141091300Y-120947932D02*
X146184310Y-120681018D01*
X145205766Y-124938065D02*
X150298777Y-124671152D01*
X141091300Y-120947933D02*
G75*
G03*
X139198714Y-123049863I104671J-1997257D01*
G01*
X145205766Y-124938067D02*
G75*
G03*
X143313180Y-127039996I104671J-1997257D01*
G01*
%TO.C,S15*%
X179995885Y-110702257D02*
X185095885Y-110702257D01*
X183895885Y-114902257D02*
X188995885Y-114902257D01*
X179995885Y-110702257D02*
G75*
G03*
X177995885Y-112702257I-1J-1999999D01*
G01*
X183895885Y-114902257D02*
G75*
G03*
X181895885Y-116902257I-1J-1999999D01*
G01*
%TO.C,S15_r1*%
X328567681Y-121085341D02*
X333639742Y-121618436D01*
X332007296Y-125669994D02*
X337079358Y-126203089D01*
X328567681Y-121085341D02*
G75*
G03*
X326369580Y-122865328I-209058J-1989043D01*
G01*
X332007296Y-125669994D02*
G75*
G03*
X329809196Y-127449981I-209057J-1989043D01*
G01*
%TO.C,D15_r1*%
X333596524Y-134705612D02*
X329036641Y-134226349D01*
D12*
X333713595Y-133591748D02*
X334235719Y-133646625D01*
D11*
X333830667Y-132477883D02*
X333596524Y-134705612D01*
D10*
X331608151Y-133772660D02*
X331691774Y-132977042D01*
X331608151Y-133772660D02*
X331691774Y-132977042D01*
X331649962Y-133374851D02*
X332147223Y-133427115D01*
X331649962Y-133374851D02*
X332147223Y-133427115D01*
X331691774Y-132977042D02*
X331053249Y-133312134D01*
X331691774Y-132977042D02*
X331053249Y-133312134D01*
X331053249Y-133312134D02*
X331608151Y-133772660D01*
X331053249Y-133312134D02*
X331608151Y-133772660D01*
X331053249Y-133312134D02*
X330995759Y-133859121D01*
X331053249Y-133312134D02*
X330995759Y-133859121D01*
X331053249Y-133312134D02*
X331110740Y-132765147D01*
X331053249Y-133312134D02*
X331110740Y-132765147D01*
X330655441Y-133270323D02*
X331053249Y-133312134D01*
X330655441Y-133270323D02*
X331053249Y-133312134D01*
D11*
X329752696Y-134301610D02*
X329986840Y-132073881D01*
D13*
X329760013Y-134231993D02*
X329979523Y-132143497D01*
D11*
X329036641Y-134226349D02*
X329270784Y-131998620D01*
X329270784Y-131998620D02*
X333830667Y-132477883D01*
D12*
X328268588Y-133019454D02*
X329153713Y-133112485D01*
D11*
%TO.C,S12_r1*%
X311162049Y-109703606D02*
X316234110Y-110236701D01*
X314601664Y-114288259D02*
X319673726Y-114821354D01*
X311162049Y-109703606D02*
G75*
G03*
X308963948Y-111483593I-209058J-1989043D01*
G01*
X314601664Y-114288259D02*
G75*
G03*
X312403564Y-116068246I-209057J-1989043D01*
G01*
%TO.C,S4_r1*%
X249031186Y-187481189D02*
X248197262Y-188510999D01*
X248197262Y-188510999D02*
X245465311Y-188798139D01*
X247696362Y-183745250D02*
X248818492Y-184653934D01*
X245063863Y-184021937D02*
X247696362Y-183745250D01*
X245465311Y-188798139D02*
X245056156Y-188760702D01*
X245056156Y-188760702D02*
X244692093Y-188568705D01*
X244493966Y-183976257D02*
X245063863Y-184021937D01*
X244692093Y-188568705D02*
X244106299Y-188094339D01*
X243986336Y-183728964D02*
X244493966Y-183976257D01*
X244106299Y-188094339D02*
X244083094Y-187873555D01*
X244083094Y-187873555D02*
X243950787Y-187447048D01*
X243602836Y-183313777D02*
X243986336Y-183728964D01*
X243950787Y-187447048D02*
X243669761Y-187107564D01*
X243391353Y-182774931D02*
X243602836Y-183313777D01*
X243278652Y-182487135D02*
X243391353Y-182774931D01*
X243669761Y-187107564D02*
X243279267Y-186903262D01*
X243059741Y-182250722D02*
X243278652Y-182487135D01*
X243279267Y-186903262D02*
X242834572Y-186862522D01*
X242769473Y-182110294D02*
X243059741Y-182250722D01*
X242455004Y-182084021D02*
X242769473Y-182110294D01*
X242834572Y-186862522D02*
X240049911Y-187155202D01*
X240049911Y-187155202D02*
X239717908Y-187124739D01*
X239717908Y-187124739D02*
X239416702Y-186966356D01*
X239416702Y-186966356D02*
X239199156Y-186704662D01*
X239199156Y-186704662D02*
X239069988Y-186288886D01*
X238850864Y-183410020D02*
X238489853Y-183447964D01*
X238489853Y-183447964D02*
X238391387Y-182511124D01*
X238391387Y-182511124D02*
X242455004Y-182084021D01*
%TO.C,D17*%
X186470885Y-160722257D02*
X181885885Y-160722257D01*
D12*
X186470885Y-159602257D02*
X186995885Y-159602257D01*
D11*
X186470885Y-158482257D02*
X186470885Y-160722257D01*
D10*
X184395885Y-160002257D02*
X184395885Y-159202257D01*
X184395885Y-160002257D02*
X184395885Y-159202257D01*
X184395885Y-159602257D02*
X184895885Y-159602257D01*
X184395885Y-159602257D02*
X184895885Y-159602257D01*
X184395885Y-159202257D02*
X183795885Y-159602257D01*
X184395885Y-159202257D02*
X183795885Y-159602257D01*
X183795885Y-159602257D02*
X184395885Y-160002257D01*
X183795885Y-159602257D02*
X184395885Y-160002257D01*
X183795885Y-159602257D02*
X183795885Y-160152257D01*
X183795885Y-159602257D02*
X183795885Y-160152257D01*
X183795885Y-159602257D02*
X183795885Y-159052257D01*
X183795885Y-159602257D02*
X183795885Y-159052257D01*
X183395885Y-159602257D02*
X183795885Y-159602257D01*
X183395885Y-159602257D02*
X183795885Y-159602257D01*
D11*
X182605885Y-160722257D02*
X182605885Y-158482257D01*
D13*
X182605885Y-160652257D02*
X182605885Y-158552257D01*
D11*
X181885885Y-160722257D02*
X181885885Y-158482257D01*
X181885885Y-158482257D02*
X186470885Y-158482257D01*
D12*
X180995885Y-159602257D02*
X181885885Y-159602257D01*
D11*
%TO.C,D18*%
X190989109Y-172352939D02*
X195548992Y-172832202D01*
D12*
X190872038Y-173466803D02*
X190349914Y-173411926D01*
D11*
X190754966Y-174580668D02*
X190989109Y-172352939D01*
D10*
X192977482Y-173285891D02*
X192893859Y-174081509D01*
X192977482Y-173285891D02*
X192893859Y-174081509D01*
X192935671Y-173683700D02*
X192438410Y-173631436D01*
X192935671Y-173683700D02*
X192438410Y-173631436D01*
X192893859Y-174081509D02*
X193532384Y-173746417D01*
X192893859Y-174081509D02*
X193532384Y-173746417D01*
X193532384Y-173746417D02*
X192977482Y-173285891D01*
X193532384Y-173746417D02*
X192977482Y-173285891D01*
X193532384Y-173746417D02*
X193589874Y-173199430D01*
X193532384Y-173746417D02*
X193589874Y-173199430D01*
X193532384Y-173746417D02*
X193474893Y-174293404D01*
X193532384Y-173746417D02*
X193474893Y-174293404D01*
X193930192Y-173788228D02*
X193532384Y-173746417D01*
X193930192Y-173788228D02*
X193532384Y-173746417D01*
D11*
X194832937Y-172756941D02*
X194598793Y-174984670D01*
D13*
X194825620Y-172826558D02*
X194606110Y-174915054D01*
D11*
X195548992Y-172832202D02*
X195314849Y-175059931D01*
X195314849Y-175059931D02*
X190754966Y-174580668D01*
D12*
X196317045Y-174039097D02*
X195431920Y-173946066D01*
D11*
%TO.C,D15*%
X186470885Y-123722257D02*
X181885885Y-123722257D01*
D12*
X186470885Y-122602257D02*
X186995885Y-122602257D01*
D11*
X186470885Y-121482257D02*
X186470885Y-123722257D01*
D10*
X184395885Y-123002257D02*
X184395885Y-122202257D01*
X184395885Y-123002257D02*
X184395885Y-122202257D01*
X184395885Y-122602257D02*
X184895885Y-122602257D01*
X184395885Y-122602257D02*
X184895885Y-122602257D01*
X184395885Y-122202257D02*
X183795885Y-122602257D01*
X184395885Y-122202257D02*
X183795885Y-122602257D01*
X183795885Y-122602257D02*
X184395885Y-123002257D01*
X183795885Y-122602257D02*
X184395885Y-123002257D01*
X183795885Y-122602257D02*
X183795885Y-123152257D01*
X183795885Y-122602257D02*
X183795885Y-123152257D01*
X183795885Y-122602257D02*
X183795885Y-122052257D01*
X183795885Y-122602257D02*
X183795885Y-122052257D01*
X183395885Y-122602257D02*
X183795885Y-122602257D01*
X183395885Y-122602257D02*
X183795885Y-122602257D01*
D11*
X182605885Y-123722257D02*
X182605885Y-121482257D01*
D13*
X182605885Y-123652257D02*
X182605885Y-121552257D01*
D11*
X181885885Y-123722257D02*
X181885885Y-121482257D01*
X181885885Y-121482257D02*
X186470885Y-121482257D01*
D12*
X180995885Y-122602257D02*
X181885885Y-122602257D01*
D11*
%TO.C,D2_r1*%
X256770885Y-142222257D02*
X252185885Y-142222257D01*
D12*
X256770885Y-141102257D02*
X257295885Y-141102257D01*
D11*
X256770885Y-139982257D02*
X256770885Y-142222257D01*
D10*
X254695885Y-141502257D02*
X254695885Y-140702257D01*
X254695885Y-141502257D02*
X254695885Y-140702257D01*
X254695885Y-141102257D02*
X255195885Y-141102257D01*
X254695885Y-141102257D02*
X255195885Y-141102257D01*
X254695885Y-140702257D02*
X254095885Y-141102257D01*
X254695885Y-140702257D02*
X254095885Y-141102257D01*
X254095885Y-141102257D02*
X254695885Y-141502257D01*
X254095885Y-141102257D02*
X254695885Y-141502257D01*
X254095885Y-141102257D02*
X254095885Y-141652257D01*
X254095885Y-141102257D02*
X254095885Y-141652257D01*
X254095885Y-141102257D02*
X254095885Y-140552257D01*
X254095885Y-141102257D02*
X254095885Y-140552257D01*
X253695885Y-141102257D02*
X254095885Y-141102257D01*
X253695885Y-141102257D02*
X254095885Y-141102257D01*
D11*
X252905885Y-142222257D02*
X252905885Y-139982257D01*
D13*
X252905885Y-142152257D02*
X252905885Y-140052257D01*
D11*
X252185885Y-142222257D02*
X252185885Y-139982257D01*
X252185885Y-139982257D02*
X256770885Y-139982257D01*
D12*
X251295885Y-141102257D02*
X252185885Y-141102257D01*
D11*
%TO.C,S2_r1*%
X250345885Y-129202257D02*
X255445885Y-129202257D01*
X254245885Y-133402257D02*
X259345885Y-133402257D01*
X250345885Y-129202257D02*
G75*
G03*
X248345885Y-131202257I-1J-1999999D01*
G01*
X254245885Y-133402257D02*
G75*
G03*
X252245885Y-135402257I-1J-1999999D01*
G01*
%TO.C,S2*%
X101897185Y-121900952D02*
X106969246Y-121367856D01*
X106214840Y-125670283D02*
X111286901Y-125137187D01*
X101897185Y-121900952D02*
G75*
G03*
X100117198Y-124099052I209056J-1989043D01*
G01*
X106214840Y-125670282D02*
G75*
G03*
X104434853Y-127868383I209056J-1989043D01*
G01*
%TO.C,D17_r1*%
X329728971Y-171502920D02*
X325169088Y-171023657D01*
D12*
X329846042Y-170389056D02*
X330368166Y-170443933D01*
D11*
X329963114Y-169275191D02*
X329728971Y-171502920D01*
D10*
X327740598Y-170569968D02*
X327824221Y-169774350D01*
X327740598Y-170569968D02*
X327824221Y-169774350D01*
X327782409Y-170172159D02*
X328279670Y-170224423D01*
X327782409Y-170172159D02*
X328279670Y-170224423D01*
X327824221Y-169774350D02*
X327185696Y-170109442D01*
X327824221Y-169774350D02*
X327185696Y-170109442D01*
X327185696Y-170109442D02*
X327740598Y-170569968D01*
X327185696Y-170109442D02*
X327740598Y-170569968D01*
X327185696Y-170109442D02*
X327128206Y-170656429D01*
X327185696Y-170109442D02*
X327128206Y-170656429D01*
X327185696Y-170109442D02*
X327243187Y-169562455D01*
X327185696Y-170109442D02*
X327243187Y-169562455D01*
X326787888Y-170067631D02*
X327185696Y-170109442D01*
X326787888Y-170067631D02*
X327185696Y-170109442D01*
D11*
X325885143Y-171098918D02*
X326119287Y-168871189D01*
D13*
X325892460Y-171029301D02*
X326111970Y-168940805D01*
D11*
X325169088Y-171023657D02*
X325403231Y-168795928D01*
X325403231Y-168795928D02*
X329963114Y-169275191D01*
D12*
X324401035Y-169816762D02*
X325286160Y-169909793D01*
D11*
%TO.C,D11*%
X167970885Y-121822257D02*
X163385885Y-121822257D01*
D12*
X167970885Y-120702257D02*
X168495885Y-120702257D01*
D11*
X167970885Y-119582257D02*
X167970885Y-121822257D01*
D10*
X165895885Y-121102257D02*
X165895885Y-120302257D01*
X165895885Y-121102257D02*
X165895885Y-120302257D01*
X165895885Y-120702257D02*
X166395885Y-120702257D01*
X165895885Y-120702257D02*
X166395885Y-120702257D01*
X165895885Y-120302257D02*
X165295885Y-120702257D01*
X165895885Y-120302257D02*
X165295885Y-120702257D01*
X165295885Y-120702257D02*
X165895885Y-121102257D01*
X165295885Y-120702257D02*
X165895885Y-121102257D01*
X165295885Y-120702257D02*
X165295885Y-121252257D01*
X165295885Y-120702257D02*
X165295885Y-121252257D01*
X165295885Y-120702257D02*
X165295885Y-120152257D01*
X165295885Y-120702257D02*
X165295885Y-120152257D01*
X164895885Y-120702257D02*
X165295885Y-120702257D01*
X164895885Y-120702257D02*
X165295885Y-120702257D01*
D11*
X164105885Y-121822257D02*
X164105885Y-119582257D01*
D13*
X164105885Y-121752257D02*
X164105885Y-119652257D01*
D11*
X163385885Y-121822257D02*
X163385885Y-119582257D01*
X163385885Y-119582257D02*
X167970885Y-119582257D01*
D12*
X162495885Y-120702257D02*
X163385885Y-120702257D01*
D11*
%TO.C,D5*%
X127053584Y-122796299D02*
X122493701Y-123275562D01*
D12*
X126936512Y-121682434D02*
X127458636Y-121627557D01*
D11*
X126819441Y-120568570D02*
X127053584Y-122796299D01*
D10*
X124914691Y-122297140D02*
X124831068Y-121501522D01*
X124914691Y-122297140D02*
X124831068Y-121501522D01*
X124872879Y-121899331D02*
X125370140Y-121847067D01*
X124872879Y-121899331D02*
X125370140Y-121847067D01*
X124831068Y-121501522D02*
X124276166Y-121962048D01*
X124831068Y-121501522D02*
X124276166Y-121962048D01*
X124276166Y-121962048D02*
X124914691Y-122297140D01*
X124276166Y-121962048D02*
X124914691Y-122297140D01*
X124276166Y-121962048D02*
X124333657Y-122509035D01*
X124276166Y-121962048D02*
X124333657Y-122509035D01*
X124276166Y-121962048D02*
X124218676Y-121415061D01*
X124276166Y-121962048D02*
X124218676Y-121415061D01*
X123878358Y-122003859D02*
X124276166Y-121962048D01*
X123878358Y-122003859D02*
X124276166Y-121962048D01*
D11*
X123209757Y-123200301D02*
X122975613Y-120972572D01*
D13*
X123202440Y-123130685D02*
X122982930Y-121042189D01*
D11*
X122493701Y-123275562D02*
X122259558Y-121047833D01*
X122259558Y-121047833D02*
X126819441Y-120568570D01*
D12*
X121491505Y-122254728D02*
X122376630Y-122161697D01*
D11*
%TO.C,S11*%
X161545885Y-108802257D02*
X166645885Y-108802257D01*
X165445885Y-113002257D02*
X170545885Y-113002257D01*
X161545885Y-108802257D02*
G75*
G03*
X159545885Y-110802257I-1J-1999999D01*
G01*
X165445885Y-113002257D02*
G75*
G03*
X163445885Y-115002257I-1J-1999999D01*
G01*
%TO.C,S14_r1*%
X307294494Y-146500917D02*
X312366555Y-147034012D01*
X310734109Y-151085570D02*
X315806171Y-151618665D01*
X307294494Y-146500917D02*
G75*
G03*
X305096393Y-148280904I-209058J-1989043D01*
G01*
X310734109Y-151085570D02*
G75*
G03*
X308536009Y-152865557I-209057J-1989043D01*
G01*
%TO.C,D14*%
X170637545Y-173948028D02*
X175166096Y-173230776D01*
D12*
X170812752Y-175054239D02*
X170294215Y-175136367D01*
D11*
X170987958Y-176160450D02*
X170637545Y-173948028D01*
D10*
X172799631Y-174334562D02*
X172924779Y-175124713D01*
X172799631Y-174334562D02*
X172924779Y-175124713D01*
X172862205Y-174729638D02*
X172368361Y-174807855D01*
X172862205Y-174729638D02*
X172368361Y-174807855D01*
X172924779Y-175124713D02*
X173454818Y-174635777D01*
X172924779Y-175124713D02*
X173454818Y-174635777D01*
X173454818Y-174635777D02*
X172799631Y-174334562D01*
X173454818Y-174635777D02*
X172799631Y-174334562D01*
X173454818Y-174635777D02*
X173368779Y-174092548D01*
X173454818Y-174635777D02*
X173368779Y-174092548D01*
X173454818Y-174635777D02*
X173540857Y-175179006D01*
X173454818Y-174635777D02*
X173540857Y-175179006D01*
X173849893Y-174573203D02*
X173454818Y-174635777D01*
X173849893Y-174573203D02*
X173454818Y-174635777D01*
D11*
X174454960Y-173343409D02*
X174805374Y-175555831D01*
D13*
X174465911Y-173412547D02*
X174794423Y-175486693D01*
D11*
X175166096Y-173230776D02*
X175516509Y-175443198D01*
X175516509Y-175443198D02*
X170987958Y-176160450D01*
D12*
X176220345Y-174197760D02*
X175341303Y-174336987D01*
D11*
%TO.C,D11_r1*%
X294075114Y-152334360D02*
X289496398Y-152094400D01*
D12*
X294133731Y-151215895D02*
X294658011Y-151243371D01*
D11*
X294192347Y-150097430D02*
X294075114Y-152334360D01*
D10*
X292040640Y-151506750D02*
X292082509Y-150707846D01*
X292040640Y-151506750D02*
X292082509Y-150707846D01*
X292061574Y-151107298D02*
X292560889Y-151133466D01*
X292061574Y-151107298D02*
X292560889Y-151133466D01*
X292082509Y-150707846D02*
X291462397Y-151075896D01*
X292082509Y-150707846D02*
X291462397Y-151075896D01*
X291462397Y-151075896D02*
X292040640Y-151506750D01*
X291462397Y-151075896D02*
X292040640Y-151506750D01*
X291462397Y-151075896D02*
X291433612Y-151625143D01*
X291462397Y-151075896D02*
X291433612Y-151625143D01*
X291462397Y-151075896D02*
X291491181Y-150526650D01*
X291462397Y-151075896D02*
X291491181Y-150526650D01*
X291062945Y-151054962D02*
X291462397Y-151075896D01*
X291062945Y-151054962D02*
X291462397Y-151075896D01*
D11*
X290215411Y-152132082D02*
X290332644Y-149895152D01*
D13*
X290219075Y-152062178D02*
X290328980Y-149965056D01*
D11*
X289496398Y-152094400D02*
X289613631Y-149857470D01*
X289613631Y-149857470D02*
X294192347Y-150097430D01*
D12*
X288666234Y-150929356D02*
X289555014Y-150975935D01*
D11*
%TO.C,S4*%
X105759510Y-158648537D02*
X110831571Y-158115441D01*
X110077165Y-162417868D02*
X115149226Y-161884772D01*
X105759510Y-158648537D02*
G75*
G03*
X103979523Y-160846637I209056J-1989043D01*
G01*
X110077165Y-162417867D02*
G75*
G03*
X108297178Y-164615968I209056J-1989043D01*
G01*
%TD*%
M02*
