%TF.GenerationSoftware,KiCad,Pcbnew,7.0.9*%
%TF.CreationDate,2024-02-19T09:25:44+08:00*%
%TF.ProjectId,ascend,61736365-6e64-42e6-9b69-6361645f7063,v1.2*%
%TF.SameCoordinates,Original*%
%TF.FileFunction,Paste,Bot*%
%TF.FilePolarity,Positive*%
%FSLAX46Y46*%
G04 Gerber Fmt 4.6, Leading zero omitted, Abs format (unit mm)*
G04 Created by KiCad (PCBNEW 7.0.9) date 2024-02-19 09:25:44*
%MOMM*%
%LPD*%
G01*
G04 APERTURE LIST*
G04 Aperture macros list*
%AMRoundRect*
0 Rectangle with rounded corners*
0 $1 Rounding radius*
0 $2 $3 $4 $5 $6 $7 $8 $9 X,Y pos of 4 corners*
0 Add a 4 corners polygon primitive as box body*
4,1,4,$2,$3,$4,$5,$6,$7,$8,$9,$2,$3,0*
0 Add four circle primitives for the rounded corners*
1,1,$1+$1,$2,$3*
1,1,$1+$1,$4,$5*
1,1,$1+$1,$6,$7*
1,1,$1+$1,$8,$9*
0 Add four rect primitives between the rounded corners*
20,1,$1+$1,$2,$3,$4,$5,0*
20,1,$1+$1,$4,$5,$6,$7,0*
20,1,$1+$1,$6,$7,$8,$9,0*
20,1,$1+$1,$8,$9,$2,$3,0*%
G04 Aperture macros list end*
%ADD10RoundRect,0.300000X0.600000X0.300000X-0.600000X0.300000X-0.600000X-0.300000X0.600000X-0.300000X0*%
%ADD11RoundRect,0.300000X0.700000X0.300000X-0.700000X0.300000X-0.700000X-0.300000X0.700000X-0.300000X0*%
%ADD12RoundRect,0.250000X-1.123913X-0.887380X0.914856X-1.101664X1.123913X0.887380X-0.914856X1.101664X0*%
%ADD13RoundRect,0.250000X-0.971259X-1.052274X1.075931X-0.944985X0.971259X1.052274X-1.075931X0.944985X0*%
%ADD14RoundRect,0.250000X-1.075931X-0.944985X0.971259X-1.052274X1.075931X0.944985X-0.971259X1.052274X0*%
%ADD15RoundRect,0.300000X0.628072X0.235639X-0.565355X0.361074X-0.628072X-0.235639X0.565355X-0.361074X0*%
%ADD16RoundRect,0.300000X0.727524X0.225187X-0.664807X0.371526X-0.727524X-0.225187X0.664807X-0.371526X0*%
%ADD17RoundRect,0.300000X0.614879X0.268187X-0.583477X0.330990X-0.614879X-0.268187X0.583477X-0.330990X0*%
%ADD18RoundRect,0.300000X0.714741X0.262954X-0.683340X0.336224X-0.714741X-0.262954X0.683340X-0.336224X0*%
%ADD19RoundRect,0.250000X1.168815X0.827343X-0.855946X1.148034X-1.168815X-0.827343X0.855946X-1.148034X0*%
%ADD20RoundRect,0.300000X0.565355X0.361074X-0.628072X0.235639X-0.565355X-0.361074X0.628072X-0.235639X0*%
%ADD21RoundRect,0.300000X0.664807X0.371526X-0.727524X0.225187X-0.664807X-0.371526X0.727524X-0.225187X0*%
%ADD22RoundRect,0.250000X-0.914856X-1.101664X1.123913X-0.887380X0.914856X1.101664X-1.123913X0.887380X0*%
%ADD23RoundRect,0.250000X-1.025000X-1.000000X1.025000X-1.000000X1.025000X1.000000X-1.025000X1.000000X0*%
%ADD24RoundRect,0.300000X0.583477X0.330990X-0.614879X0.268187X-0.583477X-0.330990X0.614879X-0.268187X0*%
%ADD25RoundRect,0.300000X0.683340X0.336224X-0.714741X0.262954X-0.683340X-0.336224X0.714741X-0.262954X0*%
%ADD26RoundRect,0.300000X-0.639543X-0.202446X0.545683X-0.390167X0.639543X0.202446X-0.545683X0.390167X0*%
%ADD27RoundRect,0.300000X-0.738312X-0.186802X0.644451X-0.405811X0.738312X0.186802X-0.644451X0.405811X0*%
%ADD28RoundRect,0.300000X-0.565355X-0.361074X0.628072X-0.235639X0.565355X0.361074X-0.628072X0.235639X0*%
%ADD29RoundRect,0.300000X-0.664807X-0.371526X0.727524X-0.225187X0.664807X0.371526X-0.727524X0.225187X0*%
%ADD30RoundRect,0.250000X0.855946X1.148034X-1.168815X0.827343X-0.855946X-1.148034X1.168815X-0.827343X0*%
%ADD31RoundRect,0.250000X1.123913X0.887380X-0.914856X1.101664X-1.123913X-0.887380X0.914856X-1.101664X0*%
%ADD32RoundRect,0.250000X0.914856X1.101664X-1.123913X0.887380X-0.914856X-1.101664X1.123913X-0.887380X0*%
%ADD33RoundRect,0.300000X-0.628072X-0.235639X0.565355X-0.361074X0.628072X0.235639X-0.565355X0.361074X0*%
%ADD34RoundRect,0.300000X-0.727524X-0.225187X0.664807X-0.371526X0.727524X0.225187X-0.664807X0.371526X0*%
%ADD35RoundRect,0.300000X-0.545683X-0.390167X0.639543X-0.202446X0.545683X0.390167X-0.639543X0.202446X0*%
%ADD36RoundRect,0.300000X-0.644451X-0.405811X0.738312X-0.186802X0.644451X0.405811X-0.738312X0.186802X0*%
G04 APERTURE END LIST*
D10*
%TO.C,D5_r1*%
X270845885Y-120702257D03*
D11*
X275145885Y-120702257D03*
%TD*%
D10*
%TO.C,D12*%
X163545885Y-139202257D03*
D11*
X167845885Y-139202257D03*
%TD*%
D12*
%TO.C,S16_r1*%
X323209515Y-143508094D03*
X336331202Y-142333248D03*
%TD*%
D13*
%TO.C,S10*%
X139306789Y-143932827D03*
X152083140Y-140719761D03*
%TD*%
D10*
%TO.C,D13*%
X163545885Y-157702257D03*
D11*
X167845885Y-157702257D03*
%TD*%
D14*
%TO.C,S10_r1*%
X286099456Y-124719102D03*
X299141673Y-122859130D03*
%TD*%
D15*
%TO.C,D18_r1*%
X345579111Y-155351233D03*
D16*
X349855555Y-155800706D03*
%TD*%
D17*
%TO.C,D10_r1*%
X290683012Y-132509662D03*
D18*
X294977119Y-132734707D03*
%TD*%
D15*
%TO.C,D12_r1*%
X311907201Y-121747474D03*
D16*
X316183645Y-122196947D03*
%TD*%
D19*
%TO.C,S8_r1*%
X266698370Y-187793119D03*
X255190266Y-183742991D03*
%TD*%
D17*
%TO.C,D9_r1*%
X291651226Y-114035016D03*
D18*
X295945333Y-114260061D03*
%TD*%
D20*
%TO.C,D3*%
X107063894Y-151925361D03*
D21*
X111340338Y-151475888D03*
%TD*%
D10*
%TO.C,D1_r1*%
X252345885Y-122602257D03*
D11*
X256645885Y-122602257D03*
%TD*%
D22*
%TO.C,S5*%
X116789916Y-115167352D03*
X129380598Y-111290026D03*
%TD*%
D23*
%TO.C,S7_r1*%
X265860885Y-150162257D03*
X278787885Y-147622257D03*
%TD*%
D12*
%TO.C,S13_r1*%
X305803878Y-132126360D03*
X318925565Y-130951514D03*
%TD*%
D24*
%TO.C,D8*%
X142743141Y-114252304D03*
D25*
X147037248Y-114027259D03*
%TD*%
D14*
%TO.C,S9_r1*%
X287067673Y-106244455D03*
X300109890Y-104384483D03*
%TD*%
D22*
%TO.C,S7*%
X120602517Y-151920163D03*
X133193199Y-148042837D03*
%TD*%
D23*
%TO.C,S13*%
X158560885Y-150162257D03*
X171487885Y-147622257D03*
%TD*%
D26*
%TO.C,D8_r1*%
X267302325Y-175030468D03*
D27*
X263055265Y-174357800D03*
%TD*%
D25*
%TO.C,D10*%
X148973679Y-150976554D03*
D24*
X144679572Y-151201599D03*
%TD*%
%TO.C,D9*%
X143711359Y-132726951D03*
D25*
X148005466Y-132501906D03*
%TD*%
D20*
%TO.C,D7*%
X126403306Y-158942284D03*
D21*
X130679750Y-158492811D03*
%TD*%
D10*
%TO.C,D3_r1*%
X252345885Y-159602257D03*
D11*
X256645885Y-159602257D03*
%TD*%
D10*
%TO.C,D20*%
X232346385Y-163174757D03*
D11*
X236646385Y-163174757D03*
%TD*%
D23*
%TO.C,S16*%
X177060885Y-133562257D03*
X189987885Y-131022257D03*
%TD*%
%TO.C,S12*%
X158560885Y-131662257D03*
X171487885Y-129122257D03*
%TD*%
D22*
%TO.C,S6*%
X118723694Y-133566007D03*
X131314376Y-129688681D03*
%TD*%
D10*
%TO.C,D16*%
X182045885Y-141102257D03*
D11*
X186345885Y-141102257D03*
%TD*%
D28*
%TO.C,D4_r1*%
X247242123Y-173482509D03*
D29*
X242965679Y-173931982D03*
%TD*%
D20*
%TO.C,D4*%
X108997672Y-170324017D03*
D21*
X113274116Y-169874544D03*
%TD*%
D30*
%TO.C,S14*%
X178552754Y-186686649D03*
X166356338Y-186390949D03*
%TD*%
D20*
%TO.C,D2*%
X105130119Y-133526706D03*
D21*
X109406563Y-133077233D03*
%TD*%
D15*
%TO.C,D14_r1*%
X308039648Y-158544784D03*
D16*
X312316092Y-158994257D03*
%TD*%
D20*
%TO.C,D1*%
X88863843Y-155748728D03*
D21*
X93140287Y-155299255D03*
%TD*%
D23*
%TO.C,S1_r1*%
X247360885Y-115062257D03*
X260287885Y-112522257D03*
%TD*%
D22*
%TO.C,S1*%
X83118007Y-148771112D03*
X95708689Y-144893786D03*
%TD*%
D10*
%TO.C,D7_r1*%
X270845885Y-157702257D03*
D11*
X275145885Y-157702257D03*
%TD*%
D13*
%TO.C,S8*%
X137370359Y-106983533D03*
X150146710Y-103770467D03*
%TD*%
D31*
%TO.C,S18*%
X195337614Y-186706106D03*
X183633314Y-183263816D03*
%TD*%
D15*
%TO.C,D13_r1*%
X309973427Y-140146129D03*
D16*
X314249871Y-140595602D03*
%TD*%
D22*
%TO.C,S3*%
X101318059Y-144947740D03*
X113908741Y-141070414D03*
%TD*%
D10*
%TO.C,D6_r1*%
X270845885Y-139202257D03*
D11*
X275145885Y-139202257D03*
%TD*%
D10*
%TO.C,D19*%
X202045885Y-163174757D03*
D11*
X206345885Y-163174757D03*
%TD*%
D12*
%TO.C,S17_r1*%
X321253487Y-161879272D03*
X334375174Y-160704426D03*
%TD*%
D20*
%TO.C,D6*%
X124469530Y-140543627D03*
D21*
X128745974Y-140094154D03*
%TD*%
D23*
%TO.C,S17*%
X177060885Y-152062257D03*
X189987885Y-149522257D03*
%TD*%
D12*
%TO.C,S18_r1*%
X341387315Y-147303986D03*
X354509002Y-146129140D03*
%TD*%
D15*
%TO.C,D16_r1*%
X327379061Y-151527864D03*
D16*
X331655505Y-151977337D03*
%TD*%
D23*
%TO.C,S6_r1*%
X265860885Y-131662257D03*
X278787885Y-129122257D03*
%TD*%
D14*
%TO.C,S11_r1*%
X285131241Y-143193747D03*
X298173458Y-141333775D03*
%TD*%
D23*
%TO.C,S5_r1*%
X265860885Y-113162257D03*
X278787885Y-110622257D03*
%TD*%
%TO.C,S3_r1*%
X247360885Y-152062257D03*
X260287885Y-149522257D03*
%TD*%
D13*
%TO.C,S9*%
X138338575Y-125458179D03*
X151114926Y-122245113D03*
%TD*%
D23*
%TO.C,S15*%
X177010885Y-115062257D03*
X189937885Y-112522257D03*
%TD*%
D12*
%TO.C,S15_r1*%
X325143289Y-125109439D03*
X338264976Y-123934593D03*
%TD*%
D15*
%TO.C,D15_r1*%
X329312836Y-133129209D03*
D16*
X333589280Y-133578682D03*
%TD*%
D12*
%TO.C,S12_r1*%
X307737657Y-113727704D03*
X320859344Y-112552858D03*
%TD*%
D32*
%TO.C,S4_r1*%
X249961967Y-185966599D03*
X237797742Y-185032992D03*
%TD*%
D10*
%TO.C,D17*%
X182045885Y-159602257D03*
D11*
X186345885Y-159602257D03*
%TD*%
D33*
%TO.C,D18*%
X195272797Y-173929342D03*
D34*
X190996353Y-173479869D03*
%TD*%
D10*
%TO.C,D15*%
X182045885Y-122602257D03*
D11*
X186345885Y-122602257D03*
%TD*%
D10*
%TO.C,D2_r1*%
X252345885Y-141102257D03*
D11*
X256645885Y-141102257D03*
%TD*%
D23*
%TO.C,S2_r1*%
X247360885Y-133562257D03*
X260287885Y-131022257D03*
%TD*%
D22*
%TO.C,S2*%
X99384281Y-126549085D03*
X111974963Y-122671759D03*
%TD*%
D15*
%TO.C,D17_r1*%
X325445283Y-169926517D03*
D16*
X329721727Y-170375990D03*
%TD*%
D10*
%TO.C,D11*%
X163545885Y-120702257D03*
D11*
X167845885Y-120702257D03*
%TD*%
D20*
%TO.C,D5*%
X122535753Y-122144973D03*
D21*
X126812197Y-121695500D03*
%TD*%
D23*
%TO.C,S11*%
X158560885Y-113162257D03*
X171487885Y-110622257D03*
%TD*%
D12*
%TO.C,S14_r1*%
X303870102Y-150525015D03*
X316991789Y-149350169D03*
%TD*%
D35*
%TO.C,D14*%
X175183273Y-174362017D03*
D36*
X170936213Y-175034685D03*
%TD*%
D17*
%TO.C,D11_r1*%
X289714795Y-150984308D03*
D18*
X294008902Y-151209353D03*
%TD*%
D22*
%TO.C,S4*%
X103246606Y-163296670D03*
X115837288Y-159419344D03*
%TD*%
M02*
