%TF.GenerationSoftware,KiCad,Pcbnew,7.0.9*%
%TF.CreationDate,2024-02-19T09:25:44+08:00*%
%TF.ProjectId,ascend,61736365-6e64-42e6-9b69-6361645f7063,v1.2*%
%TF.SameCoordinates,Original*%
%TF.FileFunction,Copper,L1,Top*%
%TF.FilePolarity,Positive*%
%FSLAX46Y46*%
G04 Gerber Fmt 4.6, Leading zero omitted, Abs format (unit mm)*
G04 Created by KiCad (PCBNEW 7.0.9) date 2024-02-19 09:25:44*
%MOMM*%
%LPD*%
G01*
G04 APERTURE LIST*
G04 Aperture macros list*
%AMRoundRect*
0 Rectangle with rounded corners*
0 $1 Rounding radius*
0 $2 $3 $4 $5 $6 $7 $8 $9 X,Y pos of 4 corners*
0 Add a 4 corners polygon primitive as box body*
4,1,4,$2,$3,$4,$5,$6,$7,$8,$9,$2,$3,0*
0 Add four circle primitives for the rounded corners*
1,1,$1+$1,$2,$3*
1,1,$1+$1,$4,$5*
1,1,$1+$1,$6,$7*
1,1,$1+$1,$8,$9*
0 Add four rect primitives between the rounded corners*
20,1,$1+$1,$2,$3,$4,$5,0*
20,1,$1+$1,$4,$5,$6,$7,0*
20,1,$1+$1,$6,$7,$8,$9,0*
20,1,$1+$1,$8,$9,$2,$3,0*%
%AMHorizOval*
0 Thick line with rounded ends*
0 $1 width*
0 $2 $3 position (X,Y) of the first rounded end (center of the circle)*
0 $4 $5 position (X,Y) of the second rounded end (center of the circle)*
0 Add line between two ends*
20,1,$1,$2,$3,$4,$5,0*
0 Add two circle primitives to create the rounded ends*
1,1,$1,$2,$3*
1,1,$1,$4,$5*%
%AMRotRect*
0 Rectangle, with rotation*
0 The origin of the aperture is its center*
0 $1 length*
0 $2 width*
0 $3 Rotation angle, in degrees counterclockwise*
0 Add horizontal line*
21,1,$1,$2,0,0,$3*%
G04 Aperture macros list end*
%TA.AperFunction,ComponentPad*%
%ADD10C,1.524000*%
%TD*%
%TA.AperFunction,ComponentPad*%
%ADD11R,1.600000X1.600000*%
%TD*%
%TA.AperFunction,ComponentPad*%
%ADD12O,1.600000X1.600000*%
%TD*%
%TA.AperFunction,ComponentPad*%
%ADD13RoundRect,0.250000X0.750000X-0.600000X0.750000X0.600000X-0.750000X0.600000X-0.750000X-0.600000X0*%
%TD*%
%TA.AperFunction,ComponentPad*%
%ADD14O,2.000000X1.700000*%
%TD*%
%TA.AperFunction,ComponentPad*%
%ADD15R,2.000000X2.000000*%
%TD*%
%TA.AperFunction,ComponentPad*%
%ADD16C,2.000000*%
%TD*%
%TA.AperFunction,ComponentPad*%
%ADD17R,3.000000X2.500000*%
%TD*%
%TA.AperFunction,ComponentPad*%
%ADD18C,3.600000*%
%TD*%
%TA.AperFunction,ComponentPad*%
%ADD19RotRect,1.600000X1.600000X174.000000*%
%TD*%
%TA.AperFunction,ComponentPad*%
%ADD20HorizOval,1.600000X0.000000X0.000000X0.000000X0.000000X0*%
%TD*%
%TA.AperFunction,ComponentPad*%
%ADD21RotRect,1.600000X1.600000X177.000000*%
%TD*%
%TA.AperFunction,ComponentPad*%
%ADD22HorizOval,1.600000X0.000000X0.000000X0.000000X0.000000X0*%
%TD*%
%TA.AperFunction,ComponentPad*%
%ADD23C,1.500000*%
%TD*%
%TA.AperFunction,ComponentPad*%
%ADD24RotRect,1.600000X1.600000X186.000000*%
%TD*%
%TA.AperFunction,ComponentPad*%
%ADD25HorizOval,1.600000X0.000000X0.000000X0.000000X0.000000X0*%
%TD*%
%TA.AperFunction,ComponentPad*%
%ADD26RoundRect,0.250000X-0.750000X0.600000X-0.750000X-0.600000X0.750000X-0.600000X0.750000X0.600000X0*%
%TD*%
%TA.AperFunction,ComponentPad*%
%ADD27RotRect,1.600000X1.600000X183.000000*%
%TD*%
%TA.AperFunction,ComponentPad*%
%ADD28HorizOval,1.600000X0.000000X0.000000X0.000000X0.000000X0*%
%TD*%
%TA.AperFunction,ComponentPad*%
%ADD29RotRect,1.600000X1.600000X351.000000*%
%TD*%
%TA.AperFunction,ComponentPad*%
%ADD30HorizOval,1.600000X0.000000X0.000000X0.000000X0.000000X0*%
%TD*%
%TA.AperFunction,ComponentPad*%
%ADD31C,1.397000*%
%TD*%
%TA.AperFunction,ComponentPad*%
%ADD32RotRect,1.600000X1.600000X6.000000*%
%TD*%
%TA.AperFunction,ComponentPad*%
%ADD33HorizOval,1.600000X0.000000X0.000000X0.000000X0.000000X0*%
%TD*%
%TA.AperFunction,ComponentPad*%
%ADD34RotRect,1.600000X1.600000X354.000000*%
%TD*%
%TA.AperFunction,ComponentPad*%
%ADD35HorizOval,1.600000X0.000000X0.000000X0.000000X0.000000X0*%
%TD*%
%TA.AperFunction,ComponentPad*%
%ADD36RotRect,1.600000X1.600000X9.000000*%
%TD*%
%TA.AperFunction,ComponentPad*%
%ADD37HorizOval,1.600000X0.000000X0.000000X0.000000X0.000000X0*%
%TD*%
%TA.AperFunction,ViaPad*%
%ADD38C,0.457200*%
%TD*%
%TA.AperFunction,Conductor*%
%ADD39C,0.254000*%
%TD*%
%TA.AperFunction,Conductor*%
%ADD40C,0.400000*%
%TD*%
G04 APERTURE END LIST*
D10*
%TO.P,Pro_Micro_nRF58240_flip2,1,TX0/P0.06*%
%TO.N,unconnected-(Pro_Micro_nRF58240_flip2-TX0{slash}P0.06-Pad1)*%
X241197285Y-109069257D03*
%TO.P,Pro_Micro_nRF58240_flip2,2,RX1/P0.08*%
%TO.N,unconnected-(Pro_Micro_nRF58240_flip2-RX1{slash}P0.08-Pad2)*%
X241197285Y-111609257D03*
%TO.P,Pro_Micro_nRF58240_flip2,3,GND*%
%TO.N,GND_r*%
X241197285Y-114149257D03*
%TO.P,Pro_Micro_nRF58240_flip2,4,GND*%
X241197285Y-116689257D03*
%TO.P,Pro_Micro_nRF58240_flip2,5,P0.17*%
%TO.N,SDA_r*%
X241197285Y-119229257D03*
%TO.P,Pro_Micro_nRF58240_flip2,6,P0.20*%
%TO.N,SCL_r*%
X241197285Y-121769257D03*
%TO.P,Pro_Micro_nRF58240_flip2,7,P0.22*%
%TO.N,unconnected-(Pro_Micro_nRF58240_flip2-P0.22-Pad7)*%
X241197285Y-124309257D03*
%TO.P,Pro_Micro_nRF58240_flip2,8,P0.24*%
%TO.N,Col 0_r*%
X241197285Y-126849257D03*
%TO.P,Pro_Micro_nRF58240_flip2,9,P1.00*%
%TO.N,Col 1_r*%
X241197285Y-129389257D03*
%TO.P,Pro_Micro_nRF58240_flip2,10,P0.11*%
%TO.N,Col 2_r*%
X241197285Y-131929257D03*
%TO.P,Pro_Micro_nRF58240_flip2,11,P1.04*%
%TO.N,Col 3_r*%
X241197285Y-134469257D03*
%TO.P,Pro_Micro_nRF58240_flip2,12,P1.06*%
%TO.N,Col 4_r*%
X241197285Y-137009257D03*
%TO.P,Pro_Micro_nRF58240_flip2,13,NFC1/P0.09*%
%TO.N,Row 3_r*%
X225977285Y-137009257D03*
%TO.P,Pro_Micro_nRF58240_flip2,14,NFC2/P0.10*%
%TO.N,Row 2_r*%
X225977285Y-134469257D03*
%TO.P,Pro_Micro_nRF58240_flip2,15,P1.11*%
%TO.N,Row 1_r*%
X225977285Y-131929257D03*
%TO.P,Pro_Micro_nRF58240_flip2,16,P1.13*%
%TO.N,Row 0_r*%
X225977285Y-129389257D03*
%TO.P,Pro_Micro_nRF58240_flip2,17,P1.15*%
%TO.N,unconnected-(Pro_Micro_nRF58240_flip2-P1.15-Pad17)*%
X225977285Y-126849257D03*
%TO.P,Pro_Micro_nRF58240_flip2,18,AIN0/P0.02*%
%TO.N,EC_B_r*%
X225977285Y-124309257D03*
%TO.P,Pro_Micro_nRF58240_flip2,19,AIN5/P0.29*%
%TO.N,EC_A_r*%
X225977285Y-121769257D03*
%TO.P,Pro_Micro_nRF58240_flip2,20,AIN7/P0.31*%
%TO.N,unconnected-(Pro_Micro_nRF58240_flip2-AIN7{slash}P0.31-Pad20)*%
X225977285Y-119229257D03*
%TO.P,Pro_Micro_nRF58240_flip2,21,VCC*%
%TO.N,Vout(3.3V)_r*%
X225977285Y-116689257D03*
%TO.P,Pro_Micro_nRF58240_flip2,22,RST*%
%TO.N,unconnected-(Pro_Micro_nRF58240_flip2-RST-Pad22)*%
X225977285Y-114149257D03*
%TO.P,Pro_Micro_nRF58240_flip2,23,GND*%
%TO.N,GND_r*%
X225977285Y-111609257D03*
%TO.P,Pro_Micro_nRF58240_flip2,24,BATIN/P0.04*%
%TO.N,RAW_r*%
X225977285Y-109069257D03*
%TO.P,Pro_Micro_nRF58240_flip2,25,GND*%
%TO.N,GND_r*%
X241197285Y-106529257D03*
%TO.P,Pro_Micro_nRF58240_flip2,26,BATIN*%
%TO.N,unconnected-(Pro_Micro_nRF58240_flip2-BATIN-Pad26)*%
X225957285Y-106529257D03*
%TD*%
%TO.P,Pro_Micro_nRF58240_flip1,1,TX0/P0.06*%
%TO.N,unconnected-(Pro_Micro_nRF58240_flip1-TX0{slash}P0.06-Pad1)*%
X212597285Y-109044257D03*
%TO.P,Pro_Micro_nRF58240_flip1,2,RX1/P0.08*%
%TO.N,unconnected-(Pro_Micro_nRF58240_flip1-RX1{slash}P0.08-Pad2)*%
X212597285Y-111584257D03*
%TO.P,Pro_Micro_nRF58240_flip1,3,GND*%
%TO.N,GND_l*%
X212597285Y-114124257D03*
%TO.P,Pro_Micro_nRF58240_flip1,4,GND*%
X212597285Y-116664257D03*
%TO.P,Pro_Micro_nRF58240_flip1,5,P0.17*%
%TO.N,SDA_l*%
X212597285Y-119204257D03*
%TO.P,Pro_Micro_nRF58240_flip1,6,P0.20*%
%TO.N,SCL_l*%
X212597285Y-121744257D03*
%TO.P,Pro_Micro_nRF58240_flip1,7,P0.22*%
%TO.N,unconnected-(Pro_Micro_nRF58240_flip1-P0.22-Pad7)*%
X212597285Y-124284257D03*
%TO.P,Pro_Micro_nRF58240_flip1,8,P0.24*%
%TO.N,Col 0_l*%
X212597285Y-126824257D03*
%TO.P,Pro_Micro_nRF58240_flip1,9,P1.00*%
%TO.N,Col 1_l*%
X212597285Y-129364257D03*
%TO.P,Pro_Micro_nRF58240_flip1,10,P0.11*%
%TO.N,Col 2_l*%
X212597285Y-131904257D03*
%TO.P,Pro_Micro_nRF58240_flip1,11,P1.04*%
%TO.N,Col 3_l*%
X212597285Y-134444257D03*
%TO.P,Pro_Micro_nRF58240_flip1,12,P1.06*%
%TO.N,Col 4_l*%
X212597285Y-136984257D03*
%TO.P,Pro_Micro_nRF58240_flip1,13,NFC1/P0.09*%
%TO.N,Row 3_l*%
X197377285Y-136984257D03*
%TO.P,Pro_Micro_nRF58240_flip1,14,NFC2/P0.10*%
%TO.N,Row 2_l*%
X197377285Y-134444257D03*
%TO.P,Pro_Micro_nRF58240_flip1,15,P1.11*%
%TO.N,Row 1_l*%
X197377285Y-131904257D03*
%TO.P,Pro_Micro_nRF58240_flip1,16,P1.13*%
%TO.N,Row 0_l*%
X197377285Y-129364257D03*
%TO.P,Pro_Micro_nRF58240_flip1,17,P1.15*%
%TO.N,unconnected-(Pro_Micro_nRF58240_flip1-P1.15-Pad17)*%
X197377285Y-126824257D03*
%TO.P,Pro_Micro_nRF58240_flip1,18,AIN0/P0.02*%
%TO.N,EC_B_l*%
X197377285Y-124284257D03*
%TO.P,Pro_Micro_nRF58240_flip1,19,AIN5/P0.29*%
%TO.N,EC_A_l*%
X197377285Y-121744257D03*
%TO.P,Pro_Micro_nRF58240_flip1,20,AIN7/P0.31*%
%TO.N,unconnected-(Pro_Micro_nRF58240_flip1-AIN7{slash}P0.31-Pad20)*%
X197377285Y-119204257D03*
%TO.P,Pro_Micro_nRF58240_flip1,21,VCC*%
%TO.N,Vout(3.3V)_l*%
X197377285Y-116664257D03*
%TO.P,Pro_Micro_nRF58240_flip1,22,RST*%
%TO.N,unconnected-(Pro_Micro_nRF58240_flip1-RST-Pad22)*%
X197377285Y-114124257D03*
%TO.P,Pro_Micro_nRF58240_flip1,23,GND*%
%TO.N,GND_l*%
X197377285Y-111584257D03*
%TO.P,Pro_Micro_nRF58240_flip1,24,BATIN/P0.04*%
%TO.N,RAW_l*%
X197377285Y-109044257D03*
%TO.P,Pro_Micro_nRF58240_flip1,25,GND*%
%TO.N,GND_l*%
X212597285Y-106504257D03*
%TO.P,Pro_Micro_nRF58240_flip1,26,BATIN*%
%TO.N,unconnected-(Pro_Micro_nRF58240_flip1-BATIN-Pad26)*%
X197357285Y-106504257D03*
%TD*%
D11*
%TO.P,D5_r1,1,K*%
%TO.N,Row 0_r*%
X269685885Y-120702257D03*
D12*
%TO.P,D5_r1,2,A*%
%TO.N,Net-(D5_r1-A)*%
X276270885Y-120722257D03*
%TD*%
D13*
%TO.P,BT2,1,+*%
%TO.N,Battery_Vin_r*%
X266785885Y-168672257D03*
D14*
%TO.P,BT2,2,-*%
%TO.N,GND_r*%
X266785885Y-166172257D03*
%TD*%
D11*
%TO.P,D12,1,K*%
%TO.N,Row 1_l*%
X162385885Y-139202257D03*
D12*
%TO.P,D12,2,A*%
%TO.N,Net-(D12-A)*%
X168970885Y-139222257D03*
%TD*%
D15*
%TO.P,SW2,A,A*%
%TO.N,EC_B_r*%
X226946385Y-152102257D03*
D16*
%TO.P,SW2,B,B*%
%TO.N,EC_A_r*%
X226946385Y-157102257D03*
%TO.P,SW2,C,C*%
%TO.N,GND_r*%
X226946385Y-154602257D03*
D17*
%TO.P,SW2,MP*%
%TO.N,N/C*%
X234446385Y-149002257D03*
X234446385Y-160202257D03*
D16*
%TO.P,SW2,S1,S1*%
%TO.N,Col 0_r*%
X241446385Y-152102257D03*
%TO.P,SW2,S2,S2*%
%TO.N,Net-(D20-A)*%
X241446385Y-157102257D03*
%TD*%
D18*
%TO.P,S16_r1,1,1*%
%TO.N,Col 4_r*%
X326466574Y-143850425D03*
%TO.P,S16_r1,2,2*%
%TO.N,Net-(D16_r1-A)*%
X333047290Y-141988095D03*
%TD*%
%TO.P,S10,1,1*%
%TO.N,Col 2_l*%
X142577301Y-143761427D03*
%TO.P,S10,2,2*%
%TO.N,Net-(D10-A)*%
X148785665Y-140892575D03*
%TD*%
D11*
%TO.P,D13,1,K*%
%TO.N,Row 2_l*%
X162385885Y-157702257D03*
D12*
%TO.P,D13,2,A*%
%TO.N,Net-(D13-A)*%
X168970885Y-157722257D03*
%TD*%
D18*
%TO.P,S10_r1,1,1*%
%TO.N,Col 2_r*%
X289369968Y-124890502D03*
%TO.P,S10_r1,2,2*%
%TO.N,Net-(D10_r1-A)*%
X295844199Y-122686316D03*
%TD*%
D19*
%TO.P,D18_r1,1,K*%
%TO.N,Row 3_r*%
X344425466Y-155229980D03*
D20*
%TO.P,D18_r1,2,A*%
%TO.N,Net-(D18_r1-A)*%
X350972302Y-155938191D03*
%TD*%
D21*
%TO.P,D10_r1,1,K*%
%TO.N,Row 1_r*%
X289524602Y-132448953D03*
D22*
%TO.P,D10_r1,2,A*%
%TO.N,Net-(D10_r1-A)*%
X296099530Y-132813558D03*
%TD*%
D16*
%TO.P,5feet_power2,*%
%TO.N,*%
X287977500Y-162464727D03*
X296169696Y-162822405D03*
D23*
%TO.P,5feet_power2,1*%
%TO.N,unconnected-(5feet_power2-Pad1)*%
X290075502Y-162556327D03*
%TO.P,5feet_power2,2*%
%TO.N,RAW_r*%
X292073598Y-162643566D03*
%TO.P,5feet_power2,3*%
%TO.N,Battery_Vin_r*%
X294071694Y-162730805D03*
%TD*%
D19*
%TO.P,D12_r1,1,K*%
%TO.N,Row 0_r*%
X310753556Y-121626221D03*
D20*
%TO.P,D12_r1,2,A*%
%TO.N,Net-(D12_r1-A)*%
X317300392Y-122334432D03*
%TD*%
D18*
%TO.P,S8_r1,1,1*%
%TO.N,Col 2_r*%
X263257105Y-187146829D03*
%TO.P,S8_r1,2,2*%
%TO.N,Net-(D8_r1-A)*%
X258647175Y-184290511D03*
%TD*%
D21*
%TO.P,D9_r1,1,K*%
%TO.N,Row 0_r*%
X290492816Y-113974307D03*
D22*
%TO.P,D9_r1,2,A*%
%TO.N,Net-(D9_r1-A)*%
X297067744Y-114338912D03*
%TD*%
D24*
%TO.P,D3,1,K*%
%TO.N,Row 1_l*%
X105910249Y-152046614D03*
D25*
%TO.P,D3,2,A*%
%TO.N,Net-(D3-A)*%
X112461266Y-151378184D03*
%TD*%
D11*
%TO.P,D1_r1,1,K*%
%TO.N,Row 0_r*%
X251185885Y-122602257D03*
D12*
%TO.P,D1_r1,2,A*%
%TO.N,Net-(D1_r1-A)*%
X257770885Y-122622257D03*
%TD*%
D18*
%TO.P,S5,1,1*%
%TO.N,Col 1_l*%
X120046975Y-114825021D03*
%TO.P,S5,2,2*%
%TO.N,Net-(D5-A)*%
X126096687Y-111635179D03*
%TD*%
D26*
%TO.P,BT1,1,+*%
%TO.N,Battery_Vin_l*%
X171805885Y-166172257D03*
D14*
%TO.P,BT1,2,-*%
%TO.N,GND_l*%
X171805885Y-168672257D03*
%TD*%
D18*
%TO.P,S7_r1,1,1*%
%TO.N,Col 1_r*%
X269135885Y-150162257D03*
%TO.P,S7_r1,2,2*%
%TO.N,Net-(D7_r1-A)*%
X275485885Y-147622257D03*
%TD*%
%TO.P,S13_r1,1,1*%
%TO.N,Col 3_r*%
X309060937Y-132468691D03*
%TO.P,S13_r1,2,2*%
%TO.N,Net-(D13_r1-A)*%
X315641653Y-130606361D03*
%TD*%
D27*
%TO.P,D8,1,K*%
%TO.N,Row 0_l*%
X141584731Y-114313013D03*
D28*
%TO.P,D8,2,A*%
%TO.N,Net-(D8-A)*%
X148161753Y-113988354D03*
%TD*%
D18*
%TO.P,S9_r1,1,1*%
%TO.N,Col 2_r*%
X290338185Y-106415855D03*
%TO.P,S9_r1,2,2*%
%TO.N,Net-(D9_r1-A)*%
X296812416Y-104211669D03*
%TD*%
%TO.P,S7,1,1*%
%TO.N,Col 1_l*%
X123859576Y-151577832D03*
%TO.P,S7,2,2*%
%TO.N,Net-(D7-A)*%
X129909288Y-148387990D03*
%TD*%
%TO.P,S13,1,1*%
%TO.N,Col 3_l*%
X161835885Y-150162257D03*
%TO.P,S13,2,2*%
%TO.N,Net-(D13-A)*%
X168185885Y-147622257D03*
%TD*%
D29*
%TO.P,D8_r1,1,K*%
%TO.N,Row 3_r*%
X268448043Y-175211932D03*
D30*
%TO.P,D8_r1,2,A*%
%TO.N,Net-(D8_r1-A)*%
X261947244Y-174162058D03*
%TD*%
D28*
%TO.P,D10,2,A*%
%TO.N,Net-(D10-A)*%
X150098184Y-150937649D03*
D27*
%TO.P,D10,1,K*%
%TO.N,Row 2_l*%
X143521162Y-151262308D03*
%TD*%
%TO.P,D9,1,K*%
%TO.N,Row 1_l*%
X142552949Y-132787660D03*
D28*
%TO.P,D9,2,A*%
%TO.N,Net-(D9-A)*%
X149129971Y-132463001D03*
%TD*%
D24*
%TO.P,D7,1,K*%
%TO.N,Row 2_l*%
X125249661Y-159063537D03*
D25*
%TO.P,D7,2,A*%
%TO.N,Net-(D7-A)*%
X131800678Y-158395107D03*
%TD*%
D11*
%TO.P,D3_r1,1,K*%
%TO.N,Row 2_r*%
X251185885Y-159602257D03*
D12*
%TO.P,D3_r1,2,A*%
%TO.N,Net-(D3_r1-A)*%
X257770885Y-159622257D03*
%TD*%
D11*
%TO.P,D20,1,K*%
%TO.N,Row 3_r*%
X231186385Y-163174757D03*
D12*
%TO.P,D20,2,A*%
%TO.N,Net-(D20-A)*%
X237771385Y-163194757D03*
%TD*%
D18*
%TO.P,S16,1,1*%
%TO.N,Col 4_l*%
X180335885Y-133562257D03*
%TO.P,S16,2,2*%
%TO.N,Net-(D16-A)*%
X186685885Y-131022257D03*
%TD*%
D31*
%TO.P,OL2,1,SDA*%
%TO.N,SDA_r*%
X229714504Y-141943686D03*
%TO.P,OL2,2,SCL*%
%TO.N,SCL_r*%
X232254504Y-141943686D03*
%TO.P,OL2,3,VCC*%
%TO.N,Vout(3.3V)_r*%
X234794504Y-141943686D03*
%TO.P,OL2,4,GND*%
%TO.N,GND_r*%
X237334504Y-141943686D03*
%TD*%
D18*
%TO.P,S12,1,1*%
%TO.N,Col 3_l*%
X161835885Y-131662257D03*
%TO.P,S12,2,2*%
%TO.N,Net-(D12-A)*%
X168185885Y-129122257D03*
%TD*%
%TO.P,S6,1,1*%
%TO.N,Col 1_l*%
X121980753Y-133223676D03*
%TO.P,S6,2,2*%
%TO.N,Net-(D6-A)*%
X128030465Y-130033834D03*
%TD*%
D11*
%TO.P,D16,1,K*%
%TO.N,Row 1_l*%
X180885885Y-141102257D03*
D12*
%TO.P,D16,2,A*%
%TO.N,Net-(D16-A)*%
X187470885Y-141122257D03*
%TD*%
D32*
%TO.P,D4_r1,1,K*%
%TO.N,Row 3_r*%
X248395768Y-173361256D03*
D33*
%TO.P,D4_r1,2,A*%
%TO.N,Net-(D4_r1-A)*%
X241844751Y-174029686D03*
%TD*%
D24*
%TO.P,D4,1,K*%
%TO.N,Row 2_l*%
X107844027Y-170445270D03*
D25*
%TO.P,D4,2,A*%
%TO.N,Net-(D4-A)*%
X114395044Y-169776840D03*
%TD*%
D18*
%TO.P,S14,1,1*%
%TO.N,Col 2_l*%
X175080201Y-187135401D03*
%TO.P,S14,2,2*%
%TO.N,Net-(D14-A)*%
X169813247Y-185843428D03*
%TD*%
D24*
%TO.P,D2,1,K*%
%TO.N,Row 0_l*%
X103976474Y-133647959D03*
D25*
%TO.P,D2,2,A*%
%TO.N,Net-(D2-A)*%
X110527491Y-132979529D03*
%TD*%
D19*
%TO.P,D14_r1,1,K*%
%TO.N,Row 2_r*%
X306886003Y-158423531D03*
D20*
%TO.P,D14_r1,2,A*%
%TO.N,Net-(D14_r1-A)*%
X313432839Y-159131742D03*
%TD*%
D24*
%TO.P,D1,1,K*%
%TO.N,Row 3_l*%
X87710198Y-155869981D03*
D25*
%TO.P,D1,2,A*%
%TO.N,Net-(D1-A)*%
X94261215Y-155201551D03*
%TD*%
D18*
%TO.P,S1_r1,1,1*%
%TO.N,Col 0_r*%
X250635885Y-115062257D03*
%TO.P,S1_r1,2,2*%
%TO.N,Net-(D1_r1-A)*%
X256985885Y-112522257D03*
%TD*%
%TO.P,S1,1,1*%
%TO.N,Col 0_l*%
X86375066Y-148428781D03*
%TO.P,S1,2,2*%
%TO.N,Net-(D1-A)*%
X92424778Y-145238939D03*
%TD*%
D11*
%TO.P,D7_r1,1,K*%
%TO.N,Row 2_r*%
X269685885Y-157702257D03*
D12*
%TO.P,D7_r1,2,A*%
%TO.N,Net-(D7_r1-A)*%
X276270885Y-157722257D03*
%TD*%
D18*
%TO.P,S8,1,1*%
%TO.N,Col 2_l*%
X140640871Y-106812133D03*
%TO.P,S8,2,2*%
%TO.N,Net-(D8-A)*%
X146849235Y-103943281D03*
%TD*%
%TO.P,S18,1,1*%
%TO.N,Col 3_l*%
X191867240Y-186240804D03*
%TO.P,S18,2,2*%
%TO.N,Net-(D18-A)*%
X187114140Y-183629666D03*
%TD*%
D19*
%TO.P,D13_r1,1,K*%
%TO.N,Row 1_r*%
X308819782Y-140024876D03*
D20*
%TO.P,D13_r1,2,A*%
%TO.N,Net-(D13_r1-A)*%
X315366618Y-140733087D03*
%TD*%
D18*
%TO.P,S3,1,1*%
%TO.N,Col 0_l*%
X104575118Y-144605409D03*
%TO.P,S3,2,2*%
%TO.N,Net-(D3-A)*%
X110624830Y-141415567D03*
%TD*%
D11*
%TO.P,D6_r1,1,K*%
%TO.N,Row 1_r*%
X269685885Y-139202257D03*
D12*
%TO.P,D6_r1,2,A*%
%TO.N,Net-(D6_r1-A)*%
X276270885Y-139222257D03*
%TD*%
D15*
%TO.P,SW1,A,A*%
%TO.N,EC_A_l*%
X211645885Y-157102257D03*
D16*
%TO.P,SW1,B,B*%
%TO.N,EC_B_l*%
X211645885Y-152102257D03*
%TO.P,SW1,C,C*%
%TO.N,GND_l*%
X211645885Y-154602257D03*
D17*
%TO.P,SW1,MP*%
%TO.N,N/C*%
X204145885Y-160202257D03*
X204145885Y-149002257D03*
D16*
%TO.P,SW1,S1,S1*%
%TO.N,Net-(D19-A)*%
X197145885Y-157102257D03*
%TO.P,SW1,S2,S2*%
%TO.N,Col 4_l*%
X197145885Y-152102257D03*
%TD*%
D11*
%TO.P,D19,1,K*%
%TO.N,Row 3_l*%
X200885885Y-163174757D03*
D12*
%TO.P,D19,2,A*%
%TO.N,Net-(D19-A)*%
X207470885Y-163194757D03*
%TD*%
D18*
%TO.P,S17_r1,1,1*%
%TO.N,Col 4_r*%
X324510546Y-162221603D03*
%TO.P,S17_r1,2,2*%
%TO.N,Net-(D17_r1-A)*%
X331091262Y-160359273D03*
%TD*%
D24*
%TO.P,D6,1,K*%
%TO.N,Row 1_l*%
X123315885Y-140664880D03*
D25*
%TO.P,D6,2,A*%
%TO.N,Net-(D6-A)*%
X129866902Y-139996450D03*
%TD*%
D18*
%TO.P,S17,1,1*%
%TO.N,Col 4_l*%
X180335885Y-152062257D03*
%TO.P,S17,2,2*%
%TO.N,Net-(D17-A)*%
X186685885Y-149522257D03*
%TD*%
%TO.P,S18_r1,1,1*%
%TO.N,Col 4_r*%
X344644374Y-147646317D03*
%TO.P,S18_r1,2,2*%
%TO.N,Net-(D18_r1-A)*%
X351225090Y-145783987D03*
%TD*%
D19*
%TO.P,D16_r1,1,K*%
%TO.N,Row 1_r*%
X326225416Y-151406611D03*
D20*
%TO.P,D16_r1,2,A*%
%TO.N,Net-(D16_r1-A)*%
X332772252Y-152114822D03*
%TD*%
D18*
%TO.P,S6_r1,1,1*%
%TO.N,Col 1_r*%
X269135885Y-131662257D03*
%TO.P,S6_r1,2,2*%
%TO.N,Net-(D6_r1-A)*%
X275485885Y-129122257D03*
%TD*%
%TO.P,S11_r1,1,1*%
%TO.N,Col 2_r*%
X288401753Y-143365147D03*
%TO.P,S11_r1,2,2*%
%TO.N,Net-(D11_r1-A)*%
X294875984Y-141160961D03*
%TD*%
%TO.P,S5_r1,1,1*%
%TO.N,Col 1_r*%
X269135885Y-113162257D03*
%TO.P,S5_r1,2,2*%
%TO.N,Net-(D5_r1-A)*%
X275485885Y-110622257D03*
%TD*%
%TO.P,S3_r1,1,1*%
%TO.N,Col 0_r*%
X250635885Y-152062257D03*
%TO.P,S3_r1,2,2*%
%TO.N,Net-(D3_r1-A)*%
X256985885Y-149522257D03*
%TD*%
%TO.P,S9,1,1*%
%TO.N,Col 2_l*%
X141609087Y-125286779D03*
%TO.P,S9,2,2*%
%TO.N,Net-(D9-A)*%
X147817451Y-122417927D03*
%TD*%
%TO.P,S15,1,1*%
%TO.N,Col 4_l*%
X180285885Y-115062257D03*
%TO.P,S15,2,2*%
%TO.N,Net-(D15-A)*%
X186635885Y-112522257D03*
%TD*%
%TO.P,S15_r1,1,1*%
%TO.N,Col 4_r*%
X328400348Y-125451770D03*
%TO.P,S15_r1,2,2*%
%TO.N,Net-(D15_r1-A)*%
X334981064Y-123589440D03*
%TD*%
D16*
%TO.P,5feet_power1,*%
%TO.N,*%
X150611111Y-162312207D03*
X142418915Y-162669885D03*
D23*
%TO.P,5feet_power1,1*%
%TO.N,unconnected-(5feet_power1-Pad1)*%
X148513109Y-162403807D03*
%TO.P,5feet_power1,2*%
%TO.N,RAW_l*%
X146515013Y-162491046D03*
%TO.P,5feet_power1,3*%
%TO.N,Battery_Vin_l*%
X144516917Y-162578285D03*
%TD*%
D19*
%TO.P,D15_r1,1,K*%
%TO.N,Row 0_r*%
X328159191Y-133007956D03*
D20*
%TO.P,D15_r1,2,A*%
%TO.N,Net-(D15_r1-A)*%
X334706027Y-133716167D03*
%TD*%
D18*
%TO.P,S12_r1,1,1*%
%TO.N,Col 3_r*%
X310994716Y-114070035D03*
%TO.P,S12_r1,2,2*%
%TO.N,Net-(D12_r1-A)*%
X317575432Y-112207705D03*
%TD*%
%TO.P,S4_r1,1,1*%
%TO.N,Col 1_r*%
X246470688Y-186232996D03*
%TO.P,S4_r1,2,2*%
%TO.N,Net-(D4_r1-A)*%
X241278569Y-184667143D03*
%TD*%
D11*
%TO.P,D17,1,K*%
%TO.N,Row 2_l*%
X180885885Y-159602257D03*
D12*
%TO.P,D17,2,A*%
%TO.N,Net-(D17-A)*%
X187470885Y-159622257D03*
%TD*%
D34*
%TO.P,D18,1,K*%
%TO.N,Row 3_l*%
X196426442Y-174050595D03*
D35*
%TO.P,D18,2,A*%
%TO.N,Net-(D18-A)*%
X189879606Y-173342384D03*
%TD*%
D31*
%TO.P,OL1,1,SDA*%
%TO.N,SDA_l*%
X201204504Y-141943686D03*
%TO.P,OL1,2,SCL*%
%TO.N,SCL_l*%
X203744504Y-141943686D03*
%TO.P,OL1,3,VCC*%
%TO.N,Vout(3.3V)_l*%
X206284504Y-141943686D03*
%TO.P,OL1,4,GND*%
%TO.N,GND_l*%
X208824504Y-141943686D03*
%TD*%
D11*
%TO.P,D15,1,K*%
%TO.N,Row 0_l*%
X180885885Y-122602257D03*
D12*
%TO.P,D15,2,A*%
%TO.N,Net-(D15-A)*%
X187470885Y-122622257D03*
%TD*%
D11*
%TO.P,D2_r1,1,K*%
%TO.N,Row 1_r*%
X251185885Y-141102257D03*
D12*
%TO.P,D2_r1,2,A*%
%TO.N,Net-(D2_r1-A)*%
X257770885Y-141122257D03*
%TD*%
D18*
%TO.P,S2_r1,1,1*%
%TO.N,Col 0_r*%
X250635885Y-133562257D03*
%TO.P,S2_r1,2,2*%
%TO.N,Net-(D2_r1-A)*%
X256985885Y-131022257D03*
%TD*%
%TO.P,S2,1,1*%
%TO.N,Col 0_l*%
X102641340Y-126206754D03*
%TO.P,S2,2,2*%
%TO.N,Net-(D2-A)*%
X108691052Y-123016912D03*
%TD*%
D19*
%TO.P,D17_r1,1,K*%
%TO.N,Row 2_r*%
X324291638Y-169805264D03*
D20*
%TO.P,D17_r1,2,A*%
%TO.N,Net-(D17_r1-A)*%
X330838474Y-170513475D03*
%TD*%
D11*
%TO.P,D11,1,K*%
%TO.N,Row 0_l*%
X162385885Y-120702257D03*
D12*
%TO.P,D11,2,A*%
%TO.N,Net-(D11-A)*%
X168970885Y-120722257D03*
%TD*%
D24*
%TO.P,D5,1,K*%
%TO.N,Row 0_l*%
X121382108Y-122266226D03*
D25*
%TO.P,D5,2,A*%
%TO.N,Net-(D5-A)*%
X127933125Y-121597796D03*
%TD*%
D18*
%TO.P,S11,1,1*%
%TO.N,Col 3_l*%
X161835885Y-113162257D03*
%TO.P,S11,2,2*%
%TO.N,Net-(D11-A)*%
X168185885Y-110622257D03*
%TD*%
%TO.P,S14_r1,1,1*%
%TO.N,Col 3_r*%
X307127161Y-150867346D03*
%TO.P,S14_r1,2,2*%
%TO.N,Net-(D14_r1-A)*%
X313707877Y-149005016D03*
%TD*%
D36*
%TO.P,D14,1,K*%
%TO.N,Row 3_l*%
X176328991Y-174180553D03*
D37*
%TO.P,D14,2,A*%
%TO.N,Net-(D14-A)*%
X169821935Y-175190920D03*
%TD*%
D21*
%TO.P,D11_r1,1,K*%
%TO.N,Row 2_r*%
X288556385Y-150923599D03*
D22*
%TO.P,D11_r1,2,A*%
%TO.N,Net-(D11_r1-A)*%
X295131313Y-151288204D03*
%TD*%
D18*
%TO.P,S4,1,1*%
%TO.N,Col 0_l*%
X106503665Y-162954339D03*
%TO.P,S4,2,2*%
%TO.N,Net-(D4-A)*%
X112553377Y-159764497D03*
%TD*%
D38*
%TO.N,EC_B_l*%
X210205885Y-126752257D03*
%TO.N,EC_A_l*%
X206995885Y-124092257D03*
%TO.N,RAW_r*%
X298515885Y-112122257D03*
%TO.N,SCL_r*%
X233145885Y-121702257D03*
%TO.N,SDA_r*%
X230150885Y-121757257D03*
%TO.N,Row 1_r*%
X228705885Y-139902257D03*
%TO.N,Row 2_r*%
X231755885Y-157102257D03*
%TO.N,Row 0_r*%
X228285885Y-124362257D03*
%TO.N,Col 2_r*%
X277235885Y-132102257D03*
%TO.N,Col 1_r*%
X265075885Y-170722257D03*
X251995885Y-172852257D03*
%TO.N,Row 2_l*%
X192255885Y-138372257D03*
%TO.N,Col 3_l*%
X171785885Y-163972257D03*
X179925885Y-173282257D03*
%TO.N,RAW_l*%
X137955885Y-102982257D03*
%TO.N,SCL_l*%
X204375885Y-123212257D03*
%TO.N,SDA_l*%
X202105885Y-120302257D03*
%TO.N,Col 4_l*%
X212595885Y-148962257D03*
%TO.N,Row 2_l*%
X190625885Y-157502257D03*
%TD*%
D39*
%TO.N,EC_A_r*%
X224529485Y-123217057D02*
X225977285Y-121769257D01*
X224529485Y-154685357D02*
X224529485Y-123217057D01*
X226946385Y-157102257D02*
X224529485Y-154685357D01*
%TO.N,EC_B_r*%
X224935885Y-150091757D02*
X226946385Y-152102257D01*
X224935885Y-125350657D02*
X224935885Y-150091757D01*
X225977285Y-124309257D02*
X224935885Y-125350657D01*
%TO.N,EC_B_l*%
X210205885Y-126752257D02*
X199845285Y-126752257D01*
X199845285Y-126752257D02*
X197377285Y-124284257D01*
%TO.N,EC_A_l*%
X199725285Y-124092257D02*
X197377285Y-121744257D01*
X206995885Y-124092257D02*
X199725285Y-124092257D01*
D40*
%TO.N,RAW_r*%
X227810285Y-110902257D02*
X225977285Y-109069257D01*
X236765885Y-110902257D02*
X227810285Y-110902257D01*
X239915885Y-107752257D02*
X236765885Y-110902257D01*
X282315885Y-107752257D02*
X239915885Y-107752257D01*
X286685885Y-112122257D02*
X282315885Y-107752257D01*
X298515885Y-112122257D02*
X286685885Y-112122257D01*
%TO.N,Battery_Vin_r*%
X292453216Y-161112327D02*
X294071694Y-162730805D01*
X270545885Y-168672257D02*
X278105815Y-161112327D01*
X266785885Y-168672257D02*
X270545885Y-168672257D01*
X278105815Y-161112327D02*
X292453216Y-161112327D01*
D39*
%TO.N,SCL_r*%
X233212885Y-121769257D02*
X241197285Y-121769257D01*
X233145885Y-121702257D02*
X233212885Y-121769257D01*
%TO.N,SDA_r*%
X232678885Y-119229257D02*
X241197285Y-119229257D01*
X230150885Y-121757257D02*
X232678885Y-119229257D01*
%TO.N,SCL_l*%
X211979285Y-122362257D02*
X212597285Y-121744257D01*
X205225885Y-122362257D02*
X211979285Y-122362257D01*
X204375885Y-123212257D02*
X205225885Y-122362257D01*
%TO.N,SDA_l*%
X203203885Y-119204257D02*
X212597285Y-119204257D01*
X202105885Y-120302257D02*
X203203885Y-119204257D01*
%TO.N,Col 0_r*%
X247525885Y-133562257D02*
X250635885Y-133562257D01*
X241197285Y-127233657D02*
X247525885Y-133562257D01*
X241197285Y-126849257D02*
X241197285Y-127233657D01*
%TO.N,Col 1_r*%
X268629633Y-131662257D02*
X269135885Y-131662257D01*
X261488233Y-138803657D02*
X268629633Y-131662257D01*
X250087285Y-138803657D02*
X261488233Y-138803657D01*
X241197285Y-129913657D02*
X250087285Y-138803657D01*
X241197285Y-129389257D02*
X241197285Y-129913657D01*
%TO.N,Row 1_r*%
X243845885Y-141102257D02*
X251185885Y-141102257D01*
X242645885Y-139902257D02*
X243845885Y-141102257D01*
X228705885Y-139902257D02*
X242645885Y-139902257D01*
%TO.N,Row 2_r*%
X239795885Y-159602257D02*
X251185885Y-159602257D01*
X238265885Y-158072257D02*
X239795885Y-159602257D01*
X232725885Y-158072257D02*
X238265885Y-158072257D01*
X231755885Y-157102257D02*
X232725885Y-158072257D01*
%TO.N,Row 0_r*%
X250735885Y-123052257D02*
X251185885Y-122602257D01*
X229595885Y-123052257D02*
X250735885Y-123052257D01*
X228285885Y-124362257D02*
X229595885Y-123052257D01*
%TO.N,Row 1_r*%
X284739189Y-132448953D02*
X289524602Y-132448953D01*
X276785885Y-140402257D02*
X284739189Y-132448953D01*
X270885885Y-140402257D02*
X276785885Y-140402257D01*
X269685885Y-139202257D02*
X270885885Y-140402257D01*
X252285885Y-142202257D02*
X266685885Y-142202257D01*
X266685885Y-142202257D02*
X269685885Y-139202257D01*
X251185885Y-141102257D02*
X252285885Y-142202257D01*
%TO.N,Col 2_r*%
X276363485Y-134151899D02*
X276363485Y-132974657D01*
X273320495Y-137194889D02*
X276363485Y-134151899D01*
X276363485Y-132974657D02*
X277235885Y-132102257D01*
X268384981Y-137194889D02*
X273320495Y-137194889D01*
X266369813Y-139210057D02*
X267841749Y-137738121D01*
X261885885Y-139210057D02*
X266369813Y-139210057D01*
X248478085Y-139210057D02*
X261885885Y-139210057D01*
X267841749Y-137738121D02*
X268384981Y-137194889D01*
X241197285Y-131929257D02*
X248478085Y-139210057D01*
%TO.N,Col 3_r*%
X307514627Y-130922381D02*
X309060937Y-132468691D01*
X279529509Y-130922381D02*
X307514627Y-130922381D01*
X276769885Y-133682005D02*
X279529509Y-130922381D01*
X276769885Y-135678257D02*
X276769885Y-133682005D01*
X274731685Y-137716457D02*
X276769885Y-135678257D01*
X268438149Y-137716457D02*
X274731685Y-137716457D01*
X266538149Y-139616457D02*
X268438149Y-137716457D01*
X246344485Y-139616457D02*
X266538149Y-139616457D01*
X241197285Y-134469257D02*
X246344485Y-139616457D01*
%TO.N,Col 4_r*%
X250106485Y-140032257D02*
X244220285Y-140032257D01*
X250115885Y-140022857D02*
X250106485Y-140032257D01*
X266687685Y-140022857D02*
X250115885Y-140022857D01*
X275875285Y-138122857D02*
X268606485Y-138122857D01*
X244220285Y-140032257D02*
X241197285Y-137009257D01*
X268606485Y-138122857D02*
X266697085Y-140032257D01*
X282709361Y-131328781D02*
X275895285Y-138142857D01*
X275895285Y-138142857D02*
X275875285Y-138122857D01*
X290442409Y-131328781D02*
X282709361Y-131328781D01*
X297979864Y-138866236D02*
X290442409Y-131328781D01*
X321482385Y-138866236D02*
X297979864Y-138866236D01*
X326466574Y-143850425D02*
X321482385Y-138866236D01*
X266697085Y-140032257D02*
X266687685Y-140022857D01*
%TO.N,Row 3_r*%
X239546769Y-164512257D02*
X248395768Y-173361256D01*
X231186385Y-163174757D02*
X232523885Y-164512257D01*
X232523885Y-164512257D02*
X239546769Y-164512257D01*
X344425466Y-160922676D02*
X344425466Y-155229980D01*
X295540203Y-164002257D02*
X295900203Y-164362257D01*
X333275885Y-172072257D02*
X344425466Y-160922676D01*
X277555885Y-164002257D02*
X295540203Y-164002257D01*
X295900203Y-164362257D02*
X315725885Y-164362257D01*
X315725885Y-164362257D02*
X323435885Y-172072257D01*
X268448043Y-173110099D02*
X277555885Y-164002257D01*
X323435885Y-172072257D02*
X333275885Y-172072257D01*
X268448043Y-175211932D02*
X268448043Y-173110099D01*
%TO.N,Row 2_r*%
X310647159Y-158423531D02*
X313025885Y-160802257D01*
X313025885Y-160802257D02*
X315288631Y-160802257D01*
X315288631Y-160802257D02*
X324291638Y-169805264D01*
X306886003Y-158423531D02*
X310647159Y-158423531D01*
%TO.N,Col 1_r*%
X262945885Y-172852257D02*
X265075885Y-170722257D01*
X251995885Y-172852257D02*
X262945885Y-172852257D01*
%TO.N,Row 3_r*%
X268418517Y-175241458D02*
X268448043Y-175211932D01*
X250275970Y-175241458D02*
X268418517Y-175241458D01*
X248395768Y-173361256D02*
X250275970Y-175241458D01*
%TO.N,Row 2_r*%
X288556385Y-150923599D02*
X289613048Y-150923599D01*
X289613048Y-150923599D02*
X297112980Y-158423531D01*
X297112980Y-158423531D02*
X306886003Y-158423531D01*
X284437727Y-155042257D02*
X288556385Y-150923599D01*
X270739885Y-157702257D02*
X273399885Y-155042257D01*
X273399885Y-155042257D02*
X284437727Y-155042257D01*
X269685885Y-157702257D02*
X270739885Y-157702257D01*
X258164382Y-157702257D02*
X269685885Y-157702257D01*
X256264382Y-159602257D02*
X258164382Y-157702257D01*
X251185885Y-159602257D02*
X256264382Y-159602257D01*
%TO.N,Row 1_r*%
X320201517Y-151406611D02*
X326225416Y-151406611D01*
X308819782Y-140024876D02*
X320201517Y-151406611D01*
X297100525Y-140024876D02*
X308819782Y-140024876D01*
X289524602Y-132448953D02*
X297100525Y-140024876D01*
%TO.N,Row 0_r*%
X253085885Y-120702257D02*
X251185885Y-122602257D01*
X269685885Y-120702257D02*
X253085885Y-120702257D01*
X270745285Y-119642857D02*
X269685885Y-120702257D01*
X284824266Y-119642857D02*
X270745285Y-119642857D01*
X290492816Y-113974307D02*
X284824266Y-119642857D01*
X302828550Y-121626221D02*
X295176636Y-113974307D01*
X310753556Y-121626221D02*
X302828550Y-121626221D01*
X295176636Y-113974307D02*
X290492816Y-113974307D01*
X328159191Y-133007956D02*
X322135291Y-133007956D01*
X322135291Y-133007956D02*
X310753556Y-121626221D01*
%TO.N,Row 2_l*%
X196183885Y-134444257D02*
X197377285Y-134444257D01*
X192255885Y-138372257D02*
X196183885Y-134444257D01*
%TO.N,Col 2_l*%
X186440596Y-143717546D02*
X142621182Y-143717546D01*
X142621182Y-143717546D02*
X142577301Y-143761427D01*
X204245685Y-140255857D02*
X189902285Y-140255857D01*
X212597285Y-131904257D02*
X204245685Y-140255857D01*
X189902285Y-140255857D02*
X186440596Y-143717546D01*
%TO.N,Col 3_l*%
X162035885Y-149962257D02*
X161835885Y-150162257D01*
X206379285Y-140662257D02*
X190385885Y-140662257D01*
X190385885Y-140662257D02*
X181085885Y-149962257D01*
X212597285Y-134444257D02*
X206379285Y-140662257D01*
X181085885Y-149962257D02*
X162035885Y-149962257D01*
X171785885Y-163972257D02*
X179925885Y-172112257D01*
X179925885Y-172112257D02*
X179925885Y-173282257D01*
%TO.N,Row 3_l*%
X173134181Y-174180553D02*
X176328991Y-174180553D01*
X162585885Y-163632257D02*
X173134181Y-174180553D01*
X114814232Y-171603910D02*
X122468857Y-163949285D01*
X142948860Y-163949285D02*
X143265888Y-163632257D01*
X143265888Y-163632257D02*
X162585885Y-163632257D01*
X103444127Y-171603910D02*
X114814232Y-171603910D01*
X87710198Y-155869981D02*
X103444127Y-171603910D01*
X122468857Y-163949285D02*
X142948860Y-163949285D01*
%TO.N,Net-(D14-A)*%
X170125885Y-185530790D02*
X169813247Y-185843428D01*
X170125885Y-175494870D02*
X170125885Y-185530790D01*
X169821935Y-175190920D02*
X170125885Y-175494870D01*
D40*
%TO.N,RAW_l*%
X195945285Y-107612257D02*
X197377285Y-109044257D01*
X151635885Y-101012257D02*
X158235885Y-107612257D01*
X158235885Y-107612257D02*
X195945285Y-107612257D01*
X139925885Y-101012257D02*
X151635885Y-101012257D01*
X137955885Y-102982257D02*
X139925885Y-101012257D01*
%TO.N,Battery_Vin_l*%
X166593435Y-160959807D02*
X171805885Y-166172257D01*
X146135395Y-160959807D02*
X166593435Y-160959807D01*
X144516917Y-162578285D02*
X146135395Y-160959807D01*
D39*
%TO.N,Col 4_l*%
X208375885Y-148962257D02*
X212595885Y-148962257D01*
X198425285Y-150822857D02*
X206515285Y-150822857D01*
X197145885Y-152102257D02*
X198425285Y-150822857D01*
X206515285Y-150822857D02*
X208375885Y-148962257D01*
X197105885Y-152062257D02*
X197145885Y-152102257D01*
X180335885Y-152062257D02*
X197105885Y-152062257D01*
%TO.N,Col 1_l*%
X211149485Y-130812057D02*
X212597285Y-129364257D01*
X196996722Y-130812057D02*
X211149485Y-130812057D01*
X189325522Y-138483257D02*
X196996722Y-130812057D01*
X171299506Y-138105878D02*
X171676885Y-138483257D01*
X171676885Y-138483257D02*
X189325522Y-138483257D01*
X162693254Y-138105878D02*
X171299506Y-138105878D01*
X155970977Y-131383601D02*
X162693254Y-138105878D01*
X133565885Y-132492257D02*
X134674541Y-131383601D01*
X122712172Y-132492257D02*
X133565885Y-132492257D01*
X121980753Y-133223676D02*
X122712172Y-132492257D01*
X134674541Y-131383601D02*
X155970977Y-131383601D01*
%TO.N,Col 0_l*%
X104575118Y-142583024D02*
X104575118Y-144605409D01*
X111539697Y-135618445D02*
X104575118Y-142583024D01*
X115965885Y-135618445D02*
X111539697Y-135618445D01*
X104828286Y-144352241D02*
X104575118Y-144605409D01*
X123629896Y-127954434D02*
X115965885Y-135618445D01*
X155405885Y-124352257D02*
X149753244Y-130004898D01*
X149753244Y-130004898D02*
X140812642Y-130004898D01*
X186861149Y-124352257D02*
X155405885Y-124352257D01*
X140812642Y-130004898D02*
X138762178Y-127954434D01*
X192914549Y-130405657D02*
X186861149Y-124352257D01*
X138762178Y-127954434D02*
X123629896Y-127954434D01*
X209015885Y-130405657D02*
X192914549Y-130405657D01*
X212597285Y-126824257D02*
X209015885Y-130405657D01*
%TO.N,Row 0_l*%
X192447885Y-129364257D02*
X197377285Y-129364257D01*
X185685885Y-122602257D02*
X192447885Y-129364257D01*
X180885885Y-122602257D02*
X185685885Y-122602257D01*
%TO.N,Row 3_l*%
X177050695Y-174902257D02*
X195574780Y-174902257D01*
X195574780Y-174902257D02*
X196426442Y-174050595D01*
X176328991Y-174180553D02*
X177050695Y-174902257D01*
%TO.N,Net-(D19-A)*%
X207470885Y-160218457D02*
X207470885Y-163194757D01*
X204354685Y-157102257D02*
X207470885Y-160218457D01*
X197145885Y-157102257D02*
X204354685Y-157102257D01*
%TO.N,Row 2_l*%
X184613127Y-157502257D02*
X190625885Y-157502257D01*
X182513127Y-159602257D02*
X184613127Y-157502257D01*
X180885885Y-159602257D02*
X182513127Y-159602257D01*
X164285885Y-159602257D02*
X180885885Y-159602257D01*
X162385885Y-157702257D02*
X164285885Y-159602257D01*
X143521162Y-151262308D02*
X149961111Y-157702257D01*
X149961111Y-157702257D02*
X162385885Y-157702257D01*
X135308963Y-159474507D02*
X143521162Y-151262308D01*
X125660631Y-159474507D02*
X135308963Y-159474507D01*
X125249661Y-159063537D02*
X125660631Y-159474507D01*
X115615758Y-168697440D02*
X125249661Y-159063537D01*
X109591857Y-168697440D02*
X115615758Y-168697440D01*
X107844027Y-170445270D02*
X109591857Y-168697440D01*
%TO.N,Row 1_l*%
X164285885Y-141102257D02*
X180885885Y-141102257D01*
X162385885Y-139202257D02*
X164285885Y-141102257D01*
X143621466Y-132787660D02*
X150036063Y-139202257D01*
X150036063Y-139202257D02*
X162385885Y-139202257D01*
X142552949Y-132787660D02*
X143621466Y-132787660D01*
X127671969Y-140664880D02*
X135549189Y-132787660D01*
X123315885Y-140664880D02*
X127671969Y-140664880D01*
X135549189Y-132787660D02*
X142552949Y-132787660D01*
X120995528Y-140664880D02*
X123315885Y-140664880D01*
X109613794Y-152046614D02*
X120995528Y-140664880D01*
X105910249Y-152046614D02*
X109613794Y-152046614D01*
%TO.N,Row 0_l*%
X164285885Y-122602257D02*
X180885885Y-122602257D01*
X162385885Y-120702257D02*
X164285885Y-122602257D01*
X149042497Y-120702257D02*
X162385885Y-120702257D01*
X142653253Y-114313013D02*
X149042497Y-120702257D01*
X141584731Y-114313013D02*
X142653253Y-114313013D01*
X133038864Y-114313013D02*
X141584731Y-114313013D01*
X121382108Y-122266226D02*
X125085651Y-122266226D01*
X125085651Y-122266226D02*
X133038864Y-114313013D01*
X119061749Y-122266226D02*
X121382108Y-122266226D01*
X103976474Y-133647959D02*
X107680016Y-133647959D01*
X107680016Y-133647959D02*
X119061749Y-122266226D01*
%TO.N,Row 1_l*%
X190169285Y-139112257D02*
X197377285Y-131904257D01*
X182875885Y-139112257D02*
X190169285Y-139112257D01*
X180885885Y-141102257D02*
X182875885Y-139112257D01*
%TO.N,Col 0_r*%
X250595885Y-152102257D02*
X250635885Y-152062257D01*
X241446385Y-152102257D02*
X250595885Y-152102257D01*
%TO.N,Col 4_r*%
X341065552Y-144067495D02*
X344644374Y-147646317D01*
X326683644Y-144067495D02*
X341065552Y-144067495D01*
X326466574Y-143850425D02*
X326683644Y-144067495D01*
%TO.N,Col 0_l*%
X102029534Y-144605409D02*
X104575118Y-144605409D01*
X99316604Y-147318339D02*
X102029534Y-144605409D01*
X86375066Y-148428781D02*
X87485508Y-147318339D01*
X87485508Y-147318339D02*
X99316604Y-147318339D01*
%TD*%
M02*
