%TF.GenerationSoftware,KiCad,Pcbnew,7.0.9*%
%TF.CreationDate,2024-02-19T09:25:46+08:00*%
%TF.ProjectId,ascend,61736365-6e64-42e6-9b69-6361645f7063,v1.2*%
%TF.SameCoordinates,Original*%
%TF.FileFunction,Plated,1,2,PTH,Mixed*%
%TF.FilePolarity,Positive*%
%FSLAX46Y46*%
G04 Gerber Fmt 4.6, Leading zero omitted, Abs format (unit mm)*
G04 Created by KiCad (PCBNEW 7.0.9) date 2024-02-19 09:25:46*
%MOMM*%
%LPD*%
G01*
G04 APERTURE LIST*
%TA.AperFunction,ViaDrill*%
%ADD10C,0.254000*%
%TD*%
%TA.AperFunction,ComponentDrill*%
%ADD11C,0.800000*%
%TD*%
%TA.AperFunction,ComponentDrill*%
%ADD12C,0.812800*%
%TD*%
%TA.AperFunction,ComponentDrill*%
%ADD13C,0.900000*%
%TD*%
%TA.AperFunction,ComponentDrill*%
%ADD14C,1.000000*%
%TD*%
%TA.AperFunction,ComponentDrill*%
%ADD15C,1.300000*%
%TD*%
G04 aperture for slot hole*
%TA.AperFunction,ComponentDrill*%
%ADD16O,2.500000X2.000000*%
%TD*%
%TA.AperFunction,ComponentDrill*%
%ADD17C,3.050000*%
%TD*%
G04 APERTURE END LIST*
D10*
X137955885Y-102982257D03*
X171785885Y-163972257D03*
X179925885Y-173282257D03*
X190625885Y-157502257D03*
X192255885Y-138372257D03*
X202105885Y-120302257D03*
X204375885Y-123212257D03*
X206995885Y-124092257D03*
X210205885Y-126752257D03*
X212595885Y-148962257D03*
X228285885Y-124362257D03*
X228705885Y-139902257D03*
X230150885Y-121757257D03*
X231755885Y-157102257D03*
X233145885Y-121702257D03*
X251995885Y-172852257D03*
X265075885Y-170722257D03*
X277235885Y-132102257D03*
X298515885Y-112122257D03*
D11*
%TO.C,D1*%
X87710198Y-155869981D03*
X94261215Y-155201551D03*
%TO.C,D2*%
X103976474Y-133647959D03*
%TO.C,D3*%
X105910249Y-152046614D03*
%TO.C,D4*%
X107844027Y-170445270D03*
%TO.C,D2*%
X110527491Y-132979529D03*
%TO.C,D3*%
X112461266Y-151378184D03*
%TO.C,D4*%
X114395044Y-169776840D03*
%TO.C,D5*%
X121382108Y-122266226D03*
%TO.C,D6*%
X123315885Y-140664880D03*
%TO.C,D7*%
X125249661Y-159063537D03*
%TO.C,D5*%
X127933125Y-121597796D03*
%TO.C,D6*%
X129866902Y-139996450D03*
%TO.C,D7*%
X131800678Y-158395107D03*
%TO.C,D8*%
X141584731Y-114313013D03*
%TO.C,D9*%
X142552949Y-132787660D03*
%TO.C,D10*%
X143521162Y-151262308D03*
%TO.C,D8*%
X148161753Y-113988354D03*
%TO.C,D9*%
X149129971Y-132463001D03*
%TO.C,D10*%
X150098184Y-150937649D03*
%TO.C,D11*%
X162385885Y-120702257D03*
%TO.C,D12*%
X162385885Y-139202257D03*
%TO.C,D13*%
X162385885Y-157702257D03*
%TO.C,D11*%
X168970885Y-120722257D03*
%TO.C,D12*%
X168970885Y-139222257D03*
%TO.C,D13*%
X168970885Y-157722257D03*
%TO.C,D14*%
X169821935Y-175190920D03*
X176328991Y-174180553D03*
%TO.C,D15*%
X180885885Y-122602257D03*
%TO.C,D16*%
X180885885Y-141102257D03*
%TO.C,D17*%
X180885885Y-159602257D03*
%TO.C,D15*%
X187470885Y-122622257D03*
%TO.C,D16*%
X187470885Y-141122257D03*
%TO.C,D17*%
X187470885Y-159622257D03*
%TO.C,D18*%
X189879606Y-173342384D03*
X196426442Y-174050595D03*
%TO.C,D19*%
X200885885Y-163174757D03*
X207470885Y-163194757D03*
%TO.C,D20*%
X231186385Y-163174757D03*
X237771385Y-163194757D03*
%TO.C,D4_r1*%
X241844751Y-174029686D03*
X248395768Y-173361256D03*
%TO.C,D1_r1*%
X251185885Y-122602257D03*
%TO.C,D2_r1*%
X251185885Y-141102257D03*
%TO.C,D3_r1*%
X251185885Y-159602257D03*
%TO.C,D1_r1*%
X257770885Y-122622257D03*
%TO.C,D2_r1*%
X257770885Y-141122257D03*
%TO.C,D3_r1*%
X257770885Y-159622257D03*
%TO.C,D8_r1*%
X261947244Y-174162058D03*
X268448043Y-175211932D03*
%TO.C,D5_r1*%
X269685885Y-120702257D03*
%TO.C,D6_r1*%
X269685885Y-139202257D03*
%TO.C,D7_r1*%
X269685885Y-157702257D03*
%TO.C,D5_r1*%
X276270885Y-120722257D03*
%TO.C,D6_r1*%
X276270885Y-139222257D03*
%TO.C,D7_r1*%
X276270885Y-157722257D03*
%TO.C,D11_r1*%
X288556385Y-150923599D03*
%TO.C,D10_r1*%
X289524602Y-132448953D03*
%TO.C,D9_r1*%
X290492816Y-113974307D03*
%TO.C,D11_r1*%
X295131313Y-151288204D03*
%TO.C,D10_r1*%
X296099530Y-132813558D03*
%TO.C,D9_r1*%
X297067744Y-114338912D03*
%TO.C,D14_r1*%
X306886003Y-158423531D03*
%TO.C,D13_r1*%
X308819782Y-140024876D03*
%TO.C,D12_r1*%
X310753556Y-121626221D03*
%TO.C,D14_r1*%
X313432839Y-159131742D03*
%TO.C,D13_r1*%
X315366618Y-140733087D03*
%TO.C,D12_r1*%
X317300392Y-122334432D03*
%TO.C,D17_r1*%
X324291638Y-169805264D03*
%TO.C,D16_r1*%
X326225416Y-151406611D03*
%TO.C,D15_r1*%
X328159191Y-133007956D03*
%TO.C,D17_r1*%
X330838474Y-170513475D03*
%TO.C,D16_r1*%
X332772252Y-152114822D03*
%TO.C,D15_r1*%
X334706027Y-133716167D03*
%TO.C,D18_r1*%
X344425466Y-155229980D03*
X350972302Y-155938191D03*
D12*
%TO.C,Pro_Micro_nRF58240_flip1*%
X197357285Y-106504257D03*
X197377285Y-109044257D03*
X197377285Y-111584257D03*
X197377285Y-114124257D03*
X197377285Y-116664257D03*
X197377285Y-119204257D03*
X197377285Y-121744257D03*
X197377285Y-124284257D03*
X197377285Y-126824257D03*
X197377285Y-129364257D03*
X197377285Y-131904257D03*
X197377285Y-134444257D03*
X197377285Y-136984257D03*
%TO.C,OL1*%
X201204504Y-141943686D03*
X203744504Y-141943686D03*
X206284504Y-141943686D03*
X208824504Y-141943686D03*
%TO.C,Pro_Micro_nRF58240_flip1*%
X212597285Y-106504257D03*
X212597285Y-109044257D03*
X212597285Y-111584257D03*
X212597285Y-114124257D03*
X212597285Y-116664257D03*
X212597285Y-119204257D03*
X212597285Y-121744257D03*
X212597285Y-124284257D03*
X212597285Y-126824257D03*
X212597285Y-129364257D03*
X212597285Y-131904257D03*
X212597285Y-134444257D03*
X212597285Y-136984257D03*
%TO.C,Pro_Micro_nRF58240_flip2*%
X225957285Y-106529257D03*
X225977285Y-109069257D03*
X225977285Y-111609257D03*
X225977285Y-114149257D03*
X225977285Y-116689257D03*
X225977285Y-119229257D03*
X225977285Y-121769257D03*
X225977285Y-124309257D03*
X225977285Y-126849257D03*
X225977285Y-129389257D03*
X225977285Y-131929257D03*
X225977285Y-134469257D03*
X225977285Y-137009257D03*
%TO.C,OL2*%
X229714504Y-141943686D03*
X232254504Y-141943686D03*
X234794504Y-141943686D03*
X237334504Y-141943686D03*
%TO.C,Pro_Micro_nRF58240_flip2*%
X241197285Y-106529257D03*
X241197285Y-109069257D03*
X241197285Y-111609257D03*
X241197285Y-114149257D03*
X241197285Y-116689257D03*
X241197285Y-119229257D03*
X241197285Y-121769257D03*
X241197285Y-124309257D03*
X241197285Y-126849257D03*
X241197285Y-129389257D03*
X241197285Y-131929257D03*
X241197285Y-134469257D03*
X241197285Y-137009257D03*
D13*
%TO.C,5feet_power1*%
X144516917Y-162578285D03*
X146515013Y-162491046D03*
X148513109Y-162403807D03*
%TO.C,5feet_power2*%
X290075502Y-162556327D03*
X292073598Y-162643566D03*
X294071694Y-162730805D03*
D14*
%TO.C,BT1*%
X171805885Y-166172257D03*
X171805885Y-168672257D03*
%TO.C,SW1*%
X197145885Y-152102257D03*
X197145885Y-157102257D03*
X211645885Y-152102257D03*
X211645885Y-154602257D03*
X211645885Y-157102257D03*
%TO.C,SW2*%
X226946385Y-152102257D03*
X226946385Y-154602257D03*
X226946385Y-157102257D03*
X241446385Y-152102257D03*
X241446385Y-157102257D03*
%TO.C,BT2*%
X266785885Y-166172257D03*
X266785885Y-168672257D03*
D15*
%TO.C,5feet_power1*%
X142418915Y-162669885D03*
X150611111Y-162312207D03*
%TO.C,5feet_power2*%
X287977500Y-162464727D03*
X296169696Y-162822405D03*
D16*
%TO.C,SW1*%
X204145885Y-149002257D03*
X204145885Y-160202257D03*
%TO.C,SW2*%
X234446385Y-149002257D03*
X234446385Y-160202257D03*
D17*
%TO.C,S1*%
X86375066Y-148428781D03*
X92424778Y-145238939D03*
%TO.C,S2*%
X102641340Y-126206754D03*
%TO.C,S3*%
X104575118Y-144605409D03*
%TO.C,S4*%
X106503665Y-162954339D03*
%TO.C,S2*%
X108691052Y-123016912D03*
%TO.C,S3*%
X110624830Y-141415567D03*
%TO.C,S4*%
X112553377Y-159764497D03*
%TO.C,S5*%
X120046975Y-114825021D03*
%TO.C,S6*%
X121980753Y-133223676D03*
%TO.C,S7*%
X123859576Y-151577832D03*
%TO.C,S5*%
X126096687Y-111635179D03*
%TO.C,S6*%
X128030465Y-130033834D03*
%TO.C,S7*%
X129909288Y-148387990D03*
%TO.C,S8*%
X140640871Y-106812133D03*
%TO.C,S9*%
X141609087Y-125286779D03*
%TO.C,S10*%
X142577301Y-143761427D03*
%TO.C,S8*%
X146849235Y-103943281D03*
%TO.C,S9*%
X147817451Y-122417927D03*
%TO.C,S10*%
X148785665Y-140892575D03*
%TO.C,S11*%
X161835885Y-113162257D03*
%TO.C,S12*%
X161835885Y-131662257D03*
%TO.C,S13*%
X161835885Y-150162257D03*
%TO.C,S11*%
X168185885Y-110622257D03*
%TO.C,S12*%
X168185885Y-129122257D03*
%TO.C,S13*%
X168185885Y-147622257D03*
%TO.C,S14*%
X169813247Y-185843428D03*
X175080201Y-187135401D03*
%TO.C,S15*%
X180285885Y-115062257D03*
%TO.C,S16*%
X180335885Y-133562257D03*
%TO.C,S17*%
X180335885Y-152062257D03*
%TO.C,S15*%
X186635885Y-112522257D03*
%TO.C,S16*%
X186685885Y-131022257D03*
%TO.C,S17*%
X186685885Y-149522257D03*
%TO.C,S18*%
X187114140Y-183629666D03*
X191867240Y-186240804D03*
%TO.C,S4_r1*%
X241278569Y-184667143D03*
X246470688Y-186232996D03*
%TO.C,S1_r1*%
X250635885Y-115062257D03*
%TO.C,S2_r1*%
X250635885Y-133562257D03*
%TO.C,S3_r1*%
X250635885Y-152062257D03*
%TO.C,S1_r1*%
X256985885Y-112522257D03*
%TO.C,S2_r1*%
X256985885Y-131022257D03*
%TO.C,S3_r1*%
X256985885Y-149522257D03*
%TO.C,S8_r1*%
X258647175Y-184290511D03*
X263257105Y-187146829D03*
%TO.C,S5_r1*%
X269135885Y-113162257D03*
%TO.C,S6_r1*%
X269135885Y-131662257D03*
%TO.C,S7_r1*%
X269135885Y-150162257D03*
%TO.C,S5_r1*%
X275485885Y-110622257D03*
%TO.C,S6_r1*%
X275485885Y-129122257D03*
%TO.C,S7_r1*%
X275485885Y-147622257D03*
%TO.C,S11_r1*%
X288401753Y-143365147D03*
%TO.C,S10_r1*%
X289369968Y-124890502D03*
%TO.C,S9_r1*%
X290338185Y-106415855D03*
%TO.C,S11_r1*%
X294875984Y-141160961D03*
%TO.C,S10_r1*%
X295844199Y-122686316D03*
%TO.C,S9_r1*%
X296812416Y-104211669D03*
%TO.C,S14_r1*%
X307127161Y-150867346D03*
%TO.C,S13_r1*%
X309060937Y-132468691D03*
%TO.C,S12_r1*%
X310994716Y-114070035D03*
%TO.C,S14_r1*%
X313707877Y-149005016D03*
%TO.C,S13_r1*%
X315641653Y-130606361D03*
%TO.C,S12_r1*%
X317575432Y-112207705D03*
%TO.C,S17_r1*%
X324510546Y-162221603D03*
%TO.C,S16_r1*%
X326466574Y-143850425D03*
%TO.C,S15_r1*%
X328400348Y-125451770D03*
%TO.C,S17_r1*%
X331091262Y-160359273D03*
%TO.C,S16_r1*%
X333047290Y-141988095D03*
%TO.C,S15_r1*%
X334981064Y-123589440D03*
%TO.C,S18_r1*%
X344644374Y-147646317D03*
X351225090Y-145783987D03*
M02*
