%TF.GenerationSoftware,KiCad,Pcbnew,7.0.9*%
%TF.CreationDate,2024-02-19T09:25:45+08:00*%
%TF.ProjectId,ascend,61736365-6e64-42e6-9b69-6361645f7063,v1.2*%
%TF.SameCoordinates,Original*%
%TF.FileFunction,Profile,NP*%
%FSLAX46Y46*%
G04 Gerber Fmt 4.6, Leading zero omitted, Abs format (unit mm)*
G04 Created by KiCad (PCBNEW 7.0.9) date 2024-02-19 09:25:45*
%MOMM*%
%LPD*%
G01*
G04 APERTURE LIST*
%TA.AperFunction,Profile*%
%ADD10C,0.150000*%
%TD*%
G04 APERTURE END LIST*
D10*
X216320930Y-105797770D02*
G75*
G03*
X214300478Y-103797874I-2000030J-30D01*
G01*
X162131543Y-171368627D02*
X160962892Y-165841942D01*
X111554779Y-106643850D02*
G75*
G03*
X111208096Y-106824862I747921J-1854950D01*
G01*
X94271336Y-117899992D02*
X111208095Y-106824861D01*
X222220885Y-165600589D02*
X222220885Y-162077257D01*
X222220885Y-109777257D02*
X222220885Y-105797770D01*
X306445101Y-98365854D02*
G75*
G03*
X305801885Y-98223490I-747901J-1854846D01*
G01*
X120778992Y-168063478D02*
X121037173Y-173691680D01*
X235139843Y-191640325D02*
X222435886Y-166502684D01*
X119248327Y-175772334D02*
G75*
G03*
X121037173Y-173691680I-208927J1988934D01*
G01*
X184167348Y-190915219D02*
G75*
G03*
X183603265Y-190936028I-209048J-1989081D01*
G01*
X283540261Y-97056807D02*
X305801885Y-98223489D01*
X306445104Y-98365847D02*
X326985979Y-106647873D01*
X271680144Y-193955847D02*
X254938505Y-190936028D01*
X337540575Y-177694374D02*
G75*
G03*
X338922422Y-177325361I209025J1989074D01*
G01*
X132739884Y-98223472D02*
G75*
G03*
X132096666Y-98365847I104716J-1997228D01*
G01*
X235139791Y-191640351D02*
G75*
G03*
X237133899Y-192727274I1785009J902151D01*
G01*
X276379857Y-171555620D02*
X274022273Y-192214379D01*
X218320885Y-111777257D02*
X220220885Y-111777257D01*
X327332660Y-106828888D02*
G75*
G03*
X326985980Y-106647873I-1094560J-1673812D01*
G01*
X132739885Y-98223489D02*
X155001509Y-97056807D01*
X176806969Y-104074175D02*
G75*
G03*
X177451277Y-104173885I623931J1900175D01*
G01*
X337540577Y-177694353D02*
X319292427Y-175776396D01*
X220220885Y-160077257D02*
X218320885Y-160077257D01*
X261090494Y-104173887D02*
G75*
G03*
X261734805Y-104074186I20406J1999887D01*
G01*
X261734805Y-104074186D02*
X282811685Y-97153870D01*
X224241292Y-103797889D02*
G75*
G03*
X222220885Y-105797770I-20392J-1999911D01*
G01*
X99618335Y-177321337D02*
X80827752Y-163718454D01*
X119248331Y-175772373D02*
X101000181Y-177690330D01*
X80011467Y-162307462D02*
G75*
G03*
X80827751Y-163718454I1988833J208962D01*
G01*
X317503585Y-173695703D02*
X317761766Y-168067501D01*
X271680152Y-193955803D02*
G75*
G03*
X274022272Y-192214380I355048J1968203D01*
G01*
X158910292Y-164253931D02*
X122682036Y-165974080D01*
X216105888Y-166502685D02*
G75*
G03*
X216320885Y-165600588I-1784988J902085D01*
G01*
X80011496Y-162307459D02*
X77781312Y-141088665D01*
X357712998Y-163722468D02*
G75*
G03*
X358529260Y-162311483I-1172798J1620068D01*
G01*
X164519488Y-192214380D02*
G75*
G03*
X166861625Y-193955848I1987112J226780D01*
G01*
X160962928Y-165841934D02*
G75*
G03*
X158911306Y-164257955I-1956728J-413766D01*
G01*
X216320885Y-153077257D02*
X216320885Y-118777257D01*
X344788690Y-118396589D02*
X360384246Y-139702316D01*
X220220885Y-155077285D02*
G75*
G03*
X222220885Y-153077257I15J1999985D01*
G01*
X78156512Y-139698293D02*
X93752068Y-118392566D01*
X222220892Y-165600589D02*
G75*
G03*
X222435886Y-166502685I2000008J-11D01*
G01*
X177451276Y-104173886D02*
X214300478Y-103797874D01*
X111554779Y-106643849D02*
X132095654Y-98361824D01*
X327332663Y-106828884D02*
X344269421Y-117904015D01*
X357713005Y-163722477D02*
X338922423Y-177325361D01*
X216320943Y-109777257D02*
G75*
G03*
X218320885Y-111777257I1999957J-43D01*
G01*
X317503649Y-173695706D02*
G75*
G03*
X319292427Y-175776396I1997851J-91694D01*
G01*
X222220885Y-118777257D02*
X222220885Y-153077257D01*
X220220885Y-111777285D02*
G75*
G03*
X222220885Y-109777257I15J1999985D01*
G01*
X164519497Y-192214379D02*
X162161913Y-171555620D01*
X216105884Y-166502684D02*
X203401927Y-191640325D01*
X222220943Y-118777257D02*
G75*
G03*
X220220885Y-116777257I-2000043J-43D01*
G01*
X216320885Y-162077257D02*
X216320885Y-165600589D01*
X224241292Y-103797874D02*
X261090494Y-104173886D01*
X216320943Y-153077257D02*
G75*
G03*
X218320885Y-155077257I1999957J-43D01*
G01*
X99618348Y-177321319D02*
G75*
G03*
X101000180Y-177690330I1172752J1619819D01*
G01*
X283540261Y-97056800D02*
G75*
G03*
X282811685Y-97153871I-104661J-1997200D01*
G01*
X216320885Y-105797770D02*
X216320885Y-109777257D01*
X218320885Y-160077285D02*
G75*
G03*
X216320885Y-162077257I15J-2000015D01*
G01*
X254374422Y-190915221D02*
X237133900Y-192727273D01*
X279630465Y-164257962D02*
G75*
G03*
X277578878Y-165841941I-94865J-1997738D01*
G01*
X277578878Y-165841942D02*
X276410227Y-171368627D01*
X218320885Y-116777257D02*
X220220885Y-116777257D01*
X317761847Y-168067505D02*
G75*
G03*
X315858722Y-165978103I-1997947J91605D01*
G01*
X155730087Y-97153863D02*
G75*
G03*
X155001509Y-97056808I-623887J-1900237D01*
G01*
X155730085Y-97153870D02*
X176806965Y-104074186D01*
X78156531Y-139698307D02*
G75*
G03*
X77781313Y-141088665I1613669J-1181293D01*
G01*
X360759423Y-141092687D02*
G75*
G03*
X360384245Y-139702316I-1989023J209087D01*
G01*
X276410225Y-171368627D02*
G75*
G03*
X276379857Y-171555621I1956975J-413773D01*
G01*
X122682035Y-165974051D02*
G75*
G03*
X120778993Y-168063478I94965J-1997849D01*
G01*
X315858722Y-165978103D02*
X279630465Y-164257955D01*
X254938506Y-190936022D02*
G75*
G03*
X254374422Y-190915221I-355006J-1968278D01*
G01*
X94271340Y-117899998D02*
G75*
G03*
X93752067Y-118392566I1094660J-1674002D01*
G01*
X220220885Y-155077257D02*
X218320885Y-155077257D01*
X218320885Y-116777285D02*
G75*
G03*
X216320885Y-118777257I15J-2000015D01*
G01*
X222220943Y-162077257D02*
G75*
G03*
X220220885Y-160077257I-2000043J-43D01*
G01*
X162161910Y-171555620D02*
G75*
G03*
X162131542Y-171368626I-1987310J-226780D01*
G01*
X360759446Y-141092689D02*
X358529261Y-162311482D01*
X344788700Y-118396582D02*
G75*
G03*
X344269421Y-117904016I-1613800J-1181318D01*
G01*
X201407869Y-192727283D02*
G75*
G03*
X203401925Y-191640325I209031J1989083D01*
G01*
X201407870Y-192727273D02*
X184167348Y-190915221D01*
X183603265Y-190936028D02*
X166861626Y-193955847D01*
M02*
