%TF.GenerationSoftware,KiCad,Pcbnew,7.0.9*%
%TF.CreationDate,2024-02-19T09:25:46+08:00*%
%TF.ProjectId,ascend,61736365-6e64-42e6-9b69-6361645f7063,v1.2*%
%TF.SameCoordinates,Original*%
%TF.FileFunction,NonPlated,1,2,NPTH,Drill*%
%TF.FilePolarity,Positive*%
%FSLAX46Y46*%
G04 Gerber Fmt 4.6, Leading zero omitted, Abs format (unit mm)*
G04 Created by KiCad (PCBNEW 7.0.9) date 2024-02-19 09:25:46*
%MOMM*%
%LPD*%
G01*
G04 APERTURE LIST*
%TA.AperFunction,ComponentDrill*%
%ADD10C,0.500000*%
%TD*%
%TA.AperFunction,ComponentDrill*%
%ADD11C,1.750000*%
%TD*%
%TA.AperFunction,ComponentDrill*%
%ADD12C,1.900000*%
%TD*%
%TA.AperFunction,ComponentDrill*%
%ADD13C,3.200000*%
%TD*%
%TA.AperFunction,ComponentDrill*%
%ADD14C,3.450000*%
%TD*%
%TA.AperFunction,ComponentDrill*%
%ADD15C,4.000000*%
%TD*%
G04 APERTURE END LIST*
D10*
%TO.C,mouse-bite-5mm-slot*%
X216760885Y-153807257D03*
X216760885Y-154557257D03*
X216760885Y-155307257D03*
X216760885Y-156057257D03*
X216760885Y-156807257D03*
X216760885Y-157557257D03*
X216760885Y-158307257D03*
X216760885Y-159057257D03*
X216760885Y-159807257D03*
X216760885Y-160557257D03*
X216760885Y-160557257D03*
X216760885Y-161307257D03*
X216790885Y-110567770D03*
X216790885Y-111317770D03*
X216790885Y-112067770D03*
X216790885Y-112817770D03*
X216790885Y-113567770D03*
X216790885Y-114317770D03*
X216790885Y-115067770D03*
X216790885Y-115817770D03*
X216790885Y-116567770D03*
X216790885Y-117317770D03*
X216790885Y-117317770D03*
X216790885Y-118067770D03*
X221760885Y-153807257D03*
X221760885Y-154557257D03*
X221760885Y-155307257D03*
X221760885Y-156057257D03*
X221760885Y-156807257D03*
X221760885Y-157557257D03*
X221760885Y-158307257D03*
X221760885Y-159057257D03*
X221760885Y-159807257D03*
X221760885Y-160557257D03*
X221760885Y-160557257D03*
X221760885Y-161307257D03*
X221790885Y-110567770D03*
X221790885Y-111317770D03*
X221790885Y-112067770D03*
X221790885Y-112817770D03*
X221790885Y-113567770D03*
X221790885Y-114317770D03*
X221790885Y-115067770D03*
X221790885Y-115817770D03*
X221790885Y-116567770D03*
X221790885Y-117317770D03*
X221790885Y-117317770D03*
X221790885Y-118067770D03*
D11*
%TO.C,S1*%
X85377526Y-151087618D03*
X95481868Y-150025608D03*
%TO.C,S2*%
X101643800Y-128865591D03*
%TO.C,S3*%
X103577578Y-147264246D03*
%TO.C,S4*%
X105506125Y-165613176D03*
%TO.C,S2*%
X111748142Y-127803581D03*
%TO.C,S3*%
X113681920Y-146202236D03*
%TO.C,S4*%
X115610467Y-164551166D03*
%TO.C,S5*%
X119049435Y-117483858D03*
%TO.C,S6*%
X120983213Y-135882513D03*
%TO.C,S7*%
X122862036Y-154236669D03*
%TO.C,S5*%
X129153777Y-116421848D03*
%TO.C,S6*%
X131087555Y-134820503D03*
%TO.C,S7*%
X132966378Y-153174659D03*
%TO.C,S8*%
X139505545Y-109415119D03*
%TO.C,S9*%
X140473761Y-127889765D03*
%TO.C,S10*%
X141441975Y-146364413D03*
%TO.C,S8*%
X149651621Y-108883385D03*
%TO.C,S9*%
X150619837Y-127358031D03*
%TO.C,S10*%
X151588051Y-145832679D03*
%TO.C,S11*%
X160565885Y-115702257D03*
%TO.C,S12*%
X160565885Y-134202257D03*
%TO.C,S13*%
X160565885Y-152702257D03*
%TO.C,S11*%
X170725885Y-115702257D03*
%TO.C,S12*%
X170725885Y-134202257D03*
%TO.C,S13*%
X170725885Y-152702257D03*
%TO.C,S15*%
X179015885Y-117602257D03*
%TO.C,S16*%
X179065885Y-136102257D03*
%TO.C,S17*%
X179065885Y-154602257D03*
%TO.C,S15*%
X189175885Y-117602257D03*
%TO.C,S16*%
X189225885Y-136102257D03*
%TO.C,S17*%
X189225885Y-154602257D03*
%TO.C,S1_r1*%
X249365885Y-117602257D03*
%TO.C,S2_r1*%
X249365885Y-136102257D03*
%TO.C,S3_r1*%
X249365885Y-154602257D03*
%TO.C,S1_r1*%
X259525885Y-117602257D03*
%TO.C,S2_r1*%
X259525885Y-136102257D03*
%TO.C,S3_r1*%
X259525885Y-154602257D03*
%TO.C,S5_r1*%
X267865885Y-115702257D03*
%TO.C,S6_r1*%
X267865885Y-134202257D03*
%TO.C,S7_r1*%
X267865885Y-152702257D03*
%TO.C,S5_r1*%
X278025885Y-115702257D03*
%TO.C,S6_r1*%
X278025885Y-134202257D03*
%TO.C,S7_r1*%
X278025885Y-152702257D03*
%TO.C,S11_r1*%
X287000560Y-145835199D03*
%TO.C,S10_r1*%
X287968775Y-127360554D03*
%TO.C,S9_r1*%
X288936992Y-108885907D03*
%TO.C,S11_r1*%
X297146636Y-146366933D03*
%TO.C,S10_r1*%
X298114851Y-127892288D03*
%TO.C,S9_r1*%
X299083068Y-109417641D03*
%TO.C,S14_r1*%
X305598616Y-153260680D03*
%TO.C,S13_r1*%
X307532392Y-134862025D03*
%TO.C,S12_r1*%
X309466171Y-116463369D03*
%TO.C,S14_r1*%
X315702958Y-154322690D03*
%TO.C,S13_r1*%
X317636734Y-135924035D03*
%TO.C,S12_r1*%
X319570513Y-117525379D03*
%TO.C,S17_r1*%
X322982001Y-164614937D03*
%TO.C,S16_r1*%
X324938029Y-146243759D03*
%TO.C,S15_r1*%
X326871803Y-127845104D03*
%TO.C,S17_r1*%
X333086343Y-165676947D03*
%TO.C,S16_r1*%
X335042371Y-147305769D03*
%TO.C,S15_r1*%
X336976145Y-128907114D03*
%TO.C,S18_r1*%
X343115829Y-150039651D03*
X353220171Y-151101661D03*
D12*
%TO.C,S14*%
X168724952Y-182168430D03*
X179589524Y-180447650D03*
%TO.C,S18*%
X187014088Y-179798218D03*
X197953828Y-180948032D03*
%TO.C,S4_r1*%
X240384100Y-180940224D03*
X251323840Y-179790410D03*
%TO.C,S8_r1*%
X258747782Y-180459078D03*
X269612354Y-182179858D03*
D13*
%TO.C,H1*%
X88396799Y-131433898D03*
%TO.C,H3*%
X98874299Y-172391398D03*
%TO.C,H5*%
X145546799Y-157151398D03*
%TO.C,H2*%
X164028385Y-103922257D03*
%TO.C,H4*%
X204459313Y-180966421D03*
%TO.C,H6*%
X205010885Y-107152257D03*
%TO.C,H12*%
X233585885Y-107152257D03*
%TO.C,H10*%
X233986813Y-180966421D03*
%TO.C,H8*%
X273590885Y-104294757D03*
%TO.C,H11*%
X293041813Y-157153921D03*
%TO.C,H9*%
X338761813Y-172393921D03*
%TO.C,H7*%
X350191813Y-131436421D03*
D14*
%TO.C,S14*%
X174157238Y-181308040D03*
%TO.C,S18*%
X192483958Y-180373125D03*
%TO.C,S4_r1*%
X245853970Y-180365317D03*
%TO.C,S8_r1*%
X264180068Y-181319468D03*
D15*
%TO.C,S1*%
X90429697Y-150556613D03*
%TO.C,S2*%
X106695971Y-128334586D03*
%TO.C,S3*%
X108629749Y-146733241D03*
%TO.C,S4*%
X110558296Y-165082171D03*
%TO.C,S5*%
X124101606Y-116952853D03*
%TO.C,S6*%
X126035384Y-135351508D03*
%TO.C,S7*%
X127914207Y-153705664D03*
%TO.C,S8*%
X144578583Y-109149252D03*
%TO.C,S9*%
X145546799Y-127623898D03*
%TO.C,S10*%
X146515013Y-146098546D03*
%TO.C,S11*%
X165645885Y-115702257D03*
%TO.C,S12*%
X165645885Y-134202257D03*
%TO.C,S13*%
X165645885Y-152702257D03*
%TO.C,S15*%
X184095885Y-117602257D03*
%TO.C,S16*%
X184145885Y-136102257D03*
%TO.C,S17*%
X184145885Y-154602257D03*
%TO.C,S1_r1*%
X254445885Y-117602257D03*
%TO.C,S2_r1*%
X254445885Y-136102257D03*
%TO.C,S3_r1*%
X254445885Y-154602257D03*
%TO.C,S5_r1*%
X272945885Y-115702257D03*
%TO.C,S6_r1*%
X272945885Y-134202257D03*
%TO.C,S7_r1*%
X272945885Y-152702257D03*
%TO.C,S11_r1*%
X292073598Y-146101066D03*
%TO.C,S10_r1*%
X293041813Y-127626421D03*
%TO.C,S9_r1*%
X294010030Y-109151774D03*
%TO.C,S14_r1*%
X310650787Y-153791685D03*
%TO.C,S13_r1*%
X312584563Y-135393030D03*
%TO.C,S12_r1*%
X314518342Y-116994374D03*
%TO.C,S17_r1*%
X328034172Y-165145942D03*
%TO.C,S16_r1*%
X329990200Y-146774764D03*
%TO.C,S15_r1*%
X331923974Y-128376109D03*
%TO.C,S18_r1*%
X348168000Y-150570656D03*
M02*
